<svg xmlns="http://www.w3.org/2000/svg" width="1040" height="56" viewBox="0 0 1040 56">
  <g id="グループ_7203" data-name="グループ 7203" transform="translate(-440 -1655)">
    <path id="パス_13468" data-name="パス 13468" d="M0,0H152V56H0Z" transform="translate(884 1655)" fill="#fff"/>
    <path id="パス_13469" data-name="パス 13469" d="M-19.33-6.625a8.692,8.692,0,0,1-1.852,4.414A9.916,9.916,0,0,1-26.814.961q-.094.016-.094-.117a.063.063,0,0,1,.031-.062,11.592,11.592,0,0,0,4.461-3.492A10.092,10.092,0,0,0-20.8-7.266h-3.633a12.313,12.313,0,0,0-1.375.094l-.172-.586a9.808,9.808,0,0,0,1.5.125h3.727a26.568,26.568,0,0,0,.148-2.922q0-.5-.016-.883h-4.289a14.682,14.682,0,0,0-1.492.094l-.172-.586a12.113,12.113,0,0,0,1.68.125h9.742q.984-1.2,1.188-1.2a4.962,4.962,0,0,1,1.2.836q.531.422.531.57,0,.164-.211.164h-6.578q-.023,2.367-.172,3.8h3.484q.953-1.2,1.156-1.2A4.272,4.272,0,0,1-13.4-8q.508.43.508.578t-.211.156h-6.016a7.7,7.7,0,0,0,2.93,4.555A11.668,11.668,0,0,0-11.736-.789a.079.079,0,0,1,.063.086.091.091,0,0,1-.062.094,2.017,2.017,0,0,0-.836.453,2.247,2.247,0,0,0-.4.711q-.1.32-.25.32a2.809,2.809,0,0,1-.945-.352,10.263,10.263,0,0,1-3.141-2.461A10.013,10.013,0,0,1-19.33-6.625Zm20.592.7v2.641h1.1Q3.309-4.336,3.5-4.336A3.749,3.749,0,0,1,4.552-3.6Q5-3.219,5-3.07t-.211.156H1.262V.047H2.989Q4.02-1.039,4.208-1.039a3.958,3.958,0,0,1,1.086.766q.461.375.461.531T5.544.414H-4A7.12,7.12,0,0,0-5.042.508l-.18-.586A5.876,5.876,0,0,0-4.058.047H-.175V-2.914H-2.519a6.748,6.748,0,0,0-1.008.094L-3.7-3.406a5.5,5.5,0,0,0,1.133.125H-.175V-5.922H-2.019v.4q0,.563-.914.563-.641,0-.641-.562.094-1.992.094-4.586,0-1.187-.094-2.945,1,.453,1.664.828H3.145q.609-.7.789-.7a2.8,2.8,0,0,1,.938.609q.391.32.391.477,0,.219-.578.563v.93l.07,4.688q0,.594-.922.594-.586,0-.586-.516v-.336Zm0-.367H3.247V-8.945H1.262Zm0-3.023H3.247v-2.547H1.262ZM-2.019-6.289H-.175V-8.945H-2.019Zm0-3.023H-.175v-2.547H-2.019Zm-3.8,5.68q1.258-.438,2.148-.8a.032.032,0,0,1,.023-.008q.1,0,.1.125a.061.061,0,0,1-.023.055A18.14,18.14,0,0,1-8.019-1.437q-.016.688-.336.688-.187,0-.422-.43-.2-.375-.664-1.492a12.271,12.271,0,0,0,1.422-.3q.594-.156.758-.211V-7.3h-.711a5.124,5.124,0,0,0-.875.094l-.18-.586A4.68,4.68,0,0,0-8-7.664h.742v-3.789h-.9a5.257,5.257,0,0,0-.883.094l-.172-.586a4.4,4.4,0,0,0,1.008.125h2.25q.656-.867.867-.867a3.055,3.055,0,0,1,.922.609q.391.313.391.469t-.211.156H-5.823v3.789H-5.7q.531-.781.75-.781a2.356,2.356,0,0,1,.8.555q.32.3.32.438,0,.156-.211.156H-5.823ZM8.659-.75a6.741,6.741,0,0,0,.766-.109.612.612,0,0,0,.383-.289,2.173,2.173,0,0,0,.164-.875q.016-.266.016-1.273V-9.1q0-1.258-.023-1.539a1.511,1.511,0,0,0-.141-.547.651.651,0,0,0-.477-.3q-.164-.031-.773-.094-.109,0-.109-.219t.125-.211l1.266.039q.672.023,1.055.023.453,0,1.242-.031l1.055-.031q.141,0,.141.227,0,.18-.141.2a4.573,4.573,0,0,0-.773.117.62.62,0,0,0-.383.281A6.868,6.868,0,0,0,11.878-9.1v5.8q0,1.375.016,1.609a1.262,1.262,0,0,0,.148.539.66.66,0,0,0,.477.3q.156.031.773.094.141.016.141.2t-.164.2Q13-.359,12.48-.367,11.4-.4,10.917-.4L8.675-.352q-.125,0-.125-.2T8.659-.75ZM26.384-11.844q.094,1.219.273,2.781v.039a.19.19,0,0,1-.164.188.678.678,0,0,1-.094.008q-.094,0-.164-.141A6.813,6.813,0,0,0,24.8-10.977a3.086,3.086,0,0,0-2.047-.75,3.575,3.575,0,0,0-3.07,1.7,6.563,6.563,0,0,0-1.039,3.8,5.6,5.6,0,0,0,1.352,3.883,3.691,3.691,0,0,0,2.836,1.3,4.4,4.4,0,0,0,3.938-2.227.125.125,0,0,1,.117-.078.533.533,0,0,1,.2.063q.141.063.141.172A.252.252,0,0,1,27.2-3a5.092,5.092,0,0,1-4.7,2.906,5.837,5.837,0,0,1-4.562-1.922,6.015,6.015,0,0,1-1.5-4.172,5.826,5.826,0,0,1,1.953-4.578,6.051,6.051,0,0,1,4.172-1.508,8.483,8.483,0,0,1,2.031.258,5.9,5.9,0,0,0,1.3.211A3.185,3.185,0,0,0,26.384-11.844Z" transform="translate(960 1689)" fill="#111"/>
    <path id="パス_13470" data-name="パス 13470" d="M0,0H152V56H0Z" transform="translate(1328 1655)" fill="#c89932"/>
    <path id="パス_13471" data-name="パス 13471" d="M-17.358-7.891a12.973,12.973,0,0,1-.828,3.352A9.536,9.536,0,0,1-19.616-2.2a10.552,10.552,0,0,1-5.266,3.328q-.039.008-.086-.043a.155.155,0,0,1-.047-.105.053.053,0,0,1,.023-.047A11.041,11.041,0,0,0-19.842-4.5a13.137,13.137,0,0,0,.9-3.8H-23.2a13.756,13.756,0,0,0-1.453.094l-.18-.586a12.131,12.131,0,0,0,1.664.125h4.258q.125-1.414.125-2.961,0-.617-.062-1.484a15.105,15.105,0,0,1,1.914.328q.352.109.352.328t-.555.461a32.407,32.407,0,0,1-.141,3.328H-13.2q.945-1.234,1.148-1.234a4.651,4.651,0,0,1,1.156.867q.492.43.492.57,0,.164-.2.164h-6.516a10.082,10.082,0,0,0,2.984,5.281A10.537,10.537,0,0,0-10.123-.766a.078.078,0,0,1,.055.086.108.108,0,0,1-.07.117A1.855,1.855,0,0,0-11.256.719q-.094.32-.242.32a2.143,2.143,0,0,1-.992-.477,11.275,11.275,0,0,1-2.594-2.453A12.55,12.55,0,0,1-17.358-7.891ZM4.977-1.328A44.642,44.642,0,0,1-1.828.227,1.793,1.793,0,0,1-1.992.75a.22.22,0,0,1-.2.1q-.187,0-.312-.359-.109-.32-.516-1.9.617.063.992.063h.352a50.01,50.01,0,0,0,2.3-8.781,26.9,26.9,0,0,0,.289-2.789q1.727.375,2.133.523.336.125.336.313,0,.289-.633.477A48.784,48.784,0,0,1,.992-5.68,34.545,34.545,0,0,1-.992-1.359a55.791,55.791,0,0,0,5.852-.4A18.7,18.7,0,0,0,3.2-5.945a.023.023,0,0,1-.008-.016q0-.117.148-.117a.064.064,0,0,1,.047.016A19.257,19.257,0,0,1,6.242-2.734,4.211,4.211,0,0,1,6.984-.562a1.487,1.487,0,0,1-.3.977.814.814,0,0,1-.648.3A.64.64,0,0,1,5.461.383,3.352,3.352,0,0,1,5.117-.656ZM-5.086-7.1a12.955,12.955,0,0,1-2.3,1.953.053.053,0,0,1-.039.016q-.133,0-.133-.109a.069.069,0,0,1,.008-.031A16.263,16.263,0,0,0-4.32-10.484a12.805,12.805,0,0,0,.781-2.828q2.133.6,2.133.9,0,.25-.609.383A18.821,18.821,0,0,1-4.031-8.367a3.207,3.207,0,0,1,.68.156.2.2,0,0,1,.117.18q0,.18-.414.367v8.3q0,.672-.828.672-.7,0-.7-.578.094-1.75.094-4.242Zm23.428-4h1.742v-1.055a7.607,7.607,0,0,0-.094-1.172q2.016.172,2.016.445,0,.172-.445.438V-11.1h1.68q.6-.734.781-.734a3.026,3.026,0,0,1,.961.656q.4.359.4.508,0,.281-.531.3a1.02,1.02,0,0,0-.4.211q-.5.375-1.133.781.07.039.4.273.352.258.352.43,0,.133-.383.4v.43l.031,2.2q0,.688-.836.688a.657.657,0,0,1-.516-.164.751.751,0,0,1-.117-.477v-.062H19.256v2.109h3.328q.672-.75.844-.75a2.533,2.533,0,0,1,.883.539q.367.3.367.469,0,.117-.414.461v.563l.047,2.93q0,.7-.883.7a.694.694,0,0,1-.539-.164A.714.714,0,0,1,22.756.7V.227h-3.5V.758q0,.719-.852.719-.672,0-.672-.578l.086-7.375q0-1.3-.055-2.594a.944.944,0,0,1-.461.125.656.656,0,0,1-.75-.734.768.768,0,0,1,.516-.758,1.513,1.513,0,0,0,.891-1.422.079.079,0,0,1,.086-.062.091.091,0,0,1,.094.063A4.941,4.941,0,0,1,18.342-11.1Zm.047.367a2.078,2.078,0,0,1,.016.258,2.042,2.042,0,0,1-.172.859,9.374,9.374,0,0,1,1.133.656h2.773q.562-.625.727-.625a.54.54,0,0,1,.242.063q.148-.5.3-1.211Zm.867,7.547V-.141h3.5V-3.187Zm2.992-2.844V-8.594H19.256v2.563ZM12.694-.812A18.863,18.863,0,0,0,15-1.391a5.715,5.715,0,0,0-1.07-1.547.1.1,0,0,1-.016-.055.083.083,0,0,1,.094-.094h.016a4.841,4.841,0,0,1,2.117,1.125A1.884,1.884,0,0,1,16.8-.6a1.173,1.173,0,0,1-.258.8.727.727,0,0,1-.57.258A.453.453,0,0,1,15.608.3a1.594,1.594,0,0,1-.2-.477,6.792,6.792,0,0,0-.258-.8A23.582,23.582,0,0,1,11.506.82q-.063.539-.312.539-.156,0-.32-.391-.156-.359-.516-1.477.031,0,.977-.1V-4.844q0-2.367-.062-4.289a12.164,12.164,0,0,1-1.078.641h-.016q-.109,0-.109-.141a.053.053,0,0,1,.016-.039,15.892,15.892,0,0,0,2.18-2.8,7.8,7.8,0,0,0,.875-1.969q1.383.578,1.672.719.266.141.266.242,0,.219-.562.234a5.346,5.346,0,0,1,1.688.781,1.043,1.043,0,0,1,.414.828.8.8,0,0,1-.219.563.6.6,0,0,1-.437.2.428.428,0,0,1-.359-.141,4.727,4.727,0,0,1-.359-.711,4.334,4.334,0,0,0-.93-1.328,11.9,11.9,0,0,1-2.719,2.688q.461.2,1.164.594h.563v-.977a9.15,9.15,0,0,0-.062-.945q1.8.156,1.8.414,0,.156-.414.352v1.156H15q.531-.578.7-.578a2.1,2.1,0,0,1,.8.484q.32.25.32.414,0,.148-.383.414v.625l.031,3.453q0,.609-.781.609a.676.676,0,0,1-.5-.133.593.593,0,0,1-.109-.406v-.227H12.694Zm2.383-5.875V-8.4H12.694v1.711Zm-2.383.367v1.844h2.383V-6.32Z" transform="translate(1404 1689)" fill="#fff"/>
    <path id="パス_13472" data-name="パス 13472" d="M-24.628-5.811a20.388,20.388,0,0,0,1.641-2.646A8.629,8.629,0,0,0-22.345-9.9q1.565.718,1.565.937,0,.2-.458.2h-.082Q-22.481-7.4-22.878-7q-.383.383-1.312,1.189.793,0,2.393-.055a3.6,3.6,0,0,0-.608-1.189.061.061,0,0,1-.007-.027q0-.075.1-.075a.076.076,0,0,1,.034.007q1.764.957,1.764,1.982a.954.954,0,0,1-.2.629.558.558,0,0,1-.431.2.431.431,0,0,1-.41-.205,2.129,2.129,0,0,1-.178-.827l-.014-.157q-.308.109-.923.28v1.935L-22.625.67q0,.533-.738.533-.561,0-.561-.431.082-1.278.082-3.042v-2.7q-.506.109-1.483.267-.137.39-.308.39-.137,0-.253-.342t-.267-1.183q.362.027.745.027Zm5.715-2.659A8.526,8.526,0,0,1-20.766-6.3a.074.074,0,0,1-.041.014q-.123,0-.123-.089a.052.052,0,0,1,.007-.021,13.384,13.384,0,0,0,1.381-3.473,9.772,9.772,0,0,0,.335-1.8q1.914.492,1.914.745t-.554.335a14.135,14.135,0,0,1-.868,1.8H-15.4q.615-.725.772-.725t.793.588q.335.294.335.444,0,.109-.431.417-.082,2.755-.239,4.307a21.867,21.867,0,0,1-.485,3.015,2.143,2.143,0,0,1-.9,1.36,2.062,2.062,0,0,1-1.176.321.407.407,0,0,1-.294-.075.8.8,0,0,1-.109-.314,1.027,1.027,0,0,0-.458-.684,4.818,4.818,0,0,0-1.107-.424q-.055-.014-.055-.116t.055-.109q1.224.109,1.62.109a2.349,2.349,0,0,0,.9-.109.523.523,0,0,0,.232-.342,32.954,32.954,0,0,0,.684-7.342Zm-5.722-.772a14.18,14.18,0,0,0,.615-1.661,6.6,6.6,0,0,0,.205-.854q1.661.588,1.661.868,0,.232-.554.232A18.23,18.23,0,0,1-24.3-9.044a1.271,1.271,0,0,1,.663,1.06.891.891,0,0,1-.205.622.589.589,0,0,1-.451.191.533.533,0,0,1-.451-.164,2.829,2.829,0,0,1-.273-.718,3.37,3.37,0,0,0-.923-1.511.046.046,0,0,1-.021-.041q0-.1.1-.082A8.19,8.19,0,0,1-24.635-9.242Zm7.608,4.9a.991.991,0,0,1-.239.677.68.68,0,0,1-.526.246q-.437,0-.561-.615a9.868,9.868,0,0,0-.52-1.5,3.246,3.246,0,0,0-.6-.889.084.084,0,0,1-.014-.048.073.073,0,0,1,.082-.082h.014a3.98,3.98,0,0,1,1.764.991A1.749,1.749,0,0,1-17.026-4.341ZM-20.54-1.777a1,1,0,0,1-.212.663.6.6,0,0,1-.472.219.422.422,0,0,1-.41-.26,2.907,2.907,0,0,1-.191-.889,4.309,4.309,0,0,0-.622-1.894.039.039,0,0,1-.014-.027q0-.068.082-.068a.074.074,0,0,1,.041.014Q-20.54-2.905-20.54-1.777Zm-3.391-1.613q0,.185-.4.267A7.9,7.9,0,0,1-26.248.185.056.056,0,0,1-26.289.2a.079.079,0,0,1-.089-.089.052.052,0,0,1,.007-.021,11.142,11.142,0,0,0,.786-2.639,6.617,6.617,0,0,0,.116-1.244q0-.1.007-.226,1.073.314,1.333.431Q-23.931-3.5-23.931-3.391ZM-5.236-.308q-.95-.027-2.7-.027-1.846,0-2.769.027-.123,0-.15-.041a.381.381,0,0,1-.034-.2.862.862,0,0,1,.082-.39A28.483,28.483,0,0,1-8.353-4.525,21.186,21.186,0,0,0-6.917-6.5a3.245,3.245,0,0,0,.424-1.593,2.784,2.784,0,0,0-.342-1.5.982.982,0,0,0-.861-.5,1.156,1.156,0,0,0-1.162.813,3.065,3.065,0,0,0-.123,1.025.578.578,0,0,1-.376.5,1.439,1.439,0,0,1-.677.157q-.67,0-.67-.533a1.842,1.842,0,0,1,.362-1.012A3.041,3.041,0,0,1-9.31-10.1,3.225,3.225,0,0,1-7.7-10.514a3.006,3.006,0,0,1,2.256.82A2.3,2.3,0,0,1-4.8-8.039a3.088,3.088,0,0,1-.923,2.181q-.287.3-.957.875-.547.472-.82.725a21.313,21.313,0,0,0-1.654,1.62,5.788,5.788,0,0,0-.67.943h2.475A6.354,6.354,0,0,0-6.1-1.777a1.1,1.1,0,0,0,.485-.253,3.921,3.921,0,0,0,.766-1.08q.055-.1.123-.1a.4.4,0,0,1,.1.021q.144.048.144.144V-3Q-4.8-1.654-5.236-.308ZM6.89-9.044v2.126H8.818q.7-.882.882-.882a3.441,3.441,0,0,1,.923.615q.4.335.4.451,0,.137-.185.137H3.609a5.383,5.383,0,0,0-.827.082l-.15-.513a4.386,4.386,0,0,0,.937.109H5.557V-9.044H3.971a4.862,4.862,0,0,0-.793.082l-.157-.513a4.2,4.2,0,0,0,.923.109H5.557v-1.189a9.463,9.463,0,0,0-.075-1.107q1.859.171,1.859.451,0,.205-.451.376v1.47H8.2q.69-.868.868-.868a3.452,3.452,0,0,1,.923.6q.41.328.41.451t-.185.137ZM8.783-4.218V-2.68L8.825-.437a2.2,2.2,0,0,1-.075.677A.969.969,0,0,1,8.5.608a1.822,1.822,0,0,1-1.347.52A.211.211,0,0,1,6.931.943a1.076,1.076,0,0,0-.485-.8,4.249,4.249,0,0,0-1.128-.4q-.048-.014-.048-.1t.048-.075q.943.055,1.914.055.253,0,.253-.226V-4.218H3.643a5.256,5.256,0,0,0-.82.082l-.157-.513a4.452,4.452,0,0,0,.937.109H7.485v-.615a9.553,9.553,0,0,0-.075-1.121,11.671,11.671,0,0,1,1.477.2q.328.082.328.226,0,.171-.431.39v.923h.335q.608-.725.779-.725a2.482,2.482,0,0,1,.759.52q.308.26.308.39t-.178.137Zm-9.1,2.146v.882q0,.52-.745.52-.574,0-.574-.437l.062-6.029q0-2.324-.089-3.883A14.625,14.625,0,0,1-.219-10.3h1.2q.533-.643.684-.643a2.209,2.209,0,0,1,.772.479q.308.226.308.376t-.376.431V-8.34L2.44-1.682q0,.547-.772.547-.526,0-.526-.431v-.506Zm1.456-.321V-6.146H-.315v3.753Zm0-4.074V-9.98H-.315v3.514ZM6.083-2q0,.868-.772.868a.467.467,0,0,1-.424-.232,2.367,2.367,0,0,1-.246-.663,2.523,2.523,0,0,0-.82-1.395A.059.059,0,0,1,3.8-3.466q0-.075.089-.075H3.9Q6.083-3.1,6.083-2Zm15.058.841H18.2V-.67a.466.466,0,0,1-.2.431,1.046,1.046,0,0,1-.533.1q-.54,0-.54-.437l.041-2.81q0-1.538-.075-2.632a12.072,12.072,0,0,1,1.429.684h2.652q.54-.6.684-.6a1.8,1.8,0,0,1,.745.465q.335.26.335.4t-.39.39v.629l.014,3.179q0,.533-.718.533-.5,0-.5-.424Zm0-.321V-3.165H18.2v1.682Zm0-2V-5.011H18.2v1.524Zm3.24-3.6H21.613v.068q0,.52-.7.52-.554,0-.554-.417l.027-3.268q0-.868-.062-1.579a15.5,15.5,0,0,1,1.442.711h2.5q.567-.629.731-.629a2.272,2.272,0,0,1,.772.506q.321.28.321.417,0,.191-.376.4v1.682l.014,8.545a1.249,1.249,0,0,1-.28.841,1.594,1.594,0,0,1-1.224.4q-.232,0-.253-.2a.987.987,0,0,0-.362-.731,3.155,3.155,0,0,0-1.025-.4q-.048-.014-.048-.1t.048-.082q1.06.068,1.627.068.171,0,.171-.2Zm0-.321V-8.962H21.613V-7.4Zm0-1.88v-1.442H21.613v1.442Zm-6.59,2.2H15.078V.656q0,.547-.8.547Q13.7,1.2,13.7.7q.089-2.659.089-6.2,0-3.835-.1-6.255a12.151,12.151,0,0,1,1.483.711h2.488q.554-.629.7-.629a2.291,2.291,0,0,1,.759.492q.308.246.308.39,0,.164-.41.417v.561l.027,2.851q0,.472-.759.472-.5,0-.5-.41Zm0-.321V-8.962H15.078V-7.4Zm0-1.88v-1.442H15.078v1.442Z" transform="translate(738 1703)" fill="#fff"/>
    <path id="パス_13473" data-name="パス 13473" d="M0,0H152V56H0Z" transform="translate(440 1655)" fill="#914831"/>
    <path id="パス_13474" data-name="パス 13474" d="M-18.623-11.219h3.3q.758-.812.922-.812.18,0,.977.719.4.352.4.523a.272.272,0,0,1-.141.258,3.383,3.383,0,0,1-.562.211,16.823,16.823,0,0,1-5.5,5.664l.031.016h5.344q.672-.766.844-.766a2.67,2.67,0,0,1,.9.609q.367.32.367.477t-.445.461V-3.1l.063,3.758q0,.625-.961.625a.756.756,0,0,1-.531-.141.583.583,0,0,1-.125-.422V.3h-5.562V.688q0,.625-.914.625a.741.741,0,0,1-.539-.148A.573.573,0,0,1-20.9.734q.1-1.6.1-3.953a5.459,5.459,0,0,0-.023-.594,23.907,23.907,0,0,1-3.906,1.461q-.109.023-.109-.133a.063.063,0,0,1,.031-.062,20.611,20.611,0,0,0,5.859-3.742,1.008,1.008,0,0,1-.172.031q-.461,0-.672-.781A4.133,4.133,0,0,0-20.8-8.867,15,15,0,0,1-24.28-6.781a.06.06,0,0,1-.023.008.11.11,0,0,1-.125-.125.053.053,0,0,1,.016-.039,14.422,14.422,0,0,0,4.094-4.4,9.668,9.668,0,0,0,1.008-2.148,10.628,10.628,0,0,1,1.633.453q.32.148.32.344,0,.266-.609.43Q-18.17-11.9-18.623-11.219Zm-.273.367a12.564,12.564,0,0,1-1.711,1.828,4.018,4.018,0,0,1,1.719.836,1.359,1.359,0,0,1,.523,1.016.934.934,0,0,1-.1.438,16.839,16.839,0,0,0,3.219-4.117ZM-13.748-.062V-4.273h-5.562V-.062ZM.625-9.086v3.68H3.2q.687-.812.859-.812a3.116,3.116,0,0,1,.977.672q.414.352.414.508,0,.219-.523.516v1.336L4.977.7q0,.656-.992.656-.656,0-.656-.562V.109H-3.445V.734q0,.625-.992.625-.641,0-.641-.547l.047-5.242q0-1.039-.047-1.891.961.438,1.789.914H-.945v-3.68h-4.82a11.493,11.493,0,0,0-1.312.094l-.172-.586a8.481,8.481,0,0,0,1.406.125h4.9v-2.078a17.591,17.591,0,0,0-.078-1.859q2.227.2,2.227.516,0,.273-.578.461v2.961H4.4q.992-1.187,1.188-1.187a4.841,4.841,0,0,1,1.18.82q.531.422.531.578t-.211.156Zm2.7,8.828V-5.039H-3.445V-.258ZM16.412-5.3h.719q2.836-.031,3.984-.156a4.185,4.185,0,0,0-1.5-1.328.046.046,0,0,1-.023-.039.142.142,0,0,1,.047-.1.1.1,0,0,1,.086-.039q3.531.617,3.531,2.273a.978.978,0,0,1-.191.625.6.6,0,0,1-.5.242.651.651,0,0,1-.492-.2,4.609,4.609,0,0,1-.516-.75l-.172-.289A53.023,53.023,0,0,1,14.67-3.914q-.172.508-.4.508-.18,0-.3-.4-.109-.344-.359-1.555.742.063,1.391.063h.719a11.539,11.539,0,0,0,.563-2.141H13.2A20.71,20.71,0,0,1,12.67-3.5,10.7,10.7,0,0,1,10.256.945a.053.053,0,0,1-.039.016.11.11,0,0,1-.125-.125A.06.06,0,0,1,10.1.813a13.944,13.944,0,0,0,1.289-4.367,51.27,51.27,0,0,0,.336-6.766q0-1.523-.078-3.039,1.039.469,1.844.914h8.57q.672-.781.844-.781t.883.609q.352.3.352.461,0,.234-.445.508v.547l.031,1.578q0,.547-.9.547a.7.7,0,0,1-.516-.133.717.717,0,0,1-.125-.477H13.28L13.233-7.8h8.922q.687-.93.9-.93a3.694,3.694,0,0,1,1.039.656q.445.336.445.484t-.211.156H18.108A11.46,11.46,0,0,1,16.412-5.3Zm5.773-4.656v-2.125H13.3v2.125ZM18.9-1.906V.352h3.039q.906-1.117,1.1-1.117a4.8,4.8,0,0,1,1.172.781q.508.406.508.547,0,.156-.2.156H13.389A7.824,7.824,0,0,0,12.3.813l-.18-.586a8.4,8.4,0,0,0,1.391.125H17.42V-1.906H14.858a8.98,8.98,0,0,0-1.164.094l-.18-.586a10.14,10.14,0,0,0,1.539.125H17.42v-.781a6.939,6.939,0,0,0-.094-1.172q2.055.2,2.055.516,0,.2-.477.4v1.039h2.383q.8-.914.992-.914a3.771,3.771,0,0,1,1.047.641q.445.336.445.484t-.211.156Z" transform="translate(516 1689)" fill="#fff"/>
    <path id="パス_12685" data-name="パス 12685" d="M-3616.505,12067.5H-3876v-1h259.495Z" transform="translate(4482 -10384)" fill="#fff"/>
    <path id="パス_13475" data-name="パス 13475" d="M4,0,8,7H0Z" transform="translate(870 1679) rotate(90)" fill="#fff"/>
    <path id="パス_13476" data-name="パス 13476" d="M-16.227-2.721a11.318,11.318,0,0,1-2.81,2.2A15.536,15.536,0,0,1-22.065.67q-.034.007-.072-.044A.177.177,0,0,1-22.174.52a.049.049,0,0,1,.027-.048,11.855,11.855,0,0,0,5.106-4.2h-1.8v.137q0,.506-.766.506-.533,0-.533-.4.082-1.347.082-3.261,0-1.21-.082-2.03.731.294,1.422.629h2.454V-9.632h-4.313a9.037,9.037,0,0,0-1.08.082l-.15-.513a7.421,7.421,0,0,0,1.23.109h4.313v-.082a10.976,10.976,0,0,0-.1-1.723,13.75,13.75,0,0,1,1.524.226q.246.075.246.232t-.4.355v.991h3.486q.752-.882.923-.882a3.762,3.762,0,0,1,.984.615q.431.321.431.451t-.178.137H-15v1.483h2.721q.561-.547.7-.547a2.121,2.121,0,0,1,.745.492q.308.267.308.4,0,.171-.383.376v.636l.062,3.172q0,.506-.772.506a.619.619,0,0,1-.444-.116.506.506,0,0,1-.1-.362v-.137h-2.646a6.542,6.542,0,0,0,2.707,2.044,9.178,9.178,0,0,0,3.261.868q.055,0,.055.068t-.055.082a1.216,1.216,0,0,0-.9.916q-.082.4-.28.4a1.974,1.974,0,0,1-.561-.185,10.751,10.751,0,0,1-2.468-1.538,9.652,9.652,0,0,1-2-2.55q.014.39.1,2.857.041,1.271.041,1.47,0,.52-.848.52-.574,0-.574-.451,0-.171.041-1.422Q-16.248-1.928-16.227-2.721Zm-.041-1.326V-5.838h-2.577v1.791Zm1.271,0h2.83V-5.838H-15Zm0-3.78v1.668h2.83V-7.827Zm-1.271,0h-2.577v1.668h2.577ZM-.9-9.816H1.989q.663-.711.807-.711T3.65-9.9Q4-9.591,4-9.44a.238.238,0,0,1-.123.226,2.96,2.96,0,0,1-.492.185A14.72,14.72,0,0,1-1.429-4.074l.027.014H3.274q.588-.67.738-.67A2.336,2.336,0,0,1,4.8-4.2q.321.28.321.417t-.39.4v.663L4.785.574q0,.547-.841.547A.661.661,0,0,1,3.479,1,.511.511,0,0,1,3.37.629V.267H-1.5V.6q0,.547-.8.547a.649.649,0,0,1-.472-.13A.5.5,0,0,1-2.885.643q.089-1.4.089-3.459a4.776,4.776,0,0,0-.021-.52A20.919,20.919,0,0,1-6.234-2.058q-.1.021-.1-.116A.055.055,0,0,1-6.3-2.229,18.035,18.035,0,0,0-1.176-5.5a.882.882,0,0,1-.15.027q-.4,0-.588-.684a3.616,3.616,0,0,0-.882-1.6A13.124,13.124,0,0,1-5.845-5.934a.052.052,0,0,1-.021.007.1.1,0,0,1-.109-.109.046.046,0,0,1,.014-.034A12.619,12.619,0,0,0-2.379-9.919,8.459,8.459,0,0,0-1.5-11.8a9.3,9.3,0,0,1,1.429.4q.28.13.28.3,0,.232-.533.376Q-.5-10.411-.9-9.816Zm-.239.321a10.994,10.994,0,0,1-1.5,1.6,3.516,3.516,0,0,1,1.5.731,1.189,1.189,0,0,1,.458.889.817.817,0,0,1-.089.383A14.734,14.734,0,0,0,2.058-9.5Zm4.5,9.44V-3.739H-1.5V-.055ZM10.813-3.09v1.114L10.84.492q0,.574-.772.574-.574,0-.574-.506.089-2.912.089-7.759,0-3.24-.082-4.293.6.239,1.456.643h1.422q.492-.588.649-.588t.766.588q.321.3.321.444,0,.232-.431.369A15.614,15.614,0,0,1,11.6-6.959a6.012,6.012,0,0,1,1.538,1.688,3.512,3.512,0,0,1,.335,1.62,1.913,1.913,0,0,1-.492,1.442,1.488,1.488,0,0,1-1.1.39q-.191,0-.246-.075a.781.781,0,0,1-.082-.287,1.313,1.313,0,0,0-.212-.622A1.071,1.071,0,0,0,10.813-3.09Zm0-.2q1,.041,1.073.041a.4.4,0,0,0,.294-.1,1.365,1.365,0,0,0,.157-.813,4.123,4.123,0,0,0-.246-1.524A4.977,4.977,0,0,0,11.319-6.9a14.906,14.906,0,0,0,1.135-3.623H10.813Zm7.362,1.634A9.959,9.959,0,0,1,13.6.964q-.1.021-.1-.137A.053.053,0,0,1,13.52.779a11.19,11.19,0,0,0,4.013-3.37A13.29,13.29,0,0,1,16.09-6.863h-.41a16.752,16.752,0,0,1-.574,3.726,7.113,7.113,0,0,1-1.244,2.42A7.338,7.338,0,0,1,12.05.957a.076.076,0,0,1-.034.007Q11.9.964,11.9.854a.061.061,0,0,1,.007-.027A8.268,8.268,0,0,0,14.06-3.4a31.889,31.889,0,0,0,.349-5.517q0-.964-.1-2.393a11.558,11.558,0,0,1,1.579.813h3.671q.766-.9.923-.9a3.226,3.226,0,0,1,.95.615q.4.321.4.465t-.205.137H15.749v.362q0,1.586-.055,2.632H19.18q.636-.725.786-.725a2.782,2.782,0,0,1,.827.588q.321.267.321.444t-.437.4A10.612,10.612,0,0,1,18.9-2.522a7.289,7.289,0,0,0,3.322,1.88q.041.007.041.062a.112.112,0,0,1-.068.116,1.2,1.2,0,0,0-.5.362,3.787,3.787,0,0,0-.314.745Q21.3.9,21.17.9A1.956,1.956,0,0,1,20.4.472,10.155,10.155,0,0,1,18.175-1.654Zm-1.8-5.209a10.265,10.265,0,0,0,1.716,3.4,10.36,10.36,0,0,0,1.183-3.4Z" transform="translate(738 1673)" fill="#fff"/>
    <path id="パス_13477" data-name="パス 13477" d="M-21.282-5.811a20.388,20.388,0,0,0,1.641-2.646A8.629,8.629,0,0,0-19-9.9q1.565.718,1.565.937,0,.2-.458.2h-.082Q-19.135-7.4-19.532-7q-.383.383-1.312,1.189.793,0,2.393-.055a3.6,3.6,0,0,0-.608-1.189.061.061,0,0,1-.007-.027q0-.075.1-.075a.076.076,0,0,1,.034.007q1.764.957,1.764,1.982a.954.954,0,0,1-.2.629.558.558,0,0,1-.431.2.431.431,0,0,1-.41-.205,2.129,2.129,0,0,1-.178-.827L-18.4-5.53q-.308.109-.923.28v1.935L-19.279.67q0,.533-.738.533-.561,0-.561-.431Q-20.5-.506-20.5-2.27v-2.7Q-21-4.86-21.979-4.7q-.137.39-.308.39-.137,0-.253-.342t-.267-1.183q.362.027.745.027Zm5.715-2.659A8.526,8.526,0,0,1-17.419-6.3a.074.074,0,0,1-.041.014q-.123,0-.123-.089a.052.052,0,0,1,.007-.021A13.384,13.384,0,0,0-16.2-9.871a9.772,9.772,0,0,0,.335-1.8q1.914.492,1.914.745t-.554.335a14.135,14.135,0,0,1-.868,1.8h3.315q.615-.725.772-.725t.793.588q.335.294.335.444,0,.109-.431.417-.082,2.755-.239,4.307a21.867,21.867,0,0,1-.485,3.015,2.143,2.143,0,0,1-.9,1.36,2.062,2.062,0,0,1-1.176.321.407.407,0,0,1-.294-.075.8.8,0,0,1-.109-.314,1.027,1.027,0,0,0-.458-.684,4.818,4.818,0,0,0-1.107-.424Q-15.4-.574-15.4-.677t.055-.109q1.224.109,1.62.109a2.349,2.349,0,0,0,.9-.109.523.523,0,0,0,.232-.342A32.954,32.954,0,0,0-11.91-8.47Zm-5.722-.772a14.18,14.18,0,0,0,.615-1.661,6.6,6.6,0,0,0,.205-.854q1.661.588,1.661.868,0,.232-.554.232a18.23,18.23,0,0,1-1.593,1.613,1.271,1.271,0,0,1,.663,1.06.891.891,0,0,1-.205.622.589.589,0,0,1-.451.191.533.533,0,0,1-.451-.164,2.829,2.829,0,0,1-.273-.718,3.37,3.37,0,0,0-.923-1.511.046.046,0,0,1-.021-.041q0-.1.1-.082A8.19,8.19,0,0,1-21.288-9.242Zm7.608,4.9a.991.991,0,0,1-.239.677.68.68,0,0,1-.526.246q-.438,0-.561-.615a9.868,9.868,0,0,0-.52-1.5,3.246,3.246,0,0,0-.6-.889.084.084,0,0,1-.014-.048.073.073,0,0,1,.082-.082h.014a3.98,3.98,0,0,1,1.764.991A1.749,1.749,0,0,1-13.68-4.341Zm-3.514,2.563a1,1,0,0,1-.212.663.6.6,0,0,1-.472.219.422.422,0,0,1-.41-.26,2.907,2.907,0,0,1-.191-.889A4.309,4.309,0,0,0-19.1-3.937a.039.039,0,0,1-.014-.027q0-.068.082-.068a.074.074,0,0,1,.041.014Q-17.194-2.905-17.194-1.777Zm-3.391-1.613q0,.185-.4.267A7.9,7.9,0,0,1-22.9.185.056.056,0,0,1-22.943.2a.079.079,0,0,1-.089-.089.052.052,0,0,1,.007-.021,11.142,11.142,0,0,0,.786-2.639,6.617,6.617,0,0,0,.116-1.244q0-.1.007-.226,1.073.314,1.333.431Q-20.584-3.5-20.584-3.391ZM-1.889-.308q-.95-.027-2.7-.027-1.846,0-2.769.027-.123,0-.15-.041a.381.381,0,0,1-.034-.2.862.862,0,0,1,.082-.39A28.483,28.483,0,0,1-5.007-4.525,21.186,21.186,0,0,0-3.571-6.5a3.245,3.245,0,0,0,.424-1.593,2.784,2.784,0,0,0-.342-1.5.982.982,0,0,0-.861-.5,1.156,1.156,0,0,0-1.162.813,3.065,3.065,0,0,0-.123,1.025.578.578,0,0,1-.376.5,1.439,1.439,0,0,1-.677.157q-.67,0-.67-.533A1.842,1.842,0,0,1-7-9.146a3.041,3.041,0,0,1,1.032-.95,3.225,3.225,0,0,1,1.613-.417,3.006,3.006,0,0,1,2.256.82,2.3,2.3,0,0,1,.643,1.654,3.088,3.088,0,0,1-.923,2.181q-.287.3-.957.875-.547.472-.82.725a21.313,21.313,0,0,0-1.654,1.62,5.788,5.788,0,0,0-.67.943H-4a6.354,6.354,0,0,0,1.251-.082,1.1,1.1,0,0,0,.485-.253A3.921,3.921,0,0,0-1.5-3.11q.055-.1.123-.1a.4.4,0,0,1,.1.021q.144.048.144.144V-3Q-1.452-1.654-1.889-.308ZM4.364-10.514A2.612,2.612,0,0,1,6.757-8.921,7.823,7.823,0,0,1,7.474-5.3,7.212,7.212,0,0,1,6.538-1.3,2.5,2.5,0,0,1,4.364-.055a2.607,2.607,0,0,1-2.42-1.552,7.758,7.758,0,0,1-.711-3.616,7.38,7.38,0,0,1,.93-4.054A2.524,2.524,0,0,1,4.364-10.514Zm0,.431q-.9,0-1.237,1.483a16.2,16.2,0,0,0-.253,3.336A13.642,13.642,0,0,0,3.216-1.62Q3.571-.485,4.364-.485q.875,0,1.217-1.47a16.023,16.023,0,0,0,.253-3.309A14.1,14.1,0,0,0,5.5-8.935Q5.15-10.083,4.364-10.083ZM16.011-5.571a7.367,7.367,0,0,1-1.846,4.553,8.439,8.439,0,0,1-3.979,2.126q-.1.021-.1-.123a.053.053,0,0,1,.021-.048,8.935,8.935,0,0,0,3.329-2.905,8.194,8.194,0,0,0,1.114-3.6H13.5a6.885,6.885,0,0,0-1.176.109l-.157-.561a6.786,6.786,0,0,0,1.292.13h5.3q.629-.615.766-.615.157,0,.8.561.335.314.335.444t-.4.41a18.141,18.141,0,0,1-.731,4.71,2.174,2.174,0,0,1-.643.957,1.843,1.843,0,0,1-1.2.39A.663.663,0,0,1,17.3.9.6.6,0,0,1,17.16.574a.979.979,0,0,0-.472-.608A5.269,5.269,0,0,0,15.56-.485q-.041-.007-.041-.1,0-.157.068-.144a15.618,15.618,0,0,0,2.078.232.523.523,0,0,0,.472-.267,3.685,3.685,0,0,0,.314-.9,23.348,23.348,0,0,0,.458-3.917ZM23.127-6.72q.041.007.041.089,0,.109-.062.123a.884.884,0,0,0-.54.314,1.946,1.946,0,0,0-.287.663q-.089.4-.232.4a1.556,1.556,0,0,1-.615-.308A9.7,9.7,0,0,1,19.921-6.72,7.932,7.932,0,0,1,18.67-8.456a19.811,19.811,0,0,1-.991-2.256.71.71,0,0,0-.185-.253.177.177,0,0,1-.109-.15q0-.089.226-.178a.873.873,0,0,1,.321-.075q.137,0,.137.109L18-11.006a.8.8,0,0,0,.082.308,7.3,7.3,0,0,0,2.058,2.6A7.4,7.4,0,0,0,23.127-6.72Zm-7.267-3.89q0,.267-.574.308a13.306,13.306,0,0,1-2.413,3.356,12.228,12.228,0,0,1-2.905,2.01.028.028,0,0,1-.021.007q-.109,0-.109-.123a.046.046,0,0,1,.014-.034,12.94,12.94,0,0,0,3.391-4.348,9.159,9.159,0,0,0,.725-2.044Q15.861-10.855,15.861-10.609Z" transform="translate(1182 1707)" fill="#fff"/>
    <path id="パス_13478" data-name="パス 13478" d="M4,0,8,7H0Z" transform="translate(1314 1681) rotate(90)" fill="#fff"/>
    <path id="パス_12685-2" data-name="パス 12685" d="M-3616.505,12067.5H-3876v-1h259.495Z" transform="translate(4926 -10382)" fill="#fff"/>
    <path id="パス_13479" data-name="パス 13479" d="M-37.016-2.229v-3.3h-1.613a5.361,5.361,0,0,0-.848.082l-.157-.513a4.7,4.7,0,0,0,.964.109h1.654V-8.415h-1.948a6.283,6.283,0,0,0-.9.082l-.15-.513a5.42,5.42,0,0,0,1.032.109h4.669q.656-.772.827-.772a2.965,2.965,0,0,1,.868.547q.362.287.362.41t-.185.137H-35.7v2.563h1.121q.554-.772.738-.772a2.719,2.719,0,0,1,.813.533q.349.287.349.424t-.178.137H-35.7v3.3h1.736q.567-.827.759-.827a2.752,2.752,0,0,1,.841.588q.349.287.349.424t-.185.137h-6.986a5.39,5.39,0,0,0-.854.082l-.157-.513a4.883,4.883,0,0,0,.991.109Zm3.835-1.477a.665.665,0,0,1-.205.5.576.576,0,0,1-.424.171.444.444,0,0,1-.328-.116,1.223,1.223,0,0,1-.191-.376,3.237,3.237,0,0,0-.889-1.326.059.059,0,0,1-.021-.041q0-.062.075-.062h.021Q-33.181-4.607-33.181-3.705ZM-40.666.041V.39q0,.561-.813.561-.561,0-.561-.465.089-2.659.089-7.246,0-2.823-.075-4.819a13.5,13.5,0,0,1,1.572.813h8.613q.636-.711.786-.711t.8.561q.321.3.321.431,0,.2-.417.444v1.709q0,5.086.082,8.654,0,.574-.841.574-.574,0-.574-.451v-.4Zm8.982-.321V-10.445h-8.982V-.28Zm13.445-8.873a9.976,9.976,0,0,1-1.429,1.538h2.488q.506-.629.663-.629a2.121,2.121,0,0,1,.745.492q.308.267.308.4,0,.178-.369.431v.868l.048,4.437q0,.6-.745.6-.574,0-.574-.506v-.109h-4.1V-1.5q0,.533-.7.533-.574,0-.574-.492l.068-3.172q0-2.146-.075-3.678a15.273,15.273,0,0,1,1.415.7h.9a7.057,7.057,0,0,0,.294-1.538H-22.47a6.283,6.283,0,0,0-.9.082l-.15-.513a5.48,5.48,0,0,0,1.046.109h3.814a12.054,12.054,0,0,0,.431-1.183,8.961,8.961,0,0,0,.267-1.162q1.764.561,1.764.8,0,.26-.656.294a6.787,6.787,0,0,1-1.36,1.251H-16.5q.738-.868.909-.868a3.348,3.348,0,0,1,.909.6q.4.335.4.451,0,.137-.185.137ZM-17.1-1.948V-3.582h-4.1v1.634Zm0-1.955V-5.462h-4.1V-3.9Zm0-1.88V-7.294h-4.1v1.511ZM-24.063-9.5a.85.85,0,0,1-.232.629.717.717,0,0,1-.54.212.487.487,0,0,1-.41-.2,2.346,2.346,0,0,1-.273-.67,3.674,3.674,0,0,0-.9-1.634.073.073,0,0,1-.014-.041q0-.089.109-.089h.021Q-24.063-10.732-24.063-9.5Zm4.327-.9a.7.7,0,0,1-.212.533.658.658,0,0,1-.465.178.462.462,0,0,1-.362-.137,1.158,1.158,0,0,1-.185-.41,3.49,3.49,0,0,0-.731-1.395.112.112,0,0,1-.007-.034q0-.1.109-.1h.014Q-19.736-11.266-19.736-10.4ZM-14.1-.561a.977.977,0,0,0-.547.786.98.98,0,0,1-.1.417.339.339,0,0,1-.239.082A29.824,29.824,0,0,1-18.4.854,18.26,18.26,0,0,1-21.418.663,4.265,4.265,0,0,1-23.045.068a3.462,3.462,0,0,1-1.34-2A11.31,11.31,0,0,1-26,.164a1.779,1.779,0,0,1,.021.246q0,.4-.253.4-.3,0-1.039-1.709a5.858,5.858,0,0,0,1.08-.4,6.318,6.318,0,0,0,.9-.513V-5.544h-.971a2.981,2.981,0,0,0-.766.109L-27.187-6a3.467,3.467,0,0,0,.923.13h.882q.567-.643.718-.643a2.339,2.339,0,0,1,.766.485q.321.267.321.41,0,.1-.417.444v3.3a3.027,3.027,0,0,0,.629.813,2.172,2.172,0,0,0,.7.369,11.679,11.679,0,0,0,3.179.321,49.685,49.685,0,0,0,5.38-.355q.055-.014.055.068A.09.09,0,0,1-14.1-.561Zm6.2-10.021q.226,0,.226.164-.007.376-.034,1.641-.021.841-.021,1.456v4.382q0,1.094.027,1.388a1.356,1.356,0,0,0,.13.472A.6.6,0,0,0-7.1-.8q.137.027.725.089.123.014.123.205t-.123.2q-.978-.041-2.071-.041-1.135,0-2.126.041-.144,0-.144-.2t.144-.205a5.9,5.9,0,0,0,.8-.1.51.51,0,0,0,.383-.273,6.434,6.434,0,0,0,.144-1.859V-7.95a2.306,2.306,0,0,0-.144-1.073q-.075-.13-.328-.13a1.838,1.838,0,0,0-.492.082l-.547.15a.481.481,0,0,1-.1.021q-.1,0-.144-.171a.657.657,0,0,1-.021-.123q0-.082.15-.13Q-9.47-9.837-7.9-10.582Zm6.527,5.291a2.013,2.013,0,0,1,.868-.9,2.109,2.109,0,0,1,.991-.239,2.446,2.446,0,0,1,2.105.991,3.523,3.523,0,0,1,.595,2.119,3.271,3.271,0,0,1-.923,2.44A2.891,2.891,0,0,1,.14-.055a2.859,2.859,0,0,1-2.413-1.2,4.474,4.474,0,0,1-.793-2.741,5.881,5.881,0,0,1,.9-3.22A8.234,8.234,0,0,1-.222-9.283a9.289,9.289,0,0,1,1.312-.841,5.32,5.32,0,0,1,1.025-.458q.178,0,.376.267a.446.446,0,0,1,.109.26q0,.157-.137.157a3.681,3.681,0,0,0-2.071.7,5.323,5.323,0,0,0-1.846,3.91ZM.1-5.879q-.9,0-1.367,1.162a2.092,2.092,0,0,0-.185.868A5.577,5.577,0,0,0-.967-1.21,1.239,1.239,0,0,0,.14-.485q.725,0,1.094-.916a5.093,5.093,0,0,0,.3-1.9,3.93,3.93,0,0,0-.383-1.914A1.152,1.152,0,0,0,.1-5.879Zm10.041.6A2.063,2.063,0,0,1,8.287-4.238a2.535,2.535,0,0,1-2.078-.943,3.172,3.172,0,0,1-.663-2.071,3.251,3.251,0,0,1,.943-2.434,2.93,2.93,0,0,1,2.133-.827,2.8,2.8,0,0,1,2.434,1.251A4.707,4.707,0,0,1,11.8-6.508a6.687,6.687,0,0,1-.9,3.589A6.388,6.388,0,0,1,9-1.039a6.745,6.745,0,0,1-2.27.984q-.191,0-.335-.267A.385.385,0,0,1,6.318-.54q0-.144.157-.157A4.24,4.24,0,0,0,8.4-1.2,3.207,3.207,0,0,0,9.716-2.8a8.335,8.335,0,0,0,.492-2.475ZM8.622-10.083a1.225,1.225,0,0,0-1.121.9,4.664,4.664,0,0,0-.314,1.846,3.823,3.823,0,0,0,.4,1.9,1.157,1.157,0,0,0,1.032.663q.882,0,1.442-1.23a2.412,2.412,0,0,0,.123-.9,5.259,5.259,0,0,0-.444-2.4A1.245,1.245,0,0,0,8.622-10.083ZM19.51-5.715q-.533,1.319-.793,1.853H23.1q.629-.643.766-.643t.745.547q.294.273.294.417,0,.109-.437.4A8.959,8.959,0,0,1,23.6.13a1.876,1.876,0,0,1-.8.793,2.205,2.205,0,0,1-1.046.226.437.437,0,0,1-.294-.068.405.405,0,0,1-.082-.267.907.907,0,0,0-.41-.656A4.991,4.991,0,0,0,19.8-.362q-.041-.021-.041-.1,0-.13.068-.116,1.688.212,2.229.212.342,0,.6-.547A10.983,10.983,0,0,0,23.2-3.541H18.56Q18.2-2.837,18-2.5a.893.893,0,0,1-.342.39.864.864,0,0,1-.4.075,1.292,1.292,0,0,1-.615-.123.3.3,0,0,1-.2-.267,1.246,1.246,0,0,1,.239-.547,16.152,16.152,0,0,0,1.4-2.748H15.662a8.872,8.872,0,0,0-1.073.082l-.157-.513a6.968,6.968,0,0,0,1.176.109h9.058q.834-1,1-1a3.662,3.662,0,0,1,.957.7q.417.362.417.492t-.178.137ZM17.9-7.6v.171q0,.595-.8.595a.638.638,0,0,1-.479-.137.459.459,0,0,1-.1-.321l.041-1.976q0-1.4-.082-2.338a12.668,12.668,0,0,1,1.613.745h5.011q.6-.684.752-.684a2.263,2.263,0,0,1,.772.52q.321.28.321.417,0,.212-.39.444v.451l.027,2.29q0,.574-.827.574-.533,0-.533-.458V-7.6Zm5.332-.321v-2.618H17.9v2.618ZM38.9-5.182,38.93-2.42l.041,2.283A1.263,1.263,0,0,1,38.6.827a1.489,1.489,0,0,1-1.012.321.3.3,0,0,1-.246-.082.794.794,0,0,1-.1-.294A.793.793,0,0,0,36.9.219a3.991,3.991,0,0,0-.937-.328q-.048-.014-.048-.082,0-.089.062-.089.978.082,1.511.082.232,0,.253-.267v-3.1a.746.746,0,0,1-.362.185A6.814,6.814,0,0,1,35.9-1.046,7.975,7.975,0,0,1,33.735.41a.028.028,0,0,1-.021.007q-.109,0-.109-.1a.039.039,0,0,1,.014-.027A7.686,7.686,0,0,0,36.1-3.767h-.786a3.127,3.127,0,0,0-.813.116L34.35-4.2a4.2,4.2,0,0,0,.923.109h.772q.5-.615.656-.615t.772.574a1.4,1.4,0,0,1,.267.294v-2.03H36.715v.144q0,.485-.711.485-.506,0-.506-.4l.055-3.124q0-1.121-.055-2.017a12.99,12.99,0,0,1,1.374.684h.643q.1-.52.13-.725.062-.465.082-.978,1.668.4,1.668.643,0,.219-.492.239a8.52,8.52,0,0,1-.882.82h1.887q.6-.629.745-.629t.745.506q.308.267.308.4a.242.242,0,0,1-.058.167,3.279,3.279,0,0,1-.352.284v.574l.055,3.008a.418.418,0,0,1-.253.424q.9.533,1.148.725t.239.294q0,.219-.574.253a13.954,13.954,0,0,1-1.8,1.025,6.078,6.078,0,0,0,2.741,1.887q.048.021.048.055t-.048.068A1.938,1.938,0,0,0,42.02.027Q41.9.4,41.74.4q-.123,0-.362-.239A7.221,7.221,0,0,1,39.8-1.962,12.578,12.578,0,0,1,38.9-5.182ZM39.935-3.3a7.5,7.5,0,0,0,.649-.937,5.1,5.1,0,0,0,.485-1.107,1.194,1.194,0,0,1-.417.068.649.649,0,0,1-.458-.123.472.472,0,0,1-.1-.342v-.123H38.944A7.26,7.26,0,0,0,39.935-3.3Zm.157-2.885V-7.9H36.715v1.709Zm0-2.03V-9.775H36.715v1.559ZM31.9-5q-.212.041-.622.13-.492.109-.663.15-.123.39-.294.39-.15,0-.26-.335-.1-.314-.26-1.189.349.027.725.027h.745a18,18,0,0,0,1.4-2.536,9.112,9.112,0,0,0,.574-1.511q1.524.7,1.524.964,0,.232-.547.212-.807,1.087-1.278,1.62-.438.485-1.244,1.251.759-.014,2.2-.068a3.665,3.665,0,0,0-.492-1.121.066.066,0,0,1-.014-.034q0-.062.089-.062a.076.076,0,0,1,.034.007q1.586.889,1.586,1.839a.846.846,0,0,1-.205.581.531.531,0,0,1-.41.205.4.4,0,0,1-.369-.226,2.152,2.152,0,0,1-.15-.731l-.014-.137q-.759.253-.909.294v1.948L33.092.656q0,.547-.711.547-.561,0-.561-.451Q31.9-.984,31.9-2.3v-.909a.815.815,0,0,1-.362.137A9.782,9.782,0,0,1,29.8.116a.053.053,0,0,1-.048.021q-.109,0-.109-.082a.028.028,0,0,1,.007-.021,14.886,14.886,0,0,0,.581-2.29,9.7,9.7,0,0,0,.2-1.75,5.99,5.99,0,0,1,1.47.547ZM31.192-9.14q.205-.54.458-1.4.185-.738.267-1.244,1.661.588,1.661.82t-.554.239A20.848,20.848,0,0,1,31.5-8.962a1.212,1.212,0,0,1,.595,1.039.806.806,0,0,1-.205.574.559.559,0,0,1-.424.191.4.4,0,0,1-.369-.15,3.333,3.333,0,0,1-.26-.69,3.16,3.16,0,0,0-.82-1.415A.066.066,0,0,1,30-9.461q0-.109.1-.089A6.157,6.157,0,0,1,31.192-9.14Zm3.65,6.993a.921.921,0,0,1-.191.615.566.566,0,0,1-.451.2.379.379,0,0,1-.383-.253,2.557,2.557,0,0,1-.109-.67,3.978,3.978,0,0,0-.417-1.7.028.028,0,0,1-.007-.021q0-.062.075-.062a.074.074,0,0,1,.041.014Q34.842-3.021,34.842-2.146Z" transform="translate(1182 1673)" fill="#fff"/>
  </g>
</svg>
