<svg xmlns="http://www.w3.org/2000/svg" width="1040" height="73.799" viewBox="0 0 1040 73.799">
  <g id="グループ_7204" data-name="グループ 7204" transform="translate(-440 -1767.201)">
    <path id="パス_13480" data-name="パス 13480" d="M0,0H152V56H0Z" transform="translate(440 1785)" fill="#914831"/>
    <path id="パス_13481" data-name="パス 13481" d="M-8.073-5.141v1.6l.047,3.328a1.553,1.553,0,0,1-.172.8,1.333,1.333,0,0,1-.492.438,2.691,2.691,0,0,1-1.234.289q-.258,0-.3-.047a.812.812,0,0,1-.086-.32A1.01,1.01,0,0,0-10.784.2a4.636,4.636,0,0,0-1.25-.469q-.055-.016-.055-.109t.055-.1q1.125.109,2.2.109.211,0,.211-.234V-5.141h-2.523v.109a.645.645,0,0,1-.234.578,1.139,1.139,0,0,1-.648.141q-.672,0-.672-.578l.07-3.125q0-.9-.07-1.609a13.971,13.971,0,0,1,1.7.8H-5.7q.633-.7.8-.7a2.8,2.8,0,0,1,.9.578q.367.3.367.461,0,.211-.453.461V-7.5l.055,2.664q0,.625-.883.625a.7.7,0,0,1-.555-.164A.849.849,0,0,1-5.581-4.9v-.242Zm2.492-.367V-8.461h-6.57v2.953Zm-4.078-5.453v-1.391a8.586,8.586,0,0,0-.094-1.055,9.86,9.86,0,0,1,1.883.281q.281.094.281.242,0,.2-.516.406v1.516h3.789q1.031-1.1,1.219-1.1a3.958,3.958,0,0,1,1.086.766q.469.4.469.547t-.211.156H-14.714a8.356,8.356,0,0,0-1.117.094l-.18-.586a7.176,7.176,0,0,0,1.3.125ZM-2.62-.641a1,1,0,0,1-.273.727A.8.8,0,0,1-3.472.32.716.716,0,0,1-4.089.031a9.811,9.811,0,0,1-.687-1.344,7.736,7.736,0,0,0-1.914-2.3.053.053,0,0,1-.023-.047q0-.117.094-.117H-6.6Q-2.62-2.312-2.62-.641Zm-8.2-2.141q0,.242-.742.289A10.508,10.508,0,0,1-13.573-.648,12.613,12.613,0,0,1-15.808.484a.032.032,0,0,1-.023.008q-.133,0-.133-.141a.053.053,0,0,1,.016-.039A11.228,11.228,0,0,0-13.2-2.719a6.71,6.71,0,0,0,.547-1.141,16.623,16.623,0,0,1,1.508.7Q-10.823-2.961-10.823-2.781ZM7.245-7.953H8q.7-.875.9-.875.156,0,.844.625.352.32.352.461,0,.156-.2.156H6.941A19.529,19.529,0,0,1,4.792-5.469H7.23q.57-.687.75-.687a2.488,2.488,0,0,1,.844.547q.336.289.336.445,0,.133-.383.4v.844L8.823.461q0,.609-.859.609-.609,0-.609-.547v-.4H4.425V.6q0,.641-.875.641-.609,0-.609-.562L3-2.3q0-1.219-.016-1.836a17.947,17.947,0,0,1-1.594.914.023.023,0,0,1-.016.008q-.1,0-.1-.141A.061.061,0,0,1,1.3-3.414Q2.253-4.133,2.987-4.8l-.031-1.43q.492.211,1.008.469a19.142,19.142,0,0,0,1.6-1.828H2.652a7.756,7.756,0,0,0-1.07.094L1.4-8.078a6.3,6.3,0,0,0,1.2.125H4.3V-10.43H3.128a5.556,5.556,0,0,0-.906.094l-.18-.594a5.143,5.143,0,0,0,1.1.133H4.3v-1.086a14.571,14.571,0,0,0-.078-1.461q1.984.2,1.984.5,0,.188-.516.43V-10.8H6q.477-.656.688-.656.156,0,.641.461a.821.821,0,0,1,.258.383l.234-.461a12.525,12.525,0,0,0,.672-1.617,13.312,13.312,0,0,1,1.422.719q.242.156.242.3,0,.32-.57.32A23.582,23.582,0,0,1,7.245-7.953Zm-1.4,0A21.323,21.323,0,0,0,7.5-10.445a.325.325,0,0,1-.125.016H5.691v2.477ZM7.355-.242V-2.609H4.425V-.242Zm0-2.734V-5.1H4.425v2.125Zm8.82-8.82a.22.22,0,0,1-.117.211,1.473,1.473,0,0,1-.43.148q-.766,1.367-1.219,2.063-.43.656-1.4,2.016a8.184,8.184,0,0,1,2.383,2.141,3.636,3.636,0,0,1,.57,2.031,2.153,2.153,0,0,1-.7,1.766,1.852,1.852,0,0,1-1.234.414q-.211,0-.273-.094a1.424,1.424,0,0,1-.125-.406.843.843,0,0,0-.484-.57,6.04,6.04,0,0,0-1.094-.383q-.063-.016-.062-.125T12.05-2.7q.859.063,1.836.063a.577.577,0,0,0,.438-.125q.172-.156.172-.977a4.53,4.53,0,0,0-1.859-3.539,33.943,33.943,0,0,0,1.445-4.656H11.808V-1.6l.031,2.32q0,.641-.914.641-.57,0-.57-.547L10.4-8.047q0-3.852-.078-5.023.891.383,1.609.766h2.1q.664-.719.828-.719t.93.7Q16.175-11.961,16.175-11.8Z" transform="translate(516 1819)" fill="#fff"/>
    <path id="パス_13482" data-name="パス 13482" d="M0,0H152V56H0Z" transform="translate(884 1785)" fill="#fff"/>
    <path id="パス_13483" data-name="パス 13483" d="M-42.539-10.625A8.01,8.01,0,0,0-39.8-8.484a13.765,13.765,0,0,0,3.477,1.07.078.078,0,0,1,.055.086q0,.094-.07.109a1.359,1.359,0,0,0-.945.977,1.3,1.3,0,0,1-.117.332.178.178,0,0,1-.156.066,2.91,2.91,0,0,1-.781-.3,14.985,14.985,0,0,1-1.75-1.07,9.882,9.882,0,0,1-2.836-3.406h-1.633a11.242,11.242,0,0,1-3.008,3.2A15.437,15.437,0,0,1-51.359-5.5a.032.032,0,0,1-.023.008q-.109,0-.109-.148a.053.053,0,0,1,.023-.047,14.454,14.454,0,0,0,5.2-4.937h-3.359a11.652,11.652,0,0,0-1.312.094l-.172-.586a8.946,8.946,0,0,0,1.438.125h3.617a10.38,10.38,0,0,0,.977-2.445q2.055.453,2.055.75t-.664.445q-.227.516-.641,1.25h4.867q.891-1.055,1.086-1.055a4.327,4.327,0,0,1,1.133.734q.492.391.492.531,0,.156-.2.156Zm-.727,6.109v.9L-43.2-.211a1.279,1.279,0,0,1-.672,1.219,2.2,2.2,0,0,1-1.234.32.347.347,0,0,1-.3-.133,1.677,1.677,0,0,1-.141-.461Q-45.688.125-47.2-.3q-.063-.016-.062-.117t.063-.109q1.4.1,2.156.1.211,0,.211-.227V-4.516h-4.047a12.888,12.888,0,0,0-1.391.094l-.18-.586a10.555,10.555,0,0,0,1.555.125h8.859q.875-1.039,1.078-1.039a3.646,3.646,0,0,1,1.039.719q.445.383.445.531t-.211.156Zm2.523-2.508q0,.156-.2.156h-5.211a9.514,9.514,0,0,0-1.187.094l-.172-.586a6.987,6.987,0,0,0,1.258.125h3.188q.8-.9.984-.9a3.068,3.068,0,0,1,.945.625Q-40.742-7.18-40.742-7.023ZM-37.828-.43A.982.982,0,0,1-38.094.3a.786.786,0,0,1-.578.234.671.671,0,0,1-.57-.258A9.811,9.811,0,0,1-39.9-.961a7.256,7.256,0,0,0-2.047-2.383.084.084,0,0,1-.023-.062q0-.125.1-.1a8,8,0,0,1,3.094,1.414A2.207,2.207,0,0,1-37.828-.43Zm-8.227-2.3q0,.266-.742.352A10.612,10.612,0,0,1-51.1.727a.069.069,0,0,1-.031.008q-.148,0-.148-.133A.045.045,0,0,1-51.266.57a10.626,10.626,0,0,0,2.719-3.1A5.527,5.527,0,0,0-47.984-3.8a15.2,15.2,0,0,1,1.609.727Q-46.055-2.891-46.055-2.734ZM-24.3-2.32a6.159,6.159,0,0,0,.563.352A13.763,13.763,0,0,0-19.048-.492q.062.008.063.1t-.062.109a1.459,1.459,0,0,0-.766.352,1.724,1.724,0,0,0-.352.672q-.125.367-.367.367A2.766,2.766,0,0,1-21.353.9,11.177,11.177,0,0,1-23.861-.4a7.719,7.719,0,0,1-2.156-2.109,13.737,13.737,0,0,1-1.375-2.883H-29.65V-.93a28.931,28.931,0,0,0,3.586-.906h.016q.1,0,.1.156a.061.061,0,0,1-.023.055,27.5,27.5,0,0,1-5.9,2.617q-.07.609-.383.609-.164,0-.3-.3-.117-.266-.617-1.672.547-.047,1.18-.141.148-.031.453-.07.266-.039.4-.062V-5.883q0-3.516-.094-5.859a13.892,13.892,0,0,1,1.7.8h2.164v-1.391q0-.344-.062-.977,2.117.2,2.117.531,0,.219-.547.477v1.359h2.422q.641-.719.813-.719a2.6,2.6,0,0,1,.883.578q.367.32.367.477,0,.172-.484.461v.867l.086,3.7a.407.407,0,0,1-.117.313q1.633.9,1.633,1.172,0,.227-.5.227h-.219A15.737,15.737,0,0,1-24.3-2.32Zm-.367-.258a14.829,14.829,0,0,0,1.8-1.547,7.218,7.218,0,0,0,.852-1.023,1.421,1.421,0,0,1-.7.141q-.547,0-.594-.383h-3.687A8.409,8.409,0,0,0-24.666-2.578Zm1.359-3.18V-8.047H-29.65v2.289Zm0-2.656v-2.164H-29.65v2.164Zm15.639.031a1.638,1.638,0,0,1,.531.125,8.247,8.247,0,0,1,2.82,1.633A3.491,3.491,0,0,1-2.925-4.414a1.207,1.207,0,0,1-.227.766.734.734,0,0,1-.609.289A.782.782,0,0,1-4.433-3.7a5.678,5.678,0,0,1-.32-.625A10.358,10.358,0,0,0-6.011-6.445,8.323,8.323,0,0,0-7.534-7.953q-.289-.211-.289-.3Q-7.823-8.383-7.667-8.383Zm-4.156.227a2.4,2.4,0,0,1,1.227.563q.867.609.867,1.148a.606.606,0,0,1-.367.555,3.432,3.432,0,0,0-.75.594,15.754,15.754,0,0,1-1.891,1.6,13.444,13.444,0,0,1-2.914,1.609,1.96,1.96,0,0,1-.617.18q-.211,0-.211-.141,0-.078.352-.32A18.516,18.516,0,0,0-13.636-4.4a14.12,14.12,0,0,0,1.555-1.8,1.877,1.877,0,0,0,.414-.867q0-.266-.594-.672-.156-.1-.156-.172t.234-.164A1.02,1.02,0,0,1-11.823-8.156Zm6.094-2.609a3.23,3.23,0,0,1,1.1.508,1.263,1.263,0,0,1,.594.961.573.573,0,0,1-.148.4.484.484,0,0,1-.375.164A.612.612,0,0,1-5.1-9.1a6.681,6.681,0,0,0-1-1.406q-.18-.18-.18-.211,0-.109.188-.109A1.157,1.157,0,0,1-5.73-10.766Zm1.313-1.078a3.8,3.8,0,0,1,1.281.469.947.947,0,0,1,.578.813.629.629,0,0,1-.164.453.45.45,0,0,1-.328.141.659.659,0,0,1-.594-.352,4.363,4.363,0,0,0-1.117-1.25q-.2-.141-.2-.2a.11.11,0,0,1,.125-.125A1.905,1.905,0,0,1-4.417-11.844ZM8.73-7.375a22.432,22.432,0,0,1-5.562,4.2,2.927,2.927,0,0,1-.352.18q-.2,0-.2-.211,0-.086.273-.281A34.233,34.233,0,0,0,8.011-8.4,17.572,17.572,0,0,0,9.925-10.93a1.7,1.7,0,0,0,.258-.672q0-.227-.523-.539-.289-.172-.289-.227,0-.125.211-.25a.906.906,0,0,1,.461-.117,2.437,2.437,0,0,1,.828.2,4.39,4.39,0,0,1,.867.445q.687.445.688.875,0,.4-.531.578a.735.735,0,0,0-.328.227Q9.558-8.234,9.308-7.969q1.023.727,1.023,1.086a.592.592,0,0,1-.062.3,1.8,1.8,0,0,0-.047.547v2.3l.031,3.617a.744.744,0,0,1-.211.563.574.574,0,0,1-.4.156A.8.8,0,0,1,8.925.273,1.636,1.636,0,0,1,8.589-.766a.991.991,0,0,1,.078-.367,5.315,5.315,0,0,0,.164-1.508l.016-3.7A3.392,3.392,0,0,0,8.73-7.375Zm21.764-4.109a1.274,1.274,0,0,1,.984.43,1.283,1.283,0,0,1,.344.9,1.263,1.263,0,0,1-.437.984,1.274,1.274,0,0,1-.891.344,1.263,1.263,0,0,1-.984-.437,1.274,1.274,0,0,1-.344-.891,1.272,1.272,0,0,1,.438-.992A1.29,1.29,0,0,1,30.494-11.484Zm0,.445a.846.846,0,0,0-.656.3.845.845,0,0,0-.227.586.83.83,0,0,0,.3.641.845.845,0,0,0,.586.227.839.839,0,0,0,.641-.289.835.835,0,0,0,.227-.578.872.872,0,0,0-.289-.656A.835.835,0,0,0,30.494-11.039ZM27.58-8.445a1.638,1.638,0,0,1,.531.125,8.247,8.247,0,0,1,2.82,1.633,3.491,3.491,0,0,1,1.391,2.211,1.244,1.244,0,0,1-.219.758.735.735,0,0,1-.617.3.782.782,0,0,1-.672-.336,5.678,5.678,0,0,1-.32-.625,10.358,10.358,0,0,0-1.258-2.125,8.323,8.323,0,0,0-1.523-1.508q-.289-.211-.289-.3Q27.423-8.445,27.58-8.445Zm-4.156.219a2.4,2.4,0,0,1,1.227.563q.867.609.867,1.148a.611.611,0,0,1-.367.563,3.432,3.432,0,0,0-.75.594,15.9,15.9,0,0,1-1.891,1.6A13.444,13.444,0,0,1,19.6-2.148a1.96,1.96,0,0,1-.617.18q-.211,0-.211-.141,0-.078.352-.32a18.165,18.165,0,0,0,2.492-2.039,13.339,13.339,0,0,0,1.555-1.8,1.877,1.877,0,0,0,.414-.867q0-.266-.594-.672-.156-.1-.156-.172t.234-.164A1.02,1.02,0,0,1,23.423-8.227ZM44.867-5.6q1.023.422,1.93.9a9.644,9.644,0,0,1,1.539.977Q49.68-2.7,49.68-1.906a.893.893,0,0,1-.242.648.663.663,0,0,1-.492.219,1.127,1.127,0,0,1-.992-.547,15.021,15.021,0,0,0-1.859-2.383A10.975,10.975,0,0,0,44.5-5.2a18.418,18.418,0,0,1-3.922,3.141A13.97,13.97,0,0,1,37.844-.8a1.122,1.122,0,0,1-.359.078q-.156,0-.156-.141a.186.186,0,0,1,.109-.18A18.441,18.441,0,0,0,40.148-2.8a26.061,26.061,0,0,0,2.3-2.1A26.819,26.819,0,0,0,45.7-9.148a.483.483,0,0,0,.094-.187q0-.055-.109-.055a.855.855,0,0,0-.1.008q-1.8.2-3.828.633a2.454,2.454,0,0,0-.734.258,1.192,1.192,0,0,1-.562.172q-.469,0-1.07-.75a1.624,1.624,0,0,1-.336-1.031q0-.414.211-.414.055,0,.219.2a2.507,2.507,0,0,0,.578.508,1.161,1.161,0,0,0,.531.1q.273,0,1.211-.094,1.563-.172,3.523-.453a1.288,1.288,0,0,0,.641-.234.658.658,0,0,1,.461-.18,1.463,1.463,0,0,1,.852.43q.672.586.672.9t-.531.477a1.06,1.06,0,0,0-.383.391A30.548,30.548,0,0,1,44.867-5.6Z" transform="translate(960 1819)" fill="#111"/>
    <path id="パス_13484" data-name="パス 13484" d="M0,0H152V56H0Z" transform="translate(1328 1785)" fill="#c89932"/>
    <path id="パス_13485" data-name="パス 13485" d="M-17.358-7.891a12.973,12.973,0,0,1-.828,3.352A9.536,9.536,0,0,1-19.616-2.2a10.552,10.552,0,0,1-5.266,3.328q-.039.008-.086-.043a.155.155,0,0,1-.047-.105.053.053,0,0,1,.023-.047A11.041,11.041,0,0,0-19.842-4.5a13.137,13.137,0,0,0,.9-3.8H-23.2a13.756,13.756,0,0,0-1.453.094l-.18-.586a12.131,12.131,0,0,0,1.664.125h4.258q.125-1.414.125-2.961,0-.617-.062-1.484a15.105,15.105,0,0,1,1.914.328q.352.109.352.328t-.555.461a32.407,32.407,0,0,1-.141,3.328H-13.2q.945-1.234,1.148-1.234a4.651,4.651,0,0,1,1.156.867q.492.43.492.57,0,.164-.2.164h-6.516a10.082,10.082,0,0,0,2.984,5.281A10.537,10.537,0,0,0-10.123-.766a.078.078,0,0,1,.055.086.108.108,0,0,1-.07.117A1.855,1.855,0,0,0-11.256.719q-.094.32-.242.32a2.143,2.143,0,0,1-.992-.477,11.275,11.275,0,0,1-2.594-2.453A12.55,12.55,0,0,1-17.358-7.891ZM4.977-1.328A44.642,44.642,0,0,1-1.828.227,1.793,1.793,0,0,1-1.992.75a.22.22,0,0,1-.2.1q-.187,0-.312-.359-.109-.32-.516-1.9.617.063.992.063h.352a50.01,50.01,0,0,0,2.3-8.781,26.9,26.9,0,0,0,.289-2.789q1.727.375,2.133.523.336.125.336.313,0,.289-.633.477A48.784,48.784,0,0,1,.992-5.68,34.545,34.545,0,0,1-.992-1.359a55.791,55.791,0,0,0,5.852-.4A18.7,18.7,0,0,0,3.2-5.945a.023.023,0,0,1-.008-.016q0-.117.148-.117a.064.064,0,0,1,.047.016A19.257,19.257,0,0,1,6.242-2.734,4.211,4.211,0,0,1,6.984-.562a1.487,1.487,0,0,1-.3.977.814.814,0,0,1-.648.3A.64.64,0,0,1,5.461.383,3.352,3.352,0,0,1,5.117-.656ZM-5.086-7.1a12.955,12.955,0,0,1-2.3,1.953.053.053,0,0,1-.039.016q-.133,0-.133-.109a.069.069,0,0,1,.008-.031A16.263,16.263,0,0,0-4.32-10.484a12.805,12.805,0,0,0,.781-2.828q2.133.6,2.133.9,0,.25-.609.383A18.821,18.821,0,0,1-4.031-8.367a3.207,3.207,0,0,1,.68.156.2.2,0,0,1,.117.18q0,.18-.414.367v8.3q0,.672-.828.672-.7,0-.7-.578.094-1.75.094-4.242Zm23.428-4h1.742v-1.055a7.607,7.607,0,0,0-.094-1.172q2.016.172,2.016.445,0,.172-.445.438V-11.1h1.68q.6-.734.781-.734a3.026,3.026,0,0,1,.961.656q.4.359.4.508,0,.281-.531.3a1.02,1.02,0,0,0-.4.211q-.5.375-1.133.781.07.039.4.273.352.258.352.43,0,.133-.383.4v.43l.031,2.2q0,.688-.836.688a.657.657,0,0,1-.516-.164.751.751,0,0,1-.117-.477v-.062H19.256v2.109h3.328q.672-.75.844-.75a2.533,2.533,0,0,1,.883.539q.367.3.367.469,0,.117-.414.461v.563l.047,2.93q0,.7-.883.7a.694.694,0,0,1-.539-.164A.714.714,0,0,1,22.756.7V.227h-3.5V.758q0,.719-.852.719-.672,0-.672-.578l.086-7.375q0-1.3-.055-2.594a.944.944,0,0,1-.461.125.656.656,0,0,1-.75-.734.768.768,0,0,1,.516-.758,1.513,1.513,0,0,0,.891-1.422.079.079,0,0,1,.086-.062.091.091,0,0,1,.094.063A4.941,4.941,0,0,1,18.342-11.1Zm.047.367a2.078,2.078,0,0,1,.016.258,2.042,2.042,0,0,1-.172.859,9.374,9.374,0,0,1,1.133.656h2.773q.562-.625.727-.625a.54.54,0,0,1,.242.063q.148-.5.3-1.211Zm.867,7.547V-.141h3.5V-3.187Zm2.992-2.844V-8.594H19.256v2.563ZM12.694-.812A18.863,18.863,0,0,0,15-1.391a5.715,5.715,0,0,0-1.07-1.547.1.1,0,0,1-.016-.055.083.083,0,0,1,.094-.094h.016a4.841,4.841,0,0,1,2.117,1.125A1.884,1.884,0,0,1,16.8-.6a1.173,1.173,0,0,1-.258.8.727.727,0,0,1-.57.258A.453.453,0,0,1,15.608.3a1.594,1.594,0,0,1-.2-.477,6.792,6.792,0,0,0-.258-.8A23.582,23.582,0,0,1,11.506.82q-.063.539-.312.539-.156,0-.32-.391-.156-.359-.516-1.477.031,0,.977-.1V-4.844q0-2.367-.062-4.289a12.164,12.164,0,0,1-1.078.641h-.016q-.109,0-.109-.141a.053.053,0,0,1,.016-.039,15.892,15.892,0,0,0,2.18-2.8,7.8,7.8,0,0,0,.875-1.969q1.383.578,1.672.719.266.141.266.242,0,.219-.562.234a5.346,5.346,0,0,1,1.688.781,1.043,1.043,0,0,1,.414.828.8.8,0,0,1-.219.563.6.6,0,0,1-.437.2.428.428,0,0,1-.359-.141,4.727,4.727,0,0,1-.359-.711,4.334,4.334,0,0,0-.93-1.328,11.9,11.9,0,0,1-2.719,2.688q.461.2,1.164.594h.563v-.977a9.15,9.15,0,0,0-.062-.945q1.8.156,1.8.414,0,.156-.414.352v1.156H15q.531-.578.7-.578a2.1,2.1,0,0,1,.8.484q.32.25.32.414,0,.148-.383.414v.625l.031,3.453q0,.609-.781.609a.676.676,0,0,1-.5-.133.593.593,0,0,1-.109-.406v-.227H12.694Zm2.383-5.875V-8.4H12.694v1.711Zm-2.383.367v1.844h2.383V-6.32Z" transform="translate(1404 1819)" fill="#fff"/>
    <path id="パス_13486" data-name="パス 13486" d="M-21.282-5.811a20.388,20.388,0,0,0,1.641-2.646A8.629,8.629,0,0,0-19-9.9q1.565.718,1.565.937,0,.2-.458.2h-.082Q-19.135-7.4-19.532-7q-.383.383-1.312,1.189.793,0,2.393-.055a3.6,3.6,0,0,0-.608-1.189.061.061,0,0,1-.007-.027q0-.075.1-.075a.076.076,0,0,1,.034.007q1.764.957,1.764,1.982a.954.954,0,0,1-.2.629.558.558,0,0,1-.431.2.431.431,0,0,1-.41-.205,2.129,2.129,0,0,1-.178-.827L-18.4-5.53q-.308.109-.923.28v1.935L-19.279.67q0,.533-.738.533-.561,0-.561-.431Q-20.5-.506-20.5-2.27v-2.7Q-21-4.86-21.979-4.7q-.137.39-.308.39-.137,0-.253-.342t-.267-1.183q.362.027.745.027Zm5.715-2.659A8.526,8.526,0,0,1-17.419-6.3a.074.074,0,0,1-.041.014q-.123,0-.123-.089a.052.052,0,0,1,.007-.021A13.384,13.384,0,0,0-16.2-9.871a9.772,9.772,0,0,0,.335-1.8q1.914.492,1.914.745t-.554.335a14.135,14.135,0,0,1-.868,1.8h3.315q.615-.725.772-.725t.793.588q.335.294.335.444,0,.109-.431.417-.082,2.755-.239,4.307a21.867,21.867,0,0,1-.485,3.015,2.143,2.143,0,0,1-.9,1.36,2.062,2.062,0,0,1-1.176.321.407.407,0,0,1-.294-.075.8.8,0,0,1-.109-.314,1.027,1.027,0,0,0-.458-.684,4.818,4.818,0,0,0-1.107-.424Q-15.4-.574-15.4-.677t.055-.109q1.224.109,1.62.109a2.349,2.349,0,0,0,.9-.109.523.523,0,0,0,.232-.342A32.954,32.954,0,0,0-11.91-8.47Zm-5.722-.772a14.18,14.18,0,0,0,.615-1.661,6.6,6.6,0,0,0,.205-.854q1.661.588,1.661.868,0,.232-.554.232a18.23,18.23,0,0,1-1.593,1.613,1.271,1.271,0,0,1,.663,1.06.891.891,0,0,1-.205.622.589.589,0,0,1-.451.191.533.533,0,0,1-.451-.164,2.829,2.829,0,0,1-.273-.718,3.37,3.37,0,0,0-.923-1.511.046.046,0,0,1-.021-.041q0-.1.1-.082A8.19,8.19,0,0,1-21.288-9.242Zm7.608,4.9a.991.991,0,0,1-.239.677.68.68,0,0,1-.526.246q-.438,0-.561-.615a9.868,9.868,0,0,0-.52-1.5,3.246,3.246,0,0,0-.6-.889.084.084,0,0,1-.014-.048.073.073,0,0,1,.082-.082h.014a3.98,3.98,0,0,1,1.764.991A1.749,1.749,0,0,1-13.68-4.341Zm-3.514,2.563a1,1,0,0,1-.212.663.6.6,0,0,1-.472.219.422.422,0,0,1-.41-.26,2.907,2.907,0,0,1-.191-.889A4.309,4.309,0,0,0-19.1-3.937a.039.039,0,0,1-.014-.027q0-.068.082-.068a.074.074,0,0,1,.041.014Q-17.194-2.905-17.194-1.777Zm-3.391-1.613q0,.185-.4.267A7.9,7.9,0,0,1-22.9.185.056.056,0,0,1-22.943.2a.079.079,0,0,1-.089-.089.052.052,0,0,1,.007-.021,11.142,11.142,0,0,0,.786-2.639,6.617,6.617,0,0,0,.116-1.244q0-.1.007-.226,1.073.314,1.333.431Q-20.584-3.5-20.584-3.391Zm18.107.342v.615q0,.8.014.95a1.488,1.488,0,0,0,.109.451.527.527,0,0,0,.4.287,5.418,5.418,0,0,0,.615.075q.1,0,.1.178t-.109.185Q-2.5-.362-3.168-.362q-.711,0-1.894.055-.123,0-.123-.185,0-.164.123-.178a5.464,5.464,0,0,0,.643-.089A.449.449,0,0,0-4.1-.978,3.721,3.721,0,0,0-3.92-2.406v-.629H-6.135l-1.326.014q-.185,0-.185-.362a1.186,1.186,0,0,1,.157-.574q2.181-3.828,3.746-6.289l1.251-.335q.109,0,.109.164-.007.376-.034,1.825-.014,1.032-.034,1.75l-.027,3.274q.595,0,1.408-.068.089,0,.089.062v.034l-.13.424a.118.118,0,0,1-.123.1Q-1.637-3.049-2.477-3.049ZM-3.92-3.555l.027-3.035q.021-1.524.082-2.6Q-5.724-6.159-7.01-3.78a.327.327,0,0,0-.048.144q0,.082.171.082Zm8.284-6.959A2.612,2.612,0,0,1,6.757-8.921,7.823,7.823,0,0,1,7.474-5.3,7.212,7.212,0,0,1,6.538-1.3,2.5,2.5,0,0,1,4.364-.055a2.607,2.607,0,0,1-2.42-1.552,7.758,7.758,0,0,1-.711-3.616,7.38,7.38,0,0,1,.93-4.054A2.524,2.524,0,0,1,4.364-10.514Zm0,.431q-.9,0-1.237,1.483a16.2,16.2,0,0,0-.253,3.336A13.642,13.642,0,0,0,3.216-1.62Q3.571-.485,4.364-.485q.875,0,1.217-1.47a16.023,16.023,0,0,0,.253-3.309A14.1,14.1,0,0,0,5.5-8.935Q5.15-10.083,4.364-10.083ZM16.011-5.571a7.367,7.367,0,0,1-1.846,4.553,8.439,8.439,0,0,1-3.979,2.126q-.1.021-.1-.123a.053.053,0,0,1,.021-.048,8.935,8.935,0,0,0,3.329-2.905,8.194,8.194,0,0,0,1.114-3.6H13.5a6.885,6.885,0,0,0-1.176.109l-.157-.561a6.786,6.786,0,0,0,1.292.13h5.3q.629-.615.766-.615.157,0,.8.561.335.314.335.444t-.4.41a18.141,18.141,0,0,1-.731,4.71,2.174,2.174,0,0,1-.643.957,1.843,1.843,0,0,1-1.2.39A.663.663,0,0,1,17.3.9.6.6,0,0,1,17.16.574a.979.979,0,0,0-.472-.608A5.269,5.269,0,0,0,15.56-.485q-.041-.007-.041-.1,0-.157.068-.144a15.618,15.618,0,0,0,2.078.232.523.523,0,0,0,.472-.267,3.685,3.685,0,0,0,.314-.9,23.348,23.348,0,0,0,.458-3.917ZM23.127-6.72q.041.007.041.089,0,.109-.062.123a.884.884,0,0,0-.54.314,1.946,1.946,0,0,0-.287.663q-.089.4-.232.4a1.556,1.556,0,0,1-.615-.308A9.7,9.7,0,0,1,19.921-6.72,7.932,7.932,0,0,1,18.67-8.456a19.811,19.811,0,0,1-.991-2.256.71.71,0,0,0-.185-.253.177.177,0,0,1-.109-.15q0-.089.226-.178a.873.873,0,0,1,.321-.075q.137,0,.137.109L18-11.006a.8.8,0,0,0,.082.308,7.3,7.3,0,0,0,2.058,2.6A7.4,7.4,0,0,0,23.127-6.72Zm-7.267-3.89q0,.267-.574.308a13.306,13.306,0,0,1-2.413,3.356,12.228,12.228,0,0,1-2.905,2.01.028.028,0,0,1-.021.007q-.109,0-.109-.123a.046.046,0,0,1,.014-.034,12.94,12.94,0,0,0,3.391-4.348,9.159,9.159,0,0,0,.725-2.044Q15.861-10.855,15.861-10.609Z" transform="translate(738 1837)" fill="#fff"/>
    <path id="パス_12685" data-name="パス 12685" d="M-3616.505,12067.5H-3876v-1h259.495Z" transform="translate(4482 -10252)" fill="#fff"/>
    <path id="パス_13487" data-name="パス 13487" d="M4,0,8,7H0Z" transform="translate(870 1811) rotate(90)" fill="#fff"/>
    <path id="パス_13488" data-name="パス 13488" d="M-62.841-3.09v1.114l.027,2.468q0,.574-.772.574-.574,0-.574-.506.089-2.912.089-7.759,0-3.24-.082-4.293.6.239,1.456.643h1.422q.492-.588.649-.588t.766.588q.321.3.321.444,0,.232-.431.369a15.614,15.614,0,0,1-2.085,3.076,6.012,6.012,0,0,1,1.538,1.688,3.512,3.512,0,0,1,.335,1.62,1.913,1.913,0,0,1-.492,1.442,1.488,1.488,0,0,1-1.1.39q-.191,0-.246-.075a.781.781,0,0,1-.082-.287,1.313,1.313,0,0,0-.212-.622A1.071,1.071,0,0,0-62.841-3.09Zm0-.2q1,.041,1.073.041a.4.4,0,0,0,.294-.1,1.365,1.365,0,0,0,.157-.813,4.123,4.123,0,0,0-.246-1.524A4.977,4.977,0,0,0-62.335-6.9,14.906,14.906,0,0,0-61.2-10.527h-1.641Zm7.362,1.634A9.959,9.959,0,0,1-60.052.964q-.1.021-.1-.137a.053.053,0,0,1,.021-.048,11.19,11.19,0,0,0,4.013-3.37,13.29,13.29,0,0,1-1.442-4.272h-.41a16.752,16.752,0,0,1-.574,3.726,7.113,7.113,0,0,1-1.244,2.42A7.338,7.338,0,0,1-61.6.957a.076.076,0,0,1-.034.007q-.116,0-.116-.109a.061.061,0,0,1,.007-.027A8.268,8.268,0,0,0-59.594-3.4a31.889,31.889,0,0,0,.349-5.517q0-.964-.1-2.393a11.557,11.557,0,0,1,1.579.813h3.671q.766-.9.923-.9a3.226,3.226,0,0,1,.95.615q.4.321.4.465t-.205.137h-5.886v.362q0,1.586-.055,2.632h3.486q.636-.725.786-.725a2.782,2.782,0,0,1,.827.588q.321.267.321.444t-.437.4a10.612,10.612,0,0,1-1.777,3.951,7.289,7.289,0,0,0,3.322,1.88q.041.007.041.062a.112.112,0,0,1-.068.116,1.2,1.2,0,0,0-.5.362,3.787,3.787,0,0,0-.314.745Q-52.354.9-52.484.9A1.956,1.956,0,0,1-53.25.472,10.155,10.155,0,0,1-55.478-1.654Zm-1.8-5.209a10.265,10.265,0,0,0,1.716,3.4,10.36,10.36,0,0,0,1.183-3.4Zm9.808,2.133A9.214,9.214,0,0,1-49.4-3.521s0,.007-.014.007q-.123,0-.123-.13a.039.039,0,0,1,.014-.027,10.73,10.73,0,0,0,2.2-2.4,11.938,11.938,0,0,0,1.381-2.6h-2.311a3.916,3.916,0,0,0-.882.109l-.15-.54a5.42,5.42,0,0,0,1.032.109h.745v-1.565a8.131,8.131,0,0,0-.1-1.224q1.8.171,1.8.465,0,.219-.465.4v1.921h.308q.479-.547.629-.547t.731.574q.294.314.294.451,0,.178-.465.349a9.928,9.928,0,0,1-1.5,2.283v.232q1.976.561,1.976,1.545a.713.713,0,0,1-.185.506.532.532,0,0,1-.39.164.425.425,0,0,1-.335-.123,1.665,1.665,0,0,1-.226-.437,3.624,3.624,0,0,0-.841-1.347v1.7L-46.2.6q0,.574-.725.574-.629,0-.629-.52.082-1.572.082-3.11Zm7.588,1.552q.041,2.68.041,3.685,0,.656-.766.656a.712.712,0,0,1-.513-.137.679.679,0,0,1-.116-.451q0-.2.014-1.463.021-1.21.027-2.29h-1.545v.2q0,.561-.684.561-.6,0-.6-.437l.055-4.17q0-1.606-.068-2.775.964.485,1.408.745h1.463v-.267q0-1.7-.082-2.461a11.549,11.549,0,0,1,1.565.205q.267.082.267.267,0,.219-.492.41v1.846h1.641q.574-.67.725-.67t.731.52q.294.273.294.417,0,.205-.424.431v.9q0,2.522.089,4.539,0,.547-.745.547-.574,0-.574-.492v-.308Zm0-.321h1.709V-6.063H-39.9v.95Zm-1.312,0q.014-.854.014-2.563h-1.559V-3.5Zm1.285-2.885h1.736V-8.736h-1.736Zm-1.258,0V-8.736h-1.572v2.352Zm12.925-3.685v-.868a4.5,4.5,0,0,0-.075-.827q1.921.171,1.921.465,0,.191-.492.39v.841h3.418q.875-.95,1.032-.95a3.47,3.47,0,0,1,.93.656q.4.349.4.479t-.185.137H-32.519a7.312,7.312,0,0,0-.978.082l-.157-.513a6.211,6.211,0,0,0,1.121.109Zm2.153,9h-2.9v.335a.462.462,0,0,1-.191.431,1.082,1.082,0,0,1-.547.1.556.556,0,0,1-.417-.116.518.518,0,0,1-.089-.349l.027-1.914q0-.779-.055-1.408.711.3,1.367.615h2.707q.492-.533.643-.533a2.082,2.082,0,0,1,.738.492q.294.253.294.39,0,.178-.362.417v.267l.041,1.354q0,.52-.711.52-.547,0-.547-.4Zm0-.321V-3.049h-2.9v1.661Zm.854-4.744h-4.594v.109q0,.52-.752.52-.533,0-.533-.492l.027-2.1q0-.349-.027-1.128a13.492,13.492,0,0,1,1.381.67h4.4q.5-.615.656-.615a2.209,2.209,0,0,1,.772.479q.321.246.321.39,0,.171-.383.376v.294l.027,1.5a.548.548,0,0,1-.2.485,1.066,1.066,0,0,1-.567.116.586.586,0,0,1-.431-.123.534.534,0,0,1-.1-.369Zm0-.321V-8.23h-4.594v1.777Zm3.671,1.846q0,.212-.451.438v.684l.041,3.445a1.32,1.32,0,0,1-.137.663,1.022,1.022,0,0,1-.4.355,1.746,1.746,0,0,1-.9.239.26.26,0,0,1-.212-.075.86.86,0,0,1-.109-.314A.842.842,0,0,0-24.05.273a3.814,3.814,0,0,0-.909-.383.09.09,0,0,1-.055-.1q0-.075.055-.075.978.082,1.5.082.185,0,.185-.178V-4.607h-8.388v5.2q0,.6-.786.6a.6.6,0,0,1-.458-.137.6.6,0,0,1-.1-.4l.048-4.648q0-.827-.048-1.634a10.405,10.405,0,0,1,1.442.7h8.2q.554-.6.7-.6a2.451,2.451,0,0,1,.786.506Q-21.568-4.744-21.568-4.607Zm10.43-3.418V-9.55h-2.536a7.312,7.312,0,0,0-.978.082l-.157-.513a6.357,6.357,0,0,0,1.135.109h2.536v-.854q0-.349-.041-.978a7.844,7.844,0,0,1,1.367.178q.239.075.239.226t-.362.308v1.121h2.167q.656-.882.841-.882a2.965,2.965,0,0,1,.875.615q.383.321.383.451t-.185.137H-9.935v1.524h1.743q.574-.588.718-.588a2.085,2.085,0,0,1,.745.444q.308.232.308.383,0,.178-.369.4v.4l.027,1.928q0,.533-.725.533-.574,0-.574-.39v-.239H-9.935v.772A9.441,9.441,0,0,1-7.111-3.315a1.365,1.365,0,0,1,.69,1.142.776.776,0,0,1-.212.574.616.616,0,0,1-.465.185.53.53,0,0,1-.369-.144,2.151,2.151,0,0,1-.355-.458,6.611,6.611,0,0,0-1-1.271A6.012,6.012,0,0,0-9.935-4.1v.547l.068,2.331q0,.52-.738.52-.588,0-.588-.444,0-.7.068-2.591a8.21,8.21,0,0,1-3.705,2.29.028.028,0,0,1-.021.007q-.082,0-.082-.089a.046.046,0,0,1,.021-.041A11.239,11.239,0,0,0-12.84-3.3a9.387,9.387,0,0,0,1.278-1.853h-1.326V-5q0,.5-.684.5-.574,0-.574-.431l.041-1.723q0-1.155-.075-1.976.82.321,1.415.6Zm1.2,2.55h1.873V-7.7H-9.935Zm-1.2,0V-7.7h-1.75v2.229ZM-15.41-9.454a.85.85,0,0,1-.232.629.717.717,0,0,1-.54.212.487.487,0,0,1-.41-.2,2.346,2.346,0,0,1-.273-.67,3.725,3.725,0,0,0-.9-1.634.073.073,0,0,1-.014-.041q0-.089.109-.089h.021Q-15.41-10.691-15.41-9.454ZM-5.5-.561a.977.977,0,0,0-.547.786,1.046,1.046,0,0,1-.1.424A.321.321,0,0,1-6.38.725a32.4,32.4,0,0,1-3.377.13,11.061,11.061,0,0,1-4.4-.6,3.386,3.386,0,0,1-1.634-2.174A11.746,11.746,0,0,1-17.4.178a1.779,1.779,0,0,1,.021.246q0,.4-.253.4-.28,0-1.039-1.723a6.613,6.613,0,0,0,1.025-.362A5.716,5.716,0,0,0-16.7-1.8V-5.462h-.971a2.818,2.818,0,0,0-.766.116l-.157-.561a3.648,3.648,0,0,0,.923.123h.882q.567-.643.718-.643a2.333,2.333,0,0,1,.766.492q.321.26.321.4,0,.1-.417.444v3.24a3.177,3.177,0,0,0,.622.8,2.254,2.254,0,0,0,.7.362,11.679,11.679,0,0,0,3.179.321,52.845,52.845,0,0,0,5.38-.355q.055-.014.055.068A.09.09,0,0,1-5.5-.561ZM.981-6.05A3.974,3.974,0,0,1,2.7-4.648a3.3,3.3,0,0,1,.41,1.723,2.7,2.7,0,0,1-.93,2.133A3.19,3.19,0,0,1,0-.055,3.172,3.172,0,0,1-2.382-.978a2.57,2.57,0,0,1-.738-1.839,2.171,2.171,0,0,1,.663-1.565,5.335,5.335,0,0,1,1.5-1A3.671,3.671,0,0,1-2.471-6.624,2.765,2.765,0,0,1-2.84-8.107a2.172,2.172,0,0,1,.909-1.75,3.006,3.006,0,0,1,1.948-.656,3.014,3.014,0,0,1,2.105.731,1.959,1.959,0,0,1,.69,1.511A1.888,1.888,0,0,1,2.3-6.918,4.468,4.468,0,0,1,.981-6.05Zm-.4-.226a2.151,2.151,0,0,0,.861-1.989A2.007,2.007,0,0,0,.981-9.652a1.248,1.248,0,0,0-.964-.431,1.364,1.364,0,0,0-1.148.547,1.918,1.918,0,0,0-.362,1.2,1.45,1.45,0,0,0,.444,1.087A6.052,6.052,0,0,0,.578-6.275ZM-.543-5.168a2.018,2.018,0,0,0-.923,1.087A3.925,3.925,0,0,0-1.637-2.8a2.725,2.725,0,0,0,.513,1.757A1.418,1.418,0,0,0,.024-.485a1.486,1.486,0,0,0,1.306-.69,2.734,2.734,0,0,0,.4-1.552,1.83,1.83,0,0,0-.574-1.36A6.718,6.718,0,0,0-.543-5.168ZM10.8-5.715Q10.27-4.4,10.01-3.862h4.382q.629-.643.766-.643t.745.547q.294.273.294.417,0,.109-.437.4A8.959,8.959,0,0,1,14.891.13a1.876,1.876,0,0,1-.8.793,2.205,2.205,0,0,1-1.046.226.437.437,0,0,1-.294-.068.405.405,0,0,1-.082-.267.907.907,0,0,0-.41-.656A4.991,4.991,0,0,0,11.1-.362q-.041-.021-.041-.1,0-.13.068-.116,1.688.212,2.229.212.342,0,.6-.547a10.983,10.983,0,0,0,.533-2.632H9.853q-.362.7-.561,1.046a.893.893,0,0,1-.342.39.864.864,0,0,1-.4.075,1.292,1.292,0,0,1-.615-.123.3.3,0,0,1-.2-.267,1.246,1.246,0,0,1,.239-.547,16.152,16.152,0,0,0,1.4-2.748H6.954a8.872,8.872,0,0,0-1.073.082l-.157-.513A6.968,6.968,0,0,0,6.9-6.036h9.058q.834-1,1-1a3.662,3.662,0,0,1,.957.7q.417.362.417.492t-.178.137ZM9.2-7.6v.171q0,.595-.8.595a.638.638,0,0,1-.479-.137.459.459,0,0,1-.1-.321L7.863-9.27q0-1.4-.082-2.338a12.668,12.668,0,0,1,1.613.745h5.011q.6-.684.752-.684a2.263,2.263,0,0,1,.772.52q.321.28.321.417,0,.212-.39.444v.451l.027,2.29q0,.574-.827.574-.533,0-.533-.458V-7.6Zm5.332-.321v-2.618H9.2v2.618ZM28.09-4.5v1.4l.041,2.912a1.359,1.359,0,0,1-.15.7A1.166,1.166,0,0,1,27.55.9a2.355,2.355,0,0,1-1.08.253q-.226,0-.26-.041a.71.71,0,0,1-.075-.28.884.884,0,0,0-.417-.663,4.057,4.057,0,0,0-1.094-.41q-.048-.014-.048-.1t.048-.089q.984.1,1.921.1.185,0,.185-.205V-4.5H24.521v.1a.564.564,0,0,1-.205.506,1,1,0,0,1-.567.123q-.588,0-.588-.506l.062-2.734q0-.786-.062-1.408a12.225,12.225,0,0,1,1.483.7h5.523q.554-.615.7-.615a2.451,2.451,0,0,1,.786.506q.321.26.321.4,0,.185-.4.4v.465l.048,2.331q0,.547-.772.547a.616.616,0,0,1-.485-.144.743.743,0,0,1-.1-.458V-4.5Zm2.181-.321V-7.4H24.521v2.584ZM26.7-9.591v-1.217a7.513,7.513,0,0,0-.082-.923,8.627,8.627,0,0,1,1.647.246q.246.082.246.212,0,.171-.451.355v1.326h3.315q.9-.964,1.066-.964a3.463,3.463,0,0,1,.95.67q.41.349.41.479t-.185.137H22.279a7.312,7.312,0,0,0-.978.082L21.144-9.7a6.279,6.279,0,0,0,1.135.109Zm6.159,9.03a.874.874,0,0,1-.239.636.7.7,0,0,1-.506.205.627.627,0,0,1-.54-.253,8.585,8.585,0,0,1-.6-1.176A6.769,6.769,0,0,0,29.3-3.158a.046.046,0,0,1-.021-.041q0-.1.082-.1h.021Q32.861-2.023,32.861-.561ZM25.683-2.434q0,.212-.649.253A9.2,9.2,0,0,1,23.277-.567a11.037,11.037,0,0,1-1.955.991A.028.028,0,0,1,21.3.431q-.116,0-.116-.123A.046.046,0,0,1,21.2.273a9.824,9.824,0,0,0,2.406-2.652,5.871,5.871,0,0,0,.479-1,14.545,14.545,0,0,1,1.319.615Q25.683-2.591,25.683-2.434Zm15.81-4.525h.656q.608-.766.786-.766.137,0,.738.547.308.28.308.4t-.178.137H41.227a17.087,17.087,0,0,1-1.88,1.853H41.48q.5-.6.656-.6a2.177,2.177,0,0,1,.738.479q.294.253.294.39,0,.116-.335.349v.738L42.874.4q0,.533-.752.533-.533,0-.533-.479V.109H39.026V.526q0,.561-.766.561-.533,0-.533-.492l.055-2.611q0-1.066-.014-1.606a15.7,15.7,0,0,1-1.395.8.02.02,0,0,1-.014.007q-.089,0-.089-.123a.053.053,0,0,1,.021-.048q.834-.629,1.477-1.21l-.027-1.251q.431.185.882.41a16.749,16.749,0,0,0,1.4-1.6h-2.55a6.787,6.787,0,0,0-.937.082l-.157-.513a5.511,5.511,0,0,0,1.053.109h1.483V-9.126H37.891a4.862,4.862,0,0,0-.793.082l-.157-.52a4.5,4.5,0,0,0,.964.116h1.012v-.95a12.749,12.749,0,0,0-.068-1.278q1.736.171,1.736.438,0,.164-.451.376v1.415H40.4q.417-.574.6-.574.137,0,.561.4a.718.718,0,0,1,.226.335l.205-.4A10.959,10.959,0,0,0,42.58-11.1a11.648,11.648,0,0,1,1.244.629q.212.137.212.267,0,.28-.5.28A20.634,20.634,0,0,1,41.493-6.959Zm-1.224,0A18.657,18.657,0,0,0,41.712-9.14a.284.284,0,0,1-.109.014h-1.47v2.167ZM41.589-.212V-2.283H39.026V-.212Zm0-2.393V-4.464H39.026V-2.6Zm7.718-7.718a.192.192,0,0,1-.1.185,1.289,1.289,0,0,1-.376.13q-.67,1.2-1.066,1.8-.376.574-1.224,1.764a7.161,7.161,0,0,1,2.085,1.873,3.181,3.181,0,0,1,.5,1.777,1.884,1.884,0,0,1-.615,1.545,1.62,1.62,0,0,1-1.08.362q-.185,0-.239-.082a1.246,1.246,0,0,1-.109-.355.738.738,0,0,0-.424-.5,5.285,5.285,0,0,0-.957-.335q-.055-.014-.055-.109t.055-.1q.752.055,1.606.055a.5.5,0,0,0,.383-.109q.15-.137.15-.854a3.964,3.964,0,0,0-1.627-3.1,29.7,29.7,0,0,0,1.265-4.074H45.486V-1.4l.027,2.03q0,.561-.8.561-.5,0-.5-.479l.041-7.752q0-3.37-.068-4.4.779.335,1.408.67h1.839q.581-.629.725-.629t.813.615Q49.307-10.466,49.307-10.322ZM61-5.182l.027,2.762.041,2.283a1.263,1.263,0,0,1-.376.964,1.489,1.489,0,0,1-1.012.321.3.3,0,0,1-.246-.082.794.794,0,0,1-.1-.294.793.793,0,0,0-.335-.554,3.991,3.991,0,0,0-.937-.328q-.048-.014-.048-.082,0-.089.062-.089Q59.047-.2,59.58-.2q.232,0,.253-.267v-3.1a.746.746,0,0,1-.362.185,6.814,6.814,0,0,1-1.477,2.338A7.975,7.975,0,0,1,55.827.41a.028.028,0,0,1-.021.007q-.109,0-.109-.1a.039.039,0,0,1,.014-.027,7.686,7.686,0,0,0,2.481-4.054h-.786a3.127,3.127,0,0,0-.813.116l-.15-.547a4.2,4.2,0,0,0,.923.109h.772q.5-.615.656-.615t.772.574a1.4,1.4,0,0,1,.267.294v-2.03H58.808v.144q0,.485-.711.485-.506,0-.506-.4l.055-3.124q0-1.121-.055-2.017a12.99,12.99,0,0,1,1.374.684h.643q.1-.52.13-.725.062-.465.082-.978,1.668.4,1.668.643,0,.219-.492.239a8.52,8.52,0,0,1-.882.82H62q.6-.629.745-.629t.745.506q.308.267.308.4a.242.242,0,0,1-.058.167,3.279,3.279,0,0,1-.352.284v.574l.055,3.008a.418.418,0,0,1-.253.424q.9.533,1.148.725t.239.294q0,.219-.574.253a13.954,13.954,0,0,1-1.8,1.025,6.078,6.078,0,0,0,2.741,1.887q.048.021.048.055t-.048.068a1.938,1.938,0,0,0-.827,1.08Q64,.4,63.832.4q-.123,0-.362-.239a7.221,7.221,0,0,1-1.579-2.126A12.578,12.578,0,0,1,61-5.182ZM62.027-3.3a7.5,7.5,0,0,0,.649-.937,5.1,5.1,0,0,0,.485-1.107,1.194,1.194,0,0,1-.417.068.649.649,0,0,1-.458-.123.472.472,0,0,1-.1-.342v-.123H61.036A7.26,7.26,0,0,0,62.027-3.3Zm.157-2.885V-7.9H58.808v1.709Zm0-2.03V-9.775H58.808v1.559ZM54-5q-.212.041-.622.13-.492.109-.663.15-.123.39-.294.39-.15,0-.26-.335-.1-.314-.26-1.189.349.027.725.027h.745a18,18,0,0,0,1.4-2.536,9.112,9.112,0,0,0,.574-1.511q1.524.7,1.524.964,0,.232-.547.212-.807,1.087-1.278,1.62Q54.6-6.59,53.8-5.824q.759-.014,2.2-.068a3.665,3.665,0,0,0-.492-1.121.066.066,0,0,1-.014-.034q0-.062.089-.062a.076.076,0,0,1,.034.007Q57.2-6.214,57.2-5.264A.846.846,0,0,1,57-4.683a.531.531,0,0,1-.41.205.4.4,0,0,1-.369-.226,2.152,2.152,0,0,1-.15-.731l-.014-.137q-.759.253-.909.294v1.948L55.184.656q0,.547-.711.547-.561,0-.561-.451Q54-.984,54-2.3v-.909a.815.815,0,0,1-.362.137A9.782,9.782,0,0,1,51.9.116a.053.053,0,0,1-.048.021q-.109,0-.109-.082a.028.028,0,0,1,.007-.021,14.886,14.886,0,0,0,.581-2.29,9.7,9.7,0,0,0,.2-1.75A5.99,5.99,0,0,1,54-3.459ZM53.284-9.14q.205-.54.458-1.4.185-.738.267-1.244,1.661.588,1.661.82t-.554.239a20.848,20.848,0,0,1-1.524,1.764,1.212,1.212,0,0,1,.595,1.039.806.806,0,0,1-.205.574.559.559,0,0,1-.424.191.4.4,0,0,1-.369-.15,3.333,3.333,0,0,1-.26-.69,3.16,3.16,0,0,0-.82-1.415.066.066,0,0,1-.021-.048q0-.109.1-.089A6.157,6.157,0,0,1,53.284-9.14Zm3.65,6.993a.921.921,0,0,1-.191.615.566.566,0,0,1-.451.2.379.379,0,0,1-.383-.253,2.557,2.557,0,0,1-.109-.67,3.978,3.978,0,0,0-.417-1.7.028.028,0,0,1-.007-.021q0-.062.075-.062a.074.074,0,0,1,.041.014Q56.934-3.021,56.934-2.146ZM-45.564,19.5v1.4l.041,2.912a1.359,1.359,0,0,1-.15.7,1.166,1.166,0,0,1-.431.383,2.355,2.355,0,0,1-1.08.253q-.226,0-.26-.041a.71.71,0,0,1-.075-.28.884.884,0,0,0-.417-.663,4.057,4.057,0,0,0-1.094-.41q-.048-.014-.048-.1t.048-.089q.984.1,1.921.1.185,0,.185-.205V19.5h-2.208v.1a.564.564,0,0,1-.205.506,1,1,0,0,1-.567.123q-.588,0-.588-.506l.062-2.734q0-.786-.062-1.408a12.224,12.224,0,0,1,1.483.7h5.523q.554-.615.7-.615a2.451,2.451,0,0,1,.786.506q.321.26.321.4,0,.185-.4.4v.465l.048,2.331q0,.547-.772.547a.616.616,0,0,1-.485-.144.743.743,0,0,1-.1-.458V19.5Zm2.181-.321V16.6h-5.749v2.584Zm-3.568-4.771V13.192a7.513,7.513,0,0,0-.082-.923,8.627,8.627,0,0,1,1.647.246q.246.082.246.212,0,.171-.451.355v1.326h3.315q.9-.964,1.066-.964a3.463,3.463,0,0,1,.95.67q.41.349.41.479t-.185.137H-51.375a7.312,7.312,0,0,0-.978.082l-.157-.513a6.279,6.279,0,0,0,1.135.109Zm6.159,9.03a.874.874,0,0,1-.239.636.7.7,0,0,1-.506.205.627.627,0,0,1-.54-.253,8.585,8.585,0,0,1-.6-1.176,6.769,6.769,0,0,0-1.675-2.01.046.046,0,0,1-.021-.041q0-.1.082-.1h.021Q-40.793,21.977-40.793,23.439Zm-7.178-1.873q0,.212-.649.253a9.2,9.2,0,0,1-1.757,1.613,11.037,11.037,0,0,1-1.955.991.028.028,0,0,1-.021.007q-.116,0-.116-.123a.046.046,0,0,1,.014-.034,9.824,9.824,0,0,0,2.406-2.652,5.871,5.871,0,0,0,.479-1,14.545,14.545,0,0,1,1.319.615Q-47.971,21.409-47.971,21.566ZM-29.522,14.7a7.008,7.008,0,0,0,2.393,1.873,12.045,12.045,0,0,0,3.042.937.068.068,0,0,1,.048.075q0,.082-.062.1a1.189,1.189,0,0,0-.827.854,1.138,1.138,0,0,1-.1.291.156.156,0,0,1-.137.058,2.547,2.547,0,0,1-.684-.267,13.112,13.112,0,0,1-1.531-.937,8.647,8.647,0,0,1-2.481-2.98h-1.429a9.837,9.837,0,0,1-2.632,2.8,13.507,13.507,0,0,1-3.315,1.682.028.028,0,0,1-.021.007q-.1,0-.1-.13a.046.046,0,0,1,.021-.041,12.647,12.647,0,0,0,4.546-4.32h-2.939a10.2,10.2,0,0,0-1.148.082l-.15-.513a7.827,7.827,0,0,0,1.258.109H-32.6a9.082,9.082,0,0,0,.854-2.14q1.8.4,1.8.656t-.581.39q-.2.451-.561,1.094h4.259q.779-.923.95-.923a3.787,3.787,0,0,1,.991.643q.431.342.431.465t-.178.137Zm-.636,5.346v.786l.055,2.98a1.119,1.119,0,0,1-.588,1.066,1.921,1.921,0,0,1-1.08.28.3.3,0,0,1-.267-.116,1.467,1.467,0,0,1-.123-.4q-.116-.533-1.442-.909-.055-.014-.055-.1t.055-.1q1.224.089,1.887.089.185,0,.185-.2V20.049h-3.541a11.277,11.277,0,0,0-1.217.082l-.157-.513a9.236,9.236,0,0,0,1.36.109h7.752q.766-.909.943-.909a3.191,3.191,0,0,1,.909.629q.39.335.39.465t-.185.137Zm2.208-2.194q0,.137-.178.137h-4.56a8.324,8.324,0,0,0-1.039.082l-.15-.513a6.113,6.113,0,0,0,1.1.109h2.789q.7-.786.861-.786a2.685,2.685,0,0,1,.827.547Q-27.949,17.718-27.949,17.854Zm2.55,5.77a.859.859,0,0,1-.232.636.687.687,0,0,1-.506.205.587.587,0,0,1-.5-.226,8.585,8.585,0,0,1-.574-1.08A6.349,6.349,0,0,0-29,21.074a.074.074,0,0,1-.021-.055q0-.109.089-.089a7,7,0,0,1,2.707,1.237A1.931,1.931,0,0,1-25.4,23.624Zm-7.2-2.017q0,.232-.649.308a9.285,9.285,0,0,1-3.767,2.721.061.061,0,0,1-.027.007q-.13,0-.13-.116a.039.039,0,0,1,.014-.027,9.3,9.3,0,0,0,2.379-2.714,4.836,4.836,0,0,0,.492-1.114,13.3,13.3,0,0,1,1.408.636Q-32.6,21.471-32.6,21.607Zm13.424-2.5a12.393,12.393,0,0,1-1.415,1.9,9.34,9.34,0,0,1-1.36,1.2.061.061,0,0,1-.027.007q-.082,0-.082-.1a.046.046,0,0,1,.014-.034,16.312,16.312,0,0,0,2.577-5.223h-1.5a5.383,5.383,0,0,0-.827.082l-.15-.513a4.452,4.452,0,0,0,.937.109h1.764V14.252q-1.114.171-2.44.253-.068,0-.068-.116,0-.068.041-.082a14.13,14.13,0,0,0,3.753-1.354,6.581,6.581,0,0,0,1.025-.711q.916.7,1.094.882a.407.407,0,0,1,.15.287q0,.185-.3.185a1.939,1.939,0,0,1-.4-.055,15.715,15.715,0,0,1-1.593.479v2.516h.588q.622-.786.8-.786a2.486,2.486,0,0,1,.813.561q.335.273.335.4t-.185.144h-2.352v1.2q2.229.581,2.229,1.668a.778.778,0,0,1-.205.554.568.568,0,0,1-.424.185.483.483,0,0,1-.4-.164,3.148,3.148,0,0,1-.314-.649,4.01,4.01,0,0,0-.882-1.34v.28l.014,6q0,.533-.807.533-.561,0-.561-.431,0-.123.089-2.42Q-19.18,20.343-19.173,19.112Zm8.1,4.471H-13.91v.547q0,.547-.8.547-.574,0-.574-.451l.055-7q0-2.1-.055-3.309a15.582,15.582,0,0,1,1.5.731h2.618q.608-.684.752-.684t.745.533q.308.287.308.431,0,.164-.39.458v1.4l.068,7.26q0,.561-.772.561-.615,0-.615-.465Zm0-.321V14.97H-13.91v8.292ZM2.98,24.1H-2.994V24.6q0,.574-.786.574a.7.7,0,0,1-.5-.137.472.472,0,0,1-.1-.342l.055-7.479q0-1.88-.055-3.452.9.376,1.586.738h1.258q.267-.766.431-1.4a4.5,4.5,0,0,0,.171-.95A10.921,10.921,0,0,1,.5,12.584q.3.13.3.267,0,.205-.52.294A10.854,10.854,0,0,1-1.06,14.5H2.857q.567-.615.711-.615a2.255,2.255,0,0,1,.848.492q.362.267.362.444t-.451.492v1.415l.055,7.813q0,.574-.8.574a.688.688,0,0,1-.485-.13.5.5,0,0,1-.116-.376Zm0-.321V20.753H-2.994v3.021Zm0-3.343V17.738H-2.994v2.693Zm0-3.015V14.826H-2.994v2.591Zm15.974-1.073a13.69,13.69,0,0,1-1.449,5.968,8.01,8.01,0,0,1-3.233,2.837h-.014q-.089,0-.089-.137a.053.053,0,0,1,.021-.048,8.869,8.869,0,0,0,2.673-3.644,16.865,16.865,0,0,0,.861-4.977h-.376a4.208,4.208,0,0,0-1.025.109l-.15-.547a5.249,5.249,0,0,0,1.107.116h.458q.041-1.012.041-2.187a13.053,13.053,0,0,0-.068-1.4,14.408,14.408,0,0,1,1.531.26q.246.068.246.219,0,.2-.417.39-.027,1.606-.1,2.721h1.148q.4-.472.513-.574a.315.315,0,0,1,.205-.089q.171,0,.738.533.294.26.294.424t-.376.4q-.068,5.318-.67,6.959a1.715,1.715,0,0,1-.786.923,2.007,2.007,0,0,1-.923.212.579.579,0,0,1-.321-.062.326.326,0,0,1-.082-.219.783.783,0,0,0-.321-.615,3.128,3.128,0,0,0-1.046-.417q-.048-.014-.048-.089,0-.109.062-.109,1.265.109,1.846.109a.486.486,0,0,0,.4-.13,1.569,1.569,0,0,0,.2-.54,32.978,32.978,0,0,0,.465-6.4Zm-5.681,3.9v1.278h.882q.547-.69.725-.69a2.1,2.1,0,0,1,.725.479q.308.267.308.4t-.178.137H13.274v1.107q1.429-.171,2.509-.383.089-.021.089.123a.059.059,0,0,1-.034.062,19.63,19.63,0,0,1-2.355.817q-1.138.311-3.572.81-.116.485-.294.485-.157,0-.273-.294T8.92,23.221q.314.007.684.007.574,0,1.244-.041.889-.062,1.237-.1V21.847H10.458a7.891,7.891,0,0,0-1.025.082l-.15-.513a6.279,6.279,0,0,0,1.135.109h1.668V20.247H10.793q-.041.506-.643.506-.574,0-.574-.41L9.6,18.066q0-1.21-.055-2.2a11.668,11.668,0,0,1,1.326.615h1.21V15.346h-2a7.408,7.408,0,0,0-1,.082l-.15-.513a6.113,6.113,0,0,0,1.1.109h2.051V13.89q-1.094.1-2.687.1-.075,0-.075-.13,0-.062.034-.068a15.842,15.842,0,0,0,3.732-.9,6.964,6.964,0,0,0,1.552-.745q1.176.882,1.176,1.094,0,.13-.267.13a2.2,2.2,0,0,1-.4-.048,13.844,13.844,0,0,1-1.873.424v1.271h1.3q.663-.8.834-.8a2.614,2.614,0,0,1,.8.561q.335.294.335.417,0,.144-.178.144h-3.09V16.48h1.189q.567-.588.711-.588a2.177,2.177,0,0,1,.738.479q.294.232.294.376t-.39.376V20.09q0,.595-.67.595-.54,0-.561-.437Zm0-.321h1.313V18.47H13.274Zm0-1.777h1.313V16.8H13.274Zm-2.481,1.777h1.292V18.47H10.793Zm0-1.777h1.292V16.8H10.793Zm19.153-2.174V14.491H25.885a8.459,8.459,0,0,0-1.066.082l-.15-.513a7.348,7.348,0,0,0,1.217.109h4.061a18.677,18.677,0,0,0-.1-1.914,14.741,14.741,0,0,1,1.545.2q.226.068.226.232t-.444.362V14.17h3.343q.752-.9.923-.9a3.747,3.747,0,0,1,.984.629q.417.321.417.451t-.185.137H31.176v1.483H33.76q.567-.643.718-.643a2.344,2.344,0,0,1,.786.52q.321.28.321.417,0,.2-.437.479v.643l.055,3.247q0,.52-.779.52-.52,0-.52-.444V20.5H31.2l.014,1.627h3.527q.759-.937.937-.937a3.991,3.991,0,0,1,1.019.656q.451.335.451.465t-.185.137H31.217q.027,2.105.027,2.256,0,.533-.807.533-.588,0-.588-.479,0-.588.041-2.311H25.714a8.872,8.872,0,0,0-1.073.082l-.157-.513a7.434,7.434,0,0,0,1.217.109h4.19q0-.533.027-1.627H27.382v.253a.468.468,0,0,1-.205.438,1.157,1.157,0,0,1-.581.109q-.533,0-.533-.451l.075-4.1a12.088,12.088,0,0,0-.075-1.456,14.534,14.534,0,0,1,1.47.684Zm1.23.321q0,1.135.014,1.709H33.9V16.3Zm-1.23,0H27.382V18h2.55q.014-.349.014-1.039Zm-.027,3.883q.014-.547.014-1.853h-2.55v1.853Zm1.285,0h2.7V18.326H31.19Q31.19,19.632,31.2,20.179Zm17.519-5.332a9.976,9.976,0,0,1-1.429,1.538h2.488q.506-.629.663-.629a2.121,2.121,0,0,1,.745.492q.308.267.308.4,0,.178-.369.431v.868l.048,4.437q0,.6-.745.6-.574,0-.574-.506v-.109h-4.1V22.5q0,.533-.7.533-.574,0-.574-.492l.068-3.172q0-2.146-.075-3.678a15.273,15.273,0,0,1,1.415.7h.9a7.057,7.057,0,0,0,.294-1.538H44.491a6.283,6.283,0,0,0-.9.082l-.15-.513a5.48,5.48,0,0,0,1.046.109h3.814a12.054,12.054,0,0,0,.431-1.183A8.961,8.961,0,0,0,49,12.181q1.764.561,1.764.8,0,.26-.656.294a6.787,6.787,0,0,1-1.36,1.251h1.709q.738-.868.909-.868a3.348,3.348,0,0,1,.909.6q.4.335.4.451,0,.137-.185.137Zm1.135,7.205V20.418h-4.1v1.634Zm0-1.955V18.538h-4.1V20.1Zm0-1.88V16.706h-4.1v1.511ZM42.9,14.5a.85.85,0,0,1-.232.629.717.717,0,0,1-.54.212.487.487,0,0,1-.41-.2,2.346,2.346,0,0,1-.273-.67,3.674,3.674,0,0,0-.9-1.634.074.074,0,0,1-.014-.041q0-.089.109-.089h.021Q42.9,13.268,42.9,14.5Zm4.327-.9a.7.7,0,0,1-.212.533.658.658,0,0,1-.465.178.462.462,0,0,1-.362-.137,1.158,1.158,0,0,1-.185-.41,3.49,3.49,0,0,0-.731-1.395.112.112,0,0,1-.007-.034q0-.1.109-.1h.014Q47.225,12.734,47.225,13.6Zm5.64,9.837a.977.977,0,0,0-.547.786.98.98,0,0,1-.1.417.339.339,0,0,1-.239.082,29.824,29.824,0,0,1-3.418.13,18.26,18.26,0,0,1-3.021-.191,4.265,4.265,0,0,1-1.627-.595,3.462,3.462,0,0,1-1.34-2,11.309,11.309,0,0,1-1.613,2.1,1.779,1.779,0,0,1,.021.246q0,.4-.253.4-.3,0-1.039-1.709a5.858,5.858,0,0,0,1.08-.4,6.318,6.318,0,0,0,.9-.513V18.456H40.7a2.981,2.981,0,0,0-.766.109L39.774,18a3.467,3.467,0,0,0,.923.13h.882q.567-.643.718-.643a2.339,2.339,0,0,1,.766.485q.321.267.321.41,0,.1-.417.444v3.3a3.027,3.027,0,0,0,.629.813,2.172,2.172,0,0,0,.7.369,11.679,11.679,0,0,0,3.179.321,49.685,49.685,0,0,0,5.38-.355q.055-.014.055.068A.09.09,0,0,1,52.865,23.439Z" transform="translate(738 1779)" fill="#fff"/>
    <path id="パス_13489" data-name="パス 13489" d="M-21.282-5.811a20.388,20.388,0,0,0,1.641-2.646A8.629,8.629,0,0,0-19-9.9q1.565.718,1.565.937,0,.2-.458.2h-.082Q-19.135-7.4-19.532-7q-.383.383-1.312,1.189.793,0,2.393-.055a3.6,3.6,0,0,0-.608-1.189.061.061,0,0,1-.007-.027q0-.075.1-.075a.076.076,0,0,1,.034.007q1.764.957,1.764,1.982a.954.954,0,0,1-.2.629.558.558,0,0,1-.431.2.431.431,0,0,1-.41-.205,2.129,2.129,0,0,1-.178-.827L-18.4-5.53q-.308.109-.923.28v1.935L-19.279.67q0,.533-.738.533-.561,0-.561-.431Q-20.5-.506-20.5-2.27v-2.7Q-21-4.86-21.979-4.7q-.137.39-.308.39-.137,0-.253-.342t-.267-1.183q.362.027.745.027Zm5.715-2.659A8.526,8.526,0,0,1-17.419-6.3a.074.074,0,0,1-.041.014q-.123,0-.123-.089a.052.052,0,0,1,.007-.021A13.384,13.384,0,0,0-16.2-9.871a9.772,9.772,0,0,0,.335-1.8q1.914.492,1.914.745t-.554.335a14.135,14.135,0,0,1-.868,1.8h3.315q.615-.725.772-.725t.793.588q.335.294.335.444,0,.109-.431.417-.082,2.755-.239,4.307a21.867,21.867,0,0,1-.485,3.015,2.143,2.143,0,0,1-.9,1.36,2.062,2.062,0,0,1-1.176.321.407.407,0,0,1-.294-.075.8.8,0,0,1-.109-.314,1.027,1.027,0,0,0-.458-.684,4.818,4.818,0,0,0-1.107-.424Q-15.4-.574-15.4-.677t.055-.109q1.224.109,1.62.109a2.349,2.349,0,0,0,.9-.109.523.523,0,0,0,.232-.342A32.954,32.954,0,0,0-11.91-8.47Zm-5.722-.772a14.18,14.18,0,0,0,.615-1.661,6.6,6.6,0,0,0,.205-.854q1.661.588,1.661.868,0,.232-.554.232a18.23,18.23,0,0,1-1.593,1.613,1.271,1.271,0,0,1,.663,1.06.891.891,0,0,1-.205.622.589.589,0,0,1-.451.191.533.533,0,0,1-.451-.164,2.829,2.829,0,0,1-.273-.718,3.37,3.37,0,0,0-.923-1.511.046.046,0,0,1-.021-.041q0-.1.1-.082A8.19,8.19,0,0,1-21.288-9.242Zm7.608,4.9a.991.991,0,0,1-.239.677.68.68,0,0,1-.526.246q-.438,0-.561-.615a9.868,9.868,0,0,0-.52-1.5,3.246,3.246,0,0,0-.6-.889.084.084,0,0,1-.014-.048.073.073,0,0,1,.082-.082h.014a3.98,3.98,0,0,1,1.764.991A1.749,1.749,0,0,1-13.68-4.341Zm-3.514,2.563a1,1,0,0,1-.212.663.6.6,0,0,1-.472.219.422.422,0,0,1-.41-.26,2.907,2.907,0,0,1-.191-.889A4.309,4.309,0,0,0-19.1-3.937a.039.039,0,0,1-.014-.027q0-.068.082-.068a.074.074,0,0,1,.041.014Q-17.194-2.905-17.194-1.777Zm-3.391-1.613q0,.185-.4.267A7.9,7.9,0,0,1-22.9.185.056.056,0,0,1-22.943.2a.079.079,0,0,1-.089-.089.052.052,0,0,1,.007-.021,11.142,11.142,0,0,0,.786-2.639,6.617,6.617,0,0,0,.116-1.244q0-.1.007-.226,1.073.314,1.333.431Q-20.584-3.5-20.584-3.391Zm17.041-7.191q.226,0,.226.164-.007.376-.034,1.641-.021.841-.021,1.456v4.382q0,1.094.027,1.388a1.356,1.356,0,0,0,.13.472.6.6,0,0,0,.465.28q.137.027.725.089Q-1.9-.7-1.9-.506t-.123.2Q-3-.349-4.1-.349q-1.135,0-2.126.041-.144,0-.144-.2t.144-.205a5.9,5.9,0,0,0,.8-.1.51.51,0,0,0,.383-.273A6.434,6.434,0,0,0-4.9-2.939V-7.95a2.306,2.306,0,0,0-.144-1.073q-.075-.13-.328-.13a1.838,1.838,0,0,0-.492.082l-.547.15a.481.481,0,0,1-.1.021q-.1,0-.144-.171a.657.657,0,0,1-.021-.123q0-.082.15-.13Q-5.116-9.837-3.544-10.582Zm6.11,1.736-.2,2.516q-.007.109-.041.355T2.286-5.6a2.788,2.788,0,0,1,2.208-.868,2.636,2.636,0,0,1,2.16.943,3.21,3.21,0,0,1,.67,2.1,3.39,3.39,0,0,1-.93,2.509,3.063,3.063,0,0,1-2.276.861A3.975,3.975,0,0,1,2.142-.533q-.95-.547-.95-1.189a.48.48,0,0,1,.294-.417A1.416,1.416,0,0,1,2.2-2.3a.733.733,0,0,1,.629.417,4.941,4.941,0,0,1,.28.622,1.068,1.068,0,0,0,1.012.772,1.3,1.3,0,0,0,1.224-.943,5.216,5.216,0,0,0,.314-1.982A3.056,3.056,0,0,0,5.1-5.353a1.352,1.352,0,0,0-1.087-.581A1.939,1.939,0,0,0,2.245-4.915q-.075.13-.171.13a.678.678,0,0,1-.212-.055q-.178-.082-.178-.191a.576.576,0,0,1,.014-.1q.068-.28.082-.39L2.115-9.98a.31.31,0,0,1,.082-.185.285.285,0,0,1,.2-.082q.561.014,2.194.014,1.142,0,2.379-.055.13,0,.13.089,0,.014,0,.021L6.64-8.914a.145.145,0,0,1-.144.1q-1.121-.027-1.415-.027ZM16.011-5.571a7.367,7.367,0,0,1-1.846,4.553,8.439,8.439,0,0,1-3.979,2.126q-.1.021-.1-.123a.053.053,0,0,1,.021-.048,8.935,8.935,0,0,0,3.329-2.905,8.194,8.194,0,0,0,1.114-3.6H13.5a6.885,6.885,0,0,0-1.176.109l-.157-.561a6.786,6.786,0,0,0,1.292.13h5.3q.629-.615.766-.615.157,0,.8.561.335.314.335.444t-.4.41a18.141,18.141,0,0,1-.731,4.71,2.174,2.174,0,0,1-.643.957,1.843,1.843,0,0,1-1.2.39A.663.663,0,0,1,17.3.9.6.6,0,0,1,17.16.574a.979.979,0,0,0-.472-.608A5.269,5.269,0,0,0,15.56-.485q-.041-.007-.041-.1,0-.157.068-.144a15.618,15.618,0,0,0,2.078.232.523.523,0,0,0,.472-.267,3.685,3.685,0,0,0,.314-.9,23.348,23.348,0,0,0,.458-3.917ZM23.127-6.72q.041.007.041.089,0,.109-.062.123a.884.884,0,0,0-.54.314,1.946,1.946,0,0,0-.287.663q-.089.4-.232.4a1.556,1.556,0,0,1-.615-.308A9.7,9.7,0,0,1,19.921-6.72,7.932,7.932,0,0,1,18.67-8.456a19.811,19.811,0,0,1-.991-2.256.71.71,0,0,0-.185-.253.177.177,0,0,1-.109-.15q0-.089.226-.178a.873.873,0,0,1,.321-.075q.137,0,.137.109L18-11.006a.8.8,0,0,0,.082.308,7.3,7.3,0,0,0,2.058,2.6A7.4,7.4,0,0,0,23.127-6.72Zm-7.267-3.89q0,.267-.574.308a13.306,13.306,0,0,1-2.413,3.356,12.228,12.228,0,0,1-2.905,2.01.028.028,0,0,1-.021.007q-.109,0-.109-.123a.046.046,0,0,1,.014-.034,12.94,12.94,0,0,0,3.391-4.348,9.159,9.159,0,0,0,.725-2.044Q15.861-10.855,15.861-10.609Z" transform="translate(1182 1837)" fill="#fff"/>
    <path id="パス_12685-2" data-name="パス 12685" d="M-3616.505,12067.5H-3876v-1h259.495Z" transform="translate(4926 -10252)" fill="#fff"/>
    <path id="パス_13490" data-name="パス 13490" d="M4,0,8,7H0Z" transform="translate(1314 1811) rotate(90)" fill="#fff"/>
    <path id="パス_13491" data-name="パス 13491" d="M-32.662-2.229v-3.3h-1.613a5.361,5.361,0,0,0-.848.082l-.157-.513a4.7,4.7,0,0,0,.964.109h1.654V-8.415H-34.61a6.283,6.283,0,0,0-.9.082l-.15-.513a5.42,5.42,0,0,0,1.032.109h4.669q.656-.772.827-.772a2.965,2.965,0,0,1,.868.547q.362.287.362.41t-.185.137h-3.261v2.563h1.121q.554-.772.738-.772a2.719,2.719,0,0,1,.813.533q.349.287.349.424t-.178.137h-2.844v3.3h1.736q.567-.827.759-.827a2.752,2.752,0,0,1,.841.588q.349.287.349.424t-.185.137h-6.986a5.39,5.39,0,0,0-.854.082l-.157-.513a4.883,4.883,0,0,0,.991.109Zm3.835-1.477a.665.665,0,0,1-.205.5.576.576,0,0,1-.424.171.444.444,0,0,1-.328-.116,1.223,1.223,0,0,1-.191-.376,3.237,3.237,0,0,0-.889-1.326.059.059,0,0,1-.021-.041q0-.062.075-.062h.021Q-28.827-4.607-28.827-3.705ZM-36.312.041V.39q0,.561-.813.561-.561,0-.561-.465.089-2.659.089-7.246,0-2.823-.075-4.819a13.5,13.5,0,0,1,1.572.813h8.613q.636-.711.786-.711t.8.561q.321.3.321.431,0,.2-.417.444v1.709q0,5.086.082,8.654,0,.574-.841.574-.574,0-.574-.451v-.4ZM-27.33-.28V-10.445h-8.982V-.28Zm13.445-8.873a9.976,9.976,0,0,1-1.429,1.538h2.488q.506-.629.663-.629a2.121,2.121,0,0,1,.745.492q.308.267.308.4,0,.178-.369.431v.868l.048,4.437q0,.6-.745.6-.574,0-.574-.506v-.109h-4.1V-1.5q0,.533-.7.533-.574,0-.574-.492l.068-3.172q0-2.146-.075-3.678a15.273,15.273,0,0,1,1.415.7h.9a7.057,7.057,0,0,0,.294-1.538h-2.591a6.283,6.283,0,0,0-.9.082l-.15-.513a5.48,5.48,0,0,0,1.046.109H-14.3a12.054,12.054,0,0,0,.431-1.183,8.961,8.961,0,0,0,.267-1.162q1.764.561,1.764.8,0,.26-.656.294a6.787,6.787,0,0,1-1.36,1.251h1.709q.738-.868.909-.868a3.348,3.348,0,0,1,.909.6q.4.335.4.451,0,.137-.185.137Zm1.135,7.205V-3.582h-4.1v1.634Zm0-1.955V-5.462h-4.1V-3.9Zm0-1.88V-7.294h-4.1v1.511ZM-19.709-9.5a.85.85,0,0,1-.232.629.717.717,0,0,1-.54.212.487.487,0,0,1-.41-.2,2.346,2.346,0,0,1-.273-.67,3.674,3.674,0,0,0-.9-1.634.073.073,0,0,1-.014-.041q0-.089.109-.089h.021Q-19.709-10.732-19.709-9.5Zm4.327-.9a.7.7,0,0,1-.212.533.658.658,0,0,1-.465.178.462.462,0,0,1-.362-.137,1.158,1.158,0,0,1-.185-.41,3.49,3.49,0,0,0-.731-1.395.112.112,0,0,1-.007-.034q0-.1.109-.1h.014Q-15.382-11.266-15.382-10.4Zm5.64,9.837a.977.977,0,0,0-.547.786.98.98,0,0,1-.1.417.339.339,0,0,1-.239.082,29.824,29.824,0,0,1-3.418.13A18.26,18.26,0,0,1-17.064.663,4.265,4.265,0,0,1-18.691.068a3.462,3.462,0,0,1-1.34-2,11.31,11.31,0,0,1-1.613,2.1,1.779,1.779,0,0,1,.021.246q0,.4-.253.4-.3,0-1.039-1.709a5.858,5.858,0,0,0,1.08-.4,6.318,6.318,0,0,0,.9-.513V-5.544h-.971a2.981,2.981,0,0,0-.766.109L-22.833-6a3.467,3.467,0,0,0,.923.13h.882q.567-.643.718-.643a2.339,2.339,0,0,1,.766.485q.321.267.321.41,0,.1-.417.444v3.3a3.027,3.027,0,0,0,.629.813,2.172,2.172,0,0,0,.7.369,11.679,11.679,0,0,0,3.179.321,49.685,49.685,0,0,0,5.38-.355q.055-.014.055.068A.09.09,0,0,1-9.743-.561Zm7.853.253q-.95-.027-2.7-.027-1.846,0-2.769.027-.123,0-.15-.041a.381.381,0,0,1-.034-.2.862.862,0,0,1,.082-.39A28.483,28.483,0,0,1-5.007-4.525,21.186,21.186,0,0,0-3.571-6.5a3.245,3.245,0,0,0,.424-1.593,2.784,2.784,0,0,0-.342-1.5.982.982,0,0,0-.861-.5,1.156,1.156,0,0,0-1.162.813,3.065,3.065,0,0,0-.123,1.025.578.578,0,0,1-.376.5,1.439,1.439,0,0,1-.677.157q-.67,0-.67-.533A1.842,1.842,0,0,1-7-9.146a3.041,3.041,0,0,1,1.032-.95,3.225,3.225,0,0,1,1.613-.417,3.006,3.006,0,0,1,2.256.82,2.3,2.3,0,0,1,.643,1.654,3.088,3.088,0,0,1-.923,2.181q-.287.3-.957.875-.547.472-.82.725a21.313,21.313,0,0,0-1.654,1.62,5.788,5.788,0,0,0-.67.943H-4a6.354,6.354,0,0,0,1.251-.082,1.1,1.1,0,0,0,.485-.253A3.921,3.921,0,0,0-1.5-3.11q.055-.1.123-.1a.4.4,0,0,1,.1.021q.144.048.144.144V-3Q-1.452-1.654-1.889-.308ZM6.23-3.049v.615q0,.8.014.95a1.488,1.488,0,0,0,.109.451.527.527,0,0,0,.4.287,5.418,5.418,0,0,0,.615.075q.1,0,.1.178t-.109.185Q6.2-.362,5.54-.362q-.711,0-1.894.055-.123,0-.123-.185,0-.164.123-.178a5.464,5.464,0,0,0,.643-.089A.449.449,0,0,0,4.6-.978a3.721,3.721,0,0,0,.185-1.429v-.629H2.573l-1.326.014q-.185,0-.185-.362a1.186,1.186,0,0,1,.157-.574Q3.4-7.786,4.966-10.247l1.251-.335q.109,0,.109.164-.007.376-.034,1.825-.014,1.032-.034,1.75L6.23-3.568q.595,0,1.408-.068.089,0,.089.062v.034l-.13.424a.118.118,0,0,1-.123.1Q7.071-3.049,6.23-3.049ZM4.788-3.555,4.815-6.59q.021-1.524.082-2.6Q2.983-6.159,1.7-3.78a.327.327,0,0,0-.048.144q0,.082.171.082Zm10.369-2.16q-.533,1.319-.793,1.853h4.382q.629-.643.766-.643t.745.547q.294.273.294.417,0,.109-.437.4A8.959,8.959,0,0,1,19.245.13a1.876,1.876,0,0,1-.8.793,2.205,2.205,0,0,1-1.046.226A.437.437,0,0,1,17.1,1.08a.405.405,0,0,1-.082-.267.907.907,0,0,0-.41-.656,4.991,4.991,0,0,0-1.162-.52q-.041-.021-.041-.1,0-.13.068-.116,1.688.212,2.229.212.342,0,.6-.547a10.983,10.983,0,0,0,.533-2.632H14.206q-.362.7-.561,1.046a.893.893,0,0,1-.342.39.864.864,0,0,1-.4.075,1.292,1.292,0,0,1-.615-.123.3.3,0,0,1-.2-.267,1.246,1.246,0,0,1,.239-.547,16.152,16.152,0,0,0,1.4-2.748H11.308a8.872,8.872,0,0,0-1.073.082l-.157-.513a6.968,6.968,0,0,0,1.176.109h9.058q.834-1,1-1a3.662,3.662,0,0,1,.957.7q.417.362.417.492t-.178.137ZM13.55-7.6v.171q0,.595-.8.595a.638.638,0,0,1-.479-.137.459.459,0,0,1-.1-.321l.041-1.976q0-1.4-.082-2.338a12.668,12.668,0,0,1,1.613.745h5.011q.6-.684.752-.684a2.263,2.263,0,0,1,.772.52q.321.28.321.417,0,.212-.39.444v.451l.027,2.29q0,.574-.827.574-.533,0-.533-.458V-7.6Zm5.332-.321v-2.618H13.55v2.618ZM34.549-5.182l.027,2.762.041,2.283a1.263,1.263,0,0,1-.376.964,1.489,1.489,0,0,1-1.012.321.3.3,0,0,1-.246-.082.794.794,0,0,1-.1-.294.793.793,0,0,0-.335-.554,3.991,3.991,0,0,0-.937-.328q-.048-.014-.048-.082,0-.089.062-.089Q32.6-.2,33.134-.2q.232,0,.253-.267v-3.1a.746.746,0,0,1-.362.185,6.814,6.814,0,0,1-1.477,2.338A7.975,7.975,0,0,1,29.381.41a.028.028,0,0,1-.021.007q-.109,0-.109-.1a.039.039,0,0,1,.014-.027,7.686,7.686,0,0,0,2.481-4.054H30.96a3.127,3.127,0,0,0-.813.116L30-4.2a4.2,4.2,0,0,0,.923.109h.772q.5-.615.656-.615t.772.574a1.4,1.4,0,0,1,.267.294v-2.03H32.361v.144q0,.485-.711.485-.506,0-.506-.4L31.2-8.764q0-1.121-.055-2.017a12.99,12.99,0,0,1,1.374.684h.643q.1-.52.13-.725.062-.465.082-.978,1.668.4,1.668.643,0,.219-.492.239a8.52,8.52,0,0,1-.882.82h1.887q.6-.629.745-.629t.745.506q.308.267.308.4a.242.242,0,0,1-.058.167,3.279,3.279,0,0,1-.352.284v.574L37-5.783a.418.418,0,0,1-.253.424q.9.533,1.148.725t.239.294q0,.219-.574.253a13.954,13.954,0,0,1-1.8,1.025,6.078,6.078,0,0,0,2.741,1.887q.048.021.048.055t-.048.068a1.938,1.938,0,0,0-.827,1.08Q37.55.4,37.386.4q-.123,0-.362-.239a7.221,7.221,0,0,1-1.579-2.126A12.578,12.578,0,0,1,34.549-5.182ZM35.581-3.3a7.5,7.5,0,0,0,.649-.937,5.1,5.1,0,0,0,.485-1.107,1.194,1.194,0,0,1-.417.068.649.649,0,0,1-.458-.123.472.472,0,0,1-.1-.342v-.123H34.59A7.26,7.26,0,0,0,35.581-3.3Zm.157-2.885V-7.9H32.361v1.709Zm0-2.03V-9.775H32.361v1.559ZM27.549-5q-.212.041-.622.13-.492.109-.663.15-.123.39-.294.39-.15,0-.26-.335-.1-.314-.26-1.189.349.027.725.027h.745a18,18,0,0,0,1.4-2.536A9.112,9.112,0,0,0,28.9-9.871q1.524.7,1.524.964,0,.232-.547.212-.807,1.087-1.278,1.62-.437.485-1.244,1.251.759-.014,2.2-.068a3.665,3.665,0,0,0-.492-1.121.066.066,0,0,1-.014-.034q0-.062.089-.062a.076.076,0,0,1,.034.007q1.586.889,1.586,1.839a.846.846,0,0,1-.205.581.531.531,0,0,1-.41.205.4.4,0,0,1-.369-.226,2.152,2.152,0,0,1-.15-.731l-.014-.137q-.759.253-.909.294v1.948L28.738.656q0,.547-.711.547-.561,0-.561-.451.082-1.736.082-3.049v-.909a.815.815,0,0,1-.362.137A9.782,9.782,0,0,1,25.45.116.053.053,0,0,1,25.4.137q-.109,0-.109-.082A.028.028,0,0,1,25.3.034a14.886,14.886,0,0,0,.581-2.29,9.7,9.7,0,0,0,.2-1.75,5.99,5.99,0,0,1,1.47.547ZM26.838-9.14q.205-.54.458-1.4.185-.738.267-1.244,1.661.588,1.661.82t-.554.239a20.848,20.848,0,0,1-1.524,1.764,1.212,1.212,0,0,1,.595,1.039.806.806,0,0,1-.205.574.559.559,0,0,1-.424.191.4.4,0,0,1-.369-.15,3.333,3.333,0,0,1-.26-.69,3.16,3.16,0,0,0-.82-1.415.066.066,0,0,1-.021-.048q0-.109.1-.089A6.157,6.157,0,0,1,26.838-9.14Zm3.65,6.993a.921.921,0,0,1-.191.615.566.566,0,0,1-.451.2.379.379,0,0,1-.383-.253,2.557,2.557,0,0,1-.109-.67,3.978,3.978,0,0,0-.417-1.7.028.028,0,0,1-.007-.021q0-.062.075-.062a.074.074,0,0,1,.041.014Q30.488-3.021,30.488-2.146Z" transform="translate(1182 1803)" fill="#fff"/>
  </g>
</svg>
