<svg xmlns="http://www.w3.org/2000/svg" width="280" height="358.146" viewBox="0 0 280 358.146">
  <g id="グループ_7213" data-name="グループ 7213" transform="translate(-48 -2784.293)">
    <rect id="長方形_24257" data-name="長方形 24257" width="280" height="24" transform="translate(48 3118.439)" fill="#c89932"/>
    <path id="パス_13631" data-name="パス 13631" d="M-13.018-5.918A9.73,9.73,0,0,1-13.639-3.4a7.152,7.152,0,0,1-1.072,1.758A7.914,7.914,0,0,1-18.661.85q-.029.006-.064-.032a.116.116,0,0,1-.035-.079A.039.039,0,0,1-18.743.7a8.281,8.281,0,0,0,3.861-4.078,9.853,9.853,0,0,0,.674-2.854H-17.4a10.317,10.317,0,0,0-1.09.07l-.135-.439a9.1,9.1,0,0,0,1.248.094h3.193q.094-1.061.094-2.221,0-.463-.047-1.113a11.329,11.329,0,0,1,1.436.246q.264.082.264.246T-12.854-9a24.306,24.306,0,0,1-.105,2.5H-9.9q.709-.926.861-.926a3.488,3.488,0,0,1,.867.65q.369.322.369.428,0,.123-.152.123h-4.887A7.561,7.561,0,0,0-10.6-2.268,7.9,7.9,0,0,0-7.593-.574a.058.058,0,0,1,.041.064A.081.081,0,0,1-7.6-.422a1.391,1.391,0,0,0-.838.961q-.07.24-.182.24A1.607,1.607,0,0,1-9.368.422a8.457,8.457,0,0,1-1.945-1.84A9.412,9.412,0,0,1-13.018-5.918ZM3.732-1A33.482,33.482,0,0,1-1.371.17a1.345,1.345,0,0,1-.123.393.165.165,0,0,1-.152.076q-.141,0-.234-.27-.082-.24-.387-1.424.463.047.744.047h.264A37.507,37.507,0,0,0,.469-7.594,20.176,20.176,0,0,0,.686-9.686q1.295.281,1.6.393.252.094.252.234,0,.217-.475.357A36.588,36.588,0,0,1,.744-4.26,25.909,25.909,0,0,1-.744-1.02a41.843,41.843,0,0,0,4.389-.3A14.026,14.026,0,0,0,2.4-4.459a.017.017,0,0,1-.006-.012q0-.088.111-.088a.048.048,0,0,1,.035.012,14.443,14.443,0,0,1,2.145,2.5A3.158,3.158,0,0,1,5.238-.422a1.116,1.116,0,0,1-.223.732.61.61,0,0,1-.486.229A.48.48,0,0,1,4.1.287a2.514,2.514,0,0,1-.258-.779Zm-7.547-4.33A9.716,9.716,0,0,1-5.543-3.861a.04.04,0,0,1-.029.012q-.1,0-.1-.082a.052.052,0,0,1,.006-.023A12.2,12.2,0,0,0-3.24-7.863a9.6,9.6,0,0,0,.586-2.121q1.6.451,1.6.674,0,.188-.457.287A14.116,14.116,0,0,1-3.023-6.275a2.4,2.4,0,0,1,.51.117.147.147,0,0,1,.088.135q0,.135-.311.275V.48q0,.5-.621.5-.527,0-.527-.434.07-1.312.07-3.182Zm17.571-3h1.307v-.791a5.7,5.7,0,0,0-.07-.879q1.512.129,1.512.334,0,.129-.334.328v1.008h1.26q.451-.551.586-.551a2.269,2.269,0,0,1,.721.492q.3.27.3.381,0,.211-.4.229a.765.765,0,0,0-.3.158q-.375.281-.85.586.053.029.3.205.264.193.264.322,0,.1-.287.3v.322l.023,1.646q0,.516-.627.516a.493.493,0,0,1-.387-.123.564.564,0,0,1-.088-.357v-.047H14.442v1.582h2.5q.5-.562.633-.562a1.9,1.9,0,0,1,.662.4q.275.229.275.352,0,.088-.311.346v.422l.035,2.2q0,.527-.662.527a.52.52,0,0,1-.4-.123.536.536,0,0,1-.1-.369V.17H14.442v.4q0,.539-.639.539-.5,0-.5-.434l.064-5.531q0-.973-.041-1.945a.708.708,0,0,1-.346.094.492.492,0,0,1-.562-.551.576.576,0,0,1,.387-.568,1.135,1.135,0,0,0,.668-1.066.059.059,0,0,1,.064-.047.068.068,0,0,1,.07.047A3.706,3.706,0,0,1,13.757-8.326Zm.035.275a1.558,1.558,0,0,1,.012.193,1.531,1.531,0,0,1-.129.645,7.031,7.031,0,0,1,.85.492H16.6q.422-.469.545-.469a.405.405,0,0,1,.182.047q.111-.375.229-.908Zm.65,5.66V-.105h2.625V-2.391Zm2.244-2.133V-6.445H14.442v1.922ZM9.52-.609a14.147,14.147,0,0,0,1.729-.434,4.286,4.286,0,0,0-.8-1.16.072.072,0,0,1-.012-.041.062.062,0,0,1,.07-.07h.012a3.631,3.631,0,0,1,1.588.844,1.413,1.413,0,0,1,.5,1.02.88.88,0,0,1-.193.6.545.545,0,0,1-.428.193.34.34,0,0,1-.275-.111,1.2,1.2,0,0,1-.146-.357,5.094,5.094,0,0,0-.193-.6A17.686,17.686,0,0,1,8.63.615q-.047.4-.234.4-.117,0-.24-.293Q8.038.457,7.768-.381q.023,0,.732-.076V-3.633q0-1.775-.047-3.217a9.123,9.123,0,0,1-.809.48H7.634q-.082,0-.082-.105A.04.04,0,0,1,7.563-6.5,11.919,11.919,0,0,0,9.2-8.6a5.852,5.852,0,0,0,.656-1.477q1.037.434,1.254.539.2.105.2.182,0,.164-.422.176a4.009,4.009,0,0,1,1.266.586.782.782,0,0,1,.311.621.6.6,0,0,1-.164.422.446.446,0,0,1-.328.152.321.321,0,0,1-.27-.105,3.545,3.545,0,0,1-.27-.533,3.25,3.25,0,0,0-.7-1A8.926,8.926,0,0,1,8.694-7.02q.346.152.873.445h.422v-.732a6.863,6.863,0,0,0-.047-.709Q11.3-7.9,11.3-7.705q0,.117-.311.264v.867h.264q.4-.434.527-.434a1.572,1.572,0,0,1,.6.363q.24.188.24.311t-.287.311v.469l.023,2.59q0,.457-.586.457a.507.507,0,0,1-.375-.1.445.445,0,0,1-.082-.3v-.17H9.52Zm1.787-4.406V-6.3H9.52v1.283ZM9.52-4.74v1.383h1.787V-4.74Z" transform="translate(188 3135.439)" fill="#fff"/>
    <path id="パス_12685" data-name="パス 12685" d="M-3876,12067h22.195" transform="translate(12255 6961.366) rotate(90)" fill="none" stroke="#fff" stroke-width="1"/>
    <path id="多角形_6" data-name="多角形 6" d="M4,0,8,4.073H0Z" transform="translate(192 3110.439) rotate(180)" fill="#fff"/>
    <rect id="長方形_24256" data-name="長方形 24256" width="280" height="24" transform="translate(48 3053.366)" fill="#fff"/>
    <path id="パス_13632" data-name="パス 13632" d="M-5.5-7.969A6.007,6.007,0,0,0-3.454-6.363a10.324,10.324,0,0,0,2.607.8A.058.058,0,0,1-.805-5.5q0,.07-.053.082a1.019,1.019,0,0,0-.709.732.975.975,0,0,1-.088.249.133.133,0,0,1-.117.05,2.183,2.183,0,0,1-.586-.229,11.238,11.238,0,0,1-1.312-.8A7.412,7.412,0,0,1-5.8-7.969H-7.022a8.431,8.431,0,0,1-2.256,2.4A11.578,11.578,0,0,1-12.12-4.125a.024.024,0,0,1-.018.006q-.082,0-.082-.111a.039.039,0,0,1,.018-.035,10.84,10.84,0,0,0,3.9-3.7h-2.52a8.739,8.739,0,0,0-.984.07l-.129-.439a6.709,6.709,0,0,0,1.078.094h2.713a7.785,7.785,0,0,0,.732-1.834q1.541.34,1.541.563t-.5.334q-.17.387-.48.938H-3.2q.668-.791.814-.791a3.246,3.246,0,0,1,.85.551q.369.293.369.4t-.152.117Zm-.545,4.582v.674L-6-.158a.959.959,0,0,1-.5.914A1.647,1.647,0,0,1-7.432,1,.26.26,0,0,1-7.661.9,1.258,1.258,0,0,1-7.766.551Q-7.866.094-9-.229q-.047-.012-.047-.088T-9-.4q1.049.076,1.617.076.158,0,.158-.17V-3.387h-3.035a9.666,9.666,0,0,0-1.043.07l-.135-.439a7.916,7.916,0,0,0,1.166.094h6.645q.656-.779.809-.779a2.735,2.735,0,0,1,.779.539q.334.287.334.4t-.158.117Zm1.893-1.881q0,.117-.152.117H-8.217a7.135,7.135,0,0,0-.891.07l-.129-.439a5.24,5.24,0,0,0,.943.094H-5.9q.6-.674.738-.674a2.3,2.3,0,0,1,.709.469Q-4.157-5.385-4.157-5.268ZM-1.971-.322a.736.736,0,0,1-.2.545A.589.589,0,0,1-2.6.4.5.5,0,0,1-3.032.205a7.358,7.358,0,0,1-.492-.926A5.442,5.442,0,0,0-5.059-2.508a.063.063,0,0,1-.018-.047q0-.094.076-.076A6,6,0,0,1-2.68-1.57,1.655,1.655,0,0,1-1.971-.322Zm-6.17-1.729q0,.2-.557.264A7.959,7.959,0,0,1-11.926.545a.052.052,0,0,1-.023.006q-.111,0-.111-.1a.034.034,0,0,1,.012-.023A7.969,7.969,0,0,0-10.01-1.9a4.145,4.145,0,0,0,.422-.955,11.4,11.4,0,0,1,1.207.545Q-8.141-2.168-8.141-2.051ZM8.176-1.74a4.619,4.619,0,0,0,.422.264A10.322,10.322,0,0,0,12.114-.369q.047.006.047.076t-.047.082a1.094,1.094,0,0,0-.574.264,1.293,1.293,0,0,0-.264.5Q11.182.832,11,.832a2.074,2.074,0,0,1-.615-.158A8.383,8.383,0,0,1,8.5-.3,5.79,5.79,0,0,1,6.887-1.881,10.3,10.3,0,0,1,5.856-4.043H4.163V-.7a21.7,21.7,0,0,0,2.689-.68h.012q.076,0,.076.117a.046.046,0,0,1-.018.041A20.623,20.623,0,0,1,2.5.744q-.053.457-.287.457-.123,0-.223-.223Q1.9.779,1.526-.275q.41-.035.885-.105.111-.023.34-.053.2-.029.3-.047V-4.412q0-2.637-.07-4.395a10.419,10.419,0,0,1,1.277.6H5.879V-9.252q0-.258-.047-.732,1.588.146,1.588.4,0,.164-.41.357v1.02H8.827q.48-.539.609-.539a1.947,1.947,0,0,1,.662.434q.275.24.275.357t-.363.346v.65l.064,2.777a.3.3,0,0,1-.088.234q1.225.674,1.225.879,0,.17-.375.17h-.164A11.8,11.8,0,0,1,8.176-1.74ZM7.9-1.934a11.122,11.122,0,0,0,1.354-1.16,5.414,5.414,0,0,0,.639-.768,1.066,1.066,0,0,1-.527.105q-.41,0-.445-.287H6.155A6.307,6.307,0,0,0,7.9-1.934ZM8.92-4.318V-6.035H4.163v1.717Zm0-1.992V-7.934H4.163v1.623Z" transform="translate(188 3070.366)" fill="#111"/>
    <path id="パス_13633" data-name="パス 13633" d="M-15.2-4.15a14.563,14.563,0,0,0,1.172-1.89,6.163,6.163,0,0,0,.459-1.03q1.118.513,1.118.669t-.327.142h-.059q-.83.972-1.113,1.26t-.937.85q.566,0,1.709-.039a2.571,2.571,0,0,0-.435-.85.043.043,0,0,1,0-.02q0-.054.073-.054a.054.054,0,0,1,.024,0q1.26.684,1.26,1.416a.681.681,0,0,1-.142.449.4.4,0,0,1-.308.142A.308.308,0,0,1-13-3.247a1.52,1.52,0,0,1-.127-.591l-.01-.112q-.22.078-.659.2v1.382l.029,2.847q0,.381-.527.381-.4,0-.4-.308.059-.913.059-2.173V-3.55q-.361.078-1.06.19-.1.278-.22.278-.1,0-.181-.244t-.19-.845q.259.02.532.02Zm4.082-1.9A6.09,6.09,0,0,1-12.442-4.5a.052.052,0,0,1-.029.01q-.088,0-.088-.063a.037.037,0,0,1,0-.015,9.56,9.56,0,0,0,.986-2.48,6.98,6.98,0,0,0,.239-1.289q1.367.352,1.367.532t-.4.239a10.1,10.1,0,0,1-.62,1.289h2.368q.439-.518.552-.518t.566.42q.239.21.239.317,0,.078-.308.3-.059,1.968-.171,3.076A15.619,15.619,0,0,1-8.077-.532a1.53,1.53,0,0,1-.64.972,1.473,1.473,0,0,1-.84.229.291.291,0,0,1-.21-.054A.569.569,0,0,1-9.845.391.733.733,0,0,0-10.172-.1a3.442,3.442,0,0,0-.791-.3Q-11-.41-11-.483t.039-.078q.874.078,1.157.078a1.678,1.678,0,0,0,.645-.078A.374.374,0,0,0-9-.806,23.539,23.539,0,0,0-8.507-6.05ZM-15.206-6.6a10.129,10.129,0,0,0,.439-1.187,4.715,4.715,0,0,0,.146-.61q1.187.42,1.187.62,0,.166-.4.166A13.022,13.022,0,0,1-14.967-6.46a.908.908,0,0,1,.474.757.636.636,0,0,1-.146.444.421.421,0,0,1-.322.137.38.38,0,0,1-.322-.117,2.021,2.021,0,0,1-.2-.513,2.408,2.408,0,0,0-.659-1.079.033.033,0,0,1-.015-.029q0-.073.073-.059A5.85,5.85,0,0,1-15.206-6.6Zm5.435,3.5a.708.708,0,0,1-.171.483.486.486,0,0,1-.376.176q-.312,0-.4-.439a7.049,7.049,0,0,0-.371-1.074,2.319,2.319,0,0,0-.43-.635.06.06,0,0,1-.01-.034.052.052,0,0,1,.059-.059h.01a2.843,2.843,0,0,1,1.26.708A1.25,1.25,0,0,1-9.771-3.1Zm-2.51,1.831a.713.713,0,0,1-.151.474.43.43,0,0,1-.337.156.3.3,0,0,1-.293-.186A2.076,2.076,0,0,1-13.2-1.46a3.078,3.078,0,0,0-.444-1.353.028.028,0,0,1-.01-.02q0-.049.059-.049a.053.053,0,0,1,.029.01Q-12.281-2.075-12.281-1.27ZM-14.7-2.422q0,.132-.283.19A5.644,5.644,0,0,1-16.358.132a.04.04,0,0,1-.029.01.056.056,0,0,1-.063-.063.037.037,0,0,1,0-.015,7.958,7.958,0,0,0,.562-1.885A4.726,4.726,0,0,0-15.8-2.71q0-.068,0-.161.767.225.952.308Q-14.7-2.5-14.7-2.422ZM-4.089-3.779a1.438,1.438,0,0,1,.62-.64,1.506,1.506,0,0,1,.708-.171,1.747,1.747,0,0,1,1.5.708A2.517,2.517,0,0,1-.832-2.368,2.336,2.336,0,0,1-1.491-.625,2.065,2.065,0,0,1-3.01-.039,2.042,2.042,0,0,1-4.733-.894,3.2,3.2,0,0,1-5.3-2.852a4.2,4.2,0,0,1,.645-2.3A5.881,5.881,0,0,1-3.269-6.631a6.635,6.635,0,0,1,.938-.6A3.8,3.8,0,0,1-1.6-7.559q.127,0,.269.19a.318.318,0,0,1,.078.186q0,.112-.1.112a2.629,2.629,0,0,0-1.479.5A3.8,3.8,0,0,0-4.147-3.779Zm1.05-.42q-.64,0-.977.83a1.494,1.494,0,0,0-.132.62A3.984,3.984,0,0,0-3.8-.864a.885.885,0,0,0,.791.518q.518,0,.781-.654a3.638,3.638,0,0,0,.215-1.357,2.807,2.807,0,0,0-.273-1.367A.823.823,0,0,0-3.039-4.2ZM3.117-7.51A1.865,1.865,0,0,1,4.826-6.372a5.588,5.588,0,0,1,.513,2.583A5.151,5.151,0,0,1,4.67-.928a1.785,1.785,0,0,1-1.553.889A1.862,1.862,0,0,1,1.389-1.147,5.541,5.541,0,0,1,.881-3.73a5.271,5.271,0,0,1,.664-2.9A1.8,1.8,0,0,1,3.117-7.51Zm0,.308q-.64,0-.884,1.06A11.575,11.575,0,0,0,2.053-3.76a9.744,9.744,0,0,0,.244,2.6q.254.811.82.811.625,0,.869-1.05A11.445,11.445,0,0,0,4.167-3.76a10.075,10.075,0,0,0-.239-2.622Q3.679-7.2,3.117-7.2Zm8.319,3.223A5.262,5.262,0,0,1,10.118-.728,6.028,6.028,0,0,1,7.276.791Q7.208.806,7.208.7A.038.038,0,0,1,7.223.669,6.382,6.382,0,0,0,9.6-1.406a5.853,5.853,0,0,0,.8-2.573H9.64A4.917,4.917,0,0,0,8.8-3.9l-.112-.4a4.847,4.847,0,0,0,.923.093H13.4q.449-.439.547-.439t.571.4q.239.225.239.317t-.288.293a12.958,12.958,0,0,1-.522,3.364,1.553,1.553,0,0,1-.459.684,1.317,1.317,0,0,1-.859.278A.474.474,0,0,1,12.359.64a.43.43,0,0,1-.1-.229.7.7,0,0,0-.337-.435,3.764,3.764,0,0,0-.806-.322q-.029,0-.029-.068,0-.112.049-.1a11.156,11.156,0,0,0,1.484.166.373.373,0,0,0,.337-.19,2.632,2.632,0,0,0,.225-.64,16.677,16.677,0,0,0,.327-2.8ZM16.52-4.8q.029,0,.029.063,0,.078-.044.088a.631.631,0,0,0-.386.225,1.39,1.39,0,0,0-.205.474q-.063.288-.166.288a1.112,1.112,0,0,1-.439-.22A6.925,6.925,0,0,1,14.229-4.8a5.666,5.666,0,0,1-.894-1.24,14.151,14.151,0,0,1-.708-1.611.507.507,0,0,0-.132-.181.126.126,0,0,1-.078-.107q0-.063.161-.127a.624.624,0,0,1,.229-.054q.1,0,.1.078l-.049.181a.568.568,0,0,0,.059.22,5.217,5.217,0,0,0,1.47,1.86A5.287,5.287,0,0,0,16.52-4.8Zm-5.19-2.778q0,.19-.41.22A9.5,9.5,0,0,1,9.2-4.961,8.735,8.735,0,0,1,7.12-3.525a.02.02,0,0,1-.015,0q-.078,0-.078-.088a.033.033,0,0,1,.01-.024A9.243,9.243,0,0,0,9.459-6.738,6.542,6.542,0,0,0,9.977-8.2Q11.329-7.754,11.329-7.578Z" transform="translate(217 3042.366)" fill="#fff"/>
    <path id="パス_13634" data-name="パス 13634" d="M-29.111-5.82a3.789,3.789,0,0,0-.049-.83q-.073-.186-.493-.381-.107-.054-.107-.1,0-.063.112-.112a.7.7,0,0,1,.317-.078,1.729,1.729,0,0,1,.752.269q.518.283.518.581a.427.427,0,0,1-.117.278.713.713,0,0,0-.073.342q-.044,1.23-.059,2.861,0,.43-.352.43-.244,0-.444-.361a1.163,1.163,0,0,1-.132-.562.939.939,0,0,1,.049-.288,2.473,2.473,0,0,0,.049-.459Q-29.111-4.8-29.111-5.82Zm2.813-.918a1.849,1.849,0,0,0-.034-.439.308.308,0,0,0-.137-.19,1.573,1.573,0,0,0-.488-.19q-.112-.024-.112-.073,0-.068.161-.19a.525.525,0,0,1,.3-.088,2.075,2.075,0,0,1,.859.21q.562.254.562.532a.394.394,0,0,1-.122.288.9.9,0,0,0-.107.552,16.333,16.333,0,0,1-.249,3.438,3.589,3.589,0,0,1-1,1.831A5.908,5.908,0,0,1-29.658.41a1.424,1.424,0,0,1-.19.029q-.132,0-.132-.088,0-.068.142-.122A5.06,5.06,0,0,0-26.88-2.08a5.417,5.417,0,0,0,.542-2.212Q-26.3-4.863-26.3-6.738Zm12.25,4.619a5.972,5.972,0,0,0-.879-1.353q-.171-.166-.171-.2,0-.122.1-.122a.4.4,0,0,1,.2.059,4.93,4.93,0,0,1,1.86,1.582,1.659,1.659,0,0,1,.342.918.607.607,0,0,1-.171.464.551.551,0,0,1-.4.146q-.332,0-.532-.532l-.107-.332a1.352,1.352,0,0,0-.1-.264q-3.076.654-4.639.908A1.144,1.144,0,0,0-19-.7a.386.386,0,0,1-.239.1q-.21,0-.469-.381a1.927,1.927,0,0,1-.234-.449,1.039,1.039,0,0,1-.088-.337q0-.361.181-.361.054,0,.127.142a.553.553,0,0,0,.2.234.593.593,0,0,0,.264.044q.186,0,.547-.029.176-.322.322-.649.879-1.968,1.367-3.433a2.673,2.673,0,0,0,.171-.718.305.305,0,0,0-.122-.249,1.039,1.039,0,0,0-.366-.2q-.1-.034-.1-.1,0-.093.21-.166a.9.9,0,0,1,.322-.063,1.863,1.863,0,0,1,.938.342,1.557,1.557,0,0,1,.43.342.486.486,0,0,1,.083.288A.424.424,0,0,1-15.689-6a2.9,2.9,0,0,0-.61.933q-.908,1.748-1.86,3.311Q-15.2-1.978-14.049-2.119ZM-7.57-6.729q-.1-.073-.1-.132,0-.078.171-.078a2.421,2.421,0,0,1,1.069.229q.713.366.713.811a.641.641,0,0,1-.151.449.491.491,0,0,1-.381.161.312.312,0,0,1-.229-.093,1.436,1.436,0,0,1-.19-.278A3.355,3.355,0,0,0-7.57-6.729Zm.659,6.27a.444.444,0,0,1-.361.2q-.273,0-.669-.449a1.582,1.582,0,0,1-.469-.879.6.6,0,0,1,.059-.264q.044-.1.083-.1t.146.117q.356.4.581.4a1.64,1.64,0,0,0,.6-.2A15.105,15.105,0,0,0-4.489-3.12,28.544,28.544,0,0,0-1.765-5.41q.171-.171.234-.171.1,0,.1.1a.354.354,0,0,1-.068.171A13.256,13.256,0,0,1-3.82-2.71,20.488,20.488,0,0,1-6.6-.7.946.946,0,0,0-6.911-.459ZM-8.82-4.6q-.142-.054-.142-.132,0-.1.278-.1a3.327,3.327,0,0,1,1.011.161q.791.254.791.767a.649.649,0,0,1-.156.439.463.463,0,0,1-.366.171q-.229,0-.449-.352A2.617,2.617,0,0,0-8.82-4.6Zm5.669-2.593a1.962,1.962,0,0,1,.688.322.789.789,0,0,1,.371.6.358.358,0,0,1-.093.249.308.308,0,0,1-.239.1.379.379,0,0,1-.337-.229,4.192,4.192,0,0,0-.63-.884Q-3.5-7.144-3.5-7.163q0-.068.122-.068A.723.723,0,0,1-3.151-7.192Zm.811-.669a2.325,2.325,0,0,1,.8.293.592.592,0,0,1,.361.508.393.393,0,0,1-.1.283.281.281,0,0,1-.205.088.412.412,0,0,1-.371-.22,2.727,2.727,0,0,0-.7-.781q-.122-.088-.122-.122,0-.078.083-.078A1.237,1.237,0,0,1-2.341-7.861Zm5.9,6.3a1.213,1.213,0,0,0,.508-.2A19.048,19.048,0,0,0,6.843-3.721,22.039,22.039,0,0,0,9.191-6.162q.073-.088.127-.088.1,0,.1.088a.366.366,0,0,1-.059.171,13.991,13.991,0,0,1-2.08,2.8A23.725,23.725,0,0,1,4.611-.85a1.306,1.306,0,0,0-.259.239.507.507,0,0,1-.4.239.945.945,0,0,1-.61-.381A1.661,1.661,0,0,1,2.78-1.68q0-.381.161-.381.044,0,.156.132Q3.454-1.558,3.562-1.558ZM2.678-6.2a.116.116,0,0,1-.068-.1q0-.078.1-.078t.19.01a3.546,3.546,0,0,1,1.274.4,1.125,1.125,0,0,1,.688,1,.555.555,0,0,1-.176.43.538.538,0,0,1-.366.132A.511.511,0,0,1,3.83-4.78,3.558,3.558,0,0,0,3.41-5.5,2.608,2.608,0,0,0,2.678-6.2Zm14.33.962a1.024,1.024,0,0,1,.332.078A5.155,5.155,0,0,1,19.1-4.141a2.182,2.182,0,0,1,.869,1.382.754.754,0,0,1-.142.479.459.459,0,0,1-.381.181.489.489,0,0,1-.42-.21,3.549,3.549,0,0,1-.2-.391,6.474,6.474,0,0,0-.786-1.328,5.2,5.2,0,0,0-.952-.942q-.181-.132-.181-.19Q16.91-5.239,17.008-5.239Zm-2.6.142a1.5,1.5,0,0,1,.767.352q.542.381.542.718a.379.379,0,0,1-.229.347,2.145,2.145,0,0,0-.469.371,9.846,9.846,0,0,1-1.182,1A8.4,8.4,0,0,1,12.018-1.3a1.225,1.225,0,0,1-.386.112q-.132,0-.132-.088,0-.049.22-.2a11.573,11.573,0,0,0,1.558-1.27,8.825,8.825,0,0,0,.972-1.128,1.173,1.173,0,0,0,.259-.542q0-.166-.371-.42-.1-.063-.1-.107t.146-.1A.637.637,0,0,1,14.41-5.1Zm3.809-1.631a2.019,2.019,0,0,1,.688.317.789.789,0,0,1,.371.6.358.358,0,0,1-.093.249.3.3,0,0,1-.234.1.382.382,0,0,1-.342-.229,4.176,4.176,0,0,0-.625-.879q-.112-.112-.112-.132,0-.068.117-.068A.723.723,0,0,1,18.219-6.729Zm.82-.674a2.375,2.375,0,0,1,.8.293A.592.592,0,0,1,20.2-6.6a.393.393,0,0,1-.1.283.281.281,0,0,1-.205.088.412.412,0,0,1-.371-.22,2.727,2.727,0,0,0-.7-.781q-.122-.088-.122-.122a.069.069,0,0,1,.078-.078A1.191,1.191,0,0,1,19.039-7.4Zm8.8,3.9q.64.264,1.206.562a6.027,6.027,0,0,1,.962.61q.84.645.84,1.138a.558.558,0,0,1-.151.405.414.414,0,0,1-.308.137.7.7,0,0,1-.62-.342A9.388,9.388,0,0,0,28.608-2.48a6.859,6.859,0,0,0-1-.771,11.511,11.511,0,0,1-2.451,1.963A8.732,8.732,0,0,1,23.452-.5a.7.7,0,0,1-.225.049q-.1,0-.1-.088A.117.117,0,0,1,23.2-.649a11.526,11.526,0,0,0,1.694-1.1,16.288,16.288,0,0,0,1.44-1.313,16.762,16.762,0,0,0,2.031-2.651.3.3,0,0,0,.059-.117q0-.034-.068-.034a.534.534,0,0,0-.063,0q-1.123.127-2.393.4a1.534,1.534,0,0,0-.459.161.745.745,0,0,1-.352.107q-.293,0-.669-.469a1.015,1.015,0,0,1-.21-.645q0-.259.132-.259.034,0,.137.122a1.567,1.567,0,0,0,.361.317.726.726,0,0,0,.332.063q.171,0,.757-.059.977-.107,2.2-.283a.805.805,0,0,0,.4-.146.411.411,0,0,1,.288-.112.915.915,0,0,1,.532.269q.42.366.42.562t-.332.3A.663.663,0,0,0,29.2-5.3,19.093,19.093,0,0,1,27.842-3.5Z" transform="translate(231 3025.366)" fill="#fff"/>
    <path id="パス_12685-2" data-name="パス 12685" d="M-3876,12067h22.195" transform="translate(12254 6891.366) rotate(90)" fill="none" stroke="#fff" stroke-width="1"/>
    <path id="多角形_6-2" data-name="多角形 6" d="M4,0,8,4.073H0Z" transform="translate(191 3040.439) rotate(180)" fill="#fff"/>
    <rect id="長方形_24230" data-name="長方形 24230" width="280" height="24" transform="translate(48 2983.366)" fill="#914831"/>
    <path id="パス_13635" data-name="パス 13635" d="M-72.418-5.918A9.73,9.73,0,0,1-73.039-3.4a7.152,7.152,0,0,1-1.072,1.758A7.914,7.914,0,0,1-78.061.85q-.029.006-.064-.032a.116.116,0,0,1-.035-.079A.039.039,0,0,1-78.143.7a8.281,8.281,0,0,0,3.861-4.078,9.853,9.853,0,0,0,.674-2.854H-76.8a10.317,10.317,0,0,0-1.09.07l-.135-.439a9.1,9.1,0,0,0,1.248.094h3.193q.094-1.061.094-2.221,0-.463-.047-1.113a11.329,11.329,0,0,1,1.436.246q.264.082.264.246T-72.254-9a24.306,24.306,0,0,1-.105,2.5H-69.3q.709-.926.861-.926a3.488,3.488,0,0,1,.867.65q.369.322.369.428,0,.123-.152.123h-4.887A7.561,7.561,0,0,0-70-2.268,7.9,7.9,0,0,0-66.993-.574a.058.058,0,0,1,.041.064A.081.081,0,0,1-67-.422a1.391,1.391,0,0,0-.838.961q-.07.24-.182.24a1.607,1.607,0,0,1-.744-.357,8.457,8.457,0,0,1-1.945-1.84A9.412,9.412,0,0,1-72.418-5.918Zm9.087,3.27v.955l.023,2.115q0,.492-.662.492-.492,0-.492-.434.076-2.5.076-6.65,0-2.777-.07-3.68.516.205,1.248.551h1.219q.422-.5.557-.5t.656.5q.275.258.275.381,0,.2-.369.316a13.383,13.383,0,0,1-1.787,2.637,5.153,5.153,0,0,1,1.318,1.447,3.01,3.01,0,0,1,.287,1.389,1.639,1.639,0,0,1-.422,1.236,1.276,1.276,0,0,1-.943.334q-.164,0-.211-.064a.669.669,0,0,1-.07-.246A1.126,1.126,0,0,0-62.88-2.4.918.918,0,0,0-63.332-2.648Zm0-.17q.861.035.92.035a.343.343,0,0,0,.252-.082,1.17,1.17,0,0,0,.135-.7,3.534,3.534,0,0,0-.211-1.307A4.266,4.266,0,0,0-62.9-5.918a12.777,12.777,0,0,0,.973-3.105h-1.406Zm6.311,1.4A8.536,8.536,0,0,1-60.941.826q-.088.018-.088-.117a.046.046,0,0,1,.018-.041,9.592,9.592,0,0,0,3.439-2.889,11.391,11.391,0,0,1-1.236-3.662h-.352a14.359,14.359,0,0,1-.492,3.193A6.1,6.1,0,0,1-60.718-.615,6.29,6.29,0,0,1-62.271.82.065.065,0,0,1-62.3.826q-.1,0-.1-.094a.052.052,0,0,1,.006-.023,7.087,7.087,0,0,0,1.846-3.627,27.333,27.333,0,0,0,.3-4.729q0-.826-.082-2.051a9.907,9.907,0,0,1,1.354.7h3.146q.656-.768.791-.768a2.765,2.765,0,0,1,.814.527q.346.275.346.4t-.176.117H-59.1v.311q0,1.359-.047,2.256h2.988q.545-.621.674-.621a2.385,2.385,0,0,1,.709.5q.275.229.275.381t-.375.346A9.1,9.1,0,0,1-56.4-2.162,6.248,6.248,0,0,0-53.552-.551q.035.006.035.053a.1.1,0,0,1-.059.1A1.032,1.032,0,0,0-54-.088a3.246,3.246,0,0,0-.27.639q-.07.217-.182.217A1.676,1.676,0,0,1-55.111.4,8.7,8.7,0,0,1-57.021-1.418Zm-1.547-4.465A8.8,8.8,0,0,0-57.1-2.965a8.88,8.88,0,0,0,1.014-2.918ZM-46.932-1.91V-4.74h-1.383a4.6,4.6,0,0,0-.727.07l-.135-.439a4.028,4.028,0,0,0,.826.094h1.418v-2.2H-48.6a5.385,5.385,0,0,0-.768.07l-.129-.439a4.645,4.645,0,0,0,.885.094h4q.563-.662.709-.662a2.541,2.541,0,0,1,.744.469q.311.246.311.352t-.158.117H-45.8v2.2h.961q.475-.662.633-.662a2.331,2.331,0,0,1,.7.457q.3.246.3.363t-.152.117H-45.8v2.83h1.488q.486-.709.65-.709a2.359,2.359,0,0,1,.721.5q.3.246.3.363t-.158.117H-48.79a4.62,4.62,0,0,0-.732.07L-49.657-2a4.185,4.185,0,0,0,.85.094Zm3.287-1.266a.57.57,0,0,1-.176.428.493.493,0,0,1-.363.146.38.38,0,0,1-.281-.1,1.048,1.048,0,0,1-.164-.322,2.775,2.775,0,0,0-.762-1.137.051.051,0,0,1-.018-.035q0-.053.064-.053h.018Q-43.645-3.949-43.645-3.176ZM-50.061.035v.3q0,.48-.7.48-.48,0-.48-.4.076-2.279.076-6.211,0-2.42-.064-4.131a11.571,11.571,0,0,1,1.348.7H-42.5q.545-.609.674-.609t.686.48q.275.258.275.369,0,.17-.357.381v1.465q0,4.359.07,7.418,0,.492-.721.492-.492,0-.492-.387V.035Zm7.7-.275V-8.953h-7.7V-.24ZM-37.1-2.52v1.225l.012,1.764q0,.516-.645.516-.469,0-.469-.445l.047-6.094q0-3.035-.047-4.324.785.381,1.172.615h1.119q.457-.516.586-.516t.65.5q.264.264.264.381,0,.152-.375.293A14.231,14.231,0,0,1-36.4-5.965,4.562,4.562,0,0,1-35.127-4.02a8.6,8.6,0,0,0,1.465-1.453.373.373,0,0,1-.158.035.273.273,0,0,1-.234-.088,1.773,1.773,0,0,1-.158-.4,2.02,2.02,0,0,0-.445-.721q-.375.34-.844.7a.045.045,0,0,1-.018.006q-.088,0-.088-.111a.065.065,0,0,1,.006-.029,9.262,9.262,0,0,0,1.635-2.906,6.708,6.708,0,0,0,.293-1.09,10.3,10.3,0,0,1,1.119.334q.2.082.2.17,0,.182-.387.217-.316.6-.334.633h.891q.346-.357.451-.357a1.964,1.964,0,0,1,.539.357q.217.17.217.275t-.211.252a7.008,7.008,0,0,1-3.8,4.289.19.19,0,0,1-.076.029h-.029A4.1,4.1,0,0,1-35.01-3a1.545,1.545,0,0,1-.434,1.143,1.189,1.189,0,0,1-.85.334q-.223,0-.24-.264a.887.887,0,0,0-.152-.463A1.1,1.1,0,0,0-37.1-2.52Zm0-.205q.24.023.586.023a.512.512,0,0,0,.287-.07q.205-.176.205-.973A3.891,3.891,0,0,0-36.2-5.016a3,3,0,0,0-.5-.891,12.189,12.189,0,0,0,.85-3.082H-37.1Zm3.861-5.725-.357.563q.973.205.973.732v.047a5.705,5.705,0,0,0,.469-1.342Zm-1.318,1.705q1.143.2,1.143.838a.59.59,0,0,1-.012.135,9.133,9.133,0,0,0,.633-1.008.381.381,0,0,1-.24.082.268.268,0,0,1-.223-.088,1.227,1.227,0,0,1-.146-.346,2.109,2.109,0,0,0-.3-.6A8.532,8.532,0,0,1-34.553-6.744Zm3.738,3.686v1.811l.023,1.307a.832.832,0,0,1-.217.615,1.31,1.31,0,0,1-.961.311.309.309,0,0,1-.24-.07A1.228,1.228,0,0,1-32.326.6a.643.643,0,0,0-.322-.4,4.063,4.063,0,0,0-.779-.264q-.047-.012-.047-.082t.047-.076q.908.07,1.4.07.158,0,.158-.129V-3.059H-33.4a9.734,9.734,0,0,0-1.055.07l-.135-.439a8.221,8.221,0,0,0,1.189.094h3.973q.533-.65.68-.65a2.471,2.471,0,0,1,.732.457q.311.24.311.352t-.152.117Zm1.342-3.562a5.849,5.849,0,0,0,2.35,1.471.056.056,0,0,1,.035.053.083.083,0,0,1-.059.082.927.927,0,0,0-.375.275,1.837,1.837,0,0,0-.187.492q-.064.229-.17.229a1.122,1.122,0,0,1-.5-.264,6.752,6.752,0,0,1-1.787-2.1,8.149,8.149,0,0,1-.9-2.795.428.428,0,0,0-.123-.264.232.232,0,0,1-.082-.158q0-.041.146-.082a1.064,1.064,0,0,1,.27-.035q.17,0,.17.07a.464.464,0,0,1-.047.123.273.273,0,0,0-.047.141,1.278,1.278,0,0,0,.047.328,6.589,6.589,0,0,0,.4,1.072,6.144,6.144,0,0,0,.475.885,2.358,2.358,0,0,0,.182.223,5.808,5.808,0,0,0,.768-1.7h-.633a3.019,3.019,0,0,0-.721.094l-.135-.469a3.973,3.973,0,0,0,.855.1h.633q.439-.48.563-.48.141,0,.639.445.264.246.264.357,0,.158-.457.334A6.331,6.331,0,0,1-29.473-6.621Zm0,1.811q0,.117-.158.117h-2.291a7.108,7.108,0,0,0-.885.07l-.135-.439a5.643,5.643,0,0,0,.984.094h.984q.463-.551.609-.551a1.583,1.583,0,0,1,.615.393Q-29.473-4.887-29.473-4.811Zm1.729,4.477a.7.7,0,0,1-.187.51.54.54,0,0,1-.4.17.482.482,0,0,1-.381-.152,1.439,1.439,0,0,1-.229-.457,5.215,5.215,0,0,0-.533-1.172,4.265,4.265,0,0,0-.7-.8.039.039,0,0,1-.018-.035.062.062,0,0,1,.07-.07h.012a4.777,4.777,0,0,1,1.811.943A1.467,1.467,0,0,1-27.744-.334ZM-32.5-1.811a.17.17,0,0,1-.117.17,1.437,1.437,0,0,1-.375.082,7.271,7.271,0,0,1-2.566,2.1.017.017,0,0,1-.012.006q-.088,0-.088-.105a.04.04,0,0,1,.012-.029,7.741,7.741,0,0,0,1.395-1.857,4.255,4.255,0,0,0,.393-.973Q-32.5-2.01-32.5-1.811Zm13.2-6.434h2.947q.58-.674.709-.674a3,3,0,0,1,.855.615q.369.328.369.445a.187.187,0,0,1-.135.193,1.916,1.916,0,0,1-.463.059.91.91,0,0,0-.492.205,9.031,9.031,0,0,1-1.008.609.072.072,0,0,1-.041.012q-.07,0-.07-.047a.052.052,0,0,1,.006-.023,4.272,4.272,0,0,0,.357-1.119h-1.91v1.957a.322.322,0,0,0,.229.34,3.1,3.1,0,0,0,.791.064,3.775,3.775,0,0,0,1.213-.129.548.548,0,0,0,.264-.246q.088-.146.346-.721a.06.06,0,0,1,.059-.041q.053,0,.053.047v.662q0,.117.053.152a.926.926,0,0,0,.258.1.349.349,0,0,1,.287.369q0,.375-.65.551a6.706,6.706,0,0,1-1.8.182A4.619,4.619,0,0,1-18.9-4.9a.843.843,0,0,1-.357-.809V-7.969h-1.166a3.893,3.893,0,0,1-1.266,2.783,5.885,5.885,0,0,1-2.93,1.008q-.076.018-.076-.105a.05.05,0,0,1,.029-.053A4.965,4.965,0,0,0-22.3-5.789a4.187,4.187,0,0,0,.738-2.18h-1.91q.012.123.012.229a1.843,1.843,0,0,1-.293,1.1.788.788,0,0,1-.662.352.585.585,0,0,1-.463-.193.617.617,0,0,1-.152-.428.608.608,0,0,1,.387-.574,1.589,1.589,0,0,0,.662-.539,2.05,2.05,0,0,0,.211-.791.067.067,0,0,1,.076-.053.046.046,0,0,1,.053.041,3.408,3.408,0,0,1,.135.58h3.059v-.973a5.991,5.991,0,0,0-.059-.744q1.605.146,1.605.387,0,.152-.393.334ZM-20.556,0V-3.035H-22.87a6.241,6.241,0,0,0-.832.07l-.129-.439a4.778,4.778,0,0,0,.914.094h5.408q.738-.826.879-.826a3.01,3.01,0,0,1,.82.574q.357.293.357.41t-.158.117h-3.732V0h2.713q.709-.926.861-.926a3.488,3.488,0,0,1,.867.639q.381.334.381.439,0,.123-.152.123h-9.1a10.317,10.317,0,0,0-1.09.07L-25-.094A9.1,9.1,0,0,0-23.749,0ZM-4.385-5.566A3.422,3.422,0,0,0-2.932-4.395a5.617,5.617,0,0,0,2.186.551q.047,0,.047.059a.073.073,0,0,1-.047.076,1.255,1.255,0,0,0-.709.855q-.059.229-.205.229a1.032,1.032,0,0,1-.357-.135A5.563,5.563,0,0,1-3.471-3.809a.762.762,0,0,1-.229.24v.27L-3.664-2q0,.4-.65.4-.445,0-.445-.363v-.117H-7.174V-.732a.417.417,0,0,0,.111.34,1.314,1.314,0,0,0,.621.135q.4.029,1.541.029a10.942,10.942,0,0,0,1.1-.035,1.3,1.3,0,0,0,.533-.158,1.3,1.3,0,0,0,.48-.557,6.876,6.876,0,0,0,.381-1Q-2.4-2-2.352-2q.088,0,.088.064-.006.135-.029.463-.041.662-.041.738,0,.146.193.217a.414.414,0,0,1,.287.4q0,.5-.686.7A11.836,11.836,0,0,1-5.211.768,7.421,7.421,0,0,1-7.743.51a.951.951,0,0,1-.475-.955l.023-1.523q0-.621-.035-.949a9.361,9.361,0,0,1,1.16.557H-4.76V-3.855H-6.793a1.825,1.825,0,0,0-.586.105L-7.473-4.1A6.947,6.947,0,0,1-9.911-2.584a.024.024,0,0,1-.018.006q-.082,0-.082-.088A.039.039,0,0,1-9.993-2.7,6.716,6.716,0,0,0-8.5-4.078a6.77,6.77,0,0,0,.932-1.488h-.885A3.628,3.628,0,0,0-9.1-5.5l-.129-.439a3,3,0,0,0,.715.094h1.131V-7.775H-8.17a3.289,3.289,0,0,0-.6.07L-8.9-8.145a2.8,2.8,0,0,0,.686.094h.838v-.662a9.422,9.422,0,0,0-.094-1.271q1.453.146,1.453.375,0,.123-.352.287v1.271h1.494V-8.83q0-.346-.047-1.154a6.4,6.4,0,0,1,1.248.193q.176.064.176.17,0,.123-.346.287v1.283h.65q.545-.662.691-.662a2.331,2.331,0,0,1,.7.457q.3.246.3.363t-.152.117H-3.846v1.934H-2.9q.58-.709.732-.709a2.435,2.435,0,0,1,.732.5q.311.258.311.363t-.158.117Zm-.258,0H-6.325A7.439,7.439,0,0,1-7.379-4.189a2.923,2.923,0,0,0,.586.059h1.939q.264-.393.4-.393a1.679,1.679,0,0,1,.568.275A5.2,5.2,0,0,1-4.643-5.566Zm-.234-2.209H-6.371v1.934h1.494Zm-4.43-.732a.693.693,0,0,1-.193.521.483.483,0,0,1-.346.141.471.471,0,0,1-.4-.176,3.411,3.411,0,0,1-.287-.557,3.1,3.1,0,0,0-.855-1.084.047.047,0,0,1-.023-.035q0-.059.07-.059a3.17,3.17,0,0,1,1.564.445A.94.94,0,0,1-9.307-8.508Zm-.855,2.818a.661.661,0,0,1-.187.5.551.551,0,0,1-.4.152.434.434,0,0,1-.357-.182,2.774,2.774,0,0,1-.27-.527A2.9,2.9,0,0,0-12.2-6.809a.038.038,0,0,1-.023-.035q0-.059.07-.059Q-10.162-6.732-10.162-5.689Zm1.1-.949q-.8,2.807-1.2,3.973a2.639,2.639,0,0,0-.17.756A2.614,2.614,0,0,0-10.209-1a2.694,2.694,0,0,1,.229.914.867.867,0,0,1-.246.65.723.723,0,0,1-.533.211q-.574,0-.574-.609a5.252,5.252,0,0,1,.059-.7,3.56,3.56,0,0,0,.035-.492,1.4,1.4,0,0,0-.164-.814,1.856,1.856,0,0,0-.709-.4q-.029-.012-.029-.07,0-.123.07-.111a3.665,3.665,0,0,0,.4.023.663.663,0,0,0,.58-.3,43.436,43.436,0,0,0,1.875-4.02q.012-.029.035-.029a.114.114,0,0,1,.059.023Q-9.061-6.68-9.067-6.639Zm21.1-3.7q.082,0,.082.07a.165.165,0,0,1-.059.111,7.444,7.444,0,0,0-2.543,5.6A7.359,7.359,0,0,0,12.014,1q.105.111.105.158,0,.07-.059.07a.31.31,0,0,1-.158-.07A8.33,8.33,0,0,1,9.489-1.43a6.113,6.113,0,0,1-.861-3.129,6.113,6.113,0,0,1,.861-3.129,8.4,8.4,0,0,1,2.426-2.6A.409.409,0,0,1,12.038-10.342Zm3.438,5.074a9.427,9.427,0,0,1-1.3,1.254.065.065,0,0,1-.029.006q-.1,0-.1-.094a.052.052,0,0,1,.006-.023,11.164,11.164,0,0,0,1.365-2.332,13.79,13.79,0,0,0,.826-2.379,11.372,11.372,0,0,0,.217-1.242q1.594.422,1.594.656,0,.193-.434.275A14.819,14.819,0,0,1,16.2-6.24a2.314,2.314,0,0,1,.545.123.135.135,0,0,1,.088.129q0,.135-.287.275V.516q0,.5-.621.5-.516,0-.516-.434.07-2.1.07-3.176ZM20.8-3.252a7.177,7.177,0,0,1-.252,1.02A4.207,4.207,0,0,1,19.267-.281,6.464,6.464,0,0,1,17.023.879h-.012q-.076,0-.076-.094a.046.046,0,0,1,.018-.041A5.785,5.785,0,0,0,18.9-1.025a5.678,5.678,0,0,0,.744-2.227H18.124a3.025,3.025,0,0,0-.645.082l-.135-.439a4,4,0,0,0,.756.082h1.582q.082-.592.135-2.473H17.861a5.482,5.482,0,0,0-.791.07l-.135-.439a5.025,5.025,0,0,0,.926.094h1.957V-8.7h-1a3.259,3.259,0,0,0-.744.094l-.135-.475a3.61,3.61,0,0,0,.855.105h4.008q.5-.562.627-.562a2.1,2.1,0,0,1,.674.434q.275.223.275.346,0,.088-.387.393v2.092h.123q.422-.639.586-.639.117,0,.574.445.24.24.24.352T25.366-6H24q.006.85.023,1.969.012.791.012.961,0,.492-.627.492A.613.613,0,0,1,22.97-2.7a.466.466,0,0,1-.105-.34v-.217Zm.035-.275h2.027V-6h-1.9Q20.931-4.254,20.837-3.527Zm.123-2.748h1.9V-8.7H20.972Q20.972-7.078,20.96-6.275Zm12.977-.035a.833.833,0,0,1-.223.6.639.639,0,0,1-.475.205q-.428,0-.562-.539a4.345,4.345,0,0,0-.926-1.992.1.1,0,0,1-.012-.047A.057.057,0,0,1,31.8-8.15h.012a4,4,0,0,1,1.617.855A1.351,1.351,0,0,1,33.938-6.311ZM36.709-4.5q.006,1.711.023,2.953.012.891.012,1.066a1.511,1.511,0,0,1-.117.686.9.9,0,0,1-.387.334,1.882,1.882,0,0,1-.9.24q-.193,0-.246-.064a.694.694,0,0,1-.076-.258A.7.7,0,0,0,34.6-.076,7.177,7.177,0,0,0,33.48-.445q-.047-.006-.047-.076T33.48-.6q1.072.07,1.693.07a.572.572,0,0,0,.275-.041Q35.5-.6,35.5-.732V-4.5H30.422a13.179,13.179,0,0,1-.229,1.729A5.3,5.3,0,0,1,29.244-.6,8.037,8.037,0,0,1,27.68.855a.065.065,0,0,1-.029.006q-.088,0-.088-.082a.052.052,0,0,1,.006-.023,9.262,9.262,0,0,0,1.137-2,8.511,8.511,0,0,0,.48-2.051q.053-.393.094-1.2h-.961a5.385,5.385,0,0,0-.768.07l-.129-.439a4.407,4.407,0,0,0,.873.094h1q.035-.879.035-2,0-1.881-.07-3,.674.322,1.354.674H35.4q.563-.562.68-.562a2.018,2.018,0,0,1,.674.434q.275.223.275.346t-.322.346v3.768h.217q.621-.732.768-.732a2.459,2.459,0,0,1,.721.516q.3.264.3.375t-.158.117Zm-6.264-.275H35.5V-8.83h-4.98v.539Q30.516-5.953,30.445-4.775ZM46.7-8.244h2.947q.58-.674.709-.674a3,3,0,0,1,.855.615q.369.328.369.445a.187.187,0,0,1-.135.193,1.915,1.915,0,0,1-.463.059.91.91,0,0,0-.492.205,9.031,9.031,0,0,1-1.008.609.072.072,0,0,1-.041.012q-.07,0-.07-.047a.052.052,0,0,1,.006-.023,4.272,4.272,0,0,0,.357-1.119h-1.91v1.957a.322.322,0,0,0,.229.34,3.1,3.1,0,0,0,.791.064,3.775,3.775,0,0,0,1.213-.129.548.548,0,0,0,.264-.246q.088-.146.346-.721a.06.06,0,0,1,.059-.041q.053,0,.053.047v.662q0,.117.053.152a.926.926,0,0,0,.258.1.349.349,0,0,1,.287.369q0,.375-.65.551a6.706,6.706,0,0,1-1.8.182A4.619,4.619,0,0,1,47.1-4.9a.843.843,0,0,1-.357-.809V-7.969H45.573a3.893,3.893,0,0,1-1.266,2.783,5.885,5.885,0,0,1-2.93,1.008q-.076.018-.076-.105a.05.05,0,0,1,.029-.053A4.965,4.965,0,0,0,43.7-5.789a4.187,4.187,0,0,0,.738-2.18h-1.91q.012.123.012.229a1.843,1.843,0,0,1-.293,1.1.788.788,0,0,1-.662.352.585.585,0,0,1-.463-.193.617.617,0,0,1-.152-.428.608.608,0,0,1,.387-.574,1.589,1.589,0,0,0,.662-.539,2.05,2.05,0,0,0,.211-.791.067.067,0,0,1,.076-.053.046.046,0,0,1,.053.041,3.408,3.408,0,0,1,.135.58H45.55v-.973a5.991,5.991,0,0,0-.059-.744q1.605.146,1.605.387,0,.152-.393.334ZM45.444,0V-3.035H43.13a6.241,6.241,0,0,0-.832.07L42.169-3.4a4.778,4.778,0,0,0,.914.094h5.408q.738-.826.879-.826a3.01,3.01,0,0,1,.82.574q.357.293.357.41t-.158.117H46.657V0H49.37q.709-.926.861-.926a3.488,3.488,0,0,1,.867.639q.381.334.381.439,0,.123-.152.123h-9.1a10.317,10.317,0,0,0-1.09.07L41-.094A9.1,9.1,0,0,0,42.251,0ZM61.615-5.566a3.422,3.422,0,0,0,1.453,1.172,5.617,5.617,0,0,0,2.186.551q.047,0,.047.059a.073.073,0,0,1-.047.076,1.255,1.255,0,0,0-.709.855q-.059.229-.205.229a1.032,1.032,0,0,1-.357-.135,5.563,5.563,0,0,1-1.453-1.049.762.762,0,0,1-.229.24v.27L62.336-2q0,.4-.65.4-.445,0-.445-.363v-.117H58.826V-.732a.417.417,0,0,0,.111.34,1.314,1.314,0,0,0,.621.135q.4.029,1.541.029a10.942,10.942,0,0,0,1.1-.035,1.3,1.3,0,0,0,.533-.158,1.3,1.3,0,0,0,.48-.557,6.876,6.876,0,0,0,.381-1Q63.6-2,63.648-2q.088,0,.088.064-.006.135-.029.463-.041.662-.041.738,0,.146.193.217a.414.414,0,0,1,.287.4q0,.5-.686.7a11.836,11.836,0,0,1-2.672.193A7.421,7.421,0,0,1,58.257.51a.951.951,0,0,1-.475-.955l.023-1.523q0-.621-.035-.949a9.361,9.361,0,0,1,1.16.557H61.24V-3.855H59.207a1.825,1.825,0,0,0-.586.105L58.527-4.1a6.947,6.947,0,0,1-2.437,1.512.024.024,0,0,1-.018.006q-.082,0-.082-.088a.039.039,0,0,1,.018-.035A6.716,6.716,0,0,0,57.5-4.078a6.77,6.77,0,0,0,.932-1.488h-.885a3.628,3.628,0,0,0-.639.07l-.129-.439a3,3,0,0,0,.715.094h1.131V-7.775H57.83a3.289,3.289,0,0,0-.6.07L57.1-8.145a2.8,2.8,0,0,0,.686.094h.838v-.662a9.421,9.421,0,0,0-.094-1.271q1.453.146,1.453.375,0,.123-.352.287v1.271h1.494V-8.83q0-.346-.047-1.154a6.4,6.4,0,0,1,1.248.193q.176.064.176.17,0,.123-.346.287v1.283h.65q.545-.662.691-.662a2.331,2.331,0,0,1,.7.457q.3.246.3.363t-.152.117H62.154v1.934H63.1q.58-.709.732-.709a2.435,2.435,0,0,1,.732.5q.311.258.311.363t-.158.117Zm-.258,0H59.675a7.439,7.439,0,0,1-1.055,1.377,2.923,2.923,0,0,0,.586.059h1.939q.264-.393.4-.393a1.679,1.679,0,0,1,.568.275A5.2,5.2,0,0,1,61.357-5.566Zm-.234-2.209H59.629v1.934h1.494Zm-4.43-.732a.693.693,0,0,1-.193.521.483.483,0,0,1-.346.141.471.471,0,0,1-.4-.176,3.411,3.411,0,0,1-.287-.557,3.1,3.1,0,0,0-.855-1.084.047.047,0,0,1-.023-.035q0-.059.07-.059a3.17,3.17,0,0,1,1.564.445A.94.94,0,0,1,56.693-8.508Zm-.855,2.818a.661.661,0,0,1-.187.5.551.551,0,0,1-.4.152.434.434,0,0,1-.357-.182,2.774,2.774,0,0,1-.27-.527A2.9,2.9,0,0,0,53.8-6.809a.038.038,0,0,1-.023-.035q0-.059.07-.059Q55.837-6.732,55.837-5.689Zm1.1-.949q-.8,2.807-1.2,3.973a2.639,2.639,0,0,0-.17.756A2.614,2.614,0,0,0,55.791-1a2.694,2.694,0,0,1,.229.914.867.867,0,0,1-.246.65.723.723,0,0,1-.533.211q-.574,0-.574-.609a5.252,5.252,0,0,1,.059-.7,3.56,3.56,0,0,0,.035-.492,1.4,1.4,0,0,0-.164-.814,1.856,1.856,0,0,0-.709-.4q-.029-.012-.029-.07,0-.123.07-.111a3.665,3.665,0,0,0,.4.023.663.663,0,0,0,.58-.3,43.436,43.436,0,0,0,1.875-4.02q.012-.029.035-.029a.114.114,0,0,1,.059.023Q56.939-6.68,56.933-6.639Zm10.229-3.7a.409.409,0,0,1,.123.059,8.4,8.4,0,0,1,2.426,2.6,6.113,6.113,0,0,1,.861,3.129,6.113,6.113,0,0,1-.861,3.129A8.33,8.33,0,0,1,67.3,1.154a.31.31,0,0,1-.158.07q-.059,0-.059-.07,0-.047.105-.158a7.359,7.359,0,0,0,2.5-5.555,7.444,7.444,0,0,0-2.543-5.6.165.165,0,0,1-.059-.111Q67.08-10.342,67.162-10.342Z" transform="translate(188 3000.366)" fill="#fff"/>
    <rect id="長方形_24257-2" data-name="長方形 24257" width="280" height="24" transform="translate(48 2919.366)" fill="#c89932"/>
    <path id="パス_13636" data-name="パス 13636" d="M-13.018-5.918A9.73,9.73,0,0,1-13.639-3.4a7.152,7.152,0,0,1-1.072,1.758A7.914,7.914,0,0,1-18.661.85q-.029.006-.064-.032a.116.116,0,0,1-.035-.079A.039.039,0,0,1-18.743.7a8.281,8.281,0,0,0,3.861-4.078,9.853,9.853,0,0,0,.674-2.854H-17.4a10.317,10.317,0,0,0-1.09.07l-.135-.439a9.1,9.1,0,0,0,1.248.094h3.193q.094-1.061.094-2.221,0-.463-.047-1.113a11.329,11.329,0,0,1,1.436.246q.264.082.264.246T-12.854-9a24.306,24.306,0,0,1-.105,2.5H-9.9q.709-.926.861-.926a3.488,3.488,0,0,1,.867.65q.369.322.369.428,0,.123-.152.123h-4.887A7.561,7.561,0,0,0-10.6-2.268,7.9,7.9,0,0,0-7.593-.574a.058.058,0,0,1,.041.064A.081.081,0,0,1-7.6-.422a1.391,1.391,0,0,0-.838.961q-.07.24-.182.24A1.607,1.607,0,0,1-9.368.422a8.457,8.457,0,0,1-1.945-1.84A9.412,9.412,0,0,1-13.018-5.918ZM3.732-1A33.482,33.482,0,0,1-1.371.17a1.345,1.345,0,0,1-.123.393.165.165,0,0,1-.152.076q-.141,0-.234-.27-.082-.24-.387-1.424.463.047.744.047h.264A37.507,37.507,0,0,0,.469-7.594,20.176,20.176,0,0,0,.686-9.686q1.295.281,1.6.393.252.094.252.234,0,.217-.475.357A36.588,36.588,0,0,1,.744-4.26,25.909,25.909,0,0,1-.744-1.02a41.843,41.843,0,0,0,4.389-.3A14.026,14.026,0,0,0,2.4-4.459a.017.017,0,0,1-.006-.012q0-.088.111-.088a.048.048,0,0,1,.035.012,14.443,14.443,0,0,1,2.145,2.5A3.158,3.158,0,0,1,5.238-.422a1.116,1.116,0,0,1-.223.732.61.61,0,0,1-.486.229A.48.48,0,0,1,4.1.287a2.514,2.514,0,0,1-.258-.779Zm-7.547-4.33A9.716,9.716,0,0,1-5.543-3.861a.04.04,0,0,1-.029.012q-.1,0-.1-.082a.052.052,0,0,1,.006-.023A12.2,12.2,0,0,0-3.24-7.863a9.6,9.6,0,0,0,.586-2.121q1.6.451,1.6.674,0,.188-.457.287A14.116,14.116,0,0,1-3.023-6.275a2.4,2.4,0,0,1,.51.117.147.147,0,0,1,.088.135q0,.135-.311.275V.48q0,.5-.621.5-.527,0-.527-.434.07-1.312.07-3.182Zm17.571-3h1.307v-.791a5.7,5.7,0,0,0-.07-.879q1.512.129,1.512.334,0,.129-.334.328v1.008h1.26q.451-.551.586-.551a2.269,2.269,0,0,1,.721.492q.3.27.3.381,0,.211-.4.229a.765.765,0,0,0-.3.158q-.375.281-.85.586.053.029.3.205.264.193.264.322,0,.1-.287.3v.322l.023,1.646q0,.516-.627.516a.493.493,0,0,1-.387-.123.564.564,0,0,1-.088-.357v-.047H14.442v1.582h2.5q.5-.562.633-.562a1.9,1.9,0,0,1,.662.4q.275.229.275.352,0,.088-.311.346v.422l.035,2.2q0,.527-.662.527a.52.52,0,0,1-.4-.123.536.536,0,0,1-.1-.369V.17H14.442v.4q0,.539-.639.539-.5,0-.5-.434l.064-5.531q0-.973-.041-1.945a.708.708,0,0,1-.346.094.492.492,0,0,1-.562-.551.576.576,0,0,1,.387-.568,1.135,1.135,0,0,0,.668-1.066.059.059,0,0,1,.064-.047.068.068,0,0,1,.07.047A3.706,3.706,0,0,1,13.757-8.326Zm.035.275a1.558,1.558,0,0,1,.012.193,1.531,1.531,0,0,1-.129.645,7.031,7.031,0,0,1,.85.492H16.6q.422-.469.545-.469a.405.405,0,0,1,.182.047q.111-.375.229-.908Zm.65,5.66V-.105h2.625V-2.391Zm2.244-2.133V-6.445H14.442v1.922ZM9.52-.609a14.147,14.147,0,0,0,1.729-.434,4.286,4.286,0,0,0-.8-1.16.072.072,0,0,1-.012-.041.062.062,0,0,1,.07-.07h.012a3.631,3.631,0,0,1,1.588.844,1.413,1.413,0,0,1,.5,1.02.88.88,0,0,1-.193.6.545.545,0,0,1-.428.193.34.34,0,0,1-.275-.111,1.2,1.2,0,0,1-.146-.357,5.094,5.094,0,0,0-.193-.6A17.686,17.686,0,0,1,8.63.615q-.047.4-.234.4-.117,0-.24-.293Q8.038.457,7.768-.381q.023,0,.732-.076V-3.633q0-1.775-.047-3.217a9.123,9.123,0,0,1-.809.48H7.634q-.082,0-.082-.105A.04.04,0,0,1,7.563-6.5,11.919,11.919,0,0,0,9.2-8.6a5.852,5.852,0,0,0,.656-1.477q1.037.434,1.254.539.2.105.2.182,0,.164-.422.176a4.009,4.009,0,0,1,1.266.586.782.782,0,0,1,.311.621.6.6,0,0,1-.164.422.446.446,0,0,1-.328.152.321.321,0,0,1-.27-.105,3.545,3.545,0,0,1-.27-.533,3.25,3.25,0,0,0-.7-1A8.926,8.926,0,0,1,8.694-7.02q.346.152.873.445h.422v-.732a6.863,6.863,0,0,0-.047-.709Q11.3-7.9,11.3-7.705q0,.117-.311.264v.867h.264q.4-.434.527-.434a1.572,1.572,0,0,1,.6.363q.24.188.24.311t-.287.311v.469l.023,2.59q0,.457-.586.457a.507.507,0,0,1-.375-.1.445.445,0,0,1-.082-.3v-.17H9.52Zm1.787-4.406V-6.3H9.52v1.283ZM9.52-4.74v1.383h1.787V-4.74Z" transform="translate(188 2936.366)" fill="#fff"/>
    <path id="パス_12685-3" data-name="パス 12685" d="M-3876,12067h22.195" transform="translate(12255 6762.293) rotate(90)" fill="none" stroke="#fff" stroke-width="1"/>
    <path id="多角形_6-3" data-name="多角形 6" d="M4,0,8,4.073H0Z" transform="translate(192 2911.366) rotate(180)" fill="#fff"/>
    <rect id="長方形_24256-2" data-name="長方形 24256" width="280" height="24" transform="translate(48 2854.293)" fill="#fff"/>
    <path id="パス_13637" data-name="パス 13637" d="M-5.5-7.969A6.007,6.007,0,0,0-3.454-6.363a10.324,10.324,0,0,0,2.607.8A.058.058,0,0,1-.805-5.5q0,.07-.053.082a1.019,1.019,0,0,0-.709.732.975.975,0,0,1-.088.249.133.133,0,0,1-.117.05,2.183,2.183,0,0,1-.586-.229,11.238,11.238,0,0,1-1.312-.8A7.412,7.412,0,0,1-5.8-7.969H-7.022a8.431,8.431,0,0,1-2.256,2.4A11.578,11.578,0,0,1-12.12-4.125a.024.024,0,0,1-.018.006q-.082,0-.082-.111a.039.039,0,0,1,.018-.035,10.84,10.84,0,0,0,3.9-3.7h-2.52a8.739,8.739,0,0,0-.984.07l-.129-.439a6.709,6.709,0,0,0,1.078.094h2.713a7.785,7.785,0,0,0,.732-1.834q1.541.34,1.541.563t-.5.334q-.17.387-.48.938H-3.2q.668-.791.814-.791a3.246,3.246,0,0,1,.85.551q.369.293.369.4t-.152.117Zm-.545,4.582v.674L-6-.158a.959.959,0,0,1-.5.914A1.647,1.647,0,0,1-7.432,1,.26.26,0,0,1-7.661.9,1.258,1.258,0,0,1-7.766.551Q-7.866.094-9-.229q-.047-.012-.047-.088T-9-.4q1.049.076,1.617.076.158,0,.158-.17V-3.387h-3.035a9.666,9.666,0,0,0-1.043.07l-.135-.439a7.916,7.916,0,0,0,1.166.094h6.645q.656-.779.809-.779a2.735,2.735,0,0,1,.779.539q.334.287.334.4t-.158.117Zm1.893-1.881q0,.117-.152.117H-8.217a7.135,7.135,0,0,0-.891.07l-.129-.439a5.24,5.24,0,0,0,.943.094H-5.9q.6-.674.738-.674a2.3,2.3,0,0,1,.709.469Q-4.157-5.385-4.157-5.268ZM-1.971-.322a.736.736,0,0,1-.2.545A.589.589,0,0,1-2.6.4.5.5,0,0,1-3.032.205a7.358,7.358,0,0,1-.492-.926A5.442,5.442,0,0,0-5.059-2.508a.063.063,0,0,1-.018-.047q0-.094.076-.076A6,6,0,0,1-2.68-1.57,1.655,1.655,0,0,1-1.971-.322Zm-6.17-1.729q0,.2-.557.264A7.959,7.959,0,0,1-11.926.545a.052.052,0,0,1-.023.006q-.111,0-.111-.1a.034.034,0,0,1,.012-.023A7.969,7.969,0,0,0-10.01-1.9a4.145,4.145,0,0,0,.422-.955,11.4,11.4,0,0,1,1.207.545Q-8.141-2.168-8.141-2.051ZM8.176-1.74a4.619,4.619,0,0,0,.422.264A10.322,10.322,0,0,0,12.114-.369q.047.006.047.076t-.047.082a1.094,1.094,0,0,0-.574.264,1.293,1.293,0,0,0-.264.5Q11.182.832,11,.832a2.074,2.074,0,0,1-.615-.158A8.383,8.383,0,0,1,8.5-.3,5.79,5.79,0,0,1,6.887-1.881,10.3,10.3,0,0,1,5.856-4.043H4.163V-.7a21.7,21.7,0,0,0,2.689-.68h.012q.076,0,.076.117a.046.046,0,0,1-.018.041A20.623,20.623,0,0,1,2.5.744q-.053.457-.287.457-.123,0-.223-.223Q1.9.779,1.526-.275q.41-.035.885-.105.111-.023.34-.053.2-.029.3-.047V-4.412q0-2.637-.07-4.395a10.419,10.419,0,0,1,1.277.6H5.879V-9.252q0-.258-.047-.732,1.588.146,1.588.4,0,.164-.41.357v1.02H8.827q.48-.539.609-.539a1.947,1.947,0,0,1,.662.434q.275.24.275.357t-.363.346v.65l.064,2.777a.3.3,0,0,1-.088.234q1.225.674,1.225.879,0,.17-.375.17h-.164A11.8,11.8,0,0,1,8.176-1.74ZM7.9-1.934a11.122,11.122,0,0,0,1.354-1.16,5.414,5.414,0,0,0,.639-.768,1.066,1.066,0,0,1-.527.105q-.41,0-.445-.287H6.155A6.307,6.307,0,0,0,7.9-1.934ZM8.92-4.318V-6.035H4.163v1.717Zm0-1.992V-7.934H4.163v1.623Z" transform="translate(188 2871.293)" fill="#111"/>
    <path id="パス_13638" data-name="パス 13638" d="M-15.2-4.15a14.563,14.563,0,0,0,1.172-1.89,6.163,6.163,0,0,0,.459-1.03q1.118.513,1.118.669t-.327.142h-.059q-.83.972-1.113,1.26t-.937.85q.566,0,1.709-.039a2.571,2.571,0,0,0-.435-.85.043.043,0,0,1,0-.02q0-.054.073-.054a.054.054,0,0,1,.024,0q1.26.684,1.26,1.416a.681.681,0,0,1-.142.449.4.4,0,0,1-.308.142A.308.308,0,0,1-13-3.247a1.52,1.52,0,0,1-.127-.591l-.01-.112q-.22.078-.659.2v1.382l.029,2.847q0,.381-.527.381-.4,0-.4-.308.059-.913.059-2.173V-3.55q-.361.078-1.06.19-.1.278-.22.278-.1,0-.181-.244t-.19-.845q.259.02.532.02Zm4.082-1.9A6.09,6.09,0,0,1-12.442-4.5a.052.052,0,0,1-.029.01q-.088,0-.088-.063a.037.037,0,0,1,0-.015,9.56,9.56,0,0,0,.986-2.48,6.98,6.98,0,0,0,.239-1.289q1.367.352,1.367.532t-.4.239a10.1,10.1,0,0,1-.62,1.289h2.368q.439-.518.552-.518t.566.42q.239.21.239.317,0,.078-.308.3-.059,1.968-.171,3.076A15.619,15.619,0,0,1-8.077-.532a1.53,1.53,0,0,1-.64.972,1.473,1.473,0,0,1-.84.229.291.291,0,0,1-.21-.054A.569.569,0,0,1-9.845.391.733.733,0,0,0-10.172-.1a3.442,3.442,0,0,0-.791-.3Q-11-.41-11-.483t.039-.078q.874.078,1.157.078a1.678,1.678,0,0,0,.645-.078A.374.374,0,0,0-9-.806,23.539,23.539,0,0,0-8.507-6.05ZM-15.206-6.6a10.129,10.129,0,0,0,.439-1.187,4.715,4.715,0,0,0,.146-.61q1.187.42,1.187.62,0,.166-.4.166A13.022,13.022,0,0,1-14.967-6.46a.908.908,0,0,1,.474.757.636.636,0,0,1-.146.444.421.421,0,0,1-.322.137.38.38,0,0,1-.322-.117,2.021,2.021,0,0,1-.2-.513,2.408,2.408,0,0,0-.659-1.079.033.033,0,0,1-.015-.029q0-.073.073-.059A5.85,5.85,0,0,1-15.206-6.6Zm5.435,3.5a.708.708,0,0,1-.171.483.486.486,0,0,1-.376.176q-.312,0-.4-.439a7.049,7.049,0,0,0-.371-1.074,2.319,2.319,0,0,0-.43-.635.06.06,0,0,1-.01-.034.052.052,0,0,1,.059-.059h.01a2.843,2.843,0,0,1,1.26.708A1.25,1.25,0,0,1-9.771-3.1Zm-2.51,1.831a.713.713,0,0,1-.151.474.43.43,0,0,1-.337.156.3.3,0,0,1-.293-.186A2.076,2.076,0,0,1-13.2-1.46a3.078,3.078,0,0,0-.444-1.353.028.028,0,0,1-.01-.02q0-.049.059-.049a.053.053,0,0,1,.029.01Q-12.281-2.075-12.281-1.27ZM-14.7-2.422q0,.132-.283.19A5.644,5.644,0,0,1-16.358.132a.04.04,0,0,1-.029.01.056.056,0,0,1-.063-.063.037.037,0,0,1,0-.015,7.958,7.958,0,0,0,.562-1.885A4.726,4.726,0,0,0-15.8-2.71q0-.068,0-.161.767.225.952.308Q-14.7-2.5-14.7-2.422ZM-2.087-3.77a1.474,1.474,0,0,1-1.323.742A1.81,1.81,0,0,1-4.895-3.7a2.266,2.266,0,0,1-.474-1.479,2.322,2.322,0,0,1,.674-1.738A2.093,2.093,0,0,1-3.171-7.51a2,2,0,0,1,1.738.894A3.362,3.362,0,0,1-.9-4.648a4.776,4.776,0,0,1-.64,2.563A4.563,4.563,0,0,1-2.9-.742a4.818,4.818,0,0,1-1.621.7q-.137,0-.239-.19a.275.275,0,0,1-.059-.156q0-.1.112-.112A3.029,3.029,0,0,0-3.327-.859,2.29,2.29,0,0,0-2.39-2,5.953,5.953,0,0,0-2.038-3.77ZM-3.171-7.2a.875.875,0,0,0-.8.645A3.332,3.332,0,0,0-4.2-5.239a2.73,2.73,0,0,0,.288,1.357.827.827,0,0,0,.737.474q.63,0,1.03-.879a1.723,1.723,0,0,0,.088-.645A3.756,3.756,0,0,0-2.37-6.646.889.889,0,0,0-3.171-7.2ZM3.117-7.51A1.865,1.865,0,0,1,4.826-6.372a5.588,5.588,0,0,1,.513,2.583A5.151,5.151,0,0,1,4.67-.928a1.785,1.785,0,0,1-1.553.889A1.862,1.862,0,0,1,1.389-1.147,5.541,5.541,0,0,1,.881-3.73a5.271,5.271,0,0,1,.664-2.9A1.8,1.8,0,0,1,3.117-7.51Zm0,.308q-.64,0-.884,1.06A11.575,11.575,0,0,0,2.053-3.76a9.744,9.744,0,0,0,.244,2.6q.254.811.82.811.625,0,.869-1.05A11.445,11.445,0,0,0,4.167-3.76a10.075,10.075,0,0,0-.239-2.622Q3.679-7.2,3.117-7.2Zm8.319,3.223A5.262,5.262,0,0,1,10.118-.728,6.028,6.028,0,0,1,7.276.791Q7.208.806,7.208.7A.038.038,0,0,1,7.223.669,6.382,6.382,0,0,0,9.6-1.406a5.853,5.853,0,0,0,.8-2.573H9.64A4.917,4.917,0,0,0,8.8-3.9l-.112-.4a4.847,4.847,0,0,0,.923.093H13.4q.449-.439.547-.439t.571.4q.239.225.239.317t-.288.293a12.958,12.958,0,0,1-.522,3.364,1.553,1.553,0,0,1-.459.684,1.317,1.317,0,0,1-.859.278A.474.474,0,0,1,12.359.64a.43.43,0,0,1-.1-.229.7.7,0,0,0-.337-.435,3.764,3.764,0,0,0-.806-.322q-.029,0-.029-.068,0-.112.049-.1a11.156,11.156,0,0,0,1.484.166.373.373,0,0,0,.337-.19,2.632,2.632,0,0,0,.225-.64,16.677,16.677,0,0,0,.327-2.8ZM16.52-4.8q.029,0,.029.063,0,.078-.044.088a.631.631,0,0,0-.386.225,1.39,1.39,0,0,0-.205.474q-.063.288-.166.288a1.112,1.112,0,0,1-.439-.22A6.925,6.925,0,0,1,14.229-4.8a5.666,5.666,0,0,1-.894-1.24,14.151,14.151,0,0,1-.708-1.611.507.507,0,0,0-.132-.181.126.126,0,0,1-.078-.107q0-.063.161-.127a.624.624,0,0,1,.229-.054q.1,0,.1.078l-.049.181a.568.568,0,0,0,.059.22,5.217,5.217,0,0,0,1.47,1.86A5.287,5.287,0,0,0,16.52-4.8Zm-5.19-2.778q0,.19-.41.22A9.5,9.5,0,0,1,9.2-4.961,8.735,8.735,0,0,1,7.12-3.525a.02.02,0,0,1-.015,0q-.078,0-.078-.088a.033.033,0,0,1,.01-.024A9.243,9.243,0,0,0,9.459-6.738,6.542,6.542,0,0,0,9.977-8.2Q11.329-7.754,11.329-7.578Z" transform="translate(217 2843.293)" fill="#fff"/>
    <path id="パス_13639" data-name="パス 13639" d="M-29.111-5.82a3.789,3.789,0,0,0-.049-.83q-.073-.186-.493-.381-.107-.054-.107-.1,0-.063.112-.112a.7.7,0,0,1,.317-.078,1.729,1.729,0,0,1,.752.269q.518.283.518.581a.427.427,0,0,1-.117.278.713.713,0,0,0-.073.342q-.044,1.23-.059,2.861,0,.43-.352.43-.244,0-.444-.361a1.163,1.163,0,0,1-.132-.562.939.939,0,0,1,.049-.288,2.473,2.473,0,0,0,.049-.459Q-29.111-4.8-29.111-5.82Zm2.813-.918a1.849,1.849,0,0,0-.034-.439.308.308,0,0,0-.137-.19,1.573,1.573,0,0,0-.488-.19q-.112-.024-.112-.073,0-.068.161-.19a.525.525,0,0,1,.3-.088,2.075,2.075,0,0,1,.859.21q.562.254.562.532a.394.394,0,0,1-.122.288.9.9,0,0,0-.107.552,16.333,16.333,0,0,1-.249,3.438,3.589,3.589,0,0,1-1,1.831A5.908,5.908,0,0,1-29.658.41a1.424,1.424,0,0,1-.19.029q-.132,0-.132-.088,0-.068.142-.122A5.06,5.06,0,0,0-26.88-2.08a5.417,5.417,0,0,0,.542-2.212Q-26.3-4.863-26.3-6.738Zm12.25,4.619a5.972,5.972,0,0,0-.879-1.353q-.171-.166-.171-.2,0-.122.1-.122a.4.4,0,0,1,.2.059,4.93,4.93,0,0,1,1.86,1.582,1.659,1.659,0,0,1,.342.918.607.607,0,0,1-.171.464.551.551,0,0,1-.4.146q-.332,0-.532-.532l-.107-.332a1.352,1.352,0,0,0-.1-.264q-3.076.654-4.639.908A1.144,1.144,0,0,0-19-.7a.386.386,0,0,1-.239.1q-.21,0-.469-.381a1.927,1.927,0,0,1-.234-.449,1.039,1.039,0,0,1-.088-.337q0-.361.181-.361.054,0,.127.142a.553.553,0,0,0,.2.234.593.593,0,0,0,.264.044q.186,0,.547-.029.176-.322.322-.649.879-1.968,1.367-3.433a2.673,2.673,0,0,0,.171-.718.305.305,0,0,0-.122-.249,1.039,1.039,0,0,0-.366-.2q-.1-.034-.1-.1,0-.093.21-.166a.9.9,0,0,1,.322-.063,1.863,1.863,0,0,1,.938.342,1.557,1.557,0,0,1,.43.342.486.486,0,0,1,.083.288A.424.424,0,0,1-15.689-6a2.9,2.9,0,0,0-.61.933q-.908,1.748-1.86,3.311Q-15.2-1.978-14.049-2.119ZM-7.57-6.729q-.1-.073-.1-.132,0-.078.171-.078a2.421,2.421,0,0,1,1.069.229q.713.366.713.811a.641.641,0,0,1-.151.449.491.491,0,0,1-.381.161.312.312,0,0,1-.229-.093,1.436,1.436,0,0,1-.19-.278A3.355,3.355,0,0,0-7.57-6.729Zm.659,6.27a.444.444,0,0,1-.361.2q-.273,0-.669-.449a1.582,1.582,0,0,1-.469-.879.6.6,0,0,1,.059-.264q.044-.1.083-.1t.146.117q.356.4.581.4a1.64,1.64,0,0,0,.6-.2A15.105,15.105,0,0,0-4.489-3.12,28.544,28.544,0,0,0-1.765-5.41q.171-.171.234-.171.1,0,.1.1a.354.354,0,0,1-.068.171A13.256,13.256,0,0,1-3.82-2.71,20.488,20.488,0,0,1-6.6-.7.946.946,0,0,0-6.911-.459ZM-8.82-4.6q-.142-.054-.142-.132,0-.1.278-.1a3.327,3.327,0,0,1,1.011.161q.791.254.791.767a.649.649,0,0,1-.156.439.463.463,0,0,1-.366.171q-.229,0-.449-.352A2.617,2.617,0,0,0-8.82-4.6Zm5.669-2.593a1.962,1.962,0,0,1,.688.322.789.789,0,0,1,.371.6.358.358,0,0,1-.093.249.308.308,0,0,1-.239.1.379.379,0,0,1-.337-.229,4.192,4.192,0,0,0-.63-.884Q-3.5-7.144-3.5-7.163q0-.068.122-.068A.723.723,0,0,1-3.151-7.192Zm.811-.669a2.325,2.325,0,0,1,.8.293.592.592,0,0,1,.361.508.393.393,0,0,1-.1.283.281.281,0,0,1-.205.088.412.412,0,0,1-.371-.22,2.727,2.727,0,0,0-.7-.781q-.122-.088-.122-.122,0-.078.083-.078A1.237,1.237,0,0,1-2.341-7.861Zm5.9,6.3a1.213,1.213,0,0,0,.508-.2A19.048,19.048,0,0,0,6.843-3.721,22.039,22.039,0,0,0,9.191-6.162q.073-.088.127-.088.1,0,.1.088a.366.366,0,0,1-.059.171,13.991,13.991,0,0,1-2.08,2.8A23.725,23.725,0,0,1,4.611-.85a1.306,1.306,0,0,0-.259.239.507.507,0,0,1-.4.239.945.945,0,0,1-.61-.381A1.661,1.661,0,0,1,2.78-1.68q0-.381.161-.381.044,0,.156.132Q3.454-1.558,3.562-1.558ZM2.678-6.2a.116.116,0,0,1-.068-.1q0-.078.1-.078t.19.01a3.546,3.546,0,0,1,1.274.4,1.125,1.125,0,0,1,.688,1,.555.555,0,0,1-.176.43.538.538,0,0,1-.366.132A.511.511,0,0,1,3.83-4.78,3.558,3.558,0,0,0,3.41-5.5,2.608,2.608,0,0,0,2.678-6.2Zm14.33.962a1.024,1.024,0,0,1,.332.078A5.155,5.155,0,0,1,19.1-4.141a2.182,2.182,0,0,1,.869,1.382.754.754,0,0,1-.142.479.459.459,0,0,1-.381.181.489.489,0,0,1-.42-.21,3.549,3.549,0,0,1-.2-.391,6.474,6.474,0,0,0-.786-1.328,5.2,5.2,0,0,0-.952-.942q-.181-.132-.181-.19Q16.91-5.239,17.008-5.239Zm-2.6.142a1.5,1.5,0,0,1,.767.352q.542.381.542.718a.379.379,0,0,1-.229.347,2.145,2.145,0,0,0-.469.371,9.846,9.846,0,0,1-1.182,1A8.4,8.4,0,0,1,12.018-1.3a1.225,1.225,0,0,1-.386.112q-.132,0-.132-.088,0-.049.22-.2a11.573,11.573,0,0,0,1.558-1.27,8.825,8.825,0,0,0,.972-1.128,1.173,1.173,0,0,0,.259-.542q0-.166-.371-.42-.1-.063-.1-.107t.146-.1A.637.637,0,0,1,14.41-5.1Zm3.809-1.631a2.019,2.019,0,0,1,.688.317.789.789,0,0,1,.371.6.358.358,0,0,1-.093.249.3.3,0,0,1-.234.1.382.382,0,0,1-.342-.229,4.176,4.176,0,0,0-.625-.879q-.112-.112-.112-.132,0-.068.117-.068A.723.723,0,0,1,18.219-6.729Zm.82-.674a2.375,2.375,0,0,1,.8.293A.592.592,0,0,1,20.2-6.6a.393.393,0,0,1-.1.283.281.281,0,0,1-.205.088.412.412,0,0,1-.371-.22,2.727,2.727,0,0,0-.7-.781q-.122-.088-.122-.122a.069.069,0,0,1,.078-.078A1.191,1.191,0,0,1,19.039-7.4Zm8.8,3.9q.64.264,1.206.562a6.027,6.027,0,0,1,.962.61q.84.645.84,1.138a.558.558,0,0,1-.151.405.414.414,0,0,1-.308.137.7.7,0,0,1-.62-.342A9.388,9.388,0,0,0,28.608-2.48a6.859,6.859,0,0,0-1-.771,11.511,11.511,0,0,1-2.451,1.963A8.732,8.732,0,0,1,23.452-.5a.7.7,0,0,1-.225.049q-.1,0-.1-.088A.117.117,0,0,1,23.2-.649a11.526,11.526,0,0,0,1.694-1.1,16.288,16.288,0,0,0,1.44-1.313,16.762,16.762,0,0,0,2.031-2.651.3.3,0,0,0,.059-.117q0-.034-.068-.034a.534.534,0,0,0-.063,0q-1.123.127-2.393.4a1.534,1.534,0,0,0-.459.161.745.745,0,0,1-.352.107q-.293,0-.669-.469a1.015,1.015,0,0,1-.21-.645q0-.259.132-.259.034,0,.137.122a1.567,1.567,0,0,0,.361.317.726.726,0,0,0,.332.063q.171,0,.757-.059.977-.107,2.2-.283a.805.805,0,0,0,.4-.146.411.411,0,0,1,.288-.112.915.915,0,0,1,.532.269q.42.366.42.562t-.332.3A.663.663,0,0,0,29.2-5.3,19.093,19.093,0,0,1,27.842-3.5Z" transform="translate(231 2826.293)" fill="#fff"/>
    <path id="パス_12685-4" data-name="パス 12685" d="M-3876,12067h22.195" transform="translate(12254 6692.293) rotate(90)" fill="none" stroke="#fff" stroke-width="1"/>
    <path id="多角形_6-4" data-name="多角形 6" d="M4,0,8,4.073H0Z" transform="translate(191 2841.366) rotate(180)" fill="#fff"/>
    <rect id="長方形_24230-2" data-name="長方形 24230" width="280" height="24" transform="translate(48 2784.293)" fill="#914831"/>
    <path id="パス_13640" data-name="パス 13640" d="M-32.01-5.883q-.5,0-.5-.346l.023-2.5q0-.744-.053-1.33a11.485,11.485,0,0,1,1.225.609h2.191q.486-.539.615-.539a1.94,1.94,0,0,1,.662.445q.275.24.275.357,0,.146-.322.334v1.459l.012,7.354a.978.978,0,0,1-.328.8,1.433,1.433,0,0,1-.9.252q-.17,0-.205-.047a.6.6,0,0,1-.059-.217.718.718,0,0,0-.316-.51,2.547,2.547,0,0,0-.738-.281.546.546,0,0,1-.463.229.453.453,0,0,1-.316-.117,1.775,1.775,0,0,1-.287-.363,3.7,3.7,0,0,0-1.582-1.418,4.085,4.085,0,0,1-3.182,2q-.082.018-.082-.1a.047.047,0,0,1,.023-.047,4.018,4.018,0,0,0,2.484-2.613h-1.617a5.842,5.842,0,0,0-.809.07l-.129-.439a4.7,4.7,0,0,0,.9.094h1.717a5.4,5.4,0,0,0,.1-1.154H-35.08a5.817,5.817,0,0,0-.8.07l-.135-.439a4.724,4.724,0,0,0,.9.094h1.008a.428.428,0,0,1-.3-.146,1.291,1.291,0,0,1-.158-.416,2.135,2.135,0,0,0-.492-.967.094.094,0,0,1-.012-.041.052.052,0,0,1,.059-.059H-35q1.482.363,1.482,1.09,0,.439-.5.539h1.359a9.88,9.88,0,0,0,.445-1.008A2.87,2.87,0,0,0-32.01-5.883Zm.064,0q1.148.422,1.148.627,0,.152-.4.17a7.219,7.219,0,0,1-1.1.92h.973q.5-.586.65-.586a1.818,1.818,0,0,1,.6.4q.252.234.252.34t-.158.117h-2.637a10.262,10.262,0,0,1-.111,1.154h1.611q.533-.65.68-.65a2.1,2.1,0,0,1,.662.457q.275.24.275.352t-.158.117h-3.129a5.753,5.753,0,0,1-.193.563,5.634,5.634,0,0,1,2.021.65q.645.393.645.85a.681.681,0,0,1-.035.217q.492.035,1.184.035.146,0,.146-.164V-6.3H-31.43Q-31.447-5.9-31.945-5.883Zm2.924-2.168V-9.17H-31.43v1.119Zm-2.408.275v1.2h2.408v-1.2ZM-37.02-6.3V.551q0,.469-.674.469-.48,0-.48-.422l.064-4.857q0-3.527-.088-5.795a9.671,9.671,0,0,1,1.283.609h2.1q.475-.539.6-.539a1.886,1.886,0,0,1,.65.422q.264.211.264.334t-.352.357v.422l.023,2.15q0,.393-.65.393-.428,0-.428-.346V-6.3Zm2.314-1.752V-9.17H-37.02v1.119Zm-2.314.275v1.2h2.314v-1.2Zm18.661-.8V-6.5h1.916q.545-.609.674-.609a2.131,2.131,0,0,1,.7.48q.287.252.287.369,0,.17-.363.381V-4.9q0,2.391.076,4.9,0,.492-.732.492-.48,0-.48-.369V-.369h-7.137V.053q0,.492-.721.492-.469,0-.469-.387.076-2.033.076-4.705,0-1.559-.064-2.643a10.044,10.044,0,0,1,1.342.686h1.576L-21.669-7V-8.578H-24.13a6.321,6.321,0,0,0-.85.07l-.135-.439a5.079,5.079,0,0,0,.938.094h7.746q.8-.861.938-.861a3.216,3.216,0,0,1,.85.6q.375.311.375.422t-.158.117Zm-1.055,0h-1.154V-7.09q0,.393-.012.586h1.166Zm3.129,7.934V-6.229h-2.074v2.344a.286.286,0,0,0,.105.264.783.783,0,0,0,.363.059.769.769,0,0,0,.387-.07.612.612,0,0,0,.223-.287,7.932,7.932,0,0,0,.3-.926q.006-.035.064-.035.094,0,.094.059v.563a1.706,1.706,0,0,0,.035.445.446.446,0,0,0,.158.17.449.449,0,0,1,.229.369q0,.387-.5.568a3.875,3.875,0,0,1-1.131.117,1.487,1.487,0,0,1-1.16-.328,1.668,1.668,0,0,1-.217-1.008v-2.3h-1.178a5.265,5.265,0,0,1-.826,2.7,4.125,4.125,0,0,1-1.822,1.365.024.024,0,0,1-.018.006q-.07,0-.07-.094a.046.046,0,0,1,.018-.041,3.736,3.736,0,0,0,1.219-1.641,7.92,7.92,0,0,0,.4-2.3h-1.729V-.645ZM-7.332-1.91V-4.74H-8.715a4.6,4.6,0,0,0-.727.07l-.135-.439a4.028,4.028,0,0,0,.826.094h1.418v-2.2H-9a5.385,5.385,0,0,0-.768.07L-9.9-7.582a4.645,4.645,0,0,0,.885.094h4q.563-.662.709-.662a2.541,2.541,0,0,1,.744.469q.311.246.311.352t-.158.117H-6.2v2.2h.961q.475-.662.633-.662a2.331,2.331,0,0,1,.7.457q.3.246.3.363t-.152.117H-6.2v2.83h1.488q.486-.709.65-.709a2.359,2.359,0,0,1,.721.5q.3.246.3.363t-.158.117H-9.19a4.62,4.62,0,0,0-.732.07L-10.057-2a4.185,4.185,0,0,0,.85.094Zm3.287-1.266a.57.57,0,0,1-.176.428.493.493,0,0,1-.363.146.38.38,0,0,1-.281-.1,1.048,1.048,0,0,1-.164-.322A2.775,2.775,0,0,0-5.791-4.16.051.051,0,0,1-5.809-4.2q0-.053.064-.053h.018Q-4.045-3.949-4.045-3.176ZM-10.461.035v.3q0,.48-.7.48-.48,0-.48-.4.076-2.279.076-6.211,0-2.42-.064-4.131a11.571,11.571,0,0,1,1.348.7H-2.9q.545-.609.674-.609t.686.48q.275.258.275.369,0,.17-.357.381v1.465q0,4.359.07,7.418,0,.492-.721.492-.492,0-.492-.387V.035Zm7.7-.275V-8.953h-7.7V-.24ZM2.5-2.52v1.225L2.516.469q0,.516-.645.516Q1.4.984,1.4.539L1.45-5.555q0-3.035-.047-4.324.785.381,1.172.615H3.694q.457-.516.586-.516t.65.5q.264.264.264.381,0,.152-.375.293A14.231,14.231,0,0,1,3.2-5.965,4.562,4.562,0,0,1,4.473-4.02,8.6,8.6,0,0,0,5.938-5.473a.373.373,0,0,1-.158.035.273.273,0,0,1-.234-.088,1.773,1.773,0,0,1-.158-.4,2.02,2.02,0,0,0-.445-.721q-.375.34-.844.7a.045.045,0,0,1-.018.006q-.088,0-.088-.111A.065.065,0,0,1,4-6.082,9.262,9.262,0,0,0,5.633-8.988a6.708,6.708,0,0,0,.293-1.09,10.3,10.3,0,0,1,1.119.334q.2.082.2.17,0,.182-.387.217-.316.6-.334.633h.891q.346-.357.451-.357a1.964,1.964,0,0,1,.539.357q.217.17.217.275T8.411-8.2a7.008,7.008,0,0,1-3.8,4.289.19.19,0,0,1-.076.029H4.508A4.1,4.1,0,0,1,4.59-3a1.545,1.545,0,0,1-.434,1.143,1.189,1.189,0,0,1-.85.334q-.223,0-.24-.264a.887.887,0,0,0-.152-.463A1.1,1.1,0,0,0,2.5-2.52Zm0-.205q.24.023.586.023a.512.512,0,0,0,.287-.07q.205-.176.205-.973A3.891,3.891,0,0,0,3.4-5.016a3,3,0,0,0-.5-.891,12.189,12.189,0,0,0,.85-3.082H2.5ZM6.366-8.449l-.357.563q.973.205.973.732v.047A5.705,5.705,0,0,0,7.45-8.449ZM5.047-6.744q1.143.2,1.143.838a.59.59,0,0,1-.012.135,9.134,9.134,0,0,0,.633-1.008.381.381,0,0,1-.24.082.268.268,0,0,1-.223-.088A1.227,1.227,0,0,1,6.2-7.131a2.109,2.109,0,0,0-.3-.6A8.532,8.532,0,0,1,5.047-6.744ZM8.786-3.059v1.811L8.809.059a.832.832,0,0,1-.217.615,1.31,1.31,0,0,1-.961.311.309.309,0,0,1-.24-.07A1.228,1.228,0,0,1,7.274.6a.643.643,0,0,0-.322-.4A4.063,4.063,0,0,0,6.172-.07q-.047-.012-.047-.082t.047-.076q.908.07,1.4.07.158,0,.158-.129V-3.059H6.2a9.734,9.734,0,0,0-1.055.07l-.135-.439A8.221,8.221,0,0,0,6.2-3.334h3.973q.533-.65.68-.65a2.471,2.471,0,0,1,.732.457q.311.24.311.352t-.152.117Zm1.342-3.562a5.849,5.849,0,0,0,2.35,1.471.056.056,0,0,1,.035.053.083.083,0,0,1-.059.082.927.927,0,0,0-.375.275,1.837,1.837,0,0,0-.187.492q-.064.229-.17.229a1.122,1.122,0,0,1-.5-.264,6.752,6.752,0,0,1-1.787-2.1,8.149,8.149,0,0,1-.9-2.795.428.428,0,0,0-.123-.264A.232.232,0,0,1,8.329-9.6q0-.041.146-.082a1.064,1.064,0,0,1,.27-.035q.17,0,.17.07a.464.464,0,0,1-.047.123.273.273,0,0,0-.047.141,1.278,1.278,0,0,0,.047.328,6.589,6.589,0,0,0,.4,1.072,6.144,6.144,0,0,0,.475.885,2.358,2.358,0,0,0,.182.223,5.808,5.808,0,0,0,.768-1.7h-.633a3.019,3.019,0,0,0-.721.094L9.2-8.953a3.973,3.973,0,0,0,.855.1h.633q.439-.48.563-.48.141,0,.639.445.264.246.264.357,0,.158-.457.334A6.331,6.331,0,0,1,10.127-6.621Zm0,1.811q0,.117-.158.117H7.678a7.108,7.108,0,0,0-.885.07l-.135-.439a5.643,5.643,0,0,0,.984.094h.984q.463-.551.609-.551a1.583,1.583,0,0,1,.615.393Q10.127-4.887,10.127-4.811ZM11.856-.334a.7.7,0,0,1-.187.51.54.54,0,0,1-.4.17.482.482,0,0,1-.381-.152,1.439,1.439,0,0,1-.229-.457,5.215,5.215,0,0,0-.533-1.172,4.265,4.265,0,0,0-.7-.8.039.039,0,0,1-.018-.035.062.062,0,0,1,.07-.07h.012a4.777,4.777,0,0,1,1.811.943A1.467,1.467,0,0,1,11.856-.334ZM7.1-1.811a.17.17,0,0,1-.117.17,1.437,1.437,0,0,1-.375.082A7.271,7.271,0,0,1,4.045.545a.017.017,0,0,1-.012.006q-.088,0-.088-.105A.04.04,0,0,1,3.957.416,7.741,7.741,0,0,0,5.352-1.441a4.255,4.255,0,0,0,.393-.973Q7.1-2.01,7.1-1.811ZM20.3-8.244h2.947q.58-.674.709-.674a3,3,0,0,1,.855.615q.369.328.369.445a.187.187,0,0,1-.135.193,1.915,1.915,0,0,1-.463.059.91.91,0,0,0-.492.205,9.031,9.031,0,0,1-1.008.609.072.072,0,0,1-.041.012q-.07,0-.07-.047a.052.052,0,0,1,.006-.023,4.272,4.272,0,0,0,.357-1.119h-1.91v1.957a.322.322,0,0,0,.229.34,3.1,3.1,0,0,0,.791.064,3.775,3.775,0,0,0,1.213-.129.548.548,0,0,0,.264-.246q.088-.146.346-.721a.06.06,0,0,1,.059-.041q.053,0,.053.047v.662q0,.117.053.152a.926.926,0,0,0,.258.1.349.349,0,0,1,.287.369q0,.375-.65.551a6.706,6.706,0,0,1-1.8.182A4.619,4.619,0,0,1,20.7-4.9a.843.843,0,0,1-.357-.809V-7.969H19.173a3.893,3.893,0,0,1-1.266,2.783,5.885,5.885,0,0,1-2.93,1.008q-.076.018-.076-.105a.05.05,0,0,1,.029-.053A4.965,4.965,0,0,0,17.3-5.789a4.187,4.187,0,0,0,.738-2.18h-1.91q.012.123.012.229a1.843,1.843,0,0,1-.293,1.1.788.788,0,0,1-.662.352.585.585,0,0,1-.463-.193.617.617,0,0,1-.152-.428.608.608,0,0,1,.387-.574,1.589,1.589,0,0,0,.662-.539,2.05,2.05,0,0,0,.211-.791.067.067,0,0,1,.076-.053.046.046,0,0,1,.053.041,3.408,3.408,0,0,1,.135.58H19.15v-.973a5.991,5.991,0,0,0-.059-.744q1.605.146,1.605.387,0,.152-.393.334ZM19.044,0V-3.035H16.73a6.241,6.241,0,0,0-.832.07L15.769-3.4a4.778,4.778,0,0,0,.914.094h5.408q.738-.826.879-.826a3.01,3.01,0,0,1,.82.574q.357.293.357.41t-.158.117H20.257V0H22.97q.709-.926.861-.926a3.488,3.488,0,0,1,.867.639q.381.334.381.439,0,.123-.152.123h-9.1a10.317,10.317,0,0,0-1.09.07L14.6-.094A9.1,9.1,0,0,0,15.851,0ZM35.215-5.566a3.422,3.422,0,0,0,1.453,1.172,5.617,5.617,0,0,0,2.186.551q.047,0,.047.059a.073.073,0,0,1-.047.076,1.255,1.255,0,0,0-.709.855q-.059.229-.205.229a1.032,1.032,0,0,1-.357-.135,5.563,5.563,0,0,1-1.453-1.049.762.762,0,0,1-.229.24v.27L35.936-2q0,.4-.65.4-.445,0-.445-.363v-.117H32.426V-.732a.417.417,0,0,0,.111.34,1.314,1.314,0,0,0,.621.135q.4.029,1.541.029a10.942,10.942,0,0,0,1.1-.035,1.3,1.3,0,0,0,.533-.158,1.3,1.3,0,0,0,.48-.557,6.876,6.876,0,0,0,.381-1Q37.2-2,37.248-2q.088,0,.088.064-.006.135-.029.463-.041.662-.041.738,0,.146.193.217a.414.414,0,0,1,.287.4q0,.5-.686.7a11.836,11.836,0,0,1-2.672.193A7.421,7.421,0,0,1,31.857.51a.951.951,0,0,1-.475-.955l.023-1.523q0-.621-.035-.949a9.361,9.361,0,0,1,1.16.557H34.84V-3.855H32.807a1.825,1.825,0,0,0-.586.105L32.127-4.1a6.947,6.947,0,0,1-2.437,1.512.024.024,0,0,1-.018.006q-.082,0-.082-.088a.039.039,0,0,1,.018-.035A6.716,6.716,0,0,0,31.1-4.078a6.77,6.77,0,0,0,.932-1.488h-.885a3.628,3.628,0,0,0-.639.07l-.129-.439a3,3,0,0,0,.715.094h1.131V-7.775H31.43a3.289,3.289,0,0,0-.6.07L30.7-8.145a2.8,2.8,0,0,0,.686.094h.838v-.662a9.421,9.421,0,0,0-.094-1.271q1.453.146,1.453.375,0,.123-.352.287v1.271h1.494V-8.83q0-.346-.047-1.154a6.4,6.4,0,0,1,1.248.193q.176.064.176.17,0,.123-.346.287v1.283h.65q.545-.662.691-.662a2.331,2.331,0,0,1,.7.457q.3.246.3.363t-.152.117H35.754v1.934H36.7q.58-.709.732-.709a2.435,2.435,0,0,1,.732.5q.311.258.311.363t-.158.117Zm-.258,0H33.275a7.439,7.439,0,0,1-1.055,1.377,2.923,2.923,0,0,0,.586.059h1.939q.264-.393.4-.393a1.679,1.679,0,0,1,.568.275A5.2,5.2,0,0,1,34.957-5.566Zm-.234-2.209H33.229v1.934h1.494Zm-4.43-.732a.693.693,0,0,1-.193.521.483.483,0,0,1-.346.141.471.471,0,0,1-.4-.176,3.411,3.411,0,0,1-.287-.557,3.1,3.1,0,0,0-.855-1.084.047.047,0,0,1-.023-.035q0-.059.07-.059a3.17,3.17,0,0,1,1.564.445A.94.94,0,0,1,30.293-8.508Zm-.855,2.818a.661.661,0,0,1-.187.5.551.551,0,0,1-.4.152.434.434,0,0,1-.357-.182,2.774,2.774,0,0,1-.27-.527A2.9,2.9,0,0,0,27.4-6.809a.038.038,0,0,1-.023-.035q0-.059.07-.059Q29.438-6.732,29.438-5.689Zm1.1-.949q-.8,2.807-1.2,3.973a2.639,2.639,0,0,0-.17.756A2.614,2.614,0,0,0,29.391-1a2.694,2.694,0,0,1,.229.914.867.867,0,0,1-.246.65.723.723,0,0,1-.533.211q-.574,0-.574-.609a5.252,5.252,0,0,1,.059-.7,3.56,3.56,0,0,0,.035-.492,1.4,1.4,0,0,0-.164-.814,1.856,1.856,0,0,0-.709-.4q-.029-.012-.029-.07,0-.123.07-.111a3.665,3.665,0,0,0,.4.023.663.663,0,0,0,.58-.3,43.436,43.436,0,0,0,1.875-4.02q.012-.029.035-.029a.114.114,0,0,1,.059.023Q30.539-6.68,30.533-6.639Z" transform="translate(188 2801.293)" fill="#fff"/>
  </g>
</svg>
