<svg xmlns="http://www.w3.org/2000/svg" width="1039" height="57.203" viewBox="0 0 1039 57.203">
  <g id="グループ_7206" data-name="グループ 7206" transform="translate(-440 -2293)">
    <path id="パス_13524" data-name="パス 13524" d="M0,0H141V56H0Z" transform="translate(440 2293)" fill="#914831"/>
    <path id="パス_13525" data-name="パス 13525" d="M-8.558-7.891a12.973,12.973,0,0,1-.828,3.352A9.536,9.536,0,0,1-10.816-2.2a10.552,10.552,0,0,1-5.266,3.328q-.039.008-.086-.043a.155.155,0,0,1-.047-.105.053.053,0,0,1,.023-.047A11.041,11.041,0,0,0-11.042-4.5a13.137,13.137,0,0,0,.9-3.8H-14.4a13.756,13.756,0,0,0-1.453.094l-.18-.586a12.131,12.131,0,0,0,1.664.125h4.258q.125-1.414.125-2.961,0-.617-.062-1.484a15.106,15.106,0,0,1,1.914.328q.352.109.352.328T-8.339-12A32.407,32.407,0,0,1-8.48-8.672H-4.4q.945-1.234,1.148-1.234A4.651,4.651,0,0,1-2.1-9.039q.492.43.492.57,0,.164-.2.164H-8.323A10.082,10.082,0,0,0-5.339-3.023,10.537,10.537,0,0,0-1.323-.766a.078.078,0,0,1,.055.086.108.108,0,0,1-.07.117A1.855,1.855,0,0,0-2.456.719q-.094.32-.242.32A2.143,2.143,0,0,1-3.691.563,11.275,11.275,0,0,1-6.284-1.891,12.55,12.55,0,0,1-8.558-7.891ZM3.558-3.531v1.273L3.589.563q0,.656-.883.656-.656,0-.656-.578.1-3.328.1-8.867,0-3.7-.094-4.906.687.273,1.664.734H5.347q.563-.672.742-.672.164,0,.875.672.367.344.367.508,0,.266-.492.422A17.845,17.845,0,0,1,4.456-7.953a6.87,6.87,0,0,1,1.758,1.93A4.014,4.014,0,0,1,6.6-4.172a2.186,2.186,0,0,1-.562,1.648,1.7,1.7,0,0,1-1.258.445q-.219,0-.281-.086A.892.892,0,0,1,4.4-2.492,1.5,1.5,0,0,0,4.159-3.2,1.224,1.224,0,0,0,3.558-3.531Zm0-.227q1.148.047,1.227.047A.457.457,0,0,0,5.12-3.82a1.56,1.56,0,0,0,.18-.93,4.713,4.713,0,0,0-.281-1.742,5.688,5.688,0,0,0-.883-1.4,17.036,17.036,0,0,0,1.3-4.141H3.558Zm8.414,1.867A11.382,11.382,0,0,1,6.745,1.1q-.117.023-.117-.156A.061.061,0,0,1,6.652.891a12.789,12.789,0,0,0,4.586-3.852A15.188,15.188,0,0,1,9.589-7.844H9.12a19.145,19.145,0,0,1-.656,4.258A8.129,8.129,0,0,1,7.042-.82a8.387,8.387,0,0,1-2.07,1.914.087.087,0,0,1-.039.008Q4.8,1.1,4.8.977A.069.069,0,0,1,4.808.945,9.449,9.449,0,0,0,7.269-3.891a36.444,36.444,0,0,0,.4-6.3q0-1.1-.109-2.734a13.209,13.209,0,0,1,1.8.93h4.2q.875-1.023,1.055-1.023a3.687,3.687,0,0,1,1.086.7q.461.367.461.531t-.234.156H9.2v.414q0,1.813-.062,3.008H13.12q.727-.828.9-.828a3.18,3.18,0,0,1,.945.672q.367.3.367.508,0,.188-.5.461A12.128,12.128,0,0,1,12.8-2.883,8.331,8.331,0,0,0,16.6-.734q.047.008.047.07a.128.128,0,0,1-.078.133A1.376,1.376,0,0,0,16-.117a4.328,4.328,0,0,0-.359.852q-.094.289-.242.289a2.235,2.235,0,0,1-.875-.484A11.606,11.606,0,0,1,11.972-1.891ZM9.909-7.844A11.731,11.731,0,0,0,11.87-3.953a11.84,11.84,0,0,0,1.352-3.891Z" transform="translate(511 2327)" fill="#fff"/>
    <path id="パス_13526" data-name="パス 13526" d="M0,0H141V56H0Z" transform="translate(739 2293)" fill="#fff"/>
    <path id="パス_13527" data-name="パス 13527" d="M-26.361-7.984a13.987,13.987,0,0,1-.453,3.078,7.2,7.2,0,0,1-2.2,3.469.053.053,0,0,1-.039.016q-.187,0-.187-.117a.032.032,0,0,1,.008-.023,9.893,9.893,0,0,0,1.164-3.375A22.265,22.265,0,0,0-27.814-8.8a24.385,24.385,0,0,0-.133-2.9q.828.32,1.727.766a12.981,12.981,0,0,0,3.711-1.68,7.077,7.077,0,0,0,.945-.75,14.987,14.987,0,0,1,1.375.969q.3.273.3.453,0,.227-.453.227a3.176,3.176,0,0,1-.414-.031,23.1,23.1,0,0,1-5.531,1.281v.336q-.023.953-.047,1.773h4.57q.906-1.055,1.1-1.055a4.269,4.269,0,0,1,1.1.734q.484.391.484.531,0,.156-.2.156h-2.914v2.094l.047,4.211q0,.609-.914.609-.664,0-.664-.484l.047-4.109v-2.32Zm7.578,7.266a1.1,1.1,0,0,0-.625.9,1.12,1.12,0,0,1-.109.477.41.41,0,0,1-.273.1A38.3,38.3,0,0,1-23.728.9,20.83,20.83,0,0,1-27.1.688,5.311,5.311,0,0,1-28.947.047,4.093,4.093,0,0,1-30.541-2.3,12.889,12.889,0,0,1-32.384.109a1.836,1.836,0,0,1,.023.266q0,.469-.289.469-.336,0-1.187-1.945a10.708,10.708,0,0,0,1.117-.406,6.843,6.843,0,0,0,1.141-.641V-6.32h-1.109a3.407,3.407,0,0,0-.875.125l-.18-.641a3.963,3.963,0,0,0,1.055.148h1.008q.648-.734.82-.734a2.667,2.667,0,0,1,.875.563q.367.32.367.477,0,.125-.477.492v3.68a2.941,2.941,0,0,0,1.453,1.32,11.838,11.838,0,0,0,3.742.4A55.532,55.532,0,0,0-18.8-.9q.062-.016.063.078A.1.1,0,0,1-18.783-.719ZM-30.158-10.8a.971.971,0,0,1-.266.719.82.82,0,0,1-.617.242.557.557,0,0,1-.469-.227,2.681,2.681,0,0,1-.312-.766A4.2,4.2,0,0,0-32.845-12.7a.084.084,0,0,1-.016-.047q0-.1.125-.1h.023Q-30.158-12.219-30.158-10.8ZM-8.144-9.25h1.461q.016-.547.016-1.742,0-1.1-.086-2.2a14,14,0,0,1,1.742.25q.281.086.281.266,0,.234-.5.414-.023,1.7-.047,3.008h.9q.75-.992.961-.992a3.647,3.647,0,0,1,.992.7q.414.344.414.492,0,.164-.211.164h-3.07A28.892,28.892,0,0,1-5.534-5.82H-3.9q.789-1.031,1.008-1.031.2,0,1.008.719.43.367.43.523t-.2.156H-5.277a7.479,7.479,0,0,0,2.109,3.57A7.5,7.5,0,0,0-1.042-.594a.076.076,0,0,1,.055.07.113.113,0,0,1-.055.094A1.677,1.677,0,0,0-1.87.836q-.047.43-.211.43-.281,0-1.062-.828A8.778,8.778,0,0,1-4.206-.906,12.5,12.5,0,0,1-5.628-5.242q-.2.844-.242.969A7.531,7.531,0,0,1-8.3-.4a9.844,9.844,0,0,1-3.328,1.68q-.133.031-.133-.133a.053.053,0,0,1,.023-.047A12.479,12.479,0,0,0-9.347-.648a7.788,7.788,0,0,0,1.32-1.8A10.019,10.019,0,0,0-7-5.453H-8.988a4.786,4.786,0,0,0-.836.094l-.156-.547h-2.258v4.773A23.1,23.1,0,0,0-9.863-1.7q.086-.016.086.109a.116.116,0,0,1-.031.086A25.037,25.037,0,0,1-14.878.672q-.094.563-.352.563-.18,0-.312-.3-.125-.281-.555-1.57.656-.016,1.75-.156.508-.062.766-.109v-5h-1.266a4.8,4.8,0,0,0-.859.1l-.18-.594a4.346,4.346,0,0,0,.992.125h1.313V-8.352h-.4a4.338,4.338,0,0,0-.789.094l-.141-.508a8.105,8.105,0,0,1-1.281.82.06.06,0,0,1-.023.008.1.1,0,0,1-.117-.117.045.045,0,0,1,.016-.031,13.137,13.137,0,0,0,2.336-3.359,9.346,9.346,0,0,0,.672-1.883q1.836.492,1.836.813,0,.273-.609.32l-.047.094q2.352.711,2.352,1.859a.694.694,0,0,1-.2.5.564.564,0,0,1-.414.172.545.545,0,0,1-.422-.18,2.154,2.154,0,0,1-.312-.555,4.218,4.218,0,0,0-1.117-1.6A12.417,12.417,0,0,1-14.847-8.82a3.688,3.688,0,0,0,.766.1h1.953q.547-.711.758-.711a2.555,2.555,0,0,1,.813.5q.336.289.336.414,0,.164-.211.164h-1.8v2.078h.547q.594-.766.8-.766a2.424,2.424,0,0,1,.8.539q.336.289.336.438a.126.126,0,0,1-.094.141,4.077,4.077,0,0,0,.836.1h2.078A23.957,23.957,0,0,0-6.7-8.883H-8.316A8.9,8.9,0,0,1-9.9-6.852a.1.1,0,0,1-.055.016q-.125,0-.125-.078V-6.93A12.252,12.252,0,0,0-9.019-10.2a11.629,11.629,0,0,0,.2-1.773,12.161,12.161,0,0,1,1.508.445q.273.125.273.273,0,.164-.484.3A10.75,10.75,0,0,1-8.144-9.25Zm-5.914,6.742a.888.888,0,0,1-.211.617.57.57,0,0,1-.453.211q-.484,0-.531-.734a12.3,12.3,0,0,0-.141-1.414,5.506,5.506,0,0,0-.273-.875.06.06,0,0,1-.008-.023q0-.086.1-.086a.084.084,0,0,1,.047.016,6.041,6.041,0,0,1,1.18,1.3A1.914,1.914,0,0,1-14.058-2.508Zm4.445-1.75q0,.227-.484.289a10.74,10.74,0,0,1-1.687,2.234.1.1,0,0,1-.07.023q-.109,0-.109-.086a.06.06,0,0,1,.008-.023A13.981,13.981,0,0,0-11.394-3.8q.133-.727.18-1.281Q-9.613-4.523-9.613-4.258ZM10.714-9.922h1.68a14.92,14.92,0,0,0,.547-1.8,11.284,11.284,0,0,0,.2-1.383,16.067,16.067,0,0,1,1.625.531q.273.141.273.32a.231.231,0,0,1-.141.219,2.176,2.176,0,0,1-.469.133,12.651,12.651,0,0,1-1.391,1.984h1.008q.664-.9.852-.9a2.946,2.946,0,0,1,.945.625q.383.32.383.484t-.242.156H13.6v2.742h.352q.523-.867.75-.867.164,0,.852.609.352.328.352.461,0,.164-.211.164H13.6v2.813h.352q.547-.844.766-.844.164,0,.836.586.352.328.352.469,0,.156-.211.156H13.6V-.094h.7q.594-.93.813-.93.164,0,.883.656.367.344.367.477,0,.164-.2.164h-5.25V.883q0,.609-.781.609-.625,0-.625-.477l.078-6.852V-8.453q-.461.484-.82.8a.064.064,0,0,1-.047.016q-.125,0-.125-.094A.069.069,0,0,1,8.6-7.758a12.689,12.689,0,0,0,1.383-3.2,10.612,10.612,0,0,0,.438-2.336,13.022,13.022,0,0,1,1.656.484q.367.164.367.344a.247.247,0,0,1-.141.227,1.794,1.794,0,0,1-.445.125A10.192,10.192,0,0,1,10.714-9.922Zm.2,3.109h1.375V-9.555H10.909Zm0,.367v2.813h1.375V-6.445Zm0,3.18V-.094h1.375V-3.266Zm-5-2.945a15.9,15.9,0,0,1-.125,1.586h.828q.633-.781.836-.781a2.754,2.754,0,0,1,.867.539q.367.32.367.453,0,.156-.211.156H5.737A12.854,12.854,0,0,1,5.48-2.883H6.9q.7-.867.9-.867a2.931,2.931,0,0,1,.883.609q.367.32.367.461,0,.164-.211.164H5.37L5.175-2q2.9.578,2.9,1.9a.834.834,0,0,1-.227.617.67.67,0,0,1-.492.2.634.634,0,0,1-.492-.18,2.657,2.657,0,0,1-.375-.656,4.087,4.087,0,0,0-1.437-1.6A5.16,5.16,0,0,1,3.558.125,9.408,9.408,0,0,1,1.472,1.3a.069.069,0,0,1-.031.008q-.117,0-.117-.109a.053.053,0,0,1,.016-.039,9.069,9.069,0,0,0,1.875-1.8A5.929,5.929,0,0,0,4.12-2.516H2.683a8.289,8.289,0,0,0-1.1.094L1.4-3.008a6.228,6.228,0,0,0,1.187.125H4.214a11.421,11.421,0,0,0,.227-1.375H3.05a8.356,8.356,0,0,0-1.117.094l-.18-.586a6.228,6.228,0,0,0,1.187.125H4.472a13.43,13.43,0,0,0,.094-1.586H3.37v.164q0,.539-.812.539-.547,0-.547-.477l.047-1.891q0-1.047-.062-1.883.7.313,1.437.688h3.68q.516-.594.688-.594a1.791,1.791,0,0,1,.719.445q.289.242.289.406t-.336.383v.367L8.519-6.2q0,.531-.8.531-.547,0-.547-.445v-.1Zm.016-.367h1.25V-8.7H5.964Q5.964-7.281,5.925-6.578Zm-1.359,0q.023-.555.023-1.062T4.566-8.7H3.37v2.125Zm2.727-4.3.016.828q0,.531-.8.531-.594,0-.594-.445,0-.07.016-.344.008-.328.016-.57h-1.3q.016.414.016.828,0,.531-.8.531-.578,0-.578-.445,0-.07.016-.344.008-.344.016-.57H2.667a8.289,8.289,0,0,0-1.1.094l-.172-.586a6.194,6.194,0,0,0,1.18.125h.75v-.492q0-.836-.031-1.312a13.693,13.693,0,0,1,1.5.219q.258.07.258.227,0,.2-.4.352v1.008h1.3v-.477q0-.836-.031-1.328a12.408,12.408,0,0,1,1.516.211q.258.078.258.234,0,.2-.414.352v1.008H7.55q.6-.828.813-.828a2.586,2.586,0,0,1,.883.594q.367.289.367.445t-.2.156Zm21.881,4.1h1.438q.672-.672.836-.672a2.929,2.929,0,0,1,.945.656q.383.344.383.492,0,.242-.656.453A13.63,13.63,0,0,1,29.752-2.3a11.86,11.86,0,0,0,4.336,1.7.084.084,0,0,1,.063.094.079.079,0,0,1-.062.086,1.491,1.491,0,0,0-1.2,1.148q-.1.3-.273.3a2.849,2.849,0,0,1-.992-.4,13.743,13.743,0,0,1-2.594-1.773,3.166,3.166,0,0,0-.258-.227,13.22,13.22,0,0,1-5.219,2.469q-.047.008-.086-.062a.224.224,0,0,1-.039-.117.063.063,0,0,1,.031-.062A14.732,14.732,0,0,0,28.009-2.2a11.2,11.2,0,0,1-1.891-4.211h-.656a17.512,17.512,0,0,1-.477,3.188A7.615,7.615,0,0,1,23.83-.773a11.27,11.27,0,0,1-1.711,1.82.087.087,0,0,1-.039.008q-.133,0-.133-.109a.069.069,0,0,1,.008-.031,10.528,10.528,0,0,0,1.781-4.336,32.708,32.708,0,0,0,.352-5.492q0-1.43-.078-2.531a17.578,17.578,0,0,1,1.742.914h1.984v-1.391q0-.586-.078-1.359,2.078.2,2.078.492,0,.2-.562.438v1.82h2.18q.7-.766.859-.766a3.4,3.4,0,0,1,1.047.766q.43.414.43.563,0,.3-.641.367a.8.8,0,0,0-.414.188A11.381,11.381,0,0,1,30.986-8.18a.1.1,0,0,1-.055.016q-.109,0-.109-.086a.032.032,0,0,1,.008-.023,13.567,13.567,0,0,0,.68-1.891H29.173Zm-1.437,0v-3.383h-2.2V-9.6q0,1.711-.062,2.82Zm1.023,3.727A13.117,13.117,0,0,0,30.7-6.414H26.439A8.523,8.523,0,0,0,28.759-3.055ZM21.681-7.68a.889.889,0,0,1-.258.656.685.685,0,0,1-.508.227.641.641,0,0,1-.609-.414A7.165,7.165,0,0,0,19.7-8.4a5.045,5.045,0,0,0-.7-.711.05.05,0,0,1-.031-.047q0-.078.094-.078a4.221,4.221,0,0,1,2.031.563A1.157,1.157,0,0,1,21.681-7.68Zm1.344-3.68a.828.828,0,0,1-.258.633.764.764,0,0,1-.539.211.552.552,0,0,1-.453-.172,3.514,3.514,0,0,1-.383-.742,3.347,3.347,0,0,0-.469-.812,4.715,4.715,0,0,0-.664-.625.05.05,0,0,1-.031-.047q0-.078.094-.078a4.458,4.458,0,0,1,2.086.594A1.221,1.221,0,0,1,23.025-11.359Zm.32,2.7-1.93,5.25a3.323,3.323,0,0,0-.2,1.055,3.07,3.07,0,0,0,.3,1.156A3.315,3.315,0,0,1,21.861.016a1.2,1.2,0,0,1-.328.875.945.945,0,0,1-.7.281q-.781,0-.781-.836a7.107,7.107,0,0,1,.063-.8,6.714,6.714,0,0,0,.063-.781,1.694,1.694,0,0,0-.25-1.094,2.61,2.61,0,0,0-1-.523q-.047-.023-.047-.109,0-.148.078-.133a5.75,5.75,0,0,0,.656.078.84.84,0,0,0,.7-.367q.461-.6,2.828-5.352a.061.061,0,0,1,.055-.023q.141,0,.141.094Z" transform="translate(810 2327)" fill="#111"/>
    <path id="パス_13528" data-name="パス 13528" d="M0,0H141V56H0Z" transform="translate(1039 2293)" fill="#fff"/>
    <path id="パス_13529" data-name="パス 13529" d="M-7.339-10.625A8.01,8.01,0,0,0-4.6-8.484a13.765,13.765,0,0,0,3.477,1.07.078.078,0,0,1,.055.086q0,.094-.07.109a1.359,1.359,0,0,0-.945.977,1.3,1.3,0,0,1-.117.332.178.178,0,0,1-.156.066,2.91,2.91,0,0,1-.781-.3,14.985,14.985,0,0,1-1.75-1.07A9.882,9.882,0,0,1-7.73-10.625H-9.363a11.242,11.242,0,0,1-3.008,3.2A15.437,15.437,0,0,1-16.159-5.5a.032.032,0,0,1-.023.008q-.109,0-.109-.148a.053.053,0,0,1,.023-.047,14.454,14.454,0,0,0,5.2-4.937h-3.359a11.652,11.652,0,0,0-1.312.094l-.172-.586a8.946,8.946,0,0,0,1.438.125h3.617a10.38,10.38,0,0,0,.977-2.445q2.055.453,2.055.75t-.664.445q-.227.516-.641,1.25h4.867q.891-1.055,1.086-1.055a4.327,4.327,0,0,1,1.133.734q.492.391.492.531,0,.156-.2.156Zm-.727,6.109v.9L-8-.211a1.279,1.279,0,0,1-.672,1.219,2.2,2.2,0,0,1-1.234.32.347.347,0,0,1-.3-.133,1.677,1.677,0,0,1-.141-.461Q-10.488.125-12-.3q-.063-.016-.062-.117T-12-.531q1.4.1,2.156.1.211,0,.211-.227V-4.516h-4.047a12.888,12.888,0,0,0-1.391.094l-.18-.586a10.555,10.555,0,0,0,1.555.125h8.859q.875-1.039,1.078-1.039A3.646,3.646,0,0,1-2.722-5.2q.445.383.445.531t-.211.156Zm2.523-2.508q0,.156-.2.156h-5.211a9.514,9.514,0,0,0-1.187.094l-.172-.586a6.987,6.987,0,0,0,1.258.125H-7.87q.8-.9.984-.9a3.068,3.068,0,0,1,.945.625Q-5.542-7.18-5.542-7.023ZM-2.628-.43A.982.982,0,0,1-2.894.3a.786.786,0,0,1-.578.234.671.671,0,0,1-.57-.258A9.811,9.811,0,0,1-4.7-.961,7.256,7.256,0,0,0-6.745-3.344a.084.084,0,0,1-.023-.062q0-.125.1-.1A8,8,0,0,1-3.573-2.094,2.207,2.207,0,0,1-2.628-.43Zm-8.227-2.3q0,.266-.742.352A10.612,10.612,0,0,1-15.9.727a.069.069,0,0,1-.031.008q-.148,0-.148-.133A.045.045,0,0,1-16.066.57a10.626,10.626,0,0,0,2.719-3.1A5.527,5.527,0,0,0-12.784-3.8a15.2,15.2,0,0,1,1.609.727Q-10.855-2.891-10.855-2.734ZM10.9-2.32a6.159,6.159,0,0,0,.563.352A13.763,13.763,0,0,0,16.152-.492q.062.008.063.1t-.062.109a1.459,1.459,0,0,0-.766.352,1.724,1.724,0,0,0-.352.672q-.125.367-.367.367A2.766,2.766,0,0,1,13.847.9,11.177,11.177,0,0,1,11.339-.4,7.719,7.719,0,0,1,9.183-2.508,13.737,13.737,0,0,1,7.808-5.391H5.55V-.93a28.931,28.931,0,0,0,3.586-.906h.016q.1,0,.1.156a.061.061,0,0,1-.023.055A27.5,27.5,0,0,1,3.331.992q-.07.609-.383.609-.164,0-.3-.3-.117-.266-.617-1.672.547-.047,1.18-.141.148-.031.453-.07.266-.039.4-.062V-5.883q0-3.516-.094-5.859a13.892,13.892,0,0,1,1.7.8H7.839v-1.391q0-.344-.062-.977,2.117.2,2.117.531,0,.219-.547.477v1.359h2.422q.641-.719.813-.719a2.6,2.6,0,0,1,.883.578q.367.32.367.477,0,.172-.484.461v.867l.086,3.7a.407.407,0,0,1-.117.313q1.633.9,1.633,1.172,0,.227-.5.227H14.23A15.737,15.737,0,0,1,10.9-2.32Zm-.367-.258a14.829,14.829,0,0,0,1.8-1.547,7.218,7.218,0,0,0,.852-1.023,1.421,1.421,0,0,1-.7.141q-.547,0-.594-.383H8.206A8.409,8.409,0,0,0,10.534-2.578Zm1.359-3.18V-8.047H5.55v2.289Zm0-2.656v-2.164H5.55v2.164Z" transform="translate(1110 2327)" fill="#111"/>
    <path id="パス_13530" data-name="パス 13530" d="M0,0H141V56H0Z" transform="translate(1338 2293)" fill="#c89932"/>
    <path id="パス_13531" data-name="パス 13531" d="M-17.358-7.891a12.973,12.973,0,0,1-.828,3.352A9.536,9.536,0,0,1-19.616-2.2a10.552,10.552,0,0,1-5.266,3.328q-.039.008-.086-.043a.155.155,0,0,1-.047-.105.053.053,0,0,1,.023-.047A11.041,11.041,0,0,0-19.842-4.5a13.137,13.137,0,0,0,.9-3.8H-23.2a13.756,13.756,0,0,0-1.453.094l-.18-.586a12.131,12.131,0,0,0,1.664.125h4.258q.125-1.414.125-2.961,0-.617-.062-1.484a15.105,15.105,0,0,1,1.914.328q.352.109.352.328t-.555.461a32.407,32.407,0,0,1-.141,3.328H-13.2q.945-1.234,1.148-1.234a4.651,4.651,0,0,1,1.156.867q.492.43.492.57,0,.164-.2.164h-6.516a10.082,10.082,0,0,0,2.984,5.281A10.537,10.537,0,0,0-10.123-.766a.078.078,0,0,1,.055.086.108.108,0,0,1-.07.117A1.855,1.855,0,0,0-11.256.719q-.094.32-.242.32a2.143,2.143,0,0,1-.992-.477,11.275,11.275,0,0,1-2.594-2.453A12.55,12.55,0,0,1-17.358-7.891ZM4.977-1.328A44.642,44.642,0,0,1-1.828.227,1.793,1.793,0,0,1-1.992.75a.22.22,0,0,1-.2.1q-.187,0-.312-.359-.109-.32-.516-1.9.617.063.992.063h.352a50.01,50.01,0,0,0,2.3-8.781,26.9,26.9,0,0,0,.289-2.789q1.727.375,2.133.523.336.125.336.313,0,.289-.633.477A48.784,48.784,0,0,1,.992-5.68,34.545,34.545,0,0,1-.992-1.359a55.791,55.791,0,0,0,5.852-.4A18.7,18.7,0,0,0,3.2-5.945a.023.023,0,0,1-.008-.016q0-.117.148-.117a.064.064,0,0,1,.047.016A19.257,19.257,0,0,1,6.242-2.734,4.211,4.211,0,0,1,6.984-.562a1.487,1.487,0,0,1-.3.977.814.814,0,0,1-.648.3A.64.64,0,0,1,5.461.383,3.352,3.352,0,0,1,5.117-.656ZM-5.086-7.1a12.955,12.955,0,0,1-2.3,1.953.053.053,0,0,1-.039.016q-.133,0-.133-.109a.069.069,0,0,1,.008-.031A16.263,16.263,0,0,0-4.32-10.484a12.805,12.805,0,0,0,.781-2.828q2.133.6,2.133.9,0,.25-.609.383A18.821,18.821,0,0,1-4.031-8.367a3.207,3.207,0,0,1,.68.156.2.2,0,0,1,.117.18q0,.18-.414.367v8.3q0,.672-.828.672-.7,0-.7-.578.094-1.75.094-4.242Zm23.428-4h1.742v-1.055a7.607,7.607,0,0,0-.094-1.172q2.016.172,2.016.445,0,.172-.445.438V-11.1h1.68q.6-.734.781-.734a3.026,3.026,0,0,1,.961.656q.4.359.4.508,0,.281-.531.3a1.02,1.02,0,0,0-.4.211q-.5.375-1.133.781.07.039.4.273.352.258.352.43,0,.133-.383.4v.43l.031,2.2q0,.688-.836.688a.657.657,0,0,1-.516-.164.751.751,0,0,1-.117-.477v-.062H19.256v2.109h3.328q.672-.75.844-.75a2.533,2.533,0,0,1,.883.539q.367.3.367.469,0,.117-.414.461v.563l.047,2.93q0,.7-.883.7a.694.694,0,0,1-.539-.164A.714.714,0,0,1,22.756.7V.227h-3.5V.758q0,.719-.852.719-.672,0-.672-.578l.086-7.375q0-1.3-.055-2.594a.944.944,0,0,1-.461.125.656.656,0,0,1-.75-.734.768.768,0,0,1,.516-.758,1.513,1.513,0,0,0,.891-1.422.079.079,0,0,1,.086-.062.091.091,0,0,1,.094.063A4.941,4.941,0,0,1,18.342-11.1Zm.047.367a2.078,2.078,0,0,1,.016.258,2.042,2.042,0,0,1-.172.859,9.374,9.374,0,0,1,1.133.656h2.773q.562-.625.727-.625a.54.54,0,0,1,.242.063q.148-.5.3-1.211Zm.867,7.547V-.141h3.5V-3.187Zm2.992-2.844V-8.594H19.256v2.563ZM12.694-.812A18.863,18.863,0,0,0,15-1.391a5.715,5.715,0,0,0-1.07-1.547.1.1,0,0,1-.016-.055.083.083,0,0,1,.094-.094h.016a4.841,4.841,0,0,1,2.117,1.125A1.884,1.884,0,0,1,16.8-.6a1.173,1.173,0,0,1-.258.8.727.727,0,0,1-.57.258A.453.453,0,0,1,15.608.3a1.594,1.594,0,0,1-.2-.477,6.792,6.792,0,0,0-.258-.8A23.582,23.582,0,0,1,11.506.82q-.063.539-.312.539-.156,0-.32-.391-.156-.359-.516-1.477.031,0,.977-.1V-4.844q0-2.367-.062-4.289a12.164,12.164,0,0,1-1.078.641h-.016q-.109,0-.109-.141a.053.053,0,0,1,.016-.039,15.892,15.892,0,0,0,2.18-2.8,7.8,7.8,0,0,0,.875-1.969q1.383.578,1.672.719.266.141.266.242,0,.219-.562.234a5.346,5.346,0,0,1,1.688.781,1.043,1.043,0,0,1,.414.828.8.8,0,0,1-.219.563.6.6,0,0,1-.437.2.428.428,0,0,1-.359-.141,4.727,4.727,0,0,1-.359-.711,4.334,4.334,0,0,0-.93-1.328,11.9,11.9,0,0,1-2.719,2.688q.461.2,1.164.594h.563v-.977a9.15,9.15,0,0,0-.062-.945q1.8.156,1.8.414,0,.156-.414.352v1.156H15q.531-.578.7-.578a2.1,2.1,0,0,1,.8.484q.32.25.32.414,0,.148-.383.414v.625l.031,3.453q0,.609-.781.609a.676.676,0,0,1-.5-.133.593.593,0,0,1-.109-.406v-.227H12.694Zm2.383-5.875V-8.4H12.694v1.711Zm-2.383.367v1.844h2.383V-6.32Z" transform="translate(1409 2327)" fill="#fff"/>
    <path id="パス_12685" data-name="パス 12685" d="M-3738,12067.5h-138v-1h138Z" transform="translate(5064.999 -9746)" fill="#fff"/>
    <path id="パス_13532" data-name="パス 13532" d="M4,0,8,7H0Z" transform="translate(1328.999 2317) rotate(90)" fill="#fff"/>
    <path id="パス_13533" data-name="パス 13533" d="M-21.282-5.811a20.388,20.388,0,0,0,1.641-2.646A8.629,8.629,0,0,0-19-9.9q1.565.718,1.565.937,0,.2-.458.2h-.082Q-19.135-7.4-19.532-7q-.383.383-1.312,1.189.793,0,2.393-.055a3.6,3.6,0,0,0-.608-1.189.061.061,0,0,1-.007-.027q0-.075.1-.075a.076.076,0,0,1,.034.007q1.764.957,1.764,1.982a.954.954,0,0,1-.2.629.558.558,0,0,1-.431.2.431.431,0,0,1-.41-.205,2.129,2.129,0,0,1-.178-.827L-18.4-5.53q-.308.109-.923.28v1.935L-19.279.67q0,.533-.738.533-.561,0-.561-.431Q-20.5-.506-20.5-2.27v-2.7Q-21-4.86-21.979-4.7q-.137.39-.308.39-.137,0-.253-.342t-.267-1.183q.362.027.745.027Zm5.715-2.659A8.526,8.526,0,0,1-17.419-6.3a.074.074,0,0,1-.041.014q-.123,0-.123-.089a.052.052,0,0,1,.007-.021A13.384,13.384,0,0,0-16.2-9.871a9.772,9.772,0,0,0,.335-1.8q1.914.492,1.914.745t-.554.335a14.135,14.135,0,0,1-.868,1.8h3.315q.615-.725.772-.725t.793.588q.335.294.335.444,0,.109-.431.417-.082,2.755-.239,4.307a21.867,21.867,0,0,1-.485,3.015,2.143,2.143,0,0,1-.9,1.36,2.062,2.062,0,0,1-1.176.321.407.407,0,0,1-.294-.075.8.8,0,0,1-.109-.314,1.027,1.027,0,0,0-.458-.684,4.818,4.818,0,0,0-1.107-.424Q-15.4-.574-15.4-.677t.055-.109q1.224.109,1.62.109a2.349,2.349,0,0,0,.9-.109.523.523,0,0,0,.232-.342A32.954,32.954,0,0,0-11.91-8.47Zm-5.722-.772a14.18,14.18,0,0,0,.615-1.661,6.6,6.6,0,0,0,.205-.854q1.661.588,1.661.868,0,.232-.554.232a18.23,18.23,0,0,1-1.593,1.613,1.271,1.271,0,0,1,.663,1.06.891.891,0,0,1-.205.622.589.589,0,0,1-.451.191.533.533,0,0,1-.451-.164,2.829,2.829,0,0,1-.273-.718,3.37,3.37,0,0,0-.923-1.511.046.046,0,0,1-.021-.041q0-.1.1-.082A8.19,8.19,0,0,1-21.288-9.242Zm7.608,4.9a.991.991,0,0,1-.239.677.68.68,0,0,1-.526.246q-.438,0-.561-.615a9.868,9.868,0,0,0-.52-1.5,3.246,3.246,0,0,0-.6-.889.084.084,0,0,1-.014-.048.073.073,0,0,1,.082-.082h.014a3.98,3.98,0,0,1,1.764.991A1.749,1.749,0,0,1-13.68-4.341Zm-3.514,2.563a1,1,0,0,1-.212.663.6.6,0,0,1-.472.219.422.422,0,0,1-.41-.26,2.907,2.907,0,0,1-.191-.889A4.309,4.309,0,0,0-19.1-3.937a.039.039,0,0,1-.014-.027q0-.068.082-.068a.074.074,0,0,1,.041.014Q-17.194-2.905-17.194-1.777Zm-3.391-1.613q0,.185-.4.267A7.9,7.9,0,0,1-22.9.185.056.056,0,0,1-22.943.2a.079.079,0,0,1-.089-.089.052.052,0,0,1,.007-.021,11.142,11.142,0,0,0,.786-2.639,6.617,6.617,0,0,0,.116-1.244q0-.1.007-.226,1.073.314,1.333.431Q-20.584-3.5-20.584-3.391Zm18.107.342v.615q0,.8.014.95a1.488,1.488,0,0,0,.109.451.527.527,0,0,0,.4.287,5.418,5.418,0,0,0,.615.075q.1,0,.1.178t-.109.185Q-2.5-.362-3.168-.362q-.711,0-1.894.055-.123,0-.123-.185,0-.164.123-.178a5.464,5.464,0,0,0,.643-.089A.449.449,0,0,0-4.1-.978,3.721,3.721,0,0,0-3.92-2.406v-.629H-6.135l-1.326.014q-.185,0-.185-.362a1.186,1.186,0,0,1,.157-.574q2.181-3.828,3.746-6.289l1.251-.335q.109,0,.109.164-.007.376-.034,1.825-.014,1.032-.034,1.75l-.027,3.274q.595,0,1.408-.068.089,0,.089.062v.034l-.13.424a.118.118,0,0,1-.123.1Q-1.637-3.049-2.477-3.049ZM-3.92-3.555l.027-3.035q.021-1.524.082-2.6Q-5.724-6.159-7.01-3.78a.327.327,0,0,0-.048.144q0,.082.171.082Zm8.284-6.959A2.612,2.612,0,0,1,6.757-8.921,7.823,7.823,0,0,1,7.474-5.3,7.212,7.212,0,0,1,6.538-1.3,2.5,2.5,0,0,1,4.364-.055a2.607,2.607,0,0,1-2.42-1.552,7.758,7.758,0,0,1-.711-3.616,7.38,7.38,0,0,1,.93-4.054A2.524,2.524,0,0,1,4.364-10.514Zm0,.431q-.9,0-1.237,1.483a16.2,16.2,0,0,0-.253,3.336A13.642,13.642,0,0,0,3.216-1.62Q3.571-.485,4.364-.485q.875,0,1.217-1.47a16.023,16.023,0,0,0,.253-3.309A14.1,14.1,0,0,0,5.5-8.935Q5.15-10.083,4.364-10.083ZM16.011-5.571a7.367,7.367,0,0,1-1.846,4.553,8.439,8.439,0,0,1-3.979,2.126q-.1.021-.1-.123a.053.053,0,0,1,.021-.048,8.935,8.935,0,0,0,3.329-2.905,8.194,8.194,0,0,0,1.114-3.6H13.5a6.885,6.885,0,0,0-1.176.109l-.157-.561a6.786,6.786,0,0,0,1.292.13h5.3q.629-.615.766-.615.157,0,.8.561.335.314.335.444t-.4.41a18.141,18.141,0,0,1-.731,4.71,2.174,2.174,0,0,1-.643.957,1.843,1.843,0,0,1-1.2.39A.663.663,0,0,1,17.3.9.6.6,0,0,1,17.16.574a.979.979,0,0,0-.472-.608A5.269,5.269,0,0,0,15.56-.485q-.041-.007-.041-.1,0-.157.068-.144a15.618,15.618,0,0,0,2.078.232.523.523,0,0,0,.472-.267,3.685,3.685,0,0,0,.314-.9,23.348,23.348,0,0,0,.458-3.917ZM23.127-6.72q.041.007.041.089,0,.109-.062.123a.884.884,0,0,0-.54.314,1.946,1.946,0,0,0-.287.663q-.089.4-.232.4a1.556,1.556,0,0,1-.615-.308A9.7,9.7,0,0,1,19.921-6.72,7.932,7.932,0,0,1,18.67-8.456a19.811,19.811,0,0,1-.991-2.256.71.71,0,0,0-.185-.253.177.177,0,0,1-.109-.15q0-.089.226-.178a.873.873,0,0,1,.321-.075q.137,0,.137.109L18-11.006a.8.8,0,0,0,.082.308,7.3,7.3,0,0,0,2.058,2.6A7.4,7.4,0,0,0,23.127-6.72Zm-7.267-3.89q0,.267-.574.308a13.306,13.306,0,0,1-2.413,3.356,12.228,12.228,0,0,1-2.905,2.01.028.028,0,0,1-.021.007q-.109,0-.109-.123a.046.046,0,0,1,.014-.034,12.94,12.94,0,0,0,3.391-4.348,9.159,9.159,0,0,0,.725-2.044Q15.861-10.855,15.861-10.609Z" transform="translate(960 2349)" fill="#fff"/>
    <path id="パス_12685-2" data-name="パス 12685" d="M-3738,12067.5h-138v-1h138Z" transform="translate(4765.999 -9744)" fill="#fff"/>
    <path id="パス_13534" data-name="パス 13534" d="M4,0,8,7H0Z" transform="translate(1029.999 2319) rotate(90)" fill="#fff"/>
    <path id="パス_13535" data-name="パス 13535" d="M-7.666-6.986a12.239,12.239,0,0,1-.4,2.693A6.3,6.3,0,0,1-9.99-1.258a.046.046,0,0,1-.034.014q-.164,0-.164-.1a.028.028,0,0,1,.007-.021A8.656,8.656,0,0,0-9.163-4.32,19.482,19.482,0,0,0-8.937-7.7a21.337,21.337,0,0,0-.116-2.536q.725.28,1.511.67A11.358,11.358,0,0,0-4.3-11.033a6.192,6.192,0,0,0,.827-.656,13.113,13.113,0,0,1,1.2.848q.267.239.267.4,0,.2-.4.2a2.779,2.779,0,0,1-.362-.027A20.214,20.214,0,0,1-7.6-9.153v.294q-.021.834-.041,1.552h4q.793-.923.964-.923a3.736,3.736,0,0,1,.964.643q.424.342.424.465t-.178.137h-2.55v1.832l.041,3.685q0,.533-.8.533-.581,0-.581-.424l.041-3.6v-2.03ZM-1.035-.629a.964.964,0,0,0-.547.786.98.98,0,0,1-.1.417.358.358,0,0,1-.239.089A33.515,33.515,0,0,1-5.362.786,18.226,18.226,0,0,1-8.308.6,4.647,4.647,0,0,1-9.929.041a3.581,3.581,0,0,1-1.395-2.058A11.278,11.278,0,0,1-12.936.1a1.607,1.607,0,0,1,.021.232q0,.41-.253.41-.294,0-1.039-1.7a9.369,9.369,0,0,0,.978-.355,5.988,5.988,0,0,0,1-.561V-5.53H-13.2a2.981,2.981,0,0,0-.766.109l-.157-.561a3.467,3.467,0,0,0,.923.13h.882q.567-.643.718-.643A2.333,2.333,0,0,1-10.838-6q.321.28.321.417,0,.109-.417.431v3.22A2.573,2.573,0,0,0-9.662-.779a10.358,10.358,0,0,0,3.274.349A48.59,48.59,0,0,0-1.049-.786q.055-.014.055.068A.09.09,0,0,1-1.035-.629Zm-9.953-8.825a.85.85,0,0,1-.232.629.717.717,0,0,1-.54.212.487.487,0,0,1-.41-.2,2.346,2.346,0,0,1-.273-.67,3.674,3.674,0,0,0-.9-1.634.074.074,0,0,1-.014-.041q0-.089.109-.089h.021Q-10.988-10.691-10.988-9.454ZM8.274-8.094H9.553q.014-.479.014-1.524,0-.964-.075-1.921a12.248,12.248,0,0,1,1.524.219q.246.075.246.232,0,.205-.437.362-.021,1.483-.041,2.632h.786q.656-.868.841-.868a3.191,3.191,0,0,1,.868.615q.362.3.362.431t-.185.144H10.769a25.28,25.28,0,0,1-.212,2.68h1.429q.69-.9.882-.9.171,0,.882.629.376.321.376.458t-.178.137H10.783a6.544,6.544,0,0,0,1.846,3.124A6.56,6.56,0,0,0,14.488-.52a.066.066,0,0,1,.048.062.1.1,0,0,1-.048.082A1.467,1.467,0,0,0,13.763.731q-.041.376-.185.376-.246,0-.93-.725a7.681,7.681,0,0,1-.93-1.176,10.938,10.938,0,0,1-1.244-3.794q-.178.738-.212.848A6.589,6.589,0,0,1,8.137-.349a8.613,8.613,0,0,1-2.912,1.47Q5.109,1.148,5.109,1A.046.046,0,0,1,5.13.964,10.919,10.919,0,0,0,7.221-.567,6.814,6.814,0,0,0,8.377-2.14a8.767,8.767,0,0,0,.9-2.632H7.536a4.187,4.187,0,0,0-.731.082l-.137-.479H4.692V-.991A20.208,20.208,0,0,0,6.77-1.483q.075-.014.075.1a.1.1,0,0,1-.027.075A21.907,21.907,0,0,1,2.382.588q-.082.492-.308.492-.157,0-.273-.267Q1.691.567,1.315-.561,1.889-.574,2.846-.7q.444-.055.67-.1V-5.168H2.409a4.2,4.2,0,0,0-.752.089L1.5-5.6a3.8,3.8,0,0,0,.868.109H3.516V-7.308H3.168a3.8,3.8,0,0,0-.69.082L2.354-7.67a7.092,7.092,0,0,1-1.121.718.052.052,0,0,1-.021.007.091.091,0,0,1-.1-.1.039.039,0,0,1,.014-.027,11.5,11.5,0,0,0,2.044-2.939,8.178,8.178,0,0,0,.588-1.647q1.606.431,1.606.711,0,.239-.533.28l-.041.082q2.058.622,2.058,1.627a.607.607,0,0,1-.171.438.494.494,0,0,1-.362.15.477.477,0,0,1-.369-.157,1.884,1.884,0,0,1-.273-.485,3.691,3.691,0,0,0-.978-1.4,10.865,10.865,0,0,1-2.283,2.7,3.227,3.227,0,0,0,.67.089H4.788q.479-.622.663-.622a2.236,2.236,0,0,1,.711.438q.294.253.294.362,0,.144-.185.144H4.692v1.818h.479q.52-.67.7-.67a2.121,2.121,0,0,1,.7.472q.294.253.294.383a.11.11,0,0,1-.082.123,3.568,3.568,0,0,0,.731.089H9.327a20.963,20.963,0,0,0,.212-2.68H8.124A7.79,7.79,0,0,1,6.736-6a.084.084,0,0,1-.048.014q-.109,0-.109-.068v-.014a10.72,10.72,0,0,0,.93-2.857,10.175,10.175,0,0,0,.178-1.552,10.641,10.641,0,0,1,1.319.39q.239.109.239.239t-.424.267A9.406,9.406,0,0,1,8.274-8.094ZM3.1-2.194a.777.777,0,0,1-.185.54.5.5,0,0,1-.4.185q-.424,0-.465-.643A10.759,10.759,0,0,0,1.93-3.35a4.818,4.818,0,0,0-.239-.766.052.052,0,0,1-.007-.021q0-.075.089-.075a.074.074,0,0,1,.041.014A5.286,5.286,0,0,1,2.846-3.062,1.675,1.675,0,0,1,3.1-2.194Zm3.89-1.531q0,.2-.424.253A9.4,9.4,0,0,1,5.089-1.518a.084.084,0,0,1-.062.021q-.1,0-.1-.075a.052.052,0,0,1,.007-.021A12.234,12.234,0,0,0,5.43-3.329q.116-.636.157-1.121Q6.989-3.958,6.989-3.726Z" transform="translate(960 2307)" fill="#fff"/>
    <path id="パス_13536" data-name="パス 13536" d="M-21.282-5.811a20.388,20.388,0,0,0,1.641-2.646A8.629,8.629,0,0,0-19-9.9q1.565.718,1.565.937,0,.2-.458.2h-.082Q-19.135-7.4-19.532-7q-.383.383-1.312,1.189.793,0,2.393-.055a3.6,3.6,0,0,0-.608-1.189.061.061,0,0,1-.007-.027q0-.075.1-.075a.076.076,0,0,1,.034.007q1.764.957,1.764,1.982a.954.954,0,0,1-.2.629.558.558,0,0,1-.431.2.431.431,0,0,1-.41-.205,2.129,2.129,0,0,1-.178-.827L-18.4-5.53q-.308.109-.923.28v1.935L-19.279.67q0,.533-.738.533-.561,0-.561-.431Q-20.5-.506-20.5-2.27v-2.7Q-21-4.86-21.979-4.7q-.137.39-.308.39-.137,0-.253-.342t-.267-1.183q.362.027.745.027Zm5.715-2.659A8.526,8.526,0,0,1-17.419-6.3a.074.074,0,0,1-.041.014q-.123,0-.123-.089a.052.052,0,0,1,.007-.021A13.384,13.384,0,0,0-16.2-9.871a9.772,9.772,0,0,0,.335-1.8q1.914.492,1.914.745t-.554.335a14.135,14.135,0,0,1-.868,1.8h3.315q.615-.725.772-.725t.793.588q.335.294.335.444,0,.109-.431.417-.082,2.755-.239,4.307a21.867,21.867,0,0,1-.485,3.015,2.143,2.143,0,0,1-.9,1.36,2.062,2.062,0,0,1-1.176.321.407.407,0,0,1-.294-.075.8.8,0,0,1-.109-.314,1.027,1.027,0,0,0-.458-.684,4.818,4.818,0,0,0-1.107-.424Q-15.4-.574-15.4-.677t.055-.109q1.224.109,1.62.109a2.349,2.349,0,0,0,.9-.109.523.523,0,0,0,.232-.342A32.954,32.954,0,0,0-11.91-8.47Zm-5.722-.772a14.18,14.18,0,0,0,.615-1.661,6.6,6.6,0,0,0,.205-.854q1.661.588,1.661.868,0,.232-.554.232a18.23,18.23,0,0,1-1.593,1.613,1.271,1.271,0,0,1,.663,1.06.891.891,0,0,1-.205.622.589.589,0,0,1-.451.191.533.533,0,0,1-.451-.164,2.829,2.829,0,0,1-.273-.718,3.37,3.37,0,0,0-.923-1.511.046.046,0,0,1-.021-.041q0-.1.1-.082A8.19,8.19,0,0,1-21.288-9.242Zm7.608,4.9a.991.991,0,0,1-.239.677.68.68,0,0,1-.526.246q-.438,0-.561-.615a9.868,9.868,0,0,0-.52-1.5,3.246,3.246,0,0,0-.6-.889.084.084,0,0,1-.014-.048.073.073,0,0,1,.082-.082h.014a3.98,3.98,0,0,1,1.764.991A1.749,1.749,0,0,1-13.68-4.341Zm-3.514,2.563a1,1,0,0,1-.212.663.6.6,0,0,1-.472.219.422.422,0,0,1-.41-.26,2.907,2.907,0,0,1-.191-.889A4.309,4.309,0,0,0-19.1-3.937a.039.039,0,0,1-.014-.027q0-.068.082-.068a.074.074,0,0,1,.041.014Q-17.194-2.905-17.194-1.777Zm-3.391-1.613q0,.185-.4.267A7.9,7.9,0,0,1-22.9.185.056.056,0,0,1-22.943.2a.079.079,0,0,1-.089-.089.052.052,0,0,1,.007-.021,11.142,11.142,0,0,0,.786-2.639,6.617,6.617,0,0,0,.116-1.244q0-.1.007-.226,1.073.314,1.333.431Q-20.584-3.5-20.584-3.391Zm17.041-7.191q.226,0,.226.164-.007.376-.034,1.641-.021.841-.021,1.456v4.382q0,1.094.027,1.388a1.356,1.356,0,0,0,.13.472.6.6,0,0,0,.465.28q.137.027.725.089Q-1.9-.7-1.9-.506t-.123.2Q-3-.349-4.1-.349q-1.135,0-2.126.041-.144,0-.144-.2t.144-.205a5.9,5.9,0,0,0,.8-.1.51.51,0,0,0,.383-.273A6.434,6.434,0,0,0-4.9-2.939V-7.95a2.306,2.306,0,0,0-.144-1.073q-.075-.13-.328-.13a1.838,1.838,0,0,0-.492.082l-.547.15a.481.481,0,0,1-.1.021q-.1,0-.144-.171a.657.657,0,0,1-.021-.123q0-.082.15-.13Q-5.116-9.837-3.544-10.582Zm7.908.068A2.612,2.612,0,0,1,6.757-8.921,7.823,7.823,0,0,1,7.474-5.3,7.212,7.212,0,0,1,6.538-1.3,2.5,2.5,0,0,1,4.364-.055a2.607,2.607,0,0,1-2.42-1.552,7.758,7.758,0,0,1-.711-3.616,7.38,7.38,0,0,1,.93-4.054A2.524,2.524,0,0,1,4.364-10.514Zm0,.431q-.9,0-1.237,1.483a16.2,16.2,0,0,0-.253,3.336A13.642,13.642,0,0,0,3.216-1.62Q3.571-.485,4.364-.485q.875,0,1.217-1.47a16.023,16.023,0,0,0,.253-3.309A14.1,14.1,0,0,0,5.5-8.935Q5.15-10.083,4.364-10.083ZM16.011-5.571a7.367,7.367,0,0,1-1.846,4.553,8.439,8.439,0,0,1-3.979,2.126q-.1.021-.1-.123a.053.053,0,0,1,.021-.048,8.935,8.935,0,0,0,3.329-2.905,8.194,8.194,0,0,0,1.114-3.6H13.5a6.885,6.885,0,0,0-1.176.109l-.157-.561a6.786,6.786,0,0,0,1.292.13h5.3q.629-.615.766-.615.157,0,.8.561.335.314.335.444t-.4.41a18.141,18.141,0,0,1-.731,4.71,2.174,2.174,0,0,1-.643.957,1.843,1.843,0,0,1-1.2.39A.663.663,0,0,1,17.3.9.6.6,0,0,1,17.16.574a.979.979,0,0,0-.472-.608A5.269,5.269,0,0,0,15.56-.485q-.041-.007-.041-.1,0-.157.068-.144a15.618,15.618,0,0,0,2.078.232.523.523,0,0,0,.472-.267,3.685,3.685,0,0,0,.314-.9,23.348,23.348,0,0,0,.458-3.917ZM23.127-6.72q.041.007.041.089,0,.109-.062.123a.884.884,0,0,0-.54.314,1.946,1.946,0,0,0-.287.663q-.089.4-.232.4a1.556,1.556,0,0,1-.615-.308A9.7,9.7,0,0,1,19.921-6.72,7.932,7.932,0,0,1,18.67-8.456a19.811,19.811,0,0,1-.991-2.256.71.71,0,0,0-.185-.253.177.177,0,0,1-.109-.15q0-.089.226-.178a.873.873,0,0,1,.321-.075q.137,0,.137.109L18-11.006a.8.8,0,0,0,.082.308,7.3,7.3,0,0,0,2.058,2.6A7.4,7.4,0,0,0,23.127-6.72Zm-7.267-3.89q0,.267-.574.308a13.306,13.306,0,0,1-2.413,3.356,12.228,12.228,0,0,1-2.905,2.01.028.028,0,0,1-.021.007q-.109,0-.109-.123a.046.046,0,0,1,.014-.034,12.94,12.94,0,0,0,3.391-4.348,9.159,9.159,0,0,0,.725-2.044Q15.861-10.855,15.861-10.609Z" transform="translate(660 2347)" fill="#fff"/>
    <path id="パス_12685-3" data-name="パス 12685" d="M-3738,12067.5h-138v-1h138Z" transform="translate(4465.999 -9746)" fill="#fff"/>
    <path id="パス_13537" data-name="パス 13537" d="M4,0,8,7H0Z" transform="translate(730 2317) rotate(90)" fill="#fff"/>
    <path id="パス_13538" data-name="パス 13538" d="M-13.814-7.157V-9.406q0-1.374-.082-2.229a12.469,12.469,0,0,1,1.477.232q.239.075.239.232t-.4.349V-7.6l1.429-.52q.41-.725.561-.725a2.868,2.868,0,0,1,.827.431q.321.226.321.41t-.335.458a20.32,20.32,0,0,1-.355,4.184,1.452,1.452,0,0,1-.574.854,1.613,1.613,0,0,1-.861.185q-.171,0-.219-.068a.482.482,0,0,1-.062-.253,1.243,1.243,0,0,0-.2-.574,1.436,1.436,0,0,0-.479-.335l.014,1.442q0,.6-.82.6-.547,0-.547-.479,0-.089.014-.752.048-1.982.055-4.061l-1.4.5V-.964a.62.62,0,0,0,.109.431.982.982,0,0,0,.567.171q.342.027,1.381.027A18.833,18.833,0,0,0-11.189-.4a1.307,1.307,0,0,0,.649-.212A4.24,4.24,0,0,0-9.7-2.646q.014-.041.082-.041.116,0,.116.068l-.014,1.456a.74.74,0,0,0,.055.355.587.587,0,0,0,.226.15.5.5,0,0,1,.376.472q0,.547-.711.786a11.427,11.427,0,0,1-3.11.28A9.434,9.434,0,0,1-15.94.561.894.894,0,0,1-16.4-.021a2.829,2.829,0,0,1-.068-.7q0-3.739.014-5.113l-.684.253a5.337,5.337,0,0,0-.827.376l-.294-.431a7.054,7.054,0,0,0,.991-.253l.813-.294V-7.574a23.728,23.728,0,0,0-.1-2.55,10.085,10.085,0,0,1,1.429.219q.314.089.314.246,0,.2-.4.39v2.632Zm1.271,3.336a6.149,6.149,0,0,0,.971.068.3.3,0,0,0,.28-.144,1.881,1.881,0,0,0,.109-.458,28.485,28.485,0,0,0,.15-3.473l-1.538.561v.376Q-12.57-5.865-12.543-3.821ZM-18.832-7.1V-2.81q.82-.253,1.682-.581a.052.052,0,0,1,.021-.007q.075,0,.075.116a.062.062,0,0,1-.021.055,17.764,17.764,0,0,1-3.657,2.208q-.041.6-.308.6-.15,0-.342-.41-.157-.321-.513-1.285a9.673,9.673,0,0,0,1.2-.212q.1-.021.629-.15V-7.1H-21a3.361,3.361,0,0,0-.656.082l-.157-.52a2.8,2.8,0,0,0,.759.116h.991V-9.475q0-1.2-.068-1.989,1.8.171,1.8.465,0,.185-.506.417v3.165h.28q.431-.745.629-.745.144,0,.718.52.294.294.294.4,0,.144-.185.144ZM.253-10.274v2.311q3.828.841,3.828,2.393a.95.95,0,0,1-.239.67.685.685,0,0,1-.52.226.657.657,0,0,1-.506-.2,7.807,7.807,0,0,1-.588-.9A5.084,5.084,0,0,0,1.34-6.877,6.534,6.534,0,0,0,.253-7.67v3.418L.314.465q0,.6-.854.6-.663,0-.663-.492l.062-4.73v-6.118H-4.812a12.569,12.569,0,0,0-1.285.082l-.157-.513a10.7,10.7,0,0,0,1.47.109H3.739q.861-1.08,1.039-1.08a3.931,3.931,0,0,1,1.039.745q.465.39.465.52t-.191.137ZM15.974-8.094h1.278q.014-.479.014-1.524,0-.964-.075-1.921a12.248,12.248,0,0,1,1.524.219q.246.075.246.232,0,.205-.437.362-.021,1.483-.041,2.632h.786q.656-.868.841-.868a3.191,3.191,0,0,1,.868.615q.362.3.362.431t-.185.144H18.469a25.28,25.28,0,0,1-.212,2.68h1.429q.69-.9.882-.9.171,0,.882.629.376.321.376.458t-.178.137H18.483a6.544,6.544,0,0,0,1.846,3.124A6.56,6.56,0,0,0,22.188-.52a.066.066,0,0,1,.048.062.1.1,0,0,1-.048.082A1.467,1.467,0,0,0,21.463.731q-.041.376-.185.376-.246,0-.93-.725a7.681,7.681,0,0,1-.93-1.176,10.938,10.938,0,0,1-1.244-3.794q-.178.738-.212.848A6.589,6.589,0,0,1,15.838-.349a8.613,8.613,0,0,1-2.912,1.47q-.116.027-.116-.116A.046.046,0,0,1,12.83.964,10.919,10.919,0,0,0,14.921-.567,6.814,6.814,0,0,0,16.077-2.14a8.767,8.767,0,0,0,.9-2.632H15.236a4.187,4.187,0,0,0-.731.082l-.137-.479H12.392V-.991a20.208,20.208,0,0,0,2.078-.492q.075-.014.075.1a.1.1,0,0,1-.027.075,21.907,21.907,0,0,1-4.437,1.9Q10,1.08,9.774,1.08q-.157,0-.273-.267Q9.391.567,9.015-.561,9.589-.574,10.546-.7q.444-.055.67-.1V-5.168H10.109a4.2,4.2,0,0,0-.752.089L9.2-5.6a3.8,3.8,0,0,0,.868.109h1.148V-7.308h-.349a3.8,3.8,0,0,0-.69.082l-.123-.444a7.092,7.092,0,0,1-1.121.718.052.052,0,0,1-.021.007.091.091,0,0,1-.1-.1.039.039,0,0,1,.014-.027,11.5,11.5,0,0,0,2.044-2.939,8.178,8.178,0,0,0,.588-1.647q1.606.431,1.606.711,0,.239-.533.28l-.041.082q2.058.622,2.058,1.627a.607.607,0,0,1-.171.438.494.494,0,0,1-.362.15.477.477,0,0,1-.369-.157,1.884,1.884,0,0,1-.273-.485,3.691,3.691,0,0,0-.978-1.4,10.865,10.865,0,0,1-2.283,2.7,3.227,3.227,0,0,0,.67.089h1.709q.479-.622.663-.622a2.236,2.236,0,0,1,.711.438q.294.253.294.362,0,.144-.185.144H12.392v1.818h.479q.52-.67.7-.67a2.121,2.121,0,0,1,.7.472q.294.253.294.383a.11.11,0,0,1-.082.123,3.568,3.568,0,0,0,.731.089h1.818a20.963,20.963,0,0,0,.212-2.68H15.824A7.79,7.79,0,0,1,14.436-6a.084.084,0,0,1-.048.014q-.109,0-.109-.068v-.014a10.72,10.72,0,0,0,.93-2.857,10.175,10.175,0,0,0,.178-1.552,10.641,10.641,0,0,1,1.319.39q.239.109.239.239t-.424.267A9.407,9.407,0,0,1,15.974-8.094ZM10.8-2.194a.777.777,0,0,1-.185.54.5.5,0,0,1-.4.185q-.424,0-.465-.643A10.759,10.759,0,0,0,9.63-3.35a4.818,4.818,0,0,0-.239-.766.052.052,0,0,1-.007-.021q0-.075.089-.075a.074.074,0,0,1,.041.014,5.286,5.286,0,0,1,1.032,1.135A1.675,1.675,0,0,1,10.8-2.194Zm3.89-1.531q0,.2-.424.253a9.4,9.4,0,0,1-1.477,1.955.084.084,0,0,1-.062.021q-.1,0-.1-.075a.052.052,0,0,1,.007-.021,12.234,12.234,0,0,0,.492-1.736q.116-.636.157-1.121Q14.689-3.958,14.689-3.726Z" transform="translate(660 2305)" fill="#fff"/>
  </g>
</svg>
