<svg xmlns="http://www.w3.org/2000/svg" width="1040" height="56" viewBox="0 0 1040 56">
  <g id="グループ_7208" data-name="グループ 7208" transform="translate(-440 -2598)">
    <path id="パス_13549" data-name="パス 13549" d="M0,0H416V56H0Z" transform="translate(440 2598)" fill="#914831"/>
    <path id="パス_13550" data-name="パス 13550" d="M-96.558-7.891a12.973,12.973,0,0,1-.828,3.352A9.536,9.536,0,0,1-98.816-2.2a10.552,10.552,0,0,1-5.266,3.328q-.039.008-.086-.043a.155.155,0,0,1-.047-.105.053.053,0,0,1,.023-.047A11.041,11.041,0,0,0-99.042-4.5a13.137,13.137,0,0,0,.9-3.8H-102.4a13.756,13.756,0,0,0-1.453.094l-.18-.586a12.131,12.131,0,0,0,1.664.125h4.258q.125-1.414.125-2.961,0-.617-.062-1.484a15.105,15.105,0,0,1,1.914.328q.352.109.352.328t-.555.461a32.407,32.407,0,0,1-.141,3.328H-92.4q.945-1.234,1.148-1.234a4.651,4.651,0,0,1,1.156.867q.492.43.492.57,0,.164-.2.164h-6.516a10.082,10.082,0,0,0,2.984,5.281A10.537,10.537,0,0,0-89.323-.766a.078.078,0,0,1,.055.086.108.108,0,0,1-.07.117A1.855,1.855,0,0,0-90.456.719q-.094.32-.242.32a2.143,2.143,0,0,1-.992-.477,11.275,11.275,0,0,1-2.594-2.453A12.55,12.55,0,0,1-96.558-7.891Zm12.116,4.359v1.273l.031,2.82q0,.656-.883.656-.656,0-.656-.578.1-3.328.1-8.867,0-3.7-.094-4.906.688.273,1.664.734h1.625q.563-.672.742-.672.164,0,.875.672.367.344.367.508,0,.266-.492.422a17.844,17.844,0,0,1-2.383,3.516,6.87,6.87,0,0,1,1.758,1.93A4.013,4.013,0,0,1-81.4-4.172a2.186,2.186,0,0,1-.562,1.648,1.7,1.7,0,0,1-1.258.445q-.219,0-.281-.086a.892.892,0,0,1-.094-.328,1.5,1.5,0,0,0-.242-.711A1.224,1.224,0,0,0-84.442-3.531Zm0-.227q1.148.047,1.227.047a.457.457,0,0,0,.336-.109,1.56,1.56,0,0,0,.18-.93,4.713,4.713,0,0,0-.281-1.742,5.688,5.688,0,0,0-.883-1.4,17.036,17.036,0,0,0,1.3-4.141h-1.875Zm8.414,1.867A11.382,11.382,0,0,1-81.255,1.1q-.117.023-.117-.156a.061.061,0,0,1,.023-.055,12.789,12.789,0,0,0,4.586-3.852,15.188,15.188,0,0,1-1.648-4.883h-.469a19.145,19.145,0,0,1-.656,4.258A8.129,8.129,0,0,1-80.958-.82a8.387,8.387,0,0,1-2.07,1.914.087.087,0,0,1-.039.008q-.133,0-.133-.125a.069.069,0,0,1,.008-.031,9.449,9.449,0,0,0,2.461-4.836,36.444,36.444,0,0,0,.4-6.3q0-1.1-.109-2.734a13.208,13.208,0,0,1,1.8.93h4.2q.875-1.023,1.055-1.023a3.687,3.687,0,0,1,1.086.7q.461.367.461.531t-.234.156H-78.8v.414q0,1.813-.062,3.008h3.984q.727-.828.9-.828a3.18,3.18,0,0,1,.945.672q.367.3.367.508,0,.188-.5.461A12.128,12.128,0,0,1-75.2-2.883,8.331,8.331,0,0,0-71.4-.734q.047.008.047.07a.128.128,0,0,1-.078.133A1.376,1.376,0,0,0-72-.117a4.328,4.328,0,0,0-.359.852q-.094.289-.242.289a2.235,2.235,0,0,1-.875-.484A11.606,11.606,0,0,1-76.028-1.891Zm-2.062-5.953A11.731,11.731,0,0,0-76.13-3.953a11.84,11.84,0,0,0,1.352-3.891Zm15.514,5.3V-6.32H-64.42a6.127,6.127,0,0,0-.969.094l-.18-.586a5.37,5.37,0,0,0,1.1.125h1.891v-2.93H-64.8a7.18,7.18,0,0,0-1.023.094L-66-10.109a6.194,6.194,0,0,0,1.18.125h5.336q.75-.883.945-.883a3.388,3.388,0,0,1,.992.625q.414.328.414.469,0,.156-.211.156h-3.727v2.93h1.281q.633-.883.844-.883a3.108,3.108,0,0,1,.93.609q.4.328.4.484t-.2.156h-3.25v3.773h1.984q.648-.945.867-.945a3.145,3.145,0,0,1,.961.672q.4.328.4.484t-.211.156h-7.984a6.16,6.16,0,0,0-.977.094l-.18-.586a5.58,5.58,0,0,0,1.133.125Zm4.383-1.687a.76.76,0,0,1-.234.57.658.658,0,0,1-.484.2.507.507,0,0,1-.375-.133,1.4,1.4,0,0,1-.219-.43,3.7,3.7,0,0,0-1.016-1.516.068.068,0,0,1-.023-.047q0-.07.086-.07h.023Q-58.194-5.266-58.194-4.234ZM-66.748.047v.4q0,.641-.93.641-.641,0-.641-.531.1-3.039.1-8.281,0-3.227-.086-5.508a15.427,15.427,0,0,1,1.8.93h9.844q.727-.812.9-.812t.914.641q.367.344.367.492,0,.227-.477.508v1.953q0,5.813.094,9.891,0,.656-.961.656-.656,0-.656-.516V.047ZM-56.483-.32V-11.937H-66.748V-.32Zm7.022-3.039v1.633l.016,2.352q0,.687-.859.688-.625,0-.625-.594l.063-8.125q0-4.047-.062-5.766,1.047.508,1.563.82h1.492q.609-.687.781-.687t.867.672q.352.352.352.508,0,.2-.5.391a18.975,18.975,0,0,1-2.156,3.516,6.083,6.083,0,0,1,1.7,2.594A11.462,11.462,0,0,0-44.883-7.3a.5.5,0,0,1-.211.047.364.364,0,0,1-.312-.117,2.364,2.364,0,0,1-.211-.539,2.694,2.694,0,0,0-.594-.961q-.5.453-1.125.938a.06.06,0,0,1-.023.008q-.117,0-.117-.148a.087.087,0,0,1,.008-.039,12.349,12.349,0,0,0,2.18-3.875,8.944,8.944,0,0,0,.391-1.453,13.729,13.729,0,0,1,1.492.445q.266.109.266.227,0,.242-.516.289-.422.8-.445.844h1.188q.461-.477.6-.477a2.619,2.619,0,0,1,.719.477q.289.227.289.367,0,.125-.281.336a9.344,9.344,0,0,1-5.062,5.719.253.253,0,0,1-.1.039h-.039A5.468,5.468,0,0,1-46.68-4a2.06,2.06,0,0,1-.578,1.523,1.585,1.585,0,0,1-1.133.445q-.3,0-.32-.352a1.182,1.182,0,0,0-.2-.617A1.459,1.459,0,0,0-49.461-3.359Zm0-.273q.32.031.781.031A.682.682,0,0,0-48.3-3.7q.273-.234.273-1.3a5.189,5.189,0,0,0-.242-1.7,4,4,0,0,0-.664-1.187A16.252,16.252,0,0,0-47.8-11.984h-1.664Zm5.148-7.633-.477.75q1.3.273,1.3.977v.063a7.607,7.607,0,0,0,.625-1.789ZM-46.07-8.992q1.523.266,1.523,1.117a.786.786,0,0,1-.016.18,12.178,12.178,0,0,0,.844-1.344.508.508,0,0,1-.32.109.358.358,0,0,1-.3-.117,1.636,1.636,0,0,1-.2-.461,2.812,2.812,0,0,0-.4-.8A11.376,11.376,0,0,1-46.07-8.992Zm4.984,4.914v2.414l.031,1.742a1.11,1.11,0,0,1-.289.82,1.746,1.746,0,0,1-1.281.414.412.412,0,0,1-.32-.094A1.637,1.637,0,0,1-43.1.8a.858.858,0,0,0-.43-.539A5.417,5.417,0,0,0-44.57-.094q-.063-.016-.062-.109t.063-.1q1.211.094,1.867.094.211,0,.211-.172v-3.7h-2.047a12.978,12.978,0,0,0-1.406.094l-.18-.586a10.962,10.962,0,0,0,1.586.125h5.3q.711-.867.906-.867a3.3,3.3,0,0,1,.977.609q.414.32.414.469t-.2.156Zm1.789-4.75a7.8,7.8,0,0,0,3.133,1.961.075.075,0,0,1,.047.07.111.111,0,0,1-.078.109,1.236,1.236,0,0,0-.5.367,2.45,2.45,0,0,0-.25.656q-.086.3-.227.3a1.5,1.5,0,0,1-.672-.352,9,9,0,0,1-2.383-2.8,10.866,10.866,0,0,1-1.2-3.727.57.57,0,0,0-.164-.352A.31.31,0,0,1-41.7-12.8q0-.055.2-.109a1.419,1.419,0,0,1,.359-.047q.227,0,.227.094a.619.619,0,0,1-.062.164.363.363,0,0,0-.062.188,1.7,1.7,0,0,0,.063.438,8.785,8.785,0,0,0,.531,1.43,8.191,8.191,0,0,0,.633,1.18,3.145,3.145,0,0,0,.242.3,7.744,7.744,0,0,0,1.023-2.266h-.844a4.026,4.026,0,0,0-.961.125l-.18-.625a5.3,5.3,0,0,0,1.141.133h.844q.586-.641.75-.641.188,0,.852.594.352.328.352.477,0,.211-.609.445A8.442,8.442,0,0,1-39.3-8.828Zm0,2.414q0,.156-.211.156h-3.055a9.478,9.478,0,0,0-1.18.094l-.18-.586a7.524,7.524,0,0,0,1.313.125H-41.3q.617-.734.813-.734a2.111,2.111,0,0,1,.82.523Q-39.3-6.516-39.3-6.414Zm2.3,5.969a.935.935,0,0,1-.25.68.72.72,0,0,1-.539.227.642.642,0,0,1-.508-.2,1.918,1.918,0,0,1-.3-.609A6.954,6.954,0,0,0-39.3-1.914a5.687,5.687,0,0,0-.93-1.062.053.053,0,0,1-.023-.047.083.083,0,0,1,.094-.094h.016a6.369,6.369,0,0,1,2.414,1.258A1.956,1.956,0,0,1-36.992-.445Zm-6.336-1.969a.227.227,0,0,1-.156.227,1.916,1.916,0,0,1-.5.109,9.694,9.694,0,0,1-3.422,2.8.023.023,0,0,1-.016.008q-.117,0-.117-.141a.053.053,0,0,1,.016-.039,10.321,10.321,0,0,0,1.859-2.477,5.674,5.674,0,0,0,.523-1.3Q-43.328-2.68-43.328-2.414Zm17.6-8.578h3.93q.773-.9.945-.9a4,4,0,0,1,1.141.82q.492.438.492.594a.249.249,0,0,1-.18.258,2.554,2.554,0,0,1-.617.078,1.213,1.213,0,0,0-.656.273,12.041,12.041,0,0,1-1.344.813.1.1,0,0,1-.055.016q-.094,0-.094-.062a.069.069,0,0,1,.008-.031,5.7,5.7,0,0,0,.477-1.492h-2.547v2.609a.429.429,0,0,0,.3.453,4.128,4.128,0,0,0,1.055.086,5.034,5.034,0,0,0,1.617-.172.731.731,0,0,0,.352-.328q.117-.2.461-.961a.08.08,0,0,1,.078-.055q.07,0,.07.063v.883q0,.156.07.2a1.234,1.234,0,0,0,.344.133.465.465,0,0,1,.383.492q0,.5-.867.734a8.942,8.942,0,0,1-2.4.242,6.158,6.158,0,0,1-2.445-.3,1.124,1.124,0,0,1-.477-1.078v-3.008h-1.555a5.191,5.191,0,0,1-1.687,3.711A7.847,7.847,0,0,1-32.83-5.57q-.1.023-.1-.141a.067.067,0,0,1,.039-.07,6.62,6.62,0,0,0,3.156-1.937,5.582,5.582,0,0,0,.984-2.906H-31.3q.016.164.016.3a2.457,2.457,0,0,1-.391,1.469,1.051,1.051,0,0,1-.883.469.779.779,0,0,1-.617-.258.822.822,0,0,1-.2-.57.811.811,0,0,1,.516-.766,2.118,2.118,0,0,0,.883-.719A2.734,2.734,0,0,0-31.7-11.75a.09.09,0,0,1,.1-.07.061.061,0,0,1,.07.055,4.544,4.544,0,0,1,.18.773h4.078v-1.3a7.988,7.988,0,0,0-.078-.992q2.141.2,2.141.516,0,.2-.523.445ZM-27.408,0V-4.047h-3.086a8.322,8.322,0,0,0-1.109.094l-.172-.586a6.37,6.37,0,0,0,1.219.125h7.211q.984-1.1,1.172-1.1a4.013,4.013,0,0,1,1.094.766q.477.391.477.547t-.211.156h-4.977V0h3.617q.945-1.234,1.148-1.234a4.65,4.65,0,0,1,1.156.852q.508.445.508.586,0,.164-.2.164H-31.7A13.757,13.757,0,0,0-33.15.461l-.18-.586A12.132,12.132,0,0,0-31.666,0ZM-5.847-7.422A4.563,4.563,0,0,0-3.909-5.859,7.49,7.49,0,0,0-1-5.125q.062,0,.063.078a.1.1,0,0,1-.062.1A1.674,1.674,0,0,0-1.941-3.8q-.078.3-.273.3a1.376,1.376,0,0,1-.477-.18,7.417,7.417,0,0,1-1.937-1.4,1.017,1.017,0,0,1-.3.32V-4.4l.047,1.727q0,.531-.867.531-.594,0-.594-.484v-.156H-9.566v1.8a.555.555,0,0,0,.148.453,1.752,1.752,0,0,0,.828.18Q-8.058-.3-6.534-.3A14.589,14.589,0,0,0-5.073-.352a1.737,1.737,0,0,0,.711-.211A1.736,1.736,0,0,0-3.722-1.3a9.169,9.169,0,0,0,.508-1.328q.016-.039.078-.039.117,0,.117.086-.008.18-.039.617-.055.883-.055.984,0,.2.258.289a.552.552,0,0,1,.383.531q0,.664-.914.93a15.781,15.781,0,0,1-3.562.258A9.894,9.894,0,0,1-10.323.68a1.269,1.269,0,0,1-.633-1.273l.031-2.031q0-.828-.047-1.266a12.482,12.482,0,0,1,1.547.742h3.078V-5.141H-9.058A2.433,2.433,0,0,0-9.839-5l-.125-.461a9.262,9.262,0,0,1-3.25,2.016.032.032,0,0,1-.023.008q-.109,0-.109-.117a.053.053,0,0,1,.023-.047,8.955,8.955,0,0,0,1.984-1.836A9.027,9.027,0,0,0-10.1-7.422h-1.18a4.837,4.837,0,0,0-.852.094l-.172-.586a4,4,0,0,0,.953.125h1.508v-2.578h-1.055a4.385,4.385,0,0,0-.8.094l-.172-.586a3.729,3.729,0,0,0,.914.125h1.117v-.883a12.562,12.562,0,0,0-.125-1.7q1.937.2,1.938.5,0,.164-.469.383v1.7H-6.5v-1.039q0-.461-.062-1.539a8.531,8.531,0,0,1,1.664.258q.234.086.234.227,0,.164-.461.383v1.711h.867q.727-.883.922-.883a3.108,3.108,0,0,1,.93.609q.4.328.4.484t-.2.156H-5.128v2.578h1.266q.773-.945.977-.945a3.246,3.246,0,0,1,.977.672q.414.344.414.484,0,.156-.211.156Zm-.344,0H-8.433A9.919,9.919,0,0,1-9.839-5.586a3.9,3.9,0,0,0,.781.078h2.586q.352-.523.539-.523a2.239,2.239,0,0,1,.758.367A6.938,6.938,0,0,1-6.191-7.422ZM-6.5-10.367H-8.5v2.578H-6.5Zm-5.906-.977a.924.924,0,0,1-.258.7.644.644,0,0,1-.461.188.628.628,0,0,1-.531-.234,4.548,4.548,0,0,1-.383-.742,4.131,4.131,0,0,0-1.141-1.445.063.063,0,0,1-.031-.047q0-.078.094-.078a4.227,4.227,0,0,1,2.086.594A1.254,1.254,0,0,1-12.409-11.344ZM-13.55-7.586a.882.882,0,0,1-.25.664.735.735,0,0,1-.531.2.578.578,0,0,1-.477-.242,3.7,3.7,0,0,1-.359-.7,3.869,3.869,0,0,0-1.1-1.414.05.05,0,0,1-.031-.047q0-.078.094-.078Q-13.55-8.977-13.55-7.586Zm1.461-1.266q-1.07,3.742-1.6,5.3a3.519,3.519,0,0,0-.227,1.008,3.485,3.485,0,0,0,.3,1.219,3.592,3.592,0,0,1,.3,1.219,1.156,1.156,0,0,1-.328.867.964.964,0,0,1-.711.281q-.766,0-.766-.812a7,7,0,0,1,.078-.93,4.747,4.747,0,0,0,.047-.656,1.864,1.864,0,0,0-.219-1.086,2.475,2.475,0,0,0-.945-.531q-.039-.016-.039-.094,0-.164.094-.148a4.886,4.886,0,0,0,.539.031.884.884,0,0,0,.773-.4,57.915,57.915,0,0,0,2.5-5.359q.016-.039.047-.039a.152.152,0,0,1,.078.031Q-12.081-8.906-12.089-8.852ZM16.05-13.789q.109,0,.109.094a.22.22,0,0,1-.078.148,9.925,9.925,0,0,0-3.391,7.469,9.812,9.812,0,0,0,3.328,7.406q.141.148.141.211,0,.094-.078.094a.413.413,0,0,1-.211-.094,11.107,11.107,0,0,1-3.219-3.445A8.151,8.151,0,0,1,11.5-6.078a8.151,8.151,0,0,1,1.148-4.172,11.2,11.2,0,0,1,3.234-3.461A.546.546,0,0,1,16.05-13.789Zm4.584,6.766A12.569,12.569,0,0,1,18.9-5.352a.087.087,0,0,1-.039.008q-.133,0-.133-.125a.069.069,0,0,1,.008-.031,14.885,14.885,0,0,0,1.82-3.109,18.387,18.387,0,0,0,1.1-3.172,15.162,15.162,0,0,0,.289-1.656q2.125.563,2.125.875,0,.258-.578.367A19.759,19.759,0,0,1,21.6-8.32a3.085,3.085,0,0,1,.727.164.18.18,0,0,1,.117.172q0,.18-.383.367v8.3q0,.672-.828.672-.688,0-.687-.578.094-2.8.094-4.234Zm7.1,2.688A9.569,9.569,0,0,1,27.4-2.977a5.61,5.61,0,0,1-1.711,2.6A8.619,8.619,0,0,1,22.7,1.172h-.016q-.1,0-.1-.125A.061.061,0,0,1,22.6.992a7.714,7.714,0,0,0,2.6-2.359A7.571,7.571,0,0,0,26.2-4.336H24.166a4.033,4.033,0,0,0-.859.109l-.18-.586a5.338,5.338,0,0,0,1.008.109h2.109q.109-.789.18-3.3H23.814a7.309,7.309,0,0,0-1.055.094l-.18-.586a6.7,6.7,0,0,0,1.234.125h2.609V-11.6H25.1a4.346,4.346,0,0,0-.992.125l-.18-.633a4.814,4.814,0,0,0,1.141.141h5.344q.664-.75.836-.75a2.8,2.8,0,0,1,.9.578q.367.3.367.461,0,.117-.516.523v2.789h.164q.563-.852.781-.852.156,0,.766.594.32.32.32.469t-.2.156H31.994q.008,1.133.031,2.625.016,1.055.016,1.281,0,.656-.836.656a.817.817,0,0,1-.578-.156.621.621,0,0,1-.141-.453v-.289Zm.047-.367h2.7V-8H27.947Q27.908-5.672,27.783-4.7Zm.164-3.664h2.539V-11.6H27.962Q27.962-9.437,27.947-8.367Zm17.3-.047a1.11,1.11,0,0,1-.3.8.852.852,0,0,1-.633.273q-.57,0-.75-.719a5.794,5.794,0,0,0-1.234-2.656.139.139,0,0,1-.016-.062.076.076,0,0,1,.086-.086h.016a5.339,5.339,0,0,1,2.156,1.141A1.8,1.8,0,0,1,45.25-8.414ZM48.945-6q.008,2.281.031,3.938.016,1.188.016,1.422a2.014,2.014,0,0,1-.156.914,1.2,1.2,0,0,1-.516.445,2.509,2.509,0,0,1-1.2.32q-.258,0-.328-.086a.926.926,0,0,1-.1-.344A.93.93,0,0,0,46.133-.1a9.57,9.57,0,0,0-1.492-.492q-.063-.008-.062-.1t.063-.1Q46.07-.7,46.9-.7a.762.762,0,0,0,.367-.055q.063-.047.063-.219V-6H40.562a17.572,17.572,0,0,1-.3,2.3A7.064,7.064,0,0,1,38.992-.8a10.716,10.716,0,0,1-2.086,1.945.087.087,0,0,1-.039.008q-.117,0-.117-.109a.069.069,0,0,1,.008-.031,12.349,12.349,0,0,0,1.516-2.672A11.348,11.348,0,0,0,38.914-4.4q.07-.523.125-1.6H37.758a7.18,7.18,0,0,0-1.023.094l-.172-.586a5.876,5.876,0,0,0,1.164.125h1.328q.047-1.172.047-2.672,0-2.508-.094-4,.9.43,1.8.9H47.2q.75-.75.906-.75a2.69,2.69,0,0,1,.9.578q.367.3.367.461t-.43.461v5.023h.289q.828-.977,1.023-.977a3.279,3.279,0,0,1,.961.688q.4.352.4.5T51.406-6Zm-8.352-.367h6.734v-5.406H40.687v.719Q40.687-7.937,40.594-6.367Zm21.678-4.625H66.2q.773-.9.945-.9a4,4,0,0,1,1.141.82q.492.438.492.594a.249.249,0,0,1-.18.258,2.554,2.554,0,0,1-.617.078,1.213,1.213,0,0,0-.656.273,12.041,12.041,0,0,1-1.344.813.1.1,0,0,1-.055.016q-.094,0-.094-.062a.069.069,0,0,1,.008-.031,5.7,5.7,0,0,0,.477-1.492H63.772v2.609a.429.429,0,0,0,.3.453,4.128,4.128,0,0,0,1.055.086,5.034,5.034,0,0,0,1.617-.172.731.731,0,0,0,.352-.328q.117-.2.461-.961a.08.08,0,0,1,.078-.055q.07,0,.07.063v.883q0,.156.07.2a1.235,1.235,0,0,0,.344.133.465.465,0,0,1,.383.492q0,.5-.867.734a8.942,8.942,0,0,1-2.4.242,6.158,6.158,0,0,1-2.445-.3,1.124,1.124,0,0,1-.477-1.078v-3.008H60.764a5.191,5.191,0,0,1-1.687,3.711A7.847,7.847,0,0,1,55.17-5.57q-.1.023-.1-.141a.067.067,0,0,1,.039-.07,6.62,6.62,0,0,0,3.156-1.937,5.582,5.582,0,0,0,.984-2.906H56.7q.016.164.016.3a2.457,2.457,0,0,1-.391,1.469,1.051,1.051,0,0,1-.883.469.779.779,0,0,1-.617-.258.822.822,0,0,1-.2-.57.811.811,0,0,1,.516-.766,2.118,2.118,0,0,0,.883-.719A2.734,2.734,0,0,0,56.3-11.75a.09.09,0,0,1,.1-.07.061.061,0,0,1,.07.055,4.544,4.544,0,0,1,.18.773h4.078v-1.3a7.989,7.989,0,0,0-.078-.992q2.141.2,2.141.516,0,.2-.523.445ZM60.592,0V-4.047H57.506a8.322,8.322,0,0,0-1.109.094l-.172-.586a6.37,6.37,0,0,0,1.219.125h7.211q.984-1.1,1.172-1.1a4.013,4.013,0,0,1,1.094.766q.477.391.477.547t-.211.156H62.209V0h3.617q.945-1.234,1.148-1.234a4.65,4.65,0,0,1,1.156.852q.508.445.508.586,0,.164-.2.164H56.3A13.757,13.757,0,0,0,54.85.461l-.18-.586A12.132,12.132,0,0,0,56.334,0ZM82.153-7.422a4.563,4.563,0,0,0,1.938,1.563A7.49,7.49,0,0,0,87-5.125q.062,0,.063.078a.1.1,0,0,1-.062.1A1.674,1.674,0,0,0,86.059-3.8q-.078.3-.273.3a1.376,1.376,0,0,1-.477-.18,7.417,7.417,0,0,1-1.937-1.4,1.017,1.017,0,0,1-.3.32V-4.4l.047,1.727q0,.531-.867.531-.594,0-.594-.484v-.156H78.434v1.8a.555.555,0,0,0,.148.453,1.752,1.752,0,0,0,.828.18q.531.039,2.055.039a14.589,14.589,0,0,0,1.461-.047,1.737,1.737,0,0,0,.711-.211,1.736,1.736,0,0,0,.641-.742,9.169,9.169,0,0,0,.508-1.328q.016-.039.078-.039.117,0,.117.086-.008.18-.039.617-.055.883-.055.984,0,.2.258.289a.552.552,0,0,1,.383.531q0,.664-.914.93a15.781,15.781,0,0,1-3.562.258A9.894,9.894,0,0,1,77.677.68a1.269,1.269,0,0,1-.633-1.273l.031-2.031q0-.828-.047-1.266a12.482,12.482,0,0,1,1.547.742h3.078V-5.141H78.942A2.433,2.433,0,0,0,78.161-5l-.125-.461a9.262,9.262,0,0,1-3.25,2.016.032.032,0,0,1-.023.008q-.109,0-.109-.117a.053.053,0,0,1,.023-.047,8.955,8.955,0,0,0,1.984-1.836A9.027,9.027,0,0,0,77.9-7.422h-1.18a4.837,4.837,0,0,0-.852.094L75.7-7.914a4,4,0,0,0,.953.125h1.508v-2.578H77.106a4.385,4.385,0,0,0-.8.094l-.172-.586a3.729,3.729,0,0,0,.914.125h1.117v-.883a12.562,12.562,0,0,0-.125-1.7q1.937.2,1.938.5,0,.164-.469.383v1.7H81.5v-1.039q0-.461-.062-1.539a8.531,8.531,0,0,1,1.664.258q.234.086.234.227,0,.164-.461.383v1.711h.867q.727-.883.922-.883a3.108,3.108,0,0,1,.93.609q.4.328.4.484t-.2.156H82.872v2.578h1.266q.773-.945.977-.945a3.246,3.246,0,0,1,.977.672q.414.344.414.484,0,.156-.211.156Zm-.344,0H79.567a9.918,9.918,0,0,1-1.406,1.836,3.9,3.9,0,0,0,.781.078h2.586q.352-.523.539-.523a2.239,2.239,0,0,1,.758.367A6.938,6.938,0,0,1,81.809-7.422ZM81.5-10.367H79.5v2.578H81.5Zm-5.906-.977a.924.924,0,0,1-.258.7.644.644,0,0,1-.461.188.628.628,0,0,1-.531-.234,4.548,4.548,0,0,1-.383-.742,4.131,4.131,0,0,0-1.141-1.445.063.063,0,0,1-.031-.047q0-.078.094-.078a4.227,4.227,0,0,1,2.086.594A1.254,1.254,0,0,1,75.591-11.344ZM74.45-7.586a.882.882,0,0,1-.25.664.735.735,0,0,1-.531.2.578.578,0,0,1-.477-.242,3.7,3.7,0,0,1-.359-.7,3.869,3.869,0,0,0-1.1-1.414.05.05,0,0,1-.031-.047q0-.078.094-.078Q74.45-8.977,74.45-7.586Zm1.461-1.266q-1.07,3.742-1.6,5.3a3.519,3.519,0,0,0-.227,1.008,3.485,3.485,0,0,0,.3,1.219,3.592,3.592,0,0,1,.3,1.219,1.156,1.156,0,0,1-.328.867.964.964,0,0,1-.711.281q-.766,0-.766-.812a7,7,0,0,1,.078-.93,4.747,4.747,0,0,0,.047-.656,1.864,1.864,0,0,0-.219-1.086,2.475,2.475,0,0,0-.945-.531q-.039-.016-.039-.094,0-.164.094-.148a4.886,4.886,0,0,0,.539.031.884.884,0,0,0,.773-.4,57.915,57.915,0,0,0,2.5-5.359q.016-.039.047-.039a.152.152,0,0,1,.078.031Q75.919-8.906,75.911-8.852ZM89.55-13.789a.546.546,0,0,1,.164.078,11.2,11.2,0,0,1,3.234,3.461A8.151,8.151,0,0,1,94.1-6.078a8.151,8.151,0,0,1-1.148,4.172A11.107,11.107,0,0,1,89.73,1.539a.413.413,0,0,1-.211.094q-.078,0-.078-.094,0-.063.141-.211a9.812,9.812,0,0,0,3.328-7.406,9.925,9.925,0,0,0-3.391-7.469.22.22,0,0,1-.078-.148Q89.441-13.789,89.55-13.789Z" transform="translate(648 2632)" fill="#fff"/>
    <path id="パス_13551" data-name="パス 13551" d="M0,0H152V56H0Z" transform="translate(1016 2598)" fill="#fff"/>
    <path id="パス_13552" data-name="パス 13552" d="M-7.339-10.625A8.01,8.01,0,0,0-4.6-8.484a13.765,13.765,0,0,0,3.477,1.07.078.078,0,0,1,.055.086q0,.094-.07.109a1.359,1.359,0,0,0-.945.977,1.3,1.3,0,0,1-.117.332.178.178,0,0,1-.156.066,2.91,2.91,0,0,1-.781-.3,14.985,14.985,0,0,1-1.75-1.07A9.882,9.882,0,0,1-7.73-10.625H-9.363a11.242,11.242,0,0,1-3.008,3.2A15.437,15.437,0,0,1-16.159-5.5a.032.032,0,0,1-.023.008q-.109,0-.109-.148a.053.053,0,0,1,.023-.047,14.454,14.454,0,0,0,5.2-4.937h-3.359a11.652,11.652,0,0,0-1.312.094l-.172-.586a8.946,8.946,0,0,0,1.438.125h3.617a10.38,10.38,0,0,0,.977-2.445q2.055.453,2.055.75t-.664.445q-.227.516-.641,1.25h4.867q.891-1.055,1.086-1.055a4.327,4.327,0,0,1,1.133.734q.492.391.492.531,0,.156-.2.156Zm-.727,6.109v.9L-8-.211a1.279,1.279,0,0,1-.672,1.219,2.2,2.2,0,0,1-1.234.32.347.347,0,0,1-.3-.133,1.677,1.677,0,0,1-.141-.461Q-10.488.125-12-.3q-.063-.016-.062-.117T-12-.531q1.4.1,2.156.1.211,0,.211-.227V-4.516h-4.047a12.888,12.888,0,0,0-1.391.094l-.18-.586a10.555,10.555,0,0,0,1.555.125h8.859q.875-1.039,1.078-1.039A3.646,3.646,0,0,1-2.722-5.2q.445.383.445.531t-.211.156Zm2.523-2.508q0,.156-.2.156h-5.211a9.514,9.514,0,0,0-1.187.094l-.172-.586a6.987,6.987,0,0,0,1.258.125H-7.87q.8-.9.984-.9a3.068,3.068,0,0,1,.945.625Q-5.542-7.18-5.542-7.023ZM-2.628-.43A.982.982,0,0,1-2.894.3a.786.786,0,0,1-.578.234.671.671,0,0,1-.57-.258A9.811,9.811,0,0,1-4.7-.961,7.256,7.256,0,0,0-6.745-3.344a.084.084,0,0,1-.023-.062q0-.125.1-.1A8,8,0,0,1-3.573-2.094,2.207,2.207,0,0,1-2.628-.43Zm-8.227-2.3q0,.266-.742.352A10.612,10.612,0,0,1-15.9.727a.069.069,0,0,1-.031.008q-.148,0-.148-.133A.045.045,0,0,1-16.066.57a10.626,10.626,0,0,0,2.719-3.1A5.527,5.527,0,0,0-12.784-3.8a15.2,15.2,0,0,1,1.609.727Q-10.855-2.891-10.855-2.734ZM10.9-2.32a6.159,6.159,0,0,0,.563.352A13.763,13.763,0,0,0,16.152-.492q.062.008.063.1t-.062.109a1.459,1.459,0,0,0-.766.352,1.724,1.724,0,0,0-.352.672q-.125.367-.367.367A2.766,2.766,0,0,1,13.847.9,11.177,11.177,0,0,1,11.339-.4,7.719,7.719,0,0,1,9.183-2.508,13.737,13.737,0,0,1,7.808-5.391H5.55V-.93a28.931,28.931,0,0,0,3.586-.906h.016q.1,0,.1.156a.061.061,0,0,1-.023.055A27.5,27.5,0,0,1,3.331.992q-.07.609-.383.609-.164,0-.3-.3-.117-.266-.617-1.672.547-.047,1.18-.141.148-.031.453-.07.266-.039.4-.062V-5.883q0-3.516-.094-5.859a13.892,13.892,0,0,1,1.7.8H7.839v-1.391q0-.344-.062-.977,2.117.2,2.117.531,0,.219-.547.477v1.359h2.422q.641-.719.813-.719a2.6,2.6,0,0,1,.883.578q.367.32.367.477,0,.172-.484.461v.867l.086,3.7a.407.407,0,0,1-.117.313q1.633.9,1.633,1.172,0,.227-.5.227H14.23A15.737,15.737,0,0,1,10.9-2.32Zm-.367-.258a14.829,14.829,0,0,0,1.8-1.547,7.218,7.218,0,0,0,.852-1.023,1.421,1.421,0,0,1-.7.141q-.547,0-.594-.383H8.206A8.409,8.409,0,0,0,10.534-2.578Zm1.359-3.18V-8.047H5.55v2.289Zm0-2.656v-2.164H5.55v2.164Z" transform="translate(1092 2632)" fill="#111"/>
    <path id="パス_13553" data-name="パス 13553" d="M0,0H152V56H0Z" transform="translate(1328 2598)" fill="#c89932"/>
    <path id="パス_13554" data-name="パス 13554" d="M-17.358-7.891a12.973,12.973,0,0,1-.828,3.352A9.536,9.536,0,0,1-19.616-2.2a10.552,10.552,0,0,1-5.266,3.328q-.039.008-.086-.043a.155.155,0,0,1-.047-.105.053.053,0,0,1,.023-.047A11.041,11.041,0,0,0-19.842-4.5a13.137,13.137,0,0,0,.9-3.8H-23.2a13.756,13.756,0,0,0-1.453.094l-.18-.586a12.131,12.131,0,0,0,1.664.125h4.258q.125-1.414.125-2.961,0-.617-.062-1.484a15.105,15.105,0,0,1,1.914.328q.352.109.352.328t-.555.461a32.407,32.407,0,0,1-.141,3.328H-13.2q.945-1.234,1.148-1.234a4.651,4.651,0,0,1,1.156.867q.492.43.492.57,0,.164-.2.164h-6.516a10.082,10.082,0,0,0,2.984,5.281A10.537,10.537,0,0,0-10.123-.766a.078.078,0,0,1,.055.086.108.108,0,0,1-.07.117A1.855,1.855,0,0,0-11.256.719q-.094.32-.242.32a2.143,2.143,0,0,1-.992-.477,11.275,11.275,0,0,1-2.594-2.453A12.55,12.55,0,0,1-17.358-7.891ZM4.977-1.328A44.642,44.642,0,0,1-1.828.227,1.793,1.793,0,0,1-1.992.75a.22.22,0,0,1-.2.1q-.187,0-.312-.359-.109-.32-.516-1.9.617.063.992.063h.352a50.01,50.01,0,0,0,2.3-8.781,26.9,26.9,0,0,0,.289-2.789q1.727.375,2.133.523.336.125.336.313,0,.289-.633.477A48.784,48.784,0,0,1,.992-5.68,34.545,34.545,0,0,1-.992-1.359a55.791,55.791,0,0,0,5.852-.4A18.7,18.7,0,0,0,3.2-5.945a.023.023,0,0,1-.008-.016q0-.117.148-.117a.064.064,0,0,1,.047.016A19.257,19.257,0,0,1,6.242-2.734,4.211,4.211,0,0,1,6.984-.562a1.487,1.487,0,0,1-.3.977.814.814,0,0,1-.648.3A.64.64,0,0,1,5.461.383,3.352,3.352,0,0,1,5.117-.656ZM-5.086-7.1a12.955,12.955,0,0,1-2.3,1.953.053.053,0,0,1-.039.016q-.133,0-.133-.109a.069.069,0,0,1,.008-.031A16.263,16.263,0,0,0-4.32-10.484a12.805,12.805,0,0,0,.781-2.828q2.133.6,2.133.9,0,.25-.609.383A18.821,18.821,0,0,1-4.031-8.367a3.207,3.207,0,0,1,.68.156.2.2,0,0,1,.117.18q0,.18-.414.367v8.3q0,.672-.828.672-.7,0-.7-.578.094-1.75.094-4.242Zm23.428-4h1.742v-1.055a7.607,7.607,0,0,0-.094-1.172q2.016.172,2.016.445,0,.172-.445.438V-11.1h1.68q.6-.734.781-.734a3.026,3.026,0,0,1,.961.656q.4.359.4.508,0,.281-.531.3a1.02,1.02,0,0,0-.4.211q-.5.375-1.133.781.07.039.4.273.352.258.352.43,0,.133-.383.4v.43l.031,2.2q0,.688-.836.688a.657.657,0,0,1-.516-.164.751.751,0,0,1-.117-.477v-.062H19.256v2.109h3.328q.672-.75.844-.75a2.533,2.533,0,0,1,.883.539q.367.3.367.469,0,.117-.414.461v.563l.047,2.93q0,.7-.883.7a.694.694,0,0,1-.539-.164A.714.714,0,0,1,22.756.7V.227h-3.5V.758q0,.719-.852.719-.672,0-.672-.578l.086-7.375q0-1.3-.055-2.594a.944.944,0,0,1-.461.125.656.656,0,0,1-.75-.734.768.768,0,0,1,.516-.758,1.513,1.513,0,0,0,.891-1.422.079.079,0,0,1,.086-.062.091.091,0,0,1,.094.063A4.941,4.941,0,0,1,18.342-11.1Zm.047.367a2.078,2.078,0,0,1,.016.258,2.042,2.042,0,0,1-.172.859,9.374,9.374,0,0,1,1.133.656h2.773q.562-.625.727-.625a.54.54,0,0,1,.242.063q.148-.5.3-1.211Zm.867,7.547V-.141h3.5V-3.187Zm2.992-2.844V-8.594H19.256v2.563ZM12.694-.812A18.863,18.863,0,0,0,15-1.391a5.715,5.715,0,0,0-1.07-1.547.1.1,0,0,1-.016-.055.083.083,0,0,1,.094-.094h.016a4.841,4.841,0,0,1,2.117,1.125A1.884,1.884,0,0,1,16.8-.6a1.173,1.173,0,0,1-.258.8.727.727,0,0,1-.57.258A.453.453,0,0,1,15.608.3a1.594,1.594,0,0,1-.2-.477,6.792,6.792,0,0,0-.258-.8A23.582,23.582,0,0,1,11.506.82q-.063.539-.312.539-.156,0-.32-.391-.156-.359-.516-1.477.031,0,.977-.1V-4.844q0-2.367-.062-4.289a12.164,12.164,0,0,1-1.078.641h-.016q-.109,0-.109-.141a.053.053,0,0,1,.016-.039,15.892,15.892,0,0,0,2.18-2.8,7.8,7.8,0,0,0,.875-1.969q1.383.578,1.672.719.266.141.266.242,0,.219-.562.234a5.346,5.346,0,0,1,1.688.781,1.043,1.043,0,0,1,.414.828.8.8,0,0,1-.219.563.6.6,0,0,1-.437.2.428.428,0,0,1-.359-.141,4.727,4.727,0,0,1-.359-.711,4.334,4.334,0,0,0-.93-1.328,11.9,11.9,0,0,1-2.719,2.688q.461.2,1.164.594h.563v-.977a9.15,9.15,0,0,0-.062-.945q1.8.156,1.8.414,0,.156-.414.352v1.156H15q.531-.578.7-.578a2.1,2.1,0,0,1,.8.484q.32.25.32.414,0,.148-.383.414v.625l.031,3.453q0,.609-.781.609a.676.676,0,0,1-.5-.133.593.593,0,0,1-.109-.406v-.227H12.694Zm2.383-5.875V-8.4H12.694v1.711Zm-2.383.367v1.844h2.383V-6.32Z" transform="translate(1404 2632)" fill="#fff"/>
    <path id="パス_12685" data-name="パス 12685" d="M-3740.938,12067.5H-3876v-1h135.061Z" transform="translate(5054 -9441)" fill="#fff"/>
    <path id="パス_13555" data-name="パス 13555" d="M4,0,8,7H0Z" transform="translate(1318 2622) rotate(90)" fill="#fff"/>
    <path id="パス_12685-2" data-name="パス 12685" d="M-3740.938,12067.5H-3876v-1h135.061Z" transform="translate(4742 -9439)" fill="#fff"/>
    <path id="パス_13557" data-name="パス 13557" d="M4,0,8,7H0Z" transform="translate(1006 2624) rotate(90)" fill="#fff"/>
    <path id="パス_13558" data-name="パス 13558" d="M-40.756-8.148a5.3,5.3,0,0,0-.068-1.162q-.1-.26-.69-.533-.15-.075-.15-.137,0-.089.157-.157a.984.984,0,0,1,.444-.109,2.421,2.421,0,0,1,1.053.376q.725.4.725.813a.6.6,0,0,1-.164.39,1,1,0,0,0-.1.479q-.062,1.723-.082,4.006,0,.6-.492.6-.342,0-.622-.506a1.629,1.629,0,0,1-.185-.786,1.314,1.314,0,0,1,.068-.4A3.462,3.462,0,0,0-40.8-5.92Q-40.756-6.72-40.756-8.148Zm3.938-1.285a2.588,2.588,0,0,0-.048-.615.432.432,0,0,0-.191-.267,2.2,2.2,0,0,0-.684-.267q-.157-.034-.157-.1,0-.1.226-.267a.735.735,0,0,1,.417-.123,2.906,2.906,0,0,1,1.2.294q.786.355.786.745a.552.552,0,0,1-.171.4,1.257,1.257,0,0,0-.15.772,22.866,22.866,0,0,1-.349,4.813,5.024,5.024,0,0,1-1.4,2.563A8.271,8.271,0,0,1-41.521.574a1.994,1.994,0,0,1-.267.041q-.185,0-.185-.123,0-.1.2-.171a7.084,7.084,0,0,0,4.143-3.233,7.584,7.584,0,0,0,.759-3.1Q-36.818-6.809-36.818-9.434Zm17.15,6.467A8.361,8.361,0,0,0-20.9-4.86q-.239-.232-.239-.273,0-.171.137-.171a.563.563,0,0,1,.28.082,6.9,6.9,0,0,1,2.6,2.215,2.322,2.322,0,0,1,.479,1.285.85.85,0,0,1-.239.649.772.772,0,0,1-.561.205q-.465,0-.745-.745l-.15-.465a1.893,1.893,0,0,0-.144-.369q-4.307.916-6.494,1.271a1.6,1.6,0,0,0-.629.2.54.54,0,0,1-.335.137q-.294,0-.656-.533A2.7,2.7,0,0,1-27.919-2a1.455,1.455,0,0,1-.123-.472q0-.506.253-.506.075,0,.178.2a.774.774,0,0,0,.28.328.83.83,0,0,0,.369.062q.26,0,.766-.041.246-.451.451-.909,1.23-2.755,1.914-4.806a3.742,3.742,0,0,0,.239-1,.427.427,0,0,0-.171-.349,1.455,1.455,0,0,0-.513-.28q-.144-.048-.144-.144,0-.13.294-.232a1.26,1.26,0,0,1,.451-.089,2.608,2.608,0,0,1,1.313.479,2.179,2.179,0,0,1,.6.479.68.68,0,0,1,.116.4.593.593,0,0,1-.321.485A4.062,4.062,0,0,0-22.82-7.1q-1.271,2.447-2.6,4.635Q-21.275-2.769-19.668-2.967ZM-10.6-9.42q-.144-.1-.144-.185,0-.109.239-.109a3.39,3.39,0,0,1,1.5.321q1,.513,1,1.135a.9.9,0,0,1-.212.629.687.687,0,0,1-.533.226.436.436,0,0,1-.321-.13,2.011,2.011,0,0,1-.267-.39A4.7,4.7,0,0,0-10.6-9.42Zm.923,8.777a.621.621,0,0,1-.506.28q-.383,0-.937-.629a2.215,2.215,0,0,1-.656-1.23.842.842,0,0,1,.082-.369q.062-.137.116-.137t.205.164q.5.561.813.561a2.3,2.3,0,0,0,.841-.28A21.147,21.147,0,0,0-6.285-4.368,39.962,39.962,0,0,0-2.471-7.574q.239-.239.328-.239.137,0,.137.144a.5.5,0,0,1-.1.239A18.558,18.558,0,0,1-5.348-3.794a28.683,28.683,0,0,1-3.9,2.816A1.324,1.324,0,0,0-9.676-.643Zm-2.673-5.8q-.2-.075-.2-.185,0-.137.39-.137a4.657,4.657,0,0,1,1.415.226q1.107.355,1.107,1.073a.908.908,0,0,1-.219.615.648.648,0,0,1-.513.239q-.321,0-.629-.492A3.663,3.663,0,0,0-12.348-6.439Zm7.937-3.63a2.747,2.747,0,0,1,.964.451,1.1,1.1,0,0,1,.52.841.5.5,0,0,1-.13.349.431.431,0,0,1-.335.144.531.531,0,0,1-.472-.321,5.869,5.869,0,0,0-.882-1.237Q-4.9-10-4.9-10.028q0-.1.171-.1A1.013,1.013,0,0,1-4.412-10.069Zm1.135-.937a3.254,3.254,0,0,1,1.114.41.829.829,0,0,1,.506.711.55.55,0,0,1-.144.4.393.393,0,0,1-.287.123.576.576,0,0,1-.52-.308,3.818,3.818,0,0,0-.978-1.094q-.171-.123-.171-.171,0-.109.116-.109A1.732,1.732,0,0,1-3.277-11.006ZM4.986-2.181a1.7,1.7,0,0,0,.711-.28A26.667,26.667,0,0,0,9.58-5.209a30.855,30.855,0,0,0,3.288-3.418q.1-.123.178-.123.144,0,.144.123a.513.513,0,0,1-.082.239A19.588,19.588,0,0,1,10.2-4.464,33.215,33.215,0,0,1,6.456-1.189a1.828,1.828,0,0,0-.362.335.71.71,0,0,1-.561.335,1.324,1.324,0,0,1-.854-.533,2.326,2.326,0,0,1-.786-1.3q0-.533.226-.533.062,0,.219.185Q4.836-2.181,4.986-2.181Zm-1.237-6.5a.163.163,0,0,1-.1-.144q0-.109.137-.109t.267.014a4.964,4.964,0,0,1,1.784.561,1.575,1.575,0,0,1,.964,1.4.777.777,0,0,1-.246.6.754.754,0,0,1-.513.185.715.715,0,0,1-.684-.52,4.982,4.982,0,0,0-.588-1A3.652,3.652,0,0,0,3.749-8.682ZM23.811-7.335a1.433,1.433,0,0,1,.465.109A7.216,7.216,0,0,1,26.744-5.8,3.054,3.054,0,0,1,27.96-3.862a1.056,1.056,0,0,1-.2.67.642.642,0,0,1-.533.253.684.684,0,0,1-.588-.294,4.968,4.968,0,0,1-.28-.547,9.064,9.064,0,0,0-1.1-1.859,7.283,7.283,0,0,0-1.333-1.319q-.253-.185-.253-.267Q23.674-7.335,23.811-7.335Zm-3.637.2a2.1,2.1,0,0,1,1.073.492q.759.533.759,1a.53.53,0,0,1-.321.485,3,3,0,0,0-.656.52,13.784,13.784,0,0,1-1.654,1.4,11.764,11.764,0,0,1-2.55,1.408,1.715,1.715,0,0,1-.54.157q-.185,0-.185-.123,0-.068.308-.28a16.2,16.2,0,0,0,2.181-1.777,12.355,12.355,0,0,0,1.36-1.579,1.642,1.642,0,0,0,.362-.759q0-.232-.52-.588-.137-.089-.137-.15t.205-.144A.892.892,0,0,1,20.174-7.137ZM25.506-9.42a2.827,2.827,0,0,1,.964.444,1.1,1.1,0,0,1,.52.841.5.5,0,0,1-.13.349.423.423,0,0,1-.328.144.535.535,0,0,1-.479-.321,5.846,5.846,0,0,0-.875-1.23q-.157-.157-.157-.185,0-.1.164-.1A1.013,1.013,0,0,1,25.506-9.42Zm1.148-.943a3.325,3.325,0,0,1,1.121.41.829.829,0,0,1,.506.711.55.55,0,0,1-.144.4.393.393,0,0,1-.287.123.576.576,0,0,1-.52-.308,3.818,3.818,0,0,0-.978-1.094q-.171-.123-.171-.171a.1.1,0,0,1,.109-.109A1.667,1.667,0,0,1,26.655-10.363ZM38.979-4.9q.9.369,1.688.786a8.438,8.438,0,0,1,1.347.854q1.176.9,1.176,1.593a.781.781,0,0,1-.212.567.58.58,0,0,1-.431.191.986.986,0,0,1-.868-.479,13.143,13.143,0,0,0-1.627-2.085,9.6,9.6,0,0,0-1.395-1.08A16.116,16.116,0,0,1,35.226-1.8,12.224,12.224,0,0,1,32.833-.7a.981.981,0,0,1-.314.068q-.137,0-.137-.123a.163.163,0,0,1,.1-.157A16.136,16.136,0,0,0,34.85-2.454a22.8,22.8,0,0,0,2.017-1.839A23.467,23.467,0,0,0,39.71-8a.423.423,0,0,0,.082-.164q0-.048-.1-.048a.748.748,0,0,0-.089.007q-1.572.178-3.35.554a2.147,2.147,0,0,0-.643.226,1.043,1.043,0,0,1-.492.15q-.41,0-.937-.656a1.421,1.421,0,0,1-.294-.9q0-.362.185-.362.048,0,.191.171a2.194,2.194,0,0,0,.506.444,1.016,1.016,0,0,0,.465.089q.239,0,1.06-.082,1.367-.15,3.083-.4a1.127,1.127,0,0,0,.561-.205.576.576,0,0,1,.4-.157,1.28,1.28,0,0,1,.745.376q.588.513.588.786t-.465.417a.928.928,0,0,0-.335.342A26.73,26.73,0,0,1,38.979-4.9Z" transform="translate(936 2612)" fill="#fff"/>
  </g>
</svg>
