<svg xmlns="http://www.w3.org/2000/svg" width="1040" height="76.799" viewBox="0 0 1040 76.799">
  <g id="グループ_7209" data-name="グループ 7209" transform="translate(-440 -1897.201)">
    <path id="パス_13492" data-name="パス 13492" d="M0,0H152V56H0Z" transform="translate(440 1918)" fill="#914831"/>
    <path id="パス_13493" data-name="パス 13493" d="M-8.558-7.891a12.973,12.973,0,0,1-.828,3.352A9.536,9.536,0,0,1-10.816-2.2a10.552,10.552,0,0,1-5.266,3.328q-.039.008-.086-.043a.155.155,0,0,1-.047-.105.053.053,0,0,1,.023-.047A11.041,11.041,0,0,0-11.042-4.5a13.137,13.137,0,0,0,.9-3.8H-14.4a13.756,13.756,0,0,0-1.453.094l-.18-.586a12.131,12.131,0,0,0,1.664.125h4.258q.125-1.414.125-2.961,0-.617-.062-1.484a15.106,15.106,0,0,1,1.914.328q.352.109.352.328T-8.339-12A32.407,32.407,0,0,1-8.48-8.672H-4.4q.945-1.234,1.148-1.234A4.651,4.651,0,0,1-2.1-9.039q.492.43.492.57,0,.164-.2.164H-8.323A10.082,10.082,0,0,0-5.339-3.023,10.537,10.537,0,0,0-1.323-.766a.078.078,0,0,1,.055.086.108.108,0,0,1-.07.117A1.855,1.855,0,0,0-2.456.719q-.094.32-.242.32A2.143,2.143,0,0,1-3.691.563,11.275,11.275,0,0,1-6.284-1.891,12.55,12.55,0,0,1-8.558-7.891ZM3.558-3.531v1.273L3.589.563q0,.656-.883.656-.656,0-.656-.578.1-3.328.1-8.867,0-3.7-.094-4.906.687.273,1.664.734H5.347q.563-.672.742-.672.164,0,.875.672.367.344.367.508,0,.266-.492.422A17.845,17.845,0,0,1,4.456-7.953a6.87,6.87,0,0,1,1.758,1.93A4.014,4.014,0,0,1,6.6-4.172a2.186,2.186,0,0,1-.562,1.648,1.7,1.7,0,0,1-1.258.445q-.219,0-.281-.086A.892.892,0,0,1,4.4-2.492,1.5,1.5,0,0,0,4.159-3.2,1.224,1.224,0,0,0,3.558-3.531Zm0-.227q1.148.047,1.227.047A.457.457,0,0,0,5.12-3.82a1.56,1.56,0,0,0,.18-.93,4.713,4.713,0,0,0-.281-1.742,5.688,5.688,0,0,0-.883-1.4,17.036,17.036,0,0,0,1.3-4.141H3.558Zm8.414,1.867A11.382,11.382,0,0,1,6.745,1.1q-.117.023-.117-.156A.061.061,0,0,1,6.652.891a12.789,12.789,0,0,0,4.586-3.852A15.188,15.188,0,0,1,9.589-7.844H9.12a19.145,19.145,0,0,1-.656,4.258A8.129,8.129,0,0,1,7.042-.82a8.387,8.387,0,0,1-2.07,1.914.087.087,0,0,1-.039.008Q4.8,1.1,4.8.977A.069.069,0,0,1,4.808.945,9.449,9.449,0,0,0,7.269-3.891a36.444,36.444,0,0,0,.4-6.3q0-1.1-.109-2.734a13.209,13.209,0,0,1,1.8.93h4.2q.875-1.023,1.055-1.023a3.687,3.687,0,0,1,1.086.7q.461.367.461.531t-.234.156H9.2v.414q0,1.813-.062,3.008H13.12q.727-.828.9-.828a3.18,3.18,0,0,1,.945.672q.367.3.367.508,0,.188-.5.461A12.128,12.128,0,0,1,12.8-2.883,8.331,8.331,0,0,0,16.6-.734q.047.008.047.07a.128.128,0,0,1-.078.133A1.376,1.376,0,0,0,16-.117a4.328,4.328,0,0,0-.359.852q-.094.289-.242.289a2.235,2.235,0,0,1-.875-.484A11.606,11.606,0,0,1,11.972-1.891ZM9.909-7.844A11.731,11.731,0,0,0,11.87-3.953a11.84,11.84,0,0,0,1.352-3.891Z" transform="translate(516 1952)" fill="#fff"/>
    <path id="パス_13494" data-name="パス 13494" d="M0,0H152V56H0Z" transform="translate(884 1918)" fill="#fff"/>
    <path id="パス_13495" data-name="パス 13495" d="M-27.04-6.516q2.945.6,2.945,2.984A3.27,3.27,0,0,1-25.22-.883a3.814,3.814,0,0,1-2.539.82A4.662,4.662,0,0,1-30.11-.687q-1.039-.648-1.039-1.344a.583.583,0,0,1,.344-.516,1.633,1.633,0,0,1,.8-.172.816.816,0,0,1,.7.492q.039.055.32.727a1.258,1.258,0,0,0,1.219.945,1.451,1.451,0,0,0,1.344-.922,4.691,4.691,0,0,0,.4-2.1,3.253,3.253,0,0,0-.477-1.82,1.64,1.64,0,0,0-1.453-.789q-.07,0-.164.008-.617.039-.719.039-.18,0-.18-.156a.767.767,0,0,1,.023-.164q.055-.367.3-.367l.609.047a1.53,1.53,0,0,0,1.281-.656A3.063,3.063,0,0,0-26.3-9.281a3.094,3.094,0,0,0-.391-1.656,1.082,1.082,0,0,0-.953-.586,1.243,1.243,0,0,0-1.2.719,2.193,2.193,0,0,0-.125.8.723.723,0,0,1-.391.648,1.59,1.59,0,0,1-.812.188q-.734,0-.734-.516a2.083,2.083,0,0,1,.992-1.6,3.657,3.657,0,0,1,2.273-.734,3.333,3.333,0,0,1,2.375.82,2.513,2.513,0,0,1,.789,1.93q0,2.07-2.562,2.672Zm9.452-5.5a2.985,2.985,0,0,1,2.734,1.82,8.94,8.94,0,0,1,.82,4.133A8.242,8.242,0,0,1-15.1-1.484,2.856,2.856,0,0,1-17.588-.062a2.979,2.979,0,0,1-2.766-1.773,8.866,8.866,0,0,1-.812-4.133A8.434,8.434,0,0,1-20.1-10.6,2.884,2.884,0,0,1-17.588-12.016Zm0,.492q-1.023,0-1.414,1.7a18.519,18.519,0,0,0-.289,3.813A15.59,15.59,0,0,0-18.9-1.852q.406,1.3,1.313,1.3,1,0,1.391-1.68a18.312,18.312,0,0,0,.289-3.781,16.12,16.12,0,0,0-.383-4.2Q-16.69-11.523-17.588-11.523ZM-6.527-6.914a4.542,4.542,0,0,1,1.961,1.6A3.773,3.773,0,0,1-4.1-3.344,3.083,3.083,0,0,1-5.16-.906a3.646,3.646,0,0,1-2.484.844,3.625,3.625,0,0,1-2.727-1.055,2.937,2.937,0,0,1-.844-2.1,2.481,2.481,0,0,1,.758-1.789A6.1,6.1,0,0,1-8.738-6.156,4.2,4.2,0,0,1-10.473-7.57a3.16,3.16,0,0,1-.422-1.7,2.482,2.482,0,0,1,1.039-2,3.435,3.435,0,0,1,2.227-.75,3.444,3.444,0,0,1,2.406.836,2.239,2.239,0,0,1,.789,1.727A2.158,2.158,0,0,1-5.02-7.906,5.106,5.106,0,0,1-6.527-6.914Zm-.461-.258A2.459,2.459,0,0,0-6-9.445a2.293,2.293,0,0,0-.523-1.586,1.426,1.426,0,0,0-1.1-.492,1.559,1.559,0,0,0-1.312.625,2.192,2.192,0,0,0-.414,1.375,1.657,1.657,0,0,0,.508,1.242A6.916,6.916,0,0,0-6.988-7.172ZM-8.27-5.906A2.307,2.307,0,0,0-9.324-4.664,4.486,4.486,0,0,0-9.52-3.2a3.114,3.114,0,0,0,.586,2.008,1.62,1.62,0,0,0,1.313.633,1.7,1.7,0,0,0,1.492-.789,3.125,3.125,0,0,0,.461-1.773,2.092,2.092,0,0,0-.656-1.555A7.677,7.677,0,0,0-8.27-5.906ZM4.7-6.531q-.609,1.508-.906,2.117H8.8q.719-.734.875-.734.172,0,.852.625.336.313.336.477,0,.125-.5.461A10.239,10.239,0,0,1,9.37.148a2.144,2.144,0,0,1-.914.906,2.52,2.52,0,0,1-1.2.258.5.5,0,0,1-.336-.078A.463.463,0,0,1,6.83.93,1.037,1.037,0,0,0,6.362.18,5.7,5.7,0,0,0,5.034-.414q-.047-.023-.047-.109,0-.148.078-.133,1.93.242,2.547.242Q8-.414,8.3-1.039a12.552,12.552,0,0,0,.609-3.008h-5.3q-.414.8-.641,1.2a1.021,1.021,0,0,1-.391.445.988.988,0,0,1-.453.086,1.477,1.477,0,0,1-.7-.141.347.347,0,0,1-.227-.3,1.424,1.424,0,0,1,.273-.625,18.459,18.459,0,0,0,1.6-3.141H.3a10.14,10.14,0,0,0-1.227.094l-.18-.586A7.963,7.963,0,0,0,.237-6.9H10.588q.953-1.148,1.148-1.148a4.185,4.185,0,0,1,1.094.8q.477.414.477.563t-.2.156ZM2.862-8.687v.2q0,.68-.914.68A.729.729,0,0,1,1.4-7.969a.524.524,0,0,1-.109-.367l.047-2.258q0-1.6-.094-2.672a14.478,14.478,0,0,1,1.844.852H8.815q.687-.781.859-.781a2.586,2.586,0,0,1,.883.594q.367.32.367.477,0,.242-.445.508v.516l.031,2.617q0,.656-.945.656-.609,0-.609-.523v-.336Zm6.094-.367v-2.992H2.862v2.992Zm17.9,3.133.031,3.156.047,2.609a1.444,1.444,0,0,1-.43,1.1,1.7,1.7,0,0,1-1.156.367.337.337,0,0,1-.281-.094.908.908,0,0,1-.117-.336A.906.906,0,0,0,24.571.25,4.561,4.561,0,0,0,23.5-.125q-.055-.016-.055-.094,0-.1.07-.1,1.117.094,1.727.094.266,0,.289-.3V-4.078a.853.853,0,0,1-.414.211A7.788,7.788,0,0,1,23.43-1.2,9.114,9.114,0,0,1,20.954.469a.032.032,0,0,1-.023.008q-.125,0-.125-.117a.045.045,0,0,1,.016-.031A8.784,8.784,0,0,0,23.657-4.3h-.9a3.574,3.574,0,0,0-.93.133L21.657-4.8a4.8,4.8,0,0,0,1.055.125h.883q.57-.7.75-.7.164,0,.883.656a1.6,1.6,0,0,1,.3.336V-6.7H24.36v.164q0,.555-.812.555-.578,0-.578-.461l.063-3.57q0-1.281-.062-2.3a14.846,14.846,0,0,1,1.57.781h.734q.117-.594.148-.828.07-.531.094-1.117,1.906.461,1.906.734,0,.25-.562.273a9.737,9.737,0,0,1-1.008.938h2.156q.688-.719.852-.719.18,0,.852.578.352.3.352.461a.276.276,0,0,1-.066.191,3.747,3.747,0,0,1-.4.324v.656l.063,3.438a.477.477,0,0,1-.289.484q1.023.609,1.313.828.273.2.273.336,0,.25-.656.289A15.948,15.948,0,0,1,28.235-3.5a6.946,6.946,0,0,0,3.133,2.156q.055.023.055.063t-.055.078A2.215,2.215,0,0,0,30.423.031q-.133.43-.32.43-.141,0-.414-.273a8.253,8.253,0,0,1-1.8-2.43A14.375,14.375,0,0,1,26.86-5.922Zm1.18,2.148a8.575,8.575,0,0,0,.742-1.07,5.828,5.828,0,0,0,.555-1.266,1.365,1.365,0,0,1-.477.078.741.741,0,0,1-.523-.141.539.539,0,0,1-.117-.391V-6.7H26.907A8.3,8.3,0,0,0,28.04-3.773Zm.18-3.3V-9.023H24.36V-7.07Zm0-2.32v-1.781H24.36v1.781ZM18.86-5.711q-.242.047-.711.148-.562.125-.758.172-.141.445-.336.445-.172,0-.3-.383-.109-.359-.3-1.359.4.031.828.031h.852a20.574,20.574,0,0,0,1.6-2.9,10.414,10.414,0,0,0,.656-1.727q1.742.8,1.742,1.1,0,.266-.625.242Q20.595-8.7,20.055-8.086q-.5.555-1.422,1.43.867-.016,2.516-.078a4.188,4.188,0,0,0-.562-1.281.076.076,0,0,1-.016-.039q0-.07.1-.07a.087.087,0,0,1,.039.008q1.813,1.016,1.813,2.1a.967.967,0,0,1-.234.664.607.607,0,0,1-.469.234.453.453,0,0,1-.422-.258,2.46,2.46,0,0,1-.172-.836l-.016-.156q-.867.289-1.039.336V-3.8L20.22.75q0,.625-.812.625-.641,0-.641-.516.094-1.984.094-3.484V-3.664a.931.931,0,0,1-.414.156A11.18,11.18,0,0,1,16.462.133a.061.061,0,0,1-.055.023q-.125,0-.125-.094A.032.032,0,0,1,16.29.039a17.012,17.012,0,0,0,.664-2.617,11.087,11.087,0,0,0,.227-2,6.846,6.846,0,0,1,1.68.625Zm-.812-4.734q.234-.617.523-1.6.211-.844.3-1.422,1.9.672,1.9.938t-.633.273A23.827,23.827,0,0,1,18.4-10.242a1.385,1.385,0,0,1,.68,1.188.921.921,0,0,1-.234.656.639.639,0,0,1-.484.219.462.462,0,0,1-.422-.172,3.81,3.81,0,0,1-.3-.789,3.611,3.611,0,0,0-.937-1.617.075.075,0,0,1-.023-.055q0-.125.117-.1A7.037,7.037,0,0,1,18.048-10.445ZM22.22-2.453a1.052,1.052,0,0,1-.219.7.647.647,0,0,1-.516.227.433.433,0,0,1-.437-.289,2.923,2.923,0,0,1-.125-.766,4.546,4.546,0,0,0-.477-1.937.032.032,0,0,1-.008-.023q0-.07.086-.07a.084.084,0,0,1,.047.016Q22.22-3.453,22.22-2.453Z" transform="translate(960 1952)" fill="#111"/>
    <path id="パス_13496" data-name="パス 13496" d="M0,0H152V56H0Z" transform="translate(1328 1918)" fill="#c89932"/>
    <path id="パス_13497" data-name="パス 13497" d="M-17.358-7.891a12.973,12.973,0,0,1-.828,3.352A9.536,9.536,0,0,1-19.616-2.2a10.552,10.552,0,0,1-5.266,3.328q-.039.008-.086-.043a.155.155,0,0,1-.047-.105.053.053,0,0,1,.023-.047A11.041,11.041,0,0,0-19.842-4.5a13.137,13.137,0,0,0,.9-3.8H-23.2a13.756,13.756,0,0,0-1.453.094l-.18-.586a12.131,12.131,0,0,0,1.664.125h4.258q.125-1.414.125-2.961,0-.617-.062-1.484a15.105,15.105,0,0,1,1.914.328q.352.109.352.328t-.555.461a32.407,32.407,0,0,1-.141,3.328H-13.2q.945-1.234,1.148-1.234a4.651,4.651,0,0,1,1.156.867q.492.43.492.57,0,.164-.2.164h-6.516a10.082,10.082,0,0,0,2.984,5.281A10.537,10.537,0,0,0-10.123-.766a.078.078,0,0,1,.055.086.108.108,0,0,1-.07.117A1.855,1.855,0,0,0-11.256.719q-.094.32-.242.32a2.143,2.143,0,0,1-.992-.477,11.275,11.275,0,0,1-2.594-2.453A12.55,12.55,0,0,1-17.358-7.891ZM4.977-1.328A44.642,44.642,0,0,1-1.828.227,1.793,1.793,0,0,1-1.992.75a.22.22,0,0,1-.2.1q-.187,0-.312-.359-.109-.32-.516-1.9.617.063.992.063h.352a50.01,50.01,0,0,0,2.3-8.781,26.9,26.9,0,0,0,.289-2.789q1.727.375,2.133.523.336.125.336.313,0,.289-.633.477A48.784,48.784,0,0,1,.992-5.68,34.545,34.545,0,0,1-.992-1.359a55.791,55.791,0,0,0,5.852-.4A18.7,18.7,0,0,0,3.2-5.945a.023.023,0,0,1-.008-.016q0-.117.148-.117a.064.064,0,0,1,.047.016A19.257,19.257,0,0,1,6.242-2.734,4.211,4.211,0,0,1,6.984-.562a1.487,1.487,0,0,1-.3.977.814.814,0,0,1-.648.3A.64.64,0,0,1,5.461.383,3.352,3.352,0,0,1,5.117-.656ZM-5.086-7.1a12.955,12.955,0,0,1-2.3,1.953.053.053,0,0,1-.039.016q-.133,0-.133-.109a.069.069,0,0,1,.008-.031A16.263,16.263,0,0,0-4.32-10.484a12.805,12.805,0,0,0,.781-2.828q2.133.6,2.133.9,0,.25-.609.383A18.821,18.821,0,0,1-4.031-8.367a3.207,3.207,0,0,1,.68.156.2.2,0,0,1,.117.18q0,.18-.414.367v8.3q0,.672-.828.672-.7,0-.7-.578.094-1.75.094-4.242Zm23.428-4h1.742v-1.055a7.607,7.607,0,0,0-.094-1.172q2.016.172,2.016.445,0,.172-.445.438V-11.1h1.68q.6-.734.781-.734a3.026,3.026,0,0,1,.961.656q.4.359.4.508,0,.281-.531.3a1.02,1.02,0,0,0-.4.211q-.5.375-1.133.781.07.039.4.273.352.258.352.43,0,.133-.383.4v.43l.031,2.2q0,.688-.836.688a.657.657,0,0,1-.516-.164.751.751,0,0,1-.117-.477v-.062H19.256v2.109h3.328q.672-.75.844-.75a2.533,2.533,0,0,1,.883.539q.367.3.367.469,0,.117-.414.461v.563l.047,2.93q0,.7-.883.7a.694.694,0,0,1-.539-.164A.714.714,0,0,1,22.756.7V.227h-3.5V.758q0,.719-.852.719-.672,0-.672-.578l.086-7.375q0-1.3-.055-2.594a.944.944,0,0,1-.461.125.656.656,0,0,1-.75-.734.768.768,0,0,1,.516-.758,1.513,1.513,0,0,0,.891-1.422.079.079,0,0,1,.086-.062.091.091,0,0,1,.094.063A4.941,4.941,0,0,1,18.342-11.1Zm.047.367a2.078,2.078,0,0,1,.016.258,2.042,2.042,0,0,1-.172.859,9.374,9.374,0,0,1,1.133.656h2.773q.562-.625.727-.625a.54.54,0,0,1,.242.063q.148-.5.3-1.211Zm.867,7.547V-.141h3.5V-3.187Zm2.992-2.844V-8.594H19.256v2.563ZM12.694-.812A18.863,18.863,0,0,0,15-1.391a5.715,5.715,0,0,0-1.07-1.547.1.1,0,0,1-.016-.055.083.083,0,0,1,.094-.094h.016a4.841,4.841,0,0,1,2.117,1.125A1.884,1.884,0,0,1,16.8-.6a1.173,1.173,0,0,1-.258.8.727.727,0,0,1-.57.258A.453.453,0,0,1,15.608.3a1.594,1.594,0,0,1-.2-.477,6.792,6.792,0,0,0-.258-.8A23.582,23.582,0,0,1,11.506.82q-.063.539-.312.539-.156,0-.32-.391-.156-.359-.516-1.477.031,0,.977-.1V-4.844q0-2.367-.062-4.289a12.164,12.164,0,0,1-1.078.641h-.016q-.109,0-.109-.141a.053.053,0,0,1,.016-.039,15.892,15.892,0,0,0,2.18-2.8,7.8,7.8,0,0,0,.875-1.969q1.383.578,1.672.719.266.141.266.242,0,.219-.562.234a5.346,5.346,0,0,1,1.688.781,1.043,1.043,0,0,1,.414.828.8.8,0,0,1-.219.563.6.6,0,0,1-.437.2.428.428,0,0,1-.359-.141,4.727,4.727,0,0,1-.359-.711,4.334,4.334,0,0,0-.93-1.328,11.9,11.9,0,0,1-2.719,2.688q.461.2,1.164.594h.563v-.977a9.15,9.15,0,0,0-.062-.945q1.8.156,1.8.414,0,.156-.414.352v1.156H15q.531-.578.7-.578a2.1,2.1,0,0,1,.8.484q.32.25.32.414,0,.148-.383.414v.625l.031,3.453q0,.609-.781.609a.676.676,0,0,1-.5-.133.593.593,0,0,1-.109-.406v-.227H12.694Zm2.383-5.875V-8.4H12.694v1.711Zm-2.383.367v1.844h2.383V-6.32Z" transform="translate(1404 1952)" fill="#fff"/>
    <path id="パス_13498" data-name="パス 13498" d="M-21.282-5.811a20.388,20.388,0,0,0,1.641-2.646A8.629,8.629,0,0,0-19-9.9q1.565.718,1.565.937,0,.2-.458.2h-.082Q-19.135-7.4-19.532-7q-.383.383-1.312,1.189.793,0,2.393-.055a3.6,3.6,0,0,0-.608-1.189.061.061,0,0,1-.007-.027q0-.075.1-.075a.076.076,0,0,1,.034.007q1.764.957,1.764,1.982a.954.954,0,0,1-.2.629.558.558,0,0,1-.431.2.431.431,0,0,1-.41-.205,2.129,2.129,0,0,1-.178-.827L-18.4-5.53q-.308.109-.923.28v1.935L-19.279.67q0,.533-.738.533-.561,0-.561-.431Q-20.5-.506-20.5-2.27v-2.7Q-21-4.86-21.979-4.7q-.137.39-.308.39-.137,0-.253-.342t-.267-1.183q.362.027.745.027Zm5.715-2.659A8.526,8.526,0,0,1-17.419-6.3a.074.074,0,0,1-.041.014q-.123,0-.123-.089a.052.052,0,0,1,.007-.021A13.384,13.384,0,0,0-16.2-9.871a9.772,9.772,0,0,0,.335-1.8q1.914.492,1.914.745t-.554.335a14.135,14.135,0,0,1-.868,1.8h3.315q.615-.725.772-.725t.793.588q.335.294.335.444,0,.109-.431.417-.082,2.755-.239,4.307a21.867,21.867,0,0,1-.485,3.015,2.143,2.143,0,0,1-.9,1.36,2.062,2.062,0,0,1-1.176.321.407.407,0,0,1-.294-.075.8.8,0,0,1-.109-.314,1.027,1.027,0,0,0-.458-.684,4.818,4.818,0,0,0-1.107-.424Q-15.4-.574-15.4-.677t.055-.109q1.224.109,1.62.109a2.349,2.349,0,0,0,.9-.109.523.523,0,0,0,.232-.342A32.954,32.954,0,0,0-11.91-8.47Zm-5.722-.772a14.18,14.18,0,0,0,.615-1.661,6.6,6.6,0,0,0,.205-.854q1.661.588,1.661.868,0,.232-.554.232a18.23,18.23,0,0,1-1.593,1.613,1.271,1.271,0,0,1,.663,1.06.891.891,0,0,1-.205.622.589.589,0,0,1-.451.191.533.533,0,0,1-.451-.164,2.829,2.829,0,0,1-.273-.718,3.37,3.37,0,0,0-.923-1.511.046.046,0,0,1-.021-.041q0-.1.1-.082A8.19,8.19,0,0,1-21.288-9.242Zm7.608,4.9a.991.991,0,0,1-.239.677.68.68,0,0,1-.526.246q-.438,0-.561-.615a9.868,9.868,0,0,0-.52-1.5,3.246,3.246,0,0,0-.6-.889.084.084,0,0,1-.014-.048.073.073,0,0,1,.082-.082h.014a3.98,3.98,0,0,1,1.764.991A1.749,1.749,0,0,1-13.68-4.341Zm-3.514,2.563a1,1,0,0,1-.212.663.6.6,0,0,1-.472.219.422.422,0,0,1-.41-.26,2.907,2.907,0,0,1-.191-.889A4.309,4.309,0,0,0-19.1-3.937a.039.039,0,0,1-.014-.027q0-.068.082-.068a.074.074,0,0,1,.041.014Q-17.194-2.905-17.194-1.777Zm-3.391-1.613q0,.185-.4.267A7.9,7.9,0,0,1-22.9.185.056.056,0,0,1-22.943.2a.079.079,0,0,1-.089-.089.052.052,0,0,1,.007-.021,11.142,11.142,0,0,0,.786-2.639,6.617,6.617,0,0,0,.116-1.244q0-.1.007-.226,1.073.314,1.333.431Q-20.584-3.5-20.584-3.391ZM-3.906-5.7q2.577.526,2.577,2.611A2.861,2.861,0,0,1-2.313-.772a3.337,3.337,0,0,1-2.222.718A4.079,4.079,0,0,1-6.593-.6Q-7.5-1.169-7.5-1.777a.51.51,0,0,1,.3-.451,1.429,1.429,0,0,1,.7-.15.714.714,0,0,1,.615.431q.034.048.28.636a1.1,1.1,0,0,0,1.066.827,1.27,1.27,0,0,0,1.176-.807,4.105,4.105,0,0,0,.349-1.839,2.846,2.846,0,0,0-.417-1.593A1.435,1.435,0,0,0-4.7-5.414q-.062,0-.144.007-.54.034-.629.034-.157,0-.157-.137a.671.671,0,0,1,.021-.144q.048-.321.267-.321l.533.041a1.339,1.339,0,0,0,1.121-.574,2.68,2.68,0,0,0,.431-1.613A2.707,2.707,0,0,0-3.6-9.57a.947.947,0,0,0-.834-.513,1.087,1.087,0,0,0-1.053.629,1.919,1.919,0,0,0-.109.7.633.633,0,0,1-.342.567,1.391,1.391,0,0,1-.711.164q-.643,0-.643-.451a1.822,1.822,0,0,1,.868-1.4,3.2,3.2,0,0,1,1.989-.643A2.917,2.917,0,0,1-2.354-9.8a2.2,2.2,0,0,1,.69,1.688q0,1.812-2.242,2.338ZM2.566-8.846l-.2,2.516q-.007.109-.041.355T2.286-5.6a2.788,2.788,0,0,1,2.208-.868,2.636,2.636,0,0,1,2.16.943,3.21,3.21,0,0,1,.67,2.1,3.39,3.39,0,0,1-.93,2.509,3.063,3.063,0,0,1-2.276.861A3.975,3.975,0,0,1,2.142-.533q-.95-.547-.95-1.189a.48.48,0,0,1,.294-.417A1.416,1.416,0,0,1,2.2-2.3a.733.733,0,0,1,.629.417,4.941,4.941,0,0,1,.28.622,1.068,1.068,0,0,0,1.012.772,1.3,1.3,0,0,0,1.224-.943,5.216,5.216,0,0,0,.314-1.982A3.056,3.056,0,0,0,5.1-5.353a1.352,1.352,0,0,0-1.087-.581A1.939,1.939,0,0,0,2.245-4.915q-.075.13-.171.13a.678.678,0,0,1-.212-.055q-.178-.082-.178-.191a.576.576,0,0,1,.014-.1q.068-.28.082-.39L2.115-9.98a.31.31,0,0,1,.082-.185.285.285,0,0,1,.2-.082q.561.014,2.194.014,1.142,0,2.379-.055.13,0,.13.089,0,.014,0,.021L6.64-8.914a.145.145,0,0,1-.144.1q-1.121-.027-1.415-.027ZM16.011-5.571a7.367,7.367,0,0,1-1.846,4.553,8.439,8.439,0,0,1-3.979,2.126q-.1.021-.1-.123a.053.053,0,0,1,.021-.048,8.935,8.935,0,0,0,3.329-2.905,8.194,8.194,0,0,0,1.114-3.6H13.5a6.885,6.885,0,0,0-1.176.109l-.157-.561a6.786,6.786,0,0,0,1.292.13h5.3q.629-.615.766-.615.157,0,.8.561.335.314.335.444t-.4.41a18.141,18.141,0,0,1-.731,4.71,2.174,2.174,0,0,1-.643.957,1.843,1.843,0,0,1-1.2.39A.663.663,0,0,1,17.3.9.6.6,0,0,1,17.16.574a.979.979,0,0,0-.472-.608A5.269,5.269,0,0,0,15.56-.485q-.041-.007-.041-.1,0-.157.068-.144a15.618,15.618,0,0,0,2.078.232.523.523,0,0,0,.472-.267,3.685,3.685,0,0,0,.314-.9,23.348,23.348,0,0,0,.458-3.917ZM23.127-6.72q.041.007.041.089,0,.109-.062.123a.884.884,0,0,0-.54.314,1.946,1.946,0,0,0-.287.663q-.089.4-.232.4a1.556,1.556,0,0,1-.615-.308A9.7,9.7,0,0,1,19.921-6.72,7.932,7.932,0,0,1,18.67-8.456a19.811,19.811,0,0,1-.991-2.256.71.71,0,0,0-.185-.253.177.177,0,0,1-.109-.15q0-.089.226-.178a.873.873,0,0,1,.321-.075q.137,0,.137.109L18-11.006a.8.8,0,0,0,.082.308,7.3,7.3,0,0,0,2.058,2.6A7.4,7.4,0,0,0,23.127-6.72Zm-7.267-3.89q0,.267-.574.308a13.306,13.306,0,0,1-2.413,3.356,12.228,12.228,0,0,1-2.905,2.01.028.028,0,0,1-.021.007q-.109,0-.109-.123a.046.046,0,0,1,.014-.034,12.94,12.94,0,0,0,3.391-4.348,9.159,9.159,0,0,0,.725-2.044Q15.861-10.855,15.861-10.609Z" transform="translate(738 1967)" fill="#fff"/>
    <path id="パス_12685" data-name="パス 12685" d="M-3616.505,12067.5H-3876v-1h259.495Z" transform="translate(4482 -10122)" fill="#fff"/>
    <path id="パス_13499" data-name="パス 13499" d="M4,0,8,7H0Z" transform="translate(870 1941) rotate(90)" fill="#fff"/>
    <path id="パス_13500" data-name="パス 13500" d="M-74.895-3.09v1.114l.027,2.468q0,.574-.772.574-.574,0-.574-.506.089-2.912.089-7.759,0-3.24-.082-4.293.6.239,1.456.643h1.422q.492-.588.649-.588t.766.588q.321.3.321.444,0,.232-.431.369a15.614,15.614,0,0,1-2.085,3.076A6.012,6.012,0,0,1-72.57-5.271a3.512,3.512,0,0,1,.335,1.62,1.913,1.913,0,0,1-.492,1.442,1.488,1.488,0,0,1-1.1.39q-.191,0-.246-.075a.781.781,0,0,1-.082-.287,1.313,1.313,0,0,0-.212-.622A1.071,1.071,0,0,0-74.895-3.09Zm0-.2q1,.041,1.073.041a.4.4,0,0,0,.294-.1,1.365,1.365,0,0,0,.157-.813,4.123,4.123,0,0,0-.246-1.524A4.977,4.977,0,0,0-74.389-6.9a14.907,14.907,0,0,0,1.135-3.623h-1.641Zm7.362,1.634A9.959,9.959,0,0,1-72.105.964q-.1.021-.1-.137a.053.053,0,0,1,.021-.048,11.19,11.19,0,0,0,4.013-3.37,13.29,13.29,0,0,1-1.442-4.272h-.41A16.752,16.752,0,0,1-70.6-3.138a7.113,7.113,0,0,1-1.244,2.42A7.338,7.338,0,0,1-73.657.957a.076.076,0,0,1-.034.007q-.116,0-.116-.109A.061.061,0,0,1-73.8.827,8.268,8.268,0,0,0-71.647-3.4,31.889,31.889,0,0,0-71.3-8.921q0-.964-.1-2.393a11.558,11.558,0,0,1,1.579.813h3.671q.766-.9.923-.9a3.226,3.226,0,0,1,.95.615q.4.321.4.465t-.205.137h-5.886v.362q0,1.586-.055,2.632h3.486q.636-.725.786-.725a2.782,2.782,0,0,1,.827.588q.321.267.321.444t-.437.4a10.612,10.612,0,0,1-1.777,3.951,7.289,7.289,0,0,0,3.322,1.88q.041.007.041.062a.112.112,0,0,1-.068.116,1.2,1.2,0,0,0-.5.362,3.787,3.787,0,0,0-.314.745Q-64.408.9-64.538.9A1.956,1.956,0,0,1-65.3.472,10.155,10.155,0,0,1-67.532-1.654Zm-1.8-5.209a10.265,10.265,0,0,0,1.716,3.4,10.36,10.36,0,0,0,1.183-3.4Zm9.808,2.133a9.214,9.214,0,0,1-1.921,1.21s0,.007-.014.007q-.123,0-.123-.13a.039.039,0,0,1,.014-.027,10.73,10.73,0,0,0,2.2-2.4,11.938,11.938,0,0,0,1.381-2.6H-60.3a3.916,3.916,0,0,0-.882.109l-.15-.54a5.42,5.42,0,0,0,1.032.109h.745v-1.565a8.131,8.131,0,0,0-.1-1.224q1.8.171,1.8.465,0,.219-.465.4v1.921H-58q.479-.547.629-.547t.731.574q.294.314.294.451,0,.178-.465.349a9.928,9.928,0,0,1-1.5,2.283v.232q1.976.561,1.976,1.545a.713.713,0,0,1-.185.506.532.532,0,0,1-.39.164.425.425,0,0,1-.335-.123,1.665,1.665,0,0,1-.226-.437,3.624,3.624,0,0,0-.841-1.347v1.7L-58.257.6q0,.574-.725.574-.629,0-.629-.52.082-1.572.082-3.11Zm7.588,1.552Q-51.9-.5-51.9.506q0,.656-.766.656a.712.712,0,0,1-.513-.137.679.679,0,0,1-.116-.451q0-.2.014-1.463.021-1.21.027-2.29H-54.8v.2q0,.561-.684.561-.6,0-.6-.437l.055-4.17q0-1.606-.068-2.775.964.485,1.408.745h1.463v-.267q0-1.7-.082-2.461a11.549,11.549,0,0,1,1.565.205q.267.082.267.267,0,.219-.492.41v1.846h1.641q.574-.67.725-.67t.731.52q.294.273.294.417,0,.205-.424.431v.9q0,2.522.089,4.539,0,.547-.745.547-.574,0-.574-.492v-.308Zm0-.321h1.709V-6.063h-1.723v.95Zm-1.312,0q.014-.854.014-2.563H-54.8V-3.5Zm1.285-2.885h1.736V-8.736h-1.736Zm-1.258,0V-8.736H-54.8v2.352ZM-40.3-10.069v-.868a4.5,4.5,0,0,0-.075-.827q1.921.171,1.921.465,0,.191-.492.39v.841h3.418q.875-.95,1.032-.95a3.47,3.47,0,0,1,.93.656q.4.349.4.479t-.185.137H-44.573a7.312,7.312,0,0,0-.978.082l-.157-.513a6.211,6.211,0,0,0,1.121.109Zm2.153,9h-2.9v.335a.462.462,0,0,1-.191.431,1.082,1.082,0,0,1-.547.1A.556.556,0,0,1-42.2-.314a.518.518,0,0,1-.089-.349l.027-1.914q0-.779-.055-1.408.711.3,1.367.615h2.707q.492-.533.643-.533a2.082,2.082,0,0,1,.738.492q.294.253.294.39,0,.178-.362.417v.267l.041,1.354q0,.52-.711.52-.547,0-.547-.4Zm0-.321V-3.049h-2.9v1.661Zm.854-4.744h-4.594v.109q0,.52-.752.52-.533,0-.533-.492l.027-2.1q0-.349-.027-1.128a13.492,13.492,0,0,1,1.381.67h4.4q.5-.615.656-.615a2.209,2.209,0,0,1,.772.479q.321.246.321.39,0,.171-.383.376v.294l.027,1.5a.548.548,0,0,1-.2.485,1.066,1.066,0,0,1-.567.116.586.586,0,0,1-.431-.123.534.534,0,0,1-.1-.369Zm0-.321V-8.23h-4.594v1.777Zm3.671,1.846q0,.212-.451.438v.684l.041,3.445a1.32,1.32,0,0,1-.137.663,1.022,1.022,0,0,1-.4.355,1.746,1.746,0,0,1-.9.239.26.26,0,0,1-.212-.075.86.86,0,0,1-.109-.314A.842.842,0,0,0-36.1.273a3.814,3.814,0,0,0-.909-.383.09.09,0,0,1-.055-.1q0-.075.055-.075.978.082,1.5.082.185,0,.185-.178V-4.607h-8.388v5.2q0,.6-.786.6a.6.6,0,0,1-.458-.137.6.6,0,0,1-.1-.4l.048-4.648q0-.827-.048-1.634a10.405,10.405,0,0,1,1.442.7h8.2q.554-.6.7-.6a2.451,2.451,0,0,1,.786.506Q-33.622-4.744-33.622-4.607Zm10.43-3.418V-9.55h-2.536a7.312,7.312,0,0,0-.978.082l-.157-.513a6.357,6.357,0,0,0,1.135.109h2.536v-.854q0-.349-.041-.978a7.844,7.844,0,0,1,1.367.178q.239.075.239.226t-.362.308v1.121h2.167q.656-.882.841-.882a2.965,2.965,0,0,1,.875.615q.383.321.383.451t-.185.137h-4.081v1.524h1.743q.574-.588.718-.588a2.085,2.085,0,0,1,.745.444q.308.232.308.383,0,.178-.369.4v.4l.027,1.928q0,.533-.725.533-.574,0-.574-.39v-.239h-1.873v.772a9.441,9.441,0,0,1,2.823,1.066,1.365,1.365,0,0,1,.69,1.142.776.776,0,0,1-.212.574.616.616,0,0,1-.465.185.53.53,0,0,1-.369-.144,2.151,2.151,0,0,1-.355-.458,6.611,6.611,0,0,0-1-1.271A6.012,6.012,0,0,0-21.988-4.1v.547l.068,2.331q0,.52-.738.52-.588,0-.588-.444,0-.7.068-2.591a8.21,8.21,0,0,1-3.705,2.29.028.028,0,0,1-.021.007q-.082,0-.082-.089a.046.046,0,0,1,.021-.041A11.239,11.239,0,0,0-24.894-3.3a9.387,9.387,0,0,0,1.278-1.853h-1.326V-5q0,.5-.684.5-.574,0-.574-.431l.041-1.723q0-1.155-.075-1.976.82.321,1.415.6Zm1.2,2.55h1.873V-7.7h-1.873Zm-1.2,0V-7.7h-1.75v2.229Zm-4.272-3.979a.85.85,0,0,1-.232.629.717.717,0,0,1-.54.212.487.487,0,0,1-.41-.2,2.346,2.346,0,0,1-.273-.67,3.725,3.725,0,0,0-.9-1.634.073.073,0,0,1-.014-.041q0-.089.109-.089h.021Q-27.464-10.691-27.464-9.454Zm9.912,8.894A.977.977,0,0,0-18.1.226a1.046,1.046,0,0,1-.1.424.321.321,0,0,1-.239.075,32.4,32.4,0,0,1-3.377.13,11.061,11.061,0,0,1-4.4-.6A3.386,3.386,0,0,1-27.84-1.921a11.746,11.746,0,0,1-1.613,2.1,1.779,1.779,0,0,1,.021.246q0,.4-.253.4-.28,0-1.039-1.723A6.613,6.613,0,0,0-29.7-1.258a5.716,5.716,0,0,0,.95-.547V-5.462h-.971a2.818,2.818,0,0,0-.766.116l-.157-.561a3.648,3.648,0,0,0,.923.123h.882q.567-.643.718-.643a2.333,2.333,0,0,1,.766.492q.321.26.321.4,0,.1-.417.444v3.24a3.177,3.177,0,0,0,.622.8,2.254,2.254,0,0,0,.7.362,11.679,11.679,0,0,0,3.179.321,52.845,52.845,0,0,0,5.38-.355q.055-.014.055.068A.09.09,0,0,1-17.552-.561Zm6.308-10.021q.226,0,.226.164-.007.376-.034,1.641-.021.841-.021,1.456v4.382q0,1.094.027,1.388a1.356,1.356,0,0,0,.13.472.6.6,0,0,0,.465.28q.137.027.725.089Q-9.6-.7-9.6-.506t-.123.2Q-10.7-.349-11.8-.349q-1.135,0-2.126.041-.144,0-.144-.2t.144-.205a5.9,5.9,0,0,0,.8-.1.51.51,0,0,0,.383-.273A6.434,6.434,0,0,0-12.6-2.939V-7.95a2.306,2.306,0,0,0-.144-1.073q-.075-.13-.328-.13a1.838,1.838,0,0,0-.492.082l-.547.15a.481.481,0,0,1-.1.021q-.1,0-.144-.171a.657.657,0,0,1-.021-.123q0-.082.15-.13Q-12.816-9.837-11.244-10.582ZM-2.9-5.7Q-.321-5.175-.321-3.09A2.861,2.861,0,0,1-1.306-.772a3.337,3.337,0,0,1-2.222.718A4.079,4.079,0,0,1-5.585-.6q-.909-.567-.909-1.176a.51.51,0,0,1,.3-.451,1.429,1.429,0,0,1,.7-.15.714.714,0,0,1,.615.431q.034.048.28.636a1.1,1.1,0,0,0,1.066.827,1.27,1.27,0,0,0,1.176-.807A4.105,4.105,0,0,0-2-3.131,2.846,2.846,0,0,0-2.42-4.724a1.435,1.435,0,0,0-1.271-.69q-.062,0-.144.007-.54.034-.629.034-.157,0-.157-.137A.671.671,0,0,1-4.6-5.653q.048-.321.267-.321l.533.041A1.339,1.339,0,0,0-2.68-6.508a2.68,2.68,0,0,0,.431-1.613A2.707,2.707,0,0,0-2.591-9.57a.947.947,0,0,0-.834-.513,1.087,1.087,0,0,0-1.053.629,1.919,1.919,0,0,0-.109.7.633.633,0,0,1-.342.567,1.391,1.391,0,0,1-.711.164q-.643,0-.643-.451a1.822,1.822,0,0,1,.868-1.4,3.2,3.2,0,0,1,1.989-.643A2.917,2.917,0,0,1-1.347-9.8a2.2,2.2,0,0,1,.69,1.688Q-.656-6.3-2.9-5.77ZM7.457-5.715Q6.923-4.4,6.664-3.862h4.382q.629-.643.766-.643t.745.547q.294.273.294.417,0,.109-.437.4A8.959,8.959,0,0,1,11.545.13a1.876,1.876,0,0,1-.8.793A2.205,2.205,0,0,1,9.7,1.148.437.437,0,0,1,9.4,1.08.405.405,0,0,1,9.323.813a.907.907,0,0,0-.41-.656,4.991,4.991,0,0,0-1.162-.52q-.041-.021-.041-.1,0-.13.068-.116,1.688.212,2.229.212.342,0,.6-.547a10.983,10.983,0,0,0,.533-2.632H6.506q-.362.7-.561,1.046a.893.893,0,0,1-.342.39.864.864,0,0,1-.4.075,1.292,1.292,0,0,1-.615-.123.3.3,0,0,1-.2-.267,1.246,1.246,0,0,1,.239-.547,16.152,16.152,0,0,0,1.4-2.748H3.608a8.872,8.872,0,0,0-1.073.082l-.157-.513a6.968,6.968,0,0,0,1.176.109h9.058q.834-1,1-1a3.662,3.662,0,0,1,.957.7q.417.362.417.492t-.178.137ZM5.85-7.6v.171q0,.595-.8.595a.638.638,0,0,1-.479-.137.459.459,0,0,1-.1-.321L4.517-9.27q0-1.4-.082-2.338a12.668,12.668,0,0,1,1.613.745h5.011q.6-.684.752-.684a2.263,2.263,0,0,1,.772.52q.321.28.321.417,0,.212-.39.444v.451l.027,2.29q0,.574-.827.574-.533,0-.533-.458V-7.6Zm5.332-.321v-2.618H5.85v2.618Zm12.1,5.2a11.318,11.318,0,0,1-2.81,2.2A15.536,15.536,0,0,1,17.443.67q-.034.007-.072-.044A.177.177,0,0,1,17.333.52a.049.049,0,0,1,.027-.048,11.855,11.855,0,0,0,5.106-4.2h-1.8v.137q0,.506-.766.506-.533,0-.533-.4.082-1.347.082-3.261,0-1.21-.082-2.03.731.294,1.422.629h2.454V-9.632H18.926a9.037,9.037,0,0,0-1.08.082l-.15-.513a7.421,7.421,0,0,0,1.23.109h4.313v-.082a10.976,10.976,0,0,0-.1-1.723,13.75,13.75,0,0,1,1.524.226q.246.075.246.232t-.4.355v.991H28q.752-.882.923-.882a3.762,3.762,0,0,1,.984.615q.431.321.431.451t-.178.137H24.511v1.483h2.721q.561-.547.7-.547a2.121,2.121,0,0,1,.745.492q.308.267.308.4,0,.171-.383.376v.636l.062,3.172q0,.506-.772.506a.619.619,0,0,1-.444-.116.506.506,0,0,1-.1-.362v-.137H24.7A6.542,6.542,0,0,0,27.4-1.682a9.178,9.178,0,0,0,3.261.868q.055,0,.055.068t-.055.082a1.216,1.216,0,0,0-.9.916q-.082.4-.28.4a1.974,1.974,0,0,1-.561-.185,10.751,10.751,0,0,1-2.468-1.538,9.652,9.652,0,0,1-2-2.55q.014.39.1,2.857.041,1.271.041,1.47,0,.52-.848.52-.574,0-.574-.451,0-.171.041-1.422Q23.26-1.928,23.28-2.721Zm-.041-1.326V-5.838H20.662v1.791Zm1.271,0h2.83V-5.838h-2.83Zm0-3.78v1.668h2.83V-7.827Zm-1.271,0H20.662v1.668h2.577ZM39.72-6.9a11.352,11.352,0,0,1-.725,2.933,8.344,8.344,0,0,1-1.251,2.051A9.233,9.233,0,0,1,33.137.991Q33.1,1,33.061.954A.136.136,0,0,1,33.02.861.046.046,0,0,1,33.041.82a9.661,9.661,0,0,0,4.5-4.758,11.5,11.5,0,0,0,.786-3.329H34.606a12.037,12.037,0,0,0-1.271.082L33.178-7.7a10.615,10.615,0,0,0,1.456.109h3.726q.109-1.237.109-2.591,0-.54-.055-1.3a13.217,13.217,0,0,1,1.675.287q.308.1.308.287t-.485.4a28.356,28.356,0,0,1-.123,2.912h3.568q.827-1.08,1-1.08a4.07,4.07,0,0,1,1.012.759q.431.376.431.5,0,.144-.178.144h-5.7a8.821,8.821,0,0,0,2.611,4.621A9.219,9.219,0,0,0,46.05-.67a.068.068,0,0,1,.048.075.1.1,0,0,1-.062.1A1.623,1.623,0,0,0,45.058.629q-.082.28-.212.28a1.875,1.875,0,0,1-.868-.417,9.866,9.866,0,0,1-2.27-2.146A10.981,10.981,0,0,1,39.72-6.9Zm10.6,3.814v1.114L50.348.492q0,.574-.772.574Q49,1.066,49,.561q.089-2.912.089-7.759,0-3.24-.082-4.293.6.239,1.456.643h1.422q.492-.588.649-.588t.766.588q.321.3.321.444,0,.232-.431.369a15.614,15.614,0,0,1-2.085,3.076,6.012,6.012,0,0,1,1.538,1.688,3.512,3.512,0,0,1,.335,1.62,1.913,1.913,0,0,1-.492,1.442,1.488,1.488,0,0,1-1.1.39q-.191,0-.246-.075a.781.781,0,0,1-.082-.287,1.313,1.313,0,0,0-.212-.622A1.071,1.071,0,0,0,50.321-3.09Zm0-.2q1,.041,1.073.041a.4.4,0,0,0,.294-.1,1.365,1.365,0,0,0,.157-.813A4.123,4.123,0,0,0,51.6-5.681,4.977,4.977,0,0,0,50.827-6.9a14.906,14.906,0,0,0,1.135-3.623H50.321Zm7.362,1.634A9.959,9.959,0,0,1,53.11.964q-.1.021-.1-.137a.053.053,0,0,1,.021-.048,11.19,11.19,0,0,0,4.013-3.37A13.29,13.29,0,0,1,55.6-6.863h-.41a16.752,16.752,0,0,1-.574,3.726A7.113,7.113,0,0,1,53.37-.718,7.338,7.338,0,0,1,51.558.957a.076.076,0,0,1-.034.007q-.116,0-.116-.109a.061.061,0,0,1,.007-.027A8.268,8.268,0,0,0,53.568-3.4a31.889,31.889,0,0,0,.349-5.517q0-.964-.1-2.393A11.557,11.557,0,0,1,55.4-10.5h3.671q.766-.9.923-.9a3.226,3.226,0,0,1,.95.615q.4.321.4.465t-.205.137H55.256v.362q0,1.586-.055,2.632h3.486q.636-.725.786-.725a2.782,2.782,0,0,1,.827.588q.321.267.321.444t-.437.4a10.612,10.612,0,0,1-1.777,3.951A7.289,7.289,0,0,0,61.73-.643q.041.007.041.062a.112.112,0,0,1-.068.116,1.2,1.2,0,0,0-.5.362,3.787,3.787,0,0,0-.314.745Q60.807.9,60.677.9a1.956,1.956,0,0,1-.766-.424A10.155,10.155,0,0,1,57.683-1.654Zm-1.8-5.209a10.265,10.265,0,0,0,1.716,3.4,10.36,10.36,0,0,0,1.183-3.4ZM73.049-5.182l.027,2.762.041,2.283a1.263,1.263,0,0,1-.376.964,1.489,1.489,0,0,1-1.012.321.3.3,0,0,1-.246-.082.794.794,0,0,1-.1-.294.793.793,0,0,0-.335-.554,3.991,3.991,0,0,0-.937-.328q-.048-.014-.048-.082,0-.089.062-.089Q71.1-.2,71.634-.2q.232,0,.253-.267v-3.1a.746.746,0,0,1-.362.185,6.814,6.814,0,0,1-1.477,2.338A7.975,7.975,0,0,1,67.881.41a.028.028,0,0,1-.021.007q-.109,0-.109-.1a.039.039,0,0,1,.014-.027,7.686,7.686,0,0,0,2.481-4.054H69.46a3.127,3.127,0,0,0-.813.116L68.5-4.2a4.2,4.2,0,0,0,.923.109h.772q.5-.615.656-.615t.772.574a1.4,1.4,0,0,1,.267.294v-2.03H70.861v.144q0,.485-.711.485-.506,0-.506-.4L69.7-8.764q0-1.121-.055-2.017a12.991,12.991,0,0,1,1.374.684h.643q.1-.52.13-.725.062-.465.082-.978,1.668.4,1.668.643,0,.219-.492.239a8.521,8.521,0,0,1-.882.82h1.887q.6-.629.745-.629t.745.506q.308.267.308.4a.242.242,0,0,1-.058.167,3.279,3.279,0,0,1-.352.284v.574L75.5-5.783a.418.418,0,0,1-.253.424q.9.533,1.148.725t.239.294q0,.219-.574.253a13.954,13.954,0,0,1-1.8,1.025,6.078,6.078,0,0,0,2.741,1.887q.048.021.048.055t-.048.068a1.938,1.938,0,0,0-.827,1.08Q76.05.4,75.886.4q-.123,0-.362-.239a7.221,7.221,0,0,1-1.579-2.126A12.578,12.578,0,0,1,73.049-5.182ZM74.081-3.3a7.5,7.5,0,0,0,.649-.937,5.1,5.1,0,0,0,.485-1.107,1.194,1.194,0,0,1-.417.068.649.649,0,0,1-.458-.123.472.472,0,0,1-.1-.342v-.123H73.09A7.26,7.26,0,0,0,74.081-3.3Zm.157-2.885V-7.9H70.861v1.709Zm0-2.03V-9.775H70.861v1.559ZM66.049-5q-.212.041-.622.13-.492.109-.663.15-.123.39-.294.39-.15,0-.26-.335-.1-.314-.26-1.189.349.027.725.027h.745a18,18,0,0,0,1.4-2.536A9.112,9.112,0,0,0,67.4-9.871q1.524.7,1.524.964,0,.232-.547.212-.807,1.087-1.278,1.62-.437.485-1.244,1.251.759-.014,2.2-.068a3.665,3.665,0,0,0-.492-1.121.066.066,0,0,1-.014-.034q0-.062.089-.062a.076.076,0,0,1,.034.007q1.586.889,1.586,1.839a.846.846,0,0,1-.205.581.531.531,0,0,1-.41.205.4.4,0,0,1-.369-.226,2.153,2.153,0,0,1-.15-.731l-.014-.137q-.759.253-.909.294v1.948L67.238.656q0,.547-.711.547-.561,0-.561-.451.082-1.736.082-3.049v-.909a.815.815,0,0,1-.362.137A9.782,9.782,0,0,1,63.95.116.053.053,0,0,1,63.9.137q-.109,0-.109-.082A.028.028,0,0,1,63.8.034a14.885,14.885,0,0,0,.581-2.29,9.7,9.7,0,0,0,.2-1.75,5.99,5.99,0,0,1,1.47.547ZM65.338-9.14q.205-.54.458-1.4.185-.738.267-1.244,1.661.588,1.661.82t-.554.239a20.848,20.848,0,0,1-1.524,1.764,1.212,1.212,0,0,1,.595,1.039.806.806,0,0,1-.205.574.559.559,0,0,1-.424.191.4.4,0,0,1-.369-.15,3.333,3.333,0,0,1-.26-.69,3.16,3.16,0,0,0-.82-1.415.066.066,0,0,1-.021-.048q0-.109.1-.089A6.157,6.157,0,0,1,65.338-9.14Zm3.65,6.993a.921.921,0,0,1-.191.615.566.566,0,0,1-.451.2.379.379,0,0,1-.383-.253,2.557,2.557,0,0,1-.109-.67,3.978,3.978,0,0,0-.417-1.7.028.028,0,0,1-.007-.021q0-.062.075-.062a.074.074,0,0,1,.041.014Q68.988-3.021,68.988-2.146ZM-54.672,21.662a10.587,10.587,0,0,1-5.448,3.179q-.109.021-.109-.116a.044.044,0,0,1,.027-.041A11.3,11.3,0,0,0-55.6,20.712H-58q-.014.034-.075.232l-.068.219a.683.683,0,0,1-.711.376q-.69,0-.69-.349a.594.594,0,0,1,.068-.267,13.119,13.119,0,0,0,.636-2.017,8.3,8.3,0,0,0,.164-1.148,13.346,13.346,0,0,1,1.374.67h2.577V16.774h-3.22a4.1,4.1,0,0,0-.9.109l-.157-.54a5.511,5.511,0,0,0,1.053.109h7.376q.615-.629.759-.629t.731.492q.294.253.294.39,0,.1-.369.431v.294l.041,1.5q0,.533-.779.533-.52,0-.52-.479V18.75h-3.056v1.641h3.589q.547-.643.7-.643a2.418,2.418,0,0,1,.8.533q.321.267.321.4,0,.116-.417.349-.144.9-.294,1.538a2.236,2.236,0,0,1-.663,1.313,1.8,1.8,0,0,1-1.094.253.212.212,0,0,1-.239-.212,1.034,1.034,0,0,0-.417-.7,4.361,4.361,0,0,0-1.053-.451q-.041-.021-.041-.1,0-.13.068-.116a16.044,16.044,0,0,0,1.682.164.44.44,0,0,0,.369-.157,1.429,1.429,0,0,0,.212-.526q.1-.451.205-1.326h-3.726v1.682l.055,2.345q0,.52-.779.52-.547,0-.547-.444,0-.178.027-1.319Q-54.686,22.223-54.672,21.662Zm1.2-3.233h3.056V16.774h-3.056Zm-1.258.321h-2.762q-.1.513-.431,1.641h3.192Zm2.017-4.539a6.776,6.776,0,0,1-1.894,1.8.046.046,0,0,1-.034.014q-.1,0-.1-.082a.061.061,0,0,1,.007-.027,9.9,9.9,0,0,0,1.2-2.167,7.593,7.593,0,0,0,.438-1.559q1.613.4,1.613.656,0,.226-.581.321a6.435,6.435,0,0,1-.417.718h2.591q.69-.841.868-.841a3.319,3.319,0,0,1,.923.588q.41.308.41.438t-.191.137h-3.862q1.436.328,1.436,1.073a.739.739,0,0,1-.232.574.686.686,0,0,1-.485.185.465.465,0,0,1-.424-.191,1.631,1.631,0,0,1-.191-.622,1.738,1.738,0,0,0-.492-1.019Zm-5.168,0a7.438,7.438,0,0,1-2.406,2.208.052.052,0,0,1-.021.007.091.091,0,0,1-.1-.1.039.039,0,0,1,.014-.027,8.867,8.867,0,0,0,1.606-2.6,7.12,7.12,0,0,0,.438-1.524,12.9,12.9,0,0,1,1.422.458q.273.123.273.253,0,.226-.581.28-.28.506-.417.731h1.8q.643-.745.813-.745a2.958,2.958,0,0,1,.827.52q.349.287.349.41t-.185.137h-2.885q1.381.383,1.381,1.094a.733.733,0,0,1-.239.567.715.715,0,0,1-.506.2.428.428,0,0,1-.4-.178,2.322,2.322,0,0,1-.178-.649,2,2,0,0,0-.451-1.032Zm24.109.731q0,.137-.185.137h-7.854a10.913,10.913,0,0,0-1.2.082l-.15-.513a8.582,8.582,0,0,0,1.313.109h5.633q.813-1.032.991-1.032a3.849,3.849,0,0,1,1,.711Q-33.77,14.806-33.77,14.942Zm1.62,7.854q0,.137-.178.137H-43.292q-.547,0-1.381.082l-.157-.513a10.789,10.789,0,0,0,1.483.109h8.6q.9-1.094,1.073-1.094a4.254,4.254,0,0,1,1.06.759Q-32.149,22.66-32.149,22.8Zm4.462-1.887v1.114l.027,2.468q0,.574-.772.574-.574,0-.574-.506.089-2.912.089-7.759,0-3.24-.082-4.293.6.239,1.456.643h1.422q.492-.588.649-.588t.766.588q.321.3.321.444,0,.232-.431.369A15.614,15.614,0,0,1-26.9,17.041a6.012,6.012,0,0,1,1.538,1.688,3.512,3.512,0,0,1,.335,1.62,1.913,1.913,0,0,1-.492,1.442,1.488,1.488,0,0,1-1.1.39q-.191,0-.246-.075a.781.781,0,0,1-.082-.287,1.313,1.313,0,0,0-.212-.622A1.071,1.071,0,0,0-27.687,20.91Zm0-.2q1,.041,1.073.041a.4.4,0,0,0,.294-.1,1.365,1.365,0,0,0,.157-.813,4.123,4.123,0,0,0-.246-1.524,4.977,4.977,0,0,0-.772-1.224,14.907,14.907,0,0,0,1.135-3.623h-1.641Zm7.362,1.634A9.959,9.959,0,0,1-24.9,24.964q-.1.021-.1-.137a.053.053,0,0,1,.021-.048,11.19,11.19,0,0,0,4.013-3.37,13.29,13.29,0,0,1-1.442-4.272h-.41a16.752,16.752,0,0,1-.574,3.726,7.113,7.113,0,0,1-1.244,2.42,7.338,7.338,0,0,1-1.812,1.675.076.076,0,0,1-.034.007q-.116,0-.116-.109a.061.061,0,0,1,.007-.027A8.268,8.268,0,0,0-24.44,20.6a31.889,31.889,0,0,0,.349-5.517q0-.964-.1-2.393a11.558,11.558,0,0,1,1.579.813h3.671q.766-.9.923-.9a3.226,3.226,0,0,1,.95.615q.4.321.4.465t-.205.137h-5.886v.362q0,1.586-.055,2.632h3.486q.636-.725.786-.725a2.782,2.782,0,0,1,.827.588q.321.267.321.444t-.437.4A10.612,10.612,0,0,1-19.6,21.478a7.289,7.289,0,0,0,3.322,1.88q.041.007.041.062a.112.112,0,0,1-.068.116,1.2,1.2,0,0,0-.5.362,3.787,3.787,0,0,0-.314.745q-.082.253-.212.253a1.956,1.956,0,0,1-.766-.424A10.155,10.155,0,0,1-20.325,22.346Zm-1.8-5.209a10.265,10.265,0,0,0,1.716,3.4,10.36,10.36,0,0,0,1.183-3.4ZM-6.422,14.7a7.008,7.008,0,0,0,2.393,1.873,12.045,12.045,0,0,0,3.042.937.068.068,0,0,1,.048.075q0,.082-.062.1a1.189,1.189,0,0,0-.827.854,1.138,1.138,0,0,1-.1.291.156.156,0,0,1-.137.058,2.547,2.547,0,0,1-.684-.267,13.111,13.111,0,0,1-1.531-.937A8.647,8.647,0,0,1-6.763,14.7H-8.192a9.837,9.837,0,0,1-2.632,2.8,13.507,13.507,0,0,1-3.315,1.682.028.028,0,0,1-.021.007q-.1,0-.1-.13a.046.046,0,0,1,.021-.041A12.647,12.647,0,0,0-9.689,14.7h-2.939a10.2,10.2,0,0,0-1.148.082l-.15-.513a7.827,7.827,0,0,0,1.258.109H-9.5a9.082,9.082,0,0,0,.854-2.14q1.8.4,1.8.656t-.581.39q-.2.451-.561,1.094h4.259q.779-.923.95-.923a3.787,3.787,0,0,1,.991.643q.431.342.431.465t-.178.137Zm-.636,5.346v.786L-7,23.815a1.119,1.119,0,0,1-.588,1.066,1.921,1.921,0,0,1-1.08.28.3.3,0,0,1-.267-.116,1.467,1.467,0,0,1-.123-.4q-.116-.533-1.442-.909-.055-.014-.055-.1t.055-.1q1.224.089,1.887.089.185,0,.185-.2V20.049h-3.541a11.277,11.277,0,0,0-1.217.082l-.157-.513a9.236,9.236,0,0,0,1.36.109h7.752q.766-.909.943-.909a3.191,3.191,0,0,1,.909.629q.39.335.39.465t-.185.137Zm2.208-2.194q0,.137-.178.137h-4.56a8.324,8.324,0,0,0-1.039.082l-.15-.513a6.113,6.113,0,0,0,1.1.109h2.789q.7-.786.861-.786a2.685,2.685,0,0,1,.827.547Q-4.849,17.718-4.849,17.854Zm2.55,5.77a.859.859,0,0,1-.232.636.687.687,0,0,1-.506.205.587.587,0,0,1-.5-.226,8.584,8.584,0,0,1-.574-1.08A6.349,6.349,0,0,0-5.9,21.074a.074.074,0,0,1-.021-.055q0-.109.089-.089a7,7,0,0,1,2.707,1.237A1.931,1.931,0,0,1-2.3,23.624Zm-7.2-2.017q0,.232-.649.308a9.285,9.285,0,0,1-3.767,2.721.061.061,0,0,1-.027.007q-.13,0-.13-.116a.039.039,0,0,1,.014-.027,9.3,9.3,0,0,0,2.379-2.714,4.836,4.836,0,0,0,.492-1.114,13.3,13.3,0,0,1,1.408.636Q-9.5,21.471-9.5,21.607Zm16.207-6.6A11.539,11.539,0,0,1,5.67,16.932l.1.027h4.443q.608-.643.752-.643t.8.574q.335.3.335.431,0,.171-.417.424v.95L11.72,23.6a1.345,1.345,0,0,1-.451,1.135,1.693,1.693,0,0,1-1.1.349q-.219,0-.267-.321a.9.9,0,0,0-.424-.67,5.746,5.746,0,0,0-1.258-.465q-.055-.007-.055-.082t.055-.082q1.148.082,1.914.082.212,0,.212-.178V21.45h-4.7q.014,1.511.014,3.124,0,.561-.841.561-.574,0-.574-.424l.068-2.659v-3.5A12.152,12.152,0,0,1,1.377,20.6a.02.02,0,0,1-.014.007q-.1,0-.1-.13a.056.056,0,0,1,.014-.041,13.531,13.531,0,0,0,4.061-5.428H2.655a9.544,9.544,0,0,0-1.128.082L1.37,14.58a7.754,7.754,0,0,0,1.244.109H5.458a11.5,11.5,0,0,0,.677-2.434q1.8.39,1.8.656,0,.232-.588.39-.232.731-.506,1.388h4.717q.779-.909.95-.909a3.6,3.6,0,0,1,.984.629q.431.342.431.465t-.178.137ZM5.642,19.3v1.832h4.7V19.3Zm0-.321h4.7v-1.7h-4.7Zm13.6.827a10.465,10.465,0,0,1-2.618,3.09.076.076,0,0,1-.034.007.079.079,0,0,1-.089-.089.046.046,0,0,1,.014-.034,16.382,16.382,0,0,0,2.55-5.312H17.8a5.433,5.433,0,0,0-.841.082l-.15-.52a4.452,4.452,0,0,0,.937.109h1.429V14.2q0-1.244-.055-1.894a14.168,14.168,0,0,1,1.463.253q.212.062.212.212t-.431.362v4.006h.67q.52-.711.7-.711a2.275,2.275,0,0,1,.725.5q.308.267.308.4t-.178.144H20.359V18.5q2.044.513,2.044,1.62a.675.675,0,0,1-.212.492.542.542,0,0,1-.39.178.586.586,0,0,1-.417-.13,1.144,1.144,0,0,1-.267-.526,2.98,2.98,0,0,0-.759-1.285v.041l.041,5.722q0,.561-.779.561-.547,0-.547-.451,0-.137.082-2.092Q19.224,20.917,19.238,19.8Zm8.6.526.13-.027q.479-.95.643-.95a2.958,2.958,0,0,1,.841.438q.335.205.335.349,0,.123-.157.164l-1.791.335q.007.643.041,2.632.014.95.014,1.278,0,.6-.813.6-.6,0-.6-.492L26.5,20.89l-3.418.649a5.138,5.138,0,0,0-.984.294l-.26-.506a6.033,6.033,0,0,0,1.114-.1l3.548-.656q.014-1.429.014-5.476,0-1.606-.075-2.632a10.8,10.8,0,0,1,1.518.219q.321.1.321.26t-.465.376v2.242Q27.81,17.759,27.837,20.329Zm-1.989-4.854a.733.733,0,0,1-.226.561.672.672,0,0,1-.485.191.429.429,0,0,1-.369-.157,5.232,5.232,0,0,1-.355-.711,2.868,2.868,0,0,0-1.012-1.2.065.065,0,0,1-.027-.055.06.06,0,0,1,.068-.068Q25.848,14.245,25.848,15.476ZM25.37,18.75a.843.843,0,0,1-.212.6.6.6,0,0,1-.458.2.546.546,0,0,1-.376-.116.971.971,0,0,1-.212-.376,3.133,3.133,0,0,0-.479-.889,4.713,4.713,0,0,0-.711-.7.049.049,0,0,1-.027-.048q0-.075.082-.075Q25.37,17.574,25.37,18.75Zm-6.59-3.083a.978.978,0,0,1-.185.615.494.494,0,0,1-.4.212.394.394,0,0,1-.39-.205,2.7,2.7,0,0,1-.164-.759,5.339,5.339,0,0,0-.533-2A.061.061,0,0,1,17.1,13.5a.073.073,0,0,1,.082-.082.046.046,0,0,1,.034.014Q18.78,14.587,18.78,15.667Zm4.2-1.538q0,.239-.533.294a11.494,11.494,0,0,1-1.606,2.112.053.053,0,0,1-.048.021q-.1,0-.1-.075a.052.052,0,0,1,.007-.021,16.77,16.77,0,0,0,.608-1.989,10.042,10.042,0,0,0,.2-1.107Q22.977,13.931,22.977,14.129Zm18.046.718a9.976,9.976,0,0,1-1.429,1.538h2.488q.506-.629.663-.629a2.121,2.121,0,0,1,.745.492q.308.267.308.4,0,.178-.369.431v.868l.048,4.437q0,.6-.745.6-.574,0-.574-.506v-.109h-4.1V22.5q0,.533-.7.533-.574,0-.574-.492l.068-3.172q0-2.146-.075-3.678a15.273,15.273,0,0,1,1.415.7h.9a7.057,7.057,0,0,0,.294-1.538H36.791a6.283,6.283,0,0,0-.9.082l-.15-.513a5.48,5.48,0,0,0,1.046.109h3.814a12.054,12.054,0,0,0,.431-1.183,8.961,8.961,0,0,0,.267-1.162q1.764.561,1.764.8,0,.26-.656.294a6.787,6.787,0,0,1-1.36,1.251h1.709q.738-.868.909-.868a3.348,3.348,0,0,1,.909.6q.4.335.4.451,0,.137-.185.137Zm1.135,7.205V20.418h-4.1v1.634Zm0-1.955V18.538h-4.1V20.1Zm0-1.88V16.706h-4.1v1.511ZM35.2,14.5a.85.85,0,0,1-.232.629.717.717,0,0,1-.54.212.487.487,0,0,1-.41-.2,2.346,2.346,0,0,1-.273-.67,3.674,3.674,0,0,0-.9-1.634.074.074,0,0,1-.014-.041q0-.089.109-.089h.021Q35.2,13.268,35.2,14.5Zm4.327-.9a.7.7,0,0,1-.212.533.658.658,0,0,1-.465.178.462.462,0,0,1-.362-.137,1.158,1.158,0,0,1-.185-.41,3.49,3.49,0,0,0-.731-1.395.112.112,0,0,1-.007-.034q0-.1.109-.1h.014Q39.525,12.734,39.525,13.6Zm5.64,9.837a.977.977,0,0,0-.547.786.98.98,0,0,1-.1.417.339.339,0,0,1-.239.082,29.824,29.824,0,0,1-3.418.13,18.26,18.26,0,0,1-3.021-.191,4.265,4.265,0,0,1-1.627-.595,3.462,3.462,0,0,1-1.34-2,11.309,11.309,0,0,1-1.613,2.1,1.779,1.779,0,0,1,.021.246q0,.4-.253.4-.3,0-1.039-1.709a5.858,5.858,0,0,0,1.08-.4,6.318,6.318,0,0,0,.9-.513V18.456H33a2.981,2.981,0,0,0-.766.109L32.074,18a3.467,3.467,0,0,0,.923.13h.882q.567-.643.718-.643a2.339,2.339,0,0,1,.766.485q.321.267.321.41,0,.1-.417.444v3.3a3.027,3.027,0,0,0,.629.813,2.172,2.172,0,0,0,.7.369,11.679,11.679,0,0,0,3.179.321,49.685,49.685,0,0,0,5.38-.355q.055-.014.055.068A.09.09,0,0,1,45.165,23.439Zm5.953-6.494v2.447h.308q.472-.7.663-.7.137,0,.684.485.28.28.28.4,0,.137-.185.137h-1.75v2.98A17.015,17.015,0,0,0,53,22.161h.021q.055,0,.055.1a.1.1,0,0,1-.027.082,25.462,25.462,0,0,1-4.737,2.1q-.041.465-.267.465-.137,0-.28-.342t-.4-1.271a5.655,5.655,0,0,0,.643-.041V19.5q0-.472-.068-1.142,1.545.13,1.545.376,0,.157-.328.321V23.1a7.145,7.145,0,0,0,.786-.144V16.945H49.3v.178a.521.521,0,0,1-.171.451.991.991,0,0,1-.533.109q-.533,0-.533-.465L48.1,14.73q0-1.237-.082-2.078a13.66,13.66,0,0,1,1.442.711h1.8q.533-.615.684-.615t.711.492q.28.26.28.376a.224.224,0,0,1-.068.164q-.062.055-.308.226v.506l.041,2.522q0,.485-.772.485a.408.408,0,0,1-.458-.465v-.109Zm.253-.321V13.685H49.3v2.939Zm2.222,3.514q-.5.219-1.34.492-.1.021-.1-.116a.046.046,0,0,1,.021-.041,15.271,15.271,0,0,0,3.787-2.885,10.065,10.065,0,0,1-1.121-2.017,9.294,9.294,0,0,1-2.1,2.105.074.074,0,0,1-.041.014q-.1,0-.1-.082a.061.061,0,0,1,.007-.027,10.06,10.06,0,0,0,1.839-3.363,9.124,9.124,0,0,0,.52-1.948q1.107.321,1.408.451t.287.287q0,.226-.506.28A10.471,10.471,0,0,1,55.65,14.3h2.078q.636-.69.779-.69t.8.561q.335.3.335.438a.249.249,0,0,1-.116.212,1.646,1.646,0,0,1-.383.164A10.757,10.757,0,0,1,57.3,17.69,8.84,8.84,0,0,0,60.8,18.75q.048.014.048.048a.113.113,0,0,1-.048.082,1.7,1.7,0,0,0-.752,1.032q-.041.212-.2.212A1.479,1.479,0,0,1,59.341,20,7.378,7.378,0,0,1,56.7,18.415l-.082-.082a10.143,10.143,0,0,1-2.454,1.552,9.023,9.023,0,0,1,.8.479h2.762q.526-.561.67-.561a2.131,2.131,0,0,1,.745.479q.308.246.308.39,0,.123-.355.376v.574l.062,2.926q0,.533-.8.533-.533,0-.533-.431v-.492H54.837V24.7q0,.492-.766.492-.52,0-.52-.4l.041-2.81Zm2.83-3.1a10.518,10.518,0,0,0,1.415-2.42H55.465a7.287,7.287,0,0,1-.431.684A6.039,6.039,0,0,0,56.422,17.041Zm1.4,6.795V20.685H54.837v3.151Z" transform="translate(738 1909)" fill="#fff"/>
    <path id="パス_13501" data-name="パス 13501" d="M-21.282-5.811a20.388,20.388,0,0,0,1.641-2.646A8.629,8.629,0,0,0-19-9.9q1.565.718,1.565.937,0,.2-.458.2h-.082Q-19.135-7.4-19.532-7q-.383.383-1.312,1.189.793,0,2.393-.055a3.6,3.6,0,0,0-.608-1.189.061.061,0,0,1-.007-.027q0-.075.1-.075a.076.076,0,0,1,.034.007q1.764.957,1.764,1.982a.954.954,0,0,1-.2.629.558.558,0,0,1-.431.2.431.431,0,0,1-.41-.205,2.129,2.129,0,0,1-.178-.827L-18.4-5.53q-.308.109-.923.28v1.935L-19.279.67q0,.533-.738.533-.561,0-.561-.431Q-20.5-.506-20.5-2.27v-2.7Q-21-4.86-21.979-4.7q-.137.39-.308.39-.137,0-.253-.342t-.267-1.183q.362.027.745.027Zm5.715-2.659A8.526,8.526,0,0,1-17.419-6.3a.074.074,0,0,1-.041.014q-.123,0-.123-.089a.052.052,0,0,1,.007-.021A13.384,13.384,0,0,0-16.2-9.871a9.772,9.772,0,0,0,.335-1.8q1.914.492,1.914.745t-.554.335a14.135,14.135,0,0,1-.868,1.8h3.315q.615-.725.772-.725t.793.588q.335.294.335.444,0,.109-.431.417-.082,2.755-.239,4.307a21.867,21.867,0,0,1-.485,3.015,2.143,2.143,0,0,1-.9,1.36,2.062,2.062,0,0,1-1.176.321.407.407,0,0,1-.294-.075.8.8,0,0,1-.109-.314,1.027,1.027,0,0,0-.458-.684,4.818,4.818,0,0,0-1.107-.424Q-15.4-.574-15.4-.677t.055-.109q1.224.109,1.62.109a2.349,2.349,0,0,0,.9-.109.523.523,0,0,0,.232-.342A32.954,32.954,0,0,0-11.91-8.47Zm-5.722-.772a14.18,14.18,0,0,0,.615-1.661,6.6,6.6,0,0,0,.205-.854q1.661.588,1.661.868,0,.232-.554.232a18.23,18.23,0,0,1-1.593,1.613,1.271,1.271,0,0,1,.663,1.06.891.891,0,0,1-.205.622.589.589,0,0,1-.451.191.533.533,0,0,1-.451-.164,2.829,2.829,0,0,1-.273-.718,3.37,3.37,0,0,0-.923-1.511.046.046,0,0,1-.021-.041q0-.1.1-.082A8.19,8.19,0,0,1-21.288-9.242Zm7.608,4.9a.991.991,0,0,1-.239.677.68.68,0,0,1-.526.246q-.438,0-.561-.615a9.868,9.868,0,0,0-.52-1.5,3.246,3.246,0,0,0-.6-.889.084.084,0,0,1-.014-.048.073.073,0,0,1,.082-.082h.014a3.98,3.98,0,0,1,1.764.991A1.749,1.749,0,0,1-13.68-4.341Zm-3.514,2.563a1,1,0,0,1-.212.663.6.6,0,0,1-.472.219.422.422,0,0,1-.41-.26,2.907,2.907,0,0,1-.191-.889A4.309,4.309,0,0,0-19.1-3.937a.039.039,0,0,1-.014-.027q0-.068.082-.068a.074.074,0,0,1,.041.014Q-17.194-2.905-17.194-1.777Zm-3.391-1.613q0,.185-.4.267A7.9,7.9,0,0,1-22.9.185.056.056,0,0,1-22.943.2a.079.079,0,0,1-.089-.089.052.052,0,0,1,.007-.021,11.142,11.142,0,0,0,.786-2.639,6.617,6.617,0,0,0,.116-1.244q0-.1.007-.226,1.073.314,1.333.431Q-20.584-3.5-20.584-3.391Zm17.041-7.191q.226,0,.226.164-.007.376-.034,1.641-.021.841-.021,1.456v4.382q0,1.094.027,1.388a1.356,1.356,0,0,0,.13.472.6.6,0,0,0,.465.28q.137.027.725.089Q-1.9-.7-1.9-.506t-.123.2Q-3-.349-4.1-.349q-1.135,0-2.126.041-.144,0-.144-.2t.144-.205a5.9,5.9,0,0,0,.8-.1.51.51,0,0,0,.383-.273A6.434,6.434,0,0,0-4.9-2.939V-7.95a2.306,2.306,0,0,0-.144-1.073q-.075-.13-.328-.13a1.838,1.838,0,0,0-.492.082l-.547.15a.481.481,0,0,1-.1.021q-.1,0-.144-.171a.657.657,0,0,1-.021-.123q0-.082.15-.13Q-5.116-9.837-3.544-10.582Zm6.11,1.736-.2,2.516q-.007.109-.041.355T2.286-5.6a2.788,2.788,0,0,1,2.208-.868,2.636,2.636,0,0,1,2.16.943,3.21,3.21,0,0,1,.67,2.1,3.39,3.39,0,0,1-.93,2.509,3.063,3.063,0,0,1-2.276.861A3.975,3.975,0,0,1,2.142-.533q-.95-.547-.95-1.189a.48.48,0,0,1,.294-.417A1.416,1.416,0,0,1,2.2-2.3a.733.733,0,0,1,.629.417,4.941,4.941,0,0,1,.28.622,1.068,1.068,0,0,0,1.012.772,1.3,1.3,0,0,0,1.224-.943,5.216,5.216,0,0,0,.314-1.982A3.056,3.056,0,0,0,5.1-5.353a1.352,1.352,0,0,0-1.087-.581A1.939,1.939,0,0,0,2.245-4.915q-.075.13-.171.13a.678.678,0,0,1-.212-.055q-.178-.082-.178-.191a.576.576,0,0,1,.014-.1q.068-.28.082-.39L2.115-9.98a.31.31,0,0,1,.082-.185.285.285,0,0,1,.2-.082q.561.014,2.194.014,1.142,0,2.379-.055.13,0,.13.089,0,.014,0,.021L6.64-8.914a.145.145,0,0,1-.144.1q-1.121-.027-1.415-.027ZM16.011-5.571a7.367,7.367,0,0,1-1.846,4.553,8.439,8.439,0,0,1-3.979,2.126q-.1.021-.1-.123a.053.053,0,0,1,.021-.048,8.935,8.935,0,0,0,3.329-2.905,8.194,8.194,0,0,0,1.114-3.6H13.5a6.885,6.885,0,0,0-1.176.109l-.157-.561a6.786,6.786,0,0,0,1.292.13h5.3q.629-.615.766-.615.157,0,.8.561.335.314.335.444t-.4.41a18.141,18.141,0,0,1-.731,4.71,2.174,2.174,0,0,1-.643.957,1.843,1.843,0,0,1-1.2.39A.663.663,0,0,1,17.3.9.6.6,0,0,1,17.16.574a.979.979,0,0,0-.472-.608A5.269,5.269,0,0,0,15.56-.485q-.041-.007-.041-.1,0-.157.068-.144a15.618,15.618,0,0,0,2.078.232.523.523,0,0,0,.472-.267,3.685,3.685,0,0,0,.314-.9,23.348,23.348,0,0,0,.458-3.917ZM23.127-6.72q.041.007.041.089,0,.109-.062.123a.884.884,0,0,0-.54.314,1.946,1.946,0,0,0-.287.663q-.089.4-.232.4a1.556,1.556,0,0,1-.615-.308A9.7,9.7,0,0,1,19.921-6.72,7.932,7.932,0,0,1,18.67-8.456a19.811,19.811,0,0,1-.991-2.256.71.71,0,0,0-.185-.253.177.177,0,0,1-.109-.15q0-.089.226-.178a.873.873,0,0,1,.321-.075q.137,0,.137.109L18-11.006a.8.8,0,0,0,.082.308,7.3,7.3,0,0,0,2.058,2.6A7.4,7.4,0,0,0,23.127-6.72Zm-7.267-3.89q0,.267-.574.308a13.306,13.306,0,0,1-2.413,3.356,12.228,12.228,0,0,1-2.905,2.01.028.028,0,0,1-.021.007q-.109,0-.109-.123a.046.046,0,0,1,.014-.034,12.94,12.94,0,0,0,3.391-4.348,9.159,9.159,0,0,0,.725-2.044Q15.861-10.855,15.861-10.609Z" transform="translate(1182 1967)" fill="#fff"/>
    <path id="パス_12685-2" data-name="パス 12685" d="M-3616.505,12067.5H-3876v-1h259.495Z" transform="translate(4926 -10122)" fill="#fff"/>
    <path id="パス_13502" data-name="パス 13502" d="M4,0,8,7H0Z" transform="translate(1314 1941) rotate(90)" fill="#fff"/>
    <path id="パス_13503" data-name="パス 13503" d="M-37.016-2.229v-3.3h-1.613a5.361,5.361,0,0,0-.848.082l-.157-.513a4.7,4.7,0,0,0,.964.109h1.654V-8.415h-1.948a6.283,6.283,0,0,0-.9.082l-.15-.513a5.42,5.42,0,0,0,1.032.109h4.669q.656-.772.827-.772a2.965,2.965,0,0,1,.868.547q.362.287.362.41t-.185.137H-35.7v2.563h1.121q.554-.772.738-.772a2.719,2.719,0,0,1,.813.533q.349.287.349.424t-.178.137H-35.7v3.3h1.736q.567-.827.759-.827a2.752,2.752,0,0,1,.841.588q.349.287.349.424t-.185.137h-6.986a5.39,5.39,0,0,0-.854.082l-.157-.513a4.883,4.883,0,0,0,.991.109Zm3.835-1.477a.665.665,0,0,1-.205.5.576.576,0,0,1-.424.171.444.444,0,0,1-.328-.116,1.223,1.223,0,0,1-.191-.376,3.237,3.237,0,0,0-.889-1.326.059.059,0,0,1-.021-.041q0-.062.075-.062h.021Q-33.181-4.607-33.181-3.705ZM-40.666.041V.39q0,.561-.813.561-.561,0-.561-.465.089-2.659.089-7.246,0-2.823-.075-4.819a13.5,13.5,0,0,1,1.572.813h8.613q.636-.711.786-.711t.8.561q.321.3.321.431,0,.2-.417.444v1.709q0,5.086.082,8.654,0,.574-.841.574-.574,0-.574-.451v-.4Zm8.982-.321V-10.445h-8.982V-.28Zm13.445-8.873a9.976,9.976,0,0,1-1.429,1.538h2.488q.506-.629.663-.629a2.121,2.121,0,0,1,.745.492q.308.267.308.4,0,.178-.369.431v.868l.048,4.437q0,.6-.745.6-.574,0-.574-.506v-.109h-4.1V-1.5q0,.533-.7.533-.574,0-.574-.492l.068-3.172q0-2.146-.075-3.678a15.273,15.273,0,0,1,1.415.7h.9a7.057,7.057,0,0,0,.294-1.538H-22.47a6.283,6.283,0,0,0-.9.082l-.15-.513a5.48,5.48,0,0,0,1.046.109h3.814a12.054,12.054,0,0,0,.431-1.183,8.961,8.961,0,0,0,.267-1.162q1.764.561,1.764.8,0,.26-.656.294a6.787,6.787,0,0,1-1.36,1.251H-16.5q.738-.868.909-.868a3.348,3.348,0,0,1,.909.6q.4.335.4.451,0,.137-.185.137ZM-17.1-1.948V-3.582h-4.1v1.634Zm0-1.955V-5.462h-4.1V-3.9Zm0-1.88V-7.294h-4.1v1.511ZM-24.063-9.5a.85.85,0,0,1-.232.629.717.717,0,0,1-.54.212.487.487,0,0,1-.41-.2,2.346,2.346,0,0,1-.273-.67,3.674,3.674,0,0,0-.9-1.634.073.073,0,0,1-.014-.041q0-.089.109-.089h.021Q-24.063-10.732-24.063-9.5Zm4.327-.9a.7.7,0,0,1-.212.533.658.658,0,0,1-.465.178.462.462,0,0,1-.362-.137,1.158,1.158,0,0,1-.185-.41,3.49,3.49,0,0,0-.731-1.395.112.112,0,0,1-.007-.034q0-.1.109-.1h.014Q-19.736-11.266-19.736-10.4ZM-14.1-.561a.977.977,0,0,0-.547.786.98.98,0,0,1-.1.417.339.339,0,0,1-.239.082A29.824,29.824,0,0,1-18.4.854,18.26,18.26,0,0,1-21.418.663,4.265,4.265,0,0,1-23.045.068a3.462,3.462,0,0,1-1.34-2A11.31,11.31,0,0,1-26,.164a1.779,1.779,0,0,1,.021.246q0,.4-.253.4-.3,0-1.039-1.709a5.858,5.858,0,0,0,1.08-.4,6.318,6.318,0,0,0,.9-.513V-5.544h-.971a2.981,2.981,0,0,0-.766.109L-27.187-6a3.467,3.467,0,0,0,.923.13h.882q.567-.643.718-.643a2.339,2.339,0,0,1,.766.485q.321.267.321.41,0,.1-.417.444v3.3a3.027,3.027,0,0,0,.629.813,2.172,2.172,0,0,0,.7.369,11.679,11.679,0,0,0,3.179.321,49.685,49.685,0,0,0,5.38-.355q.055-.014.055.068A.09.09,0,0,1-14.1-.561ZM-8.26-5.7q2.577.526,2.577,2.611A2.861,2.861,0,0,1-6.667-.772a3.337,3.337,0,0,1-2.222.718A4.079,4.079,0,0,1-10.946-.6q-.909-.567-.909-1.176a.51.51,0,0,1,.3-.451,1.429,1.429,0,0,1,.7-.15.714.714,0,0,1,.615.431q.034.048.28.636a1.1,1.1,0,0,0,1.066.827,1.27,1.27,0,0,0,1.176-.807,4.105,4.105,0,0,0,.349-1.839,2.846,2.846,0,0,0-.417-1.593,1.435,1.435,0,0,0-1.271-.69q-.062,0-.144.007-.54.034-.629.034-.157,0-.157-.137a.671.671,0,0,1,.021-.144q.048-.321.267-.321l.533.041a1.339,1.339,0,0,0,1.121-.574A2.68,2.68,0,0,0-7.61-8.121,2.707,2.707,0,0,0-7.952-9.57a.947.947,0,0,0-.834-.513,1.087,1.087,0,0,0-1.053.629,1.919,1.919,0,0,0-.109.7.633.633,0,0,1-.342.567A1.391,1.391,0,0,1-11-8.019q-.643,0-.643-.451a1.822,1.822,0,0,1,.868-1.4,3.2,3.2,0,0,1,1.989-.643A2.917,2.917,0,0,1-6.708-9.8a2.2,2.2,0,0,1,.69,1.688q0,1.812-2.242,2.338Zm6.889.41a2.013,2.013,0,0,1,.868-.9,2.109,2.109,0,0,1,.991-.239,2.446,2.446,0,0,1,2.105.991,3.523,3.523,0,0,1,.595,2.119,3.271,3.271,0,0,1-.923,2.44A2.891,2.891,0,0,1,.14-.055a2.859,2.859,0,0,1-2.413-1.2,4.474,4.474,0,0,1-.793-2.741,5.881,5.881,0,0,1,.9-3.22A8.234,8.234,0,0,1-.222-9.283a9.289,9.289,0,0,1,1.312-.841,5.32,5.32,0,0,1,1.025-.458q.178,0,.376.267a.446.446,0,0,1,.109.26q0,.157-.137.157a3.681,3.681,0,0,0-2.071.7,5.323,5.323,0,0,0-1.846,3.91ZM.1-5.879q-.9,0-1.367,1.162a2.092,2.092,0,0,0-.185.868A5.577,5.577,0,0,0-.967-1.21,1.239,1.239,0,0,0,.14-.485q.725,0,1.094-.916a5.093,5.093,0,0,0,.3-1.9,3.93,3.93,0,0,0-.383-1.914A1.152,1.152,0,0,0,.1-5.879Zm10.041.6A2.063,2.063,0,0,1,8.287-4.238a2.535,2.535,0,0,1-2.078-.943,3.172,3.172,0,0,1-.663-2.071,3.251,3.251,0,0,1,.943-2.434,2.93,2.93,0,0,1,2.133-.827,2.8,2.8,0,0,1,2.434,1.251A4.707,4.707,0,0,1,11.8-6.508a6.687,6.687,0,0,1-.9,3.589A6.388,6.388,0,0,1,9-1.039a6.745,6.745,0,0,1-2.27.984q-.191,0-.335-.267A.385.385,0,0,1,6.318-.54q0-.144.157-.157A4.24,4.24,0,0,0,8.4-1.2,3.207,3.207,0,0,0,9.716-2.8a8.335,8.335,0,0,0,.492-2.475ZM8.622-10.083a1.225,1.225,0,0,0-1.121.9,4.664,4.664,0,0,0-.314,1.846,3.823,3.823,0,0,0,.4,1.9,1.157,1.157,0,0,0,1.032.663q.882,0,1.442-1.23a2.412,2.412,0,0,0,.123-.9,5.259,5.259,0,0,0-.444-2.4A1.245,1.245,0,0,0,8.622-10.083ZM19.51-5.715q-.533,1.319-.793,1.853H23.1q.629-.643.766-.643t.745.547q.294.273.294.417,0,.109-.437.4A8.959,8.959,0,0,1,23.6.13a1.876,1.876,0,0,1-.8.793,2.205,2.205,0,0,1-1.046.226.437.437,0,0,1-.294-.068.405.405,0,0,1-.082-.267.907.907,0,0,0-.41-.656A4.991,4.991,0,0,0,19.8-.362q-.041-.021-.041-.1,0-.13.068-.116,1.688.212,2.229.212.342,0,.6-.547A10.983,10.983,0,0,0,23.2-3.541H18.56Q18.2-2.837,18-2.5a.893.893,0,0,1-.342.39.864.864,0,0,1-.4.075,1.292,1.292,0,0,1-.615-.123.3.3,0,0,1-.2-.267,1.246,1.246,0,0,1,.239-.547,16.152,16.152,0,0,0,1.4-2.748H15.662a8.872,8.872,0,0,0-1.073.082l-.157-.513a6.968,6.968,0,0,0,1.176.109h9.058q.834-1,1-1a3.662,3.662,0,0,1,.957.7q.417.362.417.492t-.178.137ZM17.9-7.6v.171q0,.595-.8.595a.638.638,0,0,1-.479-.137.459.459,0,0,1-.1-.321l.041-1.976q0-1.4-.082-2.338a12.668,12.668,0,0,1,1.613.745h5.011q.6-.684.752-.684a2.263,2.263,0,0,1,.772.52q.321.28.321.417,0,.212-.39.444v.451l.027,2.29q0,.574-.827.574-.533,0-.533-.458V-7.6Zm5.332-.321v-2.618H17.9v2.618ZM38.9-5.182,38.93-2.42l.041,2.283A1.263,1.263,0,0,1,38.6.827a1.489,1.489,0,0,1-1.012.321.3.3,0,0,1-.246-.082.794.794,0,0,1-.1-.294A.793.793,0,0,0,36.9.219a3.991,3.991,0,0,0-.937-.328q-.048-.014-.048-.082,0-.089.062-.089.978.082,1.511.082.232,0,.253-.267v-3.1a.746.746,0,0,1-.362.185A6.814,6.814,0,0,1,35.9-1.046,7.975,7.975,0,0,1,33.735.41a.028.028,0,0,1-.021.007q-.109,0-.109-.1a.039.039,0,0,1,.014-.027A7.686,7.686,0,0,0,36.1-3.767h-.786a3.127,3.127,0,0,0-.813.116L34.35-4.2a4.2,4.2,0,0,0,.923.109h.772q.5-.615.656-.615t.772.574a1.4,1.4,0,0,1,.267.294v-2.03H36.715v.144q0,.485-.711.485-.506,0-.506-.4l.055-3.124q0-1.121-.055-2.017a12.99,12.99,0,0,1,1.374.684h.643q.1-.52.13-.725.062-.465.082-.978,1.668.4,1.668.643,0,.219-.492.239a8.52,8.52,0,0,1-.882.82h1.887q.6-.629.745-.629t.745.506q.308.267.308.4a.242.242,0,0,1-.058.167,3.279,3.279,0,0,1-.352.284v.574l.055,3.008a.418.418,0,0,1-.253.424q.9.533,1.148.725t.239.294q0,.219-.574.253a13.954,13.954,0,0,1-1.8,1.025,6.078,6.078,0,0,0,2.741,1.887q.048.021.048.055t-.048.068A1.938,1.938,0,0,0,42.02.027Q41.9.4,41.74.4q-.123,0-.362-.239A7.221,7.221,0,0,1,39.8-1.962,12.578,12.578,0,0,1,38.9-5.182ZM39.935-3.3a7.5,7.5,0,0,0,.649-.937,5.1,5.1,0,0,0,.485-1.107,1.194,1.194,0,0,1-.417.068.649.649,0,0,1-.458-.123.472.472,0,0,1-.1-.342v-.123H38.944A7.26,7.26,0,0,0,39.935-3.3Zm.157-2.885V-7.9H36.715v1.709Zm0-2.03V-9.775H36.715v1.559ZM31.9-5q-.212.041-.622.13-.492.109-.663.15-.123.39-.294.39-.15,0-.26-.335-.1-.314-.26-1.189.349.027.725.027h.745a18,18,0,0,0,1.4-2.536,9.112,9.112,0,0,0,.574-1.511q1.524.7,1.524.964,0,.232-.547.212-.807,1.087-1.278,1.62-.438.485-1.244,1.251.759-.014,2.2-.068a3.665,3.665,0,0,0-.492-1.121.066.066,0,0,1-.014-.034q0-.062.089-.062a.076.076,0,0,1,.034.007q1.586.889,1.586,1.839a.846.846,0,0,1-.205.581.531.531,0,0,1-.41.205.4.4,0,0,1-.369-.226,2.152,2.152,0,0,1-.15-.731l-.014-.137q-.759.253-.909.294v1.948L33.092.656q0,.547-.711.547-.561,0-.561-.451Q31.9-.984,31.9-2.3v-.909a.815.815,0,0,1-.362.137A9.782,9.782,0,0,1,29.8.116a.053.053,0,0,1-.048.021q-.109,0-.109-.082a.028.028,0,0,1,.007-.021,14.886,14.886,0,0,0,.581-2.29,9.7,9.7,0,0,0,.2-1.75,5.99,5.99,0,0,1,1.47.547ZM31.192-9.14q.205-.54.458-1.4.185-.738.267-1.244,1.661.588,1.661.82t-.554.239A20.848,20.848,0,0,1,31.5-8.962a1.212,1.212,0,0,1,.595,1.039.806.806,0,0,1-.205.574.559.559,0,0,1-.424.191.4.4,0,0,1-.369-.15,3.333,3.333,0,0,1-.26-.69,3.16,3.16,0,0,0-.82-1.415A.066.066,0,0,1,30-9.461q0-.109.1-.089A6.157,6.157,0,0,1,31.192-9.14Zm3.65,6.993a.921.921,0,0,1-.191.615.566.566,0,0,1-.451.2.379.379,0,0,1-.383-.253,2.557,2.557,0,0,1-.109-.67,3.978,3.978,0,0,0-.417-1.7.028.028,0,0,1-.007-.021q0-.062.075-.062a.074.074,0,0,1,.041.014Q34.842-3.021,34.842-2.146Z" transform="translate(1182 1933)" fill="#fff"/>
  </g>
</svg>
