<svg xmlns="http://www.w3.org/2000/svg" width="1040" height="56" viewBox="0 0 1040 56">
  <g id="グループ_7207" data-name="グループ 7207" transform="translate(-440 -2482)">
    <path id="パス_13539" data-name="パス 13539" d="M0,0H416V56H0Z" transform="translate(440 2482)" fill="#914831"/>
    <path id="パス_13540" data-name="パス 13540" d="M-42.68-7.844q-.664,0-.664-.461l.031-3.328q0-.992-.07-1.773a15.313,15.313,0,0,1,1.633.813h2.922q.648-.719.82-.719a2.586,2.586,0,0,1,.883.594q.367.32.367.477,0,.2-.43.445v1.945l.016,9.8a1.3,1.3,0,0,1-.437,1.07,1.911,1.911,0,0,1-1.2.336q-.227,0-.273-.062a.8.8,0,0,1-.078-.289.957.957,0,0,0-.422-.68,3.4,3.4,0,0,0-.984-.375.728.728,0,0,1-.617.3A.6.6,0,0,1-41.609.1a2.367,2.367,0,0,1-.383-.484A4.937,4.937,0,0,0-44.1-2.273Q-45.109-.211-48.344.4q-.109.023-.109-.133A.063.063,0,0,1-48.422.2a5.357,5.357,0,0,0,3.313-3.484h-2.156a7.789,7.789,0,0,0-1.078.094l-.172-.586a6.263,6.263,0,0,0,1.2.125h2.289A7.206,7.206,0,0,0-44.9-5.187h-1.875a7.756,7.756,0,0,0-1.07.094l-.18-.586a6.3,6.3,0,0,0,1.2.125h1.344a.571.571,0,0,1-.4-.2,1.721,1.721,0,0,1-.211-.555,2.846,2.846,0,0,0-.656-1.289.126.126,0,0,1-.016-.055.069.069,0,0,1,.078-.078h.016q1.977.484,1.977,1.453,0,.586-.664.719h1.813A13.173,13.173,0,0,0-42.945-6.9,3.827,3.827,0,0,0-42.68-7.844Zm.086,0q1.531.563,1.531.836,0,.2-.539.227a9.625,9.625,0,0,1-1.461,1.227h1.3q.672-.781.867-.781a2.424,2.424,0,0,1,.8.539q.336.313.336.453,0,.156-.211.156h-3.516a13.683,13.683,0,0,1-.148,1.539h2.148q.711-.867.906-.867a2.8,2.8,0,0,1,.883.609q.367.32.367.469t-.211.156h-4.172a7.672,7.672,0,0,1-.258.75,7.512,7.512,0,0,1,2.7.867q.859.523.859,1.133a.908.908,0,0,1-.047.289q.656.047,1.578.047.2,0,.2-.219V-8.4h-3.211Q-41.93-7.867-42.594-7.844Zm3.9-2.891v-1.492h-3.211v1.492Zm-3.211.367v1.6H-38.7v-1.6ZM-49.359-8.4V.734q0,.625-.9.625-.641,0-.641-.562l.086-6.477q0-4.7-.117-7.727a12.9,12.9,0,0,1,1.711.813h2.8q.633-.719.8-.719a2.515,2.515,0,0,1,.867.563q.352.281.352.445t-.469.477v.563l.031,2.867q0,.523-.867.523-.57,0-.57-.461V-8.4Zm3.086-2.336v-1.492h-3.086v1.492Zm-3.086.367v1.6h3.086v-1.6Zm24.881-1.07v2.766h2.555q.727-.812.9-.812a2.841,2.841,0,0,1,.93.641q.383.336.383.492,0,.227-.484.508v1.3q0,3.188.1,6.539,0,.656-.977.656-.641,0-.641-.492V-.492h-9.516V.07q0,.656-.961.656-.625,0-.625-.516.1-2.711.1-6.273,0-2.078-.086-3.523a13.392,13.392,0,0,1,1.789.914h2.1l.016-.656v-2.109h-3.281a8.428,8.428,0,0,0-1.133.094l-.18-.586a6.773,6.773,0,0,0,1.25.125h10.328q1.063-1.148,1.25-1.148a4.288,4.288,0,0,1,1.133.8q.5.414.5.563t-.211.156Zm-1.406,0h-1.539v1.984q0,.523-.016.781h1.555ZM-21.713-.859V-8.3h-2.766V-5.18a.381.381,0,0,0,.141.352,1.044,1.044,0,0,0,.484.078,1.026,1.026,0,0,0,.516-.094.816.816,0,0,0,.3-.383,10.576,10.576,0,0,0,.4-1.234q.008-.047.086-.047.125,0,.125.078v.75a2.275,2.275,0,0,0,.047.594.6.6,0,0,0,.211.227.6.6,0,0,1,.3.492q0,.516-.672.758a5.167,5.167,0,0,1-1.508.156A1.983,1.983,0,0,1-25.6-3.891a2.224,2.224,0,0,1-.289-1.344V-8.3h-1.57a7.019,7.019,0,0,1-1.1,3.6,5.5,5.5,0,0,1-2.43,1.82.032.032,0,0,1-.023.008q-.094,0-.094-.125a.061.061,0,0,1,.023-.055,4.981,4.981,0,0,0,1.625-2.187A10.56,10.56,0,0,0-28.923-8.3h-2.3V-.859ZM-9.777-2.547V-6.32H-11.62a6.127,6.127,0,0,0-.969.094l-.18-.586a5.37,5.37,0,0,0,1.1.125h1.891v-2.93H-12a7.18,7.18,0,0,0-1.023.094l-.172-.586a6.194,6.194,0,0,0,1.18.125h5.336q.75-.883.945-.883a3.388,3.388,0,0,1,.992.625q.414.328.414.469,0,.156-.211.156H-8.269v2.93h1.281q.633-.883.844-.883a3.108,3.108,0,0,1,.93.609q.4.328.4.484t-.2.156h-3.25v3.773h1.984q.648-.945.867-.945a3.145,3.145,0,0,1,.961.672q.4.328.4.484t-.211.156h-7.984a6.16,6.16,0,0,0-.977.094l-.18-.586a5.58,5.58,0,0,0,1.133.125Zm4.383-1.687a.76.76,0,0,1-.234.57.658.658,0,0,1-.484.2A.507.507,0,0,1-6.487-3.6a1.4,1.4,0,0,1-.219-.43A3.7,3.7,0,0,0-7.722-5.547a.068.068,0,0,1-.023-.047q0-.07.086-.07h.023Q-5.394-5.266-5.394-4.234ZM-13.948.047v.4q0,.641-.93.641-.641,0-.641-.531.1-3.039.1-8.281,0-3.227-.086-5.508a15.427,15.427,0,0,1,1.8.93h9.844q.727-.812.9-.812t.914.641q.367.344.367.492,0,.227-.477.508v1.953q0,5.813.094,9.891,0,.656-.961.656-.656,0-.656-.516V.047ZM-3.683-.32V-11.937H-13.948V-.32ZM3.339-3.359v1.633L3.355.625q0,.687-.859.688-.625,0-.625-.594l.063-8.125q0-4.047-.062-5.766,1.047.508,1.563.82H4.925q.609-.687.781-.687t.867.672q.352.352.352.508,0,.2-.5.391A18.975,18.975,0,0,1,4.269-7.953a6.083,6.083,0,0,1,1.7,2.594A11.462,11.462,0,0,0,7.917-7.3a.5.5,0,0,1-.211.047.364.364,0,0,1-.312-.117,2.364,2.364,0,0,1-.211-.539,2.694,2.694,0,0,0-.594-.961q-.5.453-1.125.938a.06.06,0,0,1-.023.008q-.117,0-.117-.148a.087.087,0,0,1,.008-.039,12.349,12.349,0,0,0,2.18-3.875A8.944,8.944,0,0,0,7.9-13.437a13.729,13.729,0,0,1,1.492.445q.266.109.266.227,0,.242-.516.289-.422.8-.445.844H9.886q.461-.477.6-.477a2.619,2.619,0,0,1,.719.477q.289.227.289.367,0,.125-.281.336A9.344,9.344,0,0,1,6.152-5.211a.253.253,0,0,1-.1.039H6.011A5.468,5.468,0,0,1,6.12-4a2.06,2.06,0,0,1-.578,1.523,1.585,1.585,0,0,1-1.133.445q-.3,0-.32-.352A1.182,1.182,0,0,0,3.886-3,1.459,1.459,0,0,0,3.339-3.359Zm0-.273q.32.031.781.031A.682.682,0,0,0,4.5-3.7q.273-.234.273-1.3a5.189,5.189,0,0,0-.242-1.7A4,4,0,0,0,3.87-7.875,16.252,16.252,0,0,0,5-11.984H3.339Zm5.148-7.633-.477.75q1.3.273,1.3.977v.063a7.607,7.607,0,0,0,.625-1.789ZM6.73-8.992q1.523.266,1.523,1.117a.786.786,0,0,1-.016.18,12.178,12.178,0,0,0,.844-1.344.508.508,0,0,1-.32.109.358.358,0,0,1-.3-.117,1.636,1.636,0,0,1-.2-.461,2.812,2.812,0,0,0-.4-.8A11.376,11.376,0,0,1,6.73-8.992Zm4.984,4.914v2.414L11.745.078a1.11,1.11,0,0,1-.289.82,1.746,1.746,0,0,1-1.281.414.412.412,0,0,1-.32-.094A1.637,1.637,0,0,1,9.7.8a.858.858,0,0,0-.43-.539A5.417,5.417,0,0,0,8.23-.094Q8.167-.109,8.167-.2T8.23-.3q1.211.094,1.867.094.211,0,.211-.172v-3.7H8.261a12.978,12.978,0,0,0-1.406.094l-.18-.586a10.962,10.962,0,0,0,1.586.125h5.3q.711-.867.906-.867a3.3,3.3,0,0,1,.977.609q.414.32.414.469t-.2.156ZM13.5-8.828a7.8,7.8,0,0,0,3.133,1.961.075.075,0,0,1,.047.07.111.111,0,0,1-.078.109,1.236,1.236,0,0,0-.5.367,2.45,2.45,0,0,0-.25.656q-.086.3-.227.3a1.5,1.5,0,0,1-.672-.352,9,9,0,0,1-2.383-2.8,10.865,10.865,0,0,1-1.2-3.727.57.57,0,0,0-.164-.352A.31.31,0,0,1,11.1-12.8q0-.055.2-.109a1.419,1.419,0,0,1,.359-.047q.227,0,.227.094a.619.619,0,0,1-.062.164.363.363,0,0,0-.062.188,1.7,1.7,0,0,0,.063.438,8.785,8.785,0,0,0,.531,1.43,8.191,8.191,0,0,0,.633,1.18,3.144,3.144,0,0,0,.242.3,7.744,7.744,0,0,0,1.023-2.266h-.844a4.026,4.026,0,0,0-.961.125l-.18-.625a5.3,5.3,0,0,0,1.141.133h.844q.586-.641.75-.641.187,0,.852.594.352.328.352.477,0,.211-.609.445A8.442,8.442,0,0,1,13.5-8.828Zm0,2.414q0,.156-.211.156H10.238a9.478,9.478,0,0,0-1.18.094l-.18-.586a7.524,7.524,0,0,0,1.312.125H11.5q.617-.734.813-.734a2.111,2.111,0,0,1,.82.523Q13.5-6.516,13.5-6.414Zm2.3,5.969a.935.935,0,0,1-.25.68.72.72,0,0,1-.539.227.642.642,0,0,1-.508-.2,1.918,1.918,0,0,1-.3-.609A6.954,6.954,0,0,0,13.5-1.914a5.687,5.687,0,0,0-.93-1.062.053.053,0,0,1-.023-.047.083.083,0,0,1,.094-.094h.016a6.369,6.369,0,0,1,2.414,1.258A1.956,1.956,0,0,1,15.808-.445ZM9.472-2.414a.227.227,0,0,1-.156.227,1.916,1.916,0,0,1-.5.109A9.694,9.694,0,0,1,5.394.727a.023.023,0,0,1-.016.008q-.117,0-.117-.141A.053.053,0,0,1,5.277.555,10.321,10.321,0,0,0,7.136-1.922a5.674,5.674,0,0,0,.523-1.3Q9.472-2.68,9.472-2.414Zm17.6-8.578H31q.773-.9.945-.9a4,4,0,0,1,1.141.82q.492.438.492.594a.249.249,0,0,1-.18.258,2.554,2.554,0,0,1-.617.078,1.213,1.213,0,0,0-.656.273,12.041,12.041,0,0,1-1.344.813.1.1,0,0,1-.055.016q-.094,0-.094-.062a.069.069,0,0,1,.008-.031,5.7,5.7,0,0,0,.477-1.492H28.572v2.609a.429.429,0,0,0,.3.453,4.128,4.128,0,0,0,1.055.086,5.034,5.034,0,0,0,1.617-.172.731.731,0,0,0,.352-.328q.117-.2.461-.961a.08.08,0,0,1,.078-.055q.07,0,.07.063v.883q0,.156.07.2a1.235,1.235,0,0,0,.344.133.465.465,0,0,1,.383.492q0,.5-.867.734a8.942,8.942,0,0,1-2.4.242,6.158,6.158,0,0,1-2.445-.3,1.124,1.124,0,0,1-.477-1.078v-3.008H25.564a5.191,5.191,0,0,1-1.687,3.711A7.847,7.847,0,0,1,19.97-5.57q-.1.023-.1-.141a.067.067,0,0,1,.039-.07,6.62,6.62,0,0,0,3.156-1.937,5.582,5.582,0,0,0,.984-2.906H21.5q.016.164.016.3a2.457,2.457,0,0,1-.391,1.469,1.051,1.051,0,0,1-.883.469.779.779,0,0,1-.617-.258.822.822,0,0,1-.2-.57.811.811,0,0,1,.516-.766,2.118,2.118,0,0,0,.883-.719A2.734,2.734,0,0,0,21.1-11.75a.09.09,0,0,1,.1-.07.061.061,0,0,1,.07.055,4.544,4.544,0,0,1,.18.773h4.078v-1.3a7.988,7.988,0,0,0-.078-.992q2.141.2,2.141.516,0,.2-.523.445ZM25.392,0V-4.047H22.306a8.322,8.322,0,0,0-1.109.094l-.172-.586a6.37,6.37,0,0,0,1.219.125h7.211q.984-1.1,1.172-1.1a4.013,4.013,0,0,1,1.094.766q.477.391.477.547t-.211.156H27.009V0h3.617q.945-1.234,1.148-1.234a4.65,4.65,0,0,1,1.156.852q.508.445.508.586,0,.164-.2.164H21.1A13.756,13.756,0,0,0,19.65.461l-.18-.586A12.132,12.132,0,0,0,21.134,0ZM46.953-7.422a4.563,4.563,0,0,0,1.938,1.563,7.49,7.49,0,0,0,2.914.734q.063,0,.063.078a.1.1,0,0,1-.062.1A1.674,1.674,0,0,0,50.859-3.8q-.078.3-.273.3a1.376,1.376,0,0,1-.477-.18,7.417,7.417,0,0,1-1.937-1.4,1.017,1.017,0,0,1-.3.32V-4.4l.047,1.727q0,.531-.867.531-.594,0-.594-.484v-.156H43.234v1.8a.555.555,0,0,0,.148.453,1.752,1.752,0,0,0,.828.18q.531.039,2.055.039a14.589,14.589,0,0,0,1.461-.047,1.737,1.737,0,0,0,.711-.211,1.736,1.736,0,0,0,.641-.742,9.169,9.169,0,0,0,.508-1.328q.016-.039.078-.039.117,0,.117.086-.008.18-.039.617-.055.883-.055.984,0,.2.258.289a.552.552,0,0,1,.383.531q0,.664-.914.93a15.781,15.781,0,0,1-3.562.258A9.894,9.894,0,0,1,42.477.68a1.269,1.269,0,0,1-.633-1.273l.031-2.031q0-.828-.047-1.266a12.482,12.482,0,0,1,1.547.742h3.078V-5.141H43.742A2.433,2.433,0,0,0,42.961-5l-.125-.461a9.262,9.262,0,0,1-3.25,2.016.032.032,0,0,1-.023.008q-.109,0-.109-.117a.053.053,0,0,1,.023-.047,8.955,8.955,0,0,0,1.984-1.836A9.027,9.027,0,0,0,42.7-7.422h-1.18a4.837,4.837,0,0,0-.852.094L40.5-7.914a4,4,0,0,0,.953.125h1.508v-2.578H41.906a4.385,4.385,0,0,0-.8.094l-.172-.586a3.729,3.729,0,0,0,.914.125h1.117v-.883a12.562,12.562,0,0,0-.125-1.7q1.938.2,1.938.5,0,.164-.469.383v1.7H46.3v-1.039q0-.461-.062-1.539a8.531,8.531,0,0,1,1.664.258q.234.086.234.227,0,.164-.461.383v1.711h.867q.727-.883.922-.883a3.108,3.108,0,0,1,.93.609q.4.328.4.484t-.2.156H47.672v2.578h1.266q.773-.945.977-.945a3.246,3.246,0,0,1,.977.672q.414.344.414.484,0,.156-.211.156Zm-.344,0H44.367a9.919,9.919,0,0,1-1.406,1.836,3.9,3.9,0,0,0,.781.078h2.586q.352-.523.539-.523a2.239,2.239,0,0,1,.758.367A6.938,6.938,0,0,1,46.609-7.422ZM46.3-10.367H44.3v2.578H46.3Zm-5.906-.977a.924.924,0,0,1-.258.7.644.644,0,0,1-.461.188.628.628,0,0,1-.531-.234,4.548,4.548,0,0,1-.383-.742,4.131,4.131,0,0,0-1.141-1.445.063.063,0,0,1-.031-.047q0-.078.094-.078a4.227,4.227,0,0,1,2.086.594A1.254,1.254,0,0,1,40.391-11.344ZM39.25-7.586a.882.882,0,0,1-.25.664.735.735,0,0,1-.531.2.578.578,0,0,1-.477-.242,3.7,3.7,0,0,1-.359-.7,3.869,3.869,0,0,0-1.1-1.414.05.05,0,0,1-.031-.047q0-.078.094-.078Q39.25-8.977,39.25-7.586Zm1.461-1.266q-1.07,3.742-1.6,5.3a3.519,3.519,0,0,0-.227,1.008,3.485,3.485,0,0,0,.3,1.219,3.592,3.592,0,0,1,.3,1.219,1.156,1.156,0,0,1-.328.867.964.964,0,0,1-.711.281q-.766,0-.766-.812a7,7,0,0,1,.078-.93,4.747,4.747,0,0,0,.047-.656,1.864,1.864,0,0,0-.219-1.086,2.475,2.475,0,0,0-.945-.531q-.039-.016-.039-.094,0-.164.094-.148a4.886,4.886,0,0,0,.539.031.884.884,0,0,0,.773-.4,57.915,57.915,0,0,0,2.5-5.359q.016-.039.047-.039a.152.152,0,0,1,.078.031Q40.719-8.906,40.711-8.852Z" transform="translate(648 2516)" fill="#fff"/>
    <path id="パス_13541" data-name="パス 13541" d="M0,0H152V56H0Z" transform="translate(1016 2482)" fill="#fff"/>
    <path id="パス_13542" data-name="パス 13542" d="M-7.339-10.625A8.01,8.01,0,0,0-4.6-8.484a13.765,13.765,0,0,0,3.477,1.07.078.078,0,0,1,.055.086q0,.094-.07.109a1.359,1.359,0,0,0-.945.977,1.3,1.3,0,0,1-.117.332.178.178,0,0,1-.156.066,2.91,2.91,0,0,1-.781-.3,14.985,14.985,0,0,1-1.75-1.07A9.882,9.882,0,0,1-7.73-10.625H-9.363a11.242,11.242,0,0,1-3.008,3.2A15.437,15.437,0,0,1-16.159-5.5a.032.032,0,0,1-.023.008q-.109,0-.109-.148a.053.053,0,0,1,.023-.047,14.454,14.454,0,0,0,5.2-4.937h-3.359a11.652,11.652,0,0,0-1.312.094l-.172-.586a8.946,8.946,0,0,0,1.438.125h3.617a10.38,10.38,0,0,0,.977-2.445q2.055.453,2.055.75t-.664.445q-.227.516-.641,1.25h4.867q.891-1.055,1.086-1.055a4.327,4.327,0,0,1,1.133.734q.492.391.492.531,0,.156-.2.156Zm-.727,6.109v.9L-8-.211a1.279,1.279,0,0,1-.672,1.219,2.2,2.2,0,0,1-1.234.32.347.347,0,0,1-.3-.133,1.677,1.677,0,0,1-.141-.461Q-10.488.125-12-.3q-.063-.016-.062-.117T-12-.531q1.4.1,2.156.1.211,0,.211-.227V-4.516h-4.047a12.888,12.888,0,0,0-1.391.094l-.18-.586a10.555,10.555,0,0,0,1.555.125h8.859q.875-1.039,1.078-1.039A3.646,3.646,0,0,1-2.722-5.2q.445.383.445.531t-.211.156Zm2.523-2.508q0,.156-.2.156h-5.211a9.514,9.514,0,0,0-1.187.094l-.172-.586a6.987,6.987,0,0,0,1.258.125H-7.87q.8-.9.984-.9a3.068,3.068,0,0,1,.945.625Q-5.542-7.18-5.542-7.023ZM-2.628-.43A.982.982,0,0,1-2.894.3a.786.786,0,0,1-.578.234.671.671,0,0,1-.57-.258A9.811,9.811,0,0,1-4.7-.961,7.256,7.256,0,0,0-6.745-3.344a.084.084,0,0,1-.023-.062q0-.125.1-.1A8,8,0,0,1-3.573-2.094,2.207,2.207,0,0,1-2.628-.43Zm-8.227-2.3q0,.266-.742.352A10.612,10.612,0,0,1-15.9.727a.069.069,0,0,1-.031.008q-.148,0-.148-.133A.045.045,0,0,1-16.066.57a10.626,10.626,0,0,0,2.719-3.1A5.527,5.527,0,0,0-12.784-3.8a15.2,15.2,0,0,1,1.609.727Q-10.855-2.891-10.855-2.734ZM10.9-2.32a6.159,6.159,0,0,0,.563.352A13.763,13.763,0,0,0,16.152-.492q.062.008.063.1t-.062.109a1.459,1.459,0,0,0-.766.352,1.724,1.724,0,0,0-.352.672q-.125.367-.367.367A2.766,2.766,0,0,1,13.847.9,11.177,11.177,0,0,1,11.339-.4,7.719,7.719,0,0,1,9.183-2.508,13.737,13.737,0,0,1,7.808-5.391H5.55V-.93a28.931,28.931,0,0,0,3.586-.906h.016q.1,0,.1.156a.061.061,0,0,1-.023.055A27.5,27.5,0,0,1,3.331.992q-.07.609-.383.609-.164,0-.3-.3-.117-.266-.617-1.672.547-.047,1.18-.141.148-.031.453-.07.266-.039.4-.062V-5.883q0-3.516-.094-5.859a13.892,13.892,0,0,1,1.7.8H7.839v-1.391q0-.344-.062-.977,2.117.2,2.117.531,0,.219-.547.477v1.359h2.422q.641-.719.813-.719a2.6,2.6,0,0,1,.883.578q.367.32.367.477,0,.172-.484.461v.867l.086,3.7a.407.407,0,0,1-.117.313q1.633.9,1.633,1.172,0,.227-.5.227H14.23A15.737,15.737,0,0,1,10.9-2.32Zm-.367-.258a14.829,14.829,0,0,0,1.8-1.547,7.218,7.218,0,0,0,.852-1.023,1.421,1.421,0,0,1-.7.141q-.547,0-.594-.383H8.206A8.409,8.409,0,0,0,10.534-2.578Zm1.359-3.18V-8.047H5.55v2.289Zm0-2.656v-2.164H5.55v2.164Z" transform="translate(1092 2516)" fill="#111"/>
    <path id="パス_13543" data-name="パス 13543" d="M0,0H152V56H0Z" transform="translate(1328 2482)" fill="#c89932"/>
    <path id="パス_13544" data-name="パス 13544" d="M-17.358-7.891a12.973,12.973,0,0,1-.828,3.352A9.536,9.536,0,0,1-19.616-2.2a10.552,10.552,0,0,1-5.266,3.328q-.039.008-.086-.043a.155.155,0,0,1-.047-.105.053.053,0,0,1,.023-.047A11.041,11.041,0,0,0-19.842-4.5a13.137,13.137,0,0,0,.9-3.8H-23.2a13.756,13.756,0,0,0-1.453.094l-.18-.586a12.131,12.131,0,0,0,1.664.125h4.258q.125-1.414.125-2.961,0-.617-.062-1.484a15.105,15.105,0,0,1,1.914.328q.352.109.352.328t-.555.461a32.407,32.407,0,0,1-.141,3.328H-13.2q.945-1.234,1.148-1.234a4.651,4.651,0,0,1,1.156.867q.492.43.492.57,0,.164-.2.164h-6.516a10.082,10.082,0,0,0,2.984,5.281A10.537,10.537,0,0,0-10.123-.766a.078.078,0,0,1,.055.086.108.108,0,0,1-.07.117A1.855,1.855,0,0,0-11.256.719q-.094.32-.242.32a2.143,2.143,0,0,1-.992-.477,11.275,11.275,0,0,1-2.594-2.453A12.55,12.55,0,0,1-17.358-7.891ZM4.977-1.328A44.642,44.642,0,0,1-1.828.227,1.793,1.793,0,0,1-1.992.75a.22.22,0,0,1-.2.1q-.187,0-.312-.359-.109-.32-.516-1.9.617.063.992.063h.352a50.01,50.01,0,0,0,2.3-8.781,26.9,26.9,0,0,0,.289-2.789q1.727.375,2.133.523.336.125.336.313,0,.289-.633.477A48.784,48.784,0,0,1,.992-5.68,34.545,34.545,0,0,1-.992-1.359a55.791,55.791,0,0,0,5.852-.4A18.7,18.7,0,0,0,3.2-5.945a.023.023,0,0,1-.008-.016q0-.117.148-.117a.064.064,0,0,1,.047.016A19.257,19.257,0,0,1,6.242-2.734,4.211,4.211,0,0,1,6.984-.562a1.487,1.487,0,0,1-.3.977.814.814,0,0,1-.648.3A.64.64,0,0,1,5.461.383,3.352,3.352,0,0,1,5.117-.656ZM-5.086-7.1a12.955,12.955,0,0,1-2.3,1.953.053.053,0,0,1-.039.016q-.133,0-.133-.109a.069.069,0,0,1,.008-.031A16.263,16.263,0,0,0-4.32-10.484a12.805,12.805,0,0,0,.781-2.828q2.133.6,2.133.9,0,.25-.609.383A18.821,18.821,0,0,1-4.031-8.367a3.207,3.207,0,0,1,.68.156.2.2,0,0,1,.117.18q0,.18-.414.367v8.3q0,.672-.828.672-.7,0-.7-.578.094-1.75.094-4.242Zm23.428-4h1.742v-1.055a7.607,7.607,0,0,0-.094-1.172q2.016.172,2.016.445,0,.172-.445.438V-11.1h1.68q.6-.734.781-.734a3.026,3.026,0,0,1,.961.656q.4.359.4.508,0,.281-.531.3a1.02,1.02,0,0,0-.4.211q-.5.375-1.133.781.07.039.4.273.352.258.352.43,0,.133-.383.4v.43l.031,2.2q0,.688-.836.688a.657.657,0,0,1-.516-.164.751.751,0,0,1-.117-.477v-.062H19.256v2.109h3.328q.672-.75.844-.75a2.533,2.533,0,0,1,.883.539q.367.3.367.469,0,.117-.414.461v.563l.047,2.93q0,.7-.883.7a.694.694,0,0,1-.539-.164A.714.714,0,0,1,22.756.7V.227h-3.5V.758q0,.719-.852.719-.672,0-.672-.578l.086-7.375q0-1.3-.055-2.594a.944.944,0,0,1-.461.125.656.656,0,0,1-.75-.734.768.768,0,0,1,.516-.758,1.513,1.513,0,0,0,.891-1.422.079.079,0,0,1,.086-.062.091.091,0,0,1,.094.063A4.941,4.941,0,0,1,18.342-11.1Zm.047.367a2.078,2.078,0,0,1,.016.258,2.042,2.042,0,0,1-.172.859,9.374,9.374,0,0,1,1.133.656h2.773q.562-.625.727-.625a.54.54,0,0,1,.242.063q.148-.5.3-1.211Zm.867,7.547V-.141h3.5V-3.187Zm2.992-2.844V-8.594H19.256v2.563ZM12.694-.812A18.863,18.863,0,0,0,15-1.391a5.715,5.715,0,0,0-1.07-1.547.1.1,0,0,1-.016-.055.083.083,0,0,1,.094-.094h.016a4.841,4.841,0,0,1,2.117,1.125A1.884,1.884,0,0,1,16.8-.6a1.173,1.173,0,0,1-.258.8.727.727,0,0,1-.57.258A.453.453,0,0,1,15.608.3a1.594,1.594,0,0,1-.2-.477,6.792,6.792,0,0,0-.258-.8A23.582,23.582,0,0,1,11.506.82q-.063.539-.312.539-.156,0-.32-.391-.156-.359-.516-1.477.031,0,.977-.1V-4.844q0-2.367-.062-4.289a12.164,12.164,0,0,1-1.078.641h-.016q-.109,0-.109-.141a.053.053,0,0,1,.016-.039,15.892,15.892,0,0,0,2.18-2.8,7.8,7.8,0,0,0,.875-1.969q1.383.578,1.672.719.266.141.266.242,0,.219-.562.234a5.346,5.346,0,0,1,1.688.781,1.043,1.043,0,0,1,.414.828.8.8,0,0,1-.219.563.6.6,0,0,1-.437.2.428.428,0,0,1-.359-.141,4.727,4.727,0,0,1-.359-.711,4.334,4.334,0,0,0-.93-1.328,11.9,11.9,0,0,1-2.719,2.688q.461.2,1.164.594h.563v-.977a9.15,9.15,0,0,0-.062-.945q1.8.156,1.8.414,0,.156-.414.352v1.156H15q.531-.578.7-.578a2.1,2.1,0,0,1,.8.484q.32.25.32.414,0,.148-.383.414v.625l.031,3.453q0,.609-.781.609a.676.676,0,0,1-.5-.133.593.593,0,0,1-.109-.406v-.227H12.694Zm2.383-5.875V-8.4H12.694v1.711Zm-2.383.367v1.844h2.383V-6.32Z" transform="translate(1404 2516)" fill="#fff"/>
    <path id="パス_12685" data-name="パス 12685" d="M-3740.938,12067.5H-3876v-1h135.061Z" transform="translate(5054 -9557)" fill="#fff"/>
    <path id="パス_13545" data-name="パス 13545" d="M4,0,8,7H0Z" transform="translate(1318 2506) rotate(90)" fill="#fff"/>
    <path id="パス_12685-2" data-name="パス 12685" d="M-3740.938,12067.5H-3876v-1h135.061Z" transform="translate(4742 -9555)" fill="#fff"/>
    <path id="パス_13547" data-name="パス 13547" d="M4,0,8,7H0Z" transform="translate(1006 2508) rotate(90)" fill="#fff"/>
  </g>
</svg>
