<svg xmlns="http://www.w3.org/2000/svg" width="1040.11" height="137.203" viewBox="0 0 1040.11 137.203">
  <g id="グループ_7205" data-name="グループ 7205" transform="translate(-440 -2103)">
    <path id="パス_13504" data-name="パス 13504" d="M0,0H103.11V56H0Z" transform="translate(1377 2103)" fill="#c89932"/>
    <path id="パス_13505" data-name="パス 13505" d="M-17.358-7.891a12.973,12.973,0,0,1-.828,3.352A9.536,9.536,0,0,1-19.616-2.2a10.552,10.552,0,0,1-5.266,3.328q-.039.008-.086-.043a.155.155,0,0,1-.047-.105.053.053,0,0,1,.023-.047A11.041,11.041,0,0,0-19.842-4.5a13.137,13.137,0,0,0,.9-3.8H-23.2a13.756,13.756,0,0,0-1.453.094l-.18-.586a12.131,12.131,0,0,0,1.664.125h4.258q.125-1.414.125-2.961,0-.617-.062-1.484a15.105,15.105,0,0,1,1.914.328q.352.109.352.328t-.555.461a32.407,32.407,0,0,1-.141,3.328H-13.2q.945-1.234,1.148-1.234a4.651,4.651,0,0,1,1.156.867q.492.43.492.57,0,.164-.2.164h-6.516a10.082,10.082,0,0,0,2.984,5.281A10.537,10.537,0,0,0-10.123-.766a.078.078,0,0,1,.055.086.108.108,0,0,1-.07.117A1.855,1.855,0,0,0-11.256.719q-.094.32-.242.32a2.143,2.143,0,0,1-.992-.477,11.275,11.275,0,0,1-2.594-2.453A12.55,12.55,0,0,1-17.358-7.891ZM4.977-1.328A44.642,44.642,0,0,1-1.828.227,1.793,1.793,0,0,1-1.992.75a.22.22,0,0,1-.2.1q-.187,0-.312-.359-.109-.32-.516-1.9.617.063.992.063h.352a50.01,50.01,0,0,0,2.3-8.781,26.9,26.9,0,0,0,.289-2.789q1.727.375,2.133.523.336.125.336.313,0,.289-.633.477A48.784,48.784,0,0,1,.992-5.68,34.545,34.545,0,0,1-.992-1.359a55.791,55.791,0,0,0,5.852-.4A18.7,18.7,0,0,0,3.2-5.945a.023.023,0,0,1-.008-.016q0-.117.148-.117a.064.064,0,0,1,.047.016A19.257,19.257,0,0,1,6.242-2.734,4.211,4.211,0,0,1,6.984-.562a1.487,1.487,0,0,1-.3.977.814.814,0,0,1-.648.3A.64.64,0,0,1,5.461.383,3.352,3.352,0,0,1,5.117-.656ZM-5.086-7.1a12.955,12.955,0,0,1-2.3,1.953.053.053,0,0,1-.039.016q-.133,0-.133-.109a.069.069,0,0,1,.008-.031A16.263,16.263,0,0,0-4.32-10.484a12.805,12.805,0,0,0,.781-2.828q2.133.6,2.133.9,0,.25-.609.383A18.821,18.821,0,0,1-4.031-8.367a3.207,3.207,0,0,1,.68.156.2.2,0,0,1,.117.18q0,.18-.414.367v8.3q0,.672-.828.672-.7,0-.7-.578.094-1.75.094-4.242Zm23.428-4h1.742v-1.055a7.607,7.607,0,0,0-.094-1.172q2.016.172,2.016.445,0,.172-.445.438V-11.1h1.68q.6-.734.781-.734a3.026,3.026,0,0,1,.961.656q.4.359.4.508,0,.281-.531.3a1.02,1.02,0,0,0-.4.211q-.5.375-1.133.781.07.039.4.273.352.258.352.43,0,.133-.383.4v.43l.031,2.2q0,.688-.836.688a.657.657,0,0,1-.516-.164.751.751,0,0,1-.117-.477v-.062H19.256v2.109h3.328q.672-.75.844-.75a2.533,2.533,0,0,1,.883.539q.367.3.367.469,0,.117-.414.461v.563l.047,2.93q0,.7-.883.7a.694.694,0,0,1-.539-.164A.714.714,0,0,1,22.756.7V.227h-3.5V.758q0,.719-.852.719-.672,0-.672-.578l.086-7.375q0-1.3-.055-2.594a.944.944,0,0,1-.461.125.656.656,0,0,1-.75-.734.768.768,0,0,1,.516-.758,1.513,1.513,0,0,0,.891-1.422.079.079,0,0,1,.086-.062.091.091,0,0,1,.094.063A4.941,4.941,0,0,1,18.342-11.1Zm.047.367a2.078,2.078,0,0,1,.016.258,2.042,2.042,0,0,1-.172.859,9.374,9.374,0,0,1,1.133.656h2.773q.562-.625.727-.625a.54.54,0,0,1,.242.063q.148-.5.3-1.211Zm.867,7.547V-.141h3.5V-3.187Zm2.992-2.844V-8.594H19.256v2.563ZM12.694-.812A18.863,18.863,0,0,0,15-1.391a5.715,5.715,0,0,0-1.07-1.547.1.1,0,0,1-.016-.055.083.083,0,0,1,.094-.094h.016a4.841,4.841,0,0,1,2.117,1.125A1.884,1.884,0,0,1,16.8-.6a1.173,1.173,0,0,1-.258.8.727.727,0,0,1-.57.258A.453.453,0,0,1,15.608.3a1.594,1.594,0,0,1-.2-.477,6.792,6.792,0,0,0-.258-.8A23.582,23.582,0,0,1,11.506.82q-.063.539-.312.539-.156,0-.32-.391-.156-.359-.516-1.477.031,0,.977-.1V-4.844q0-2.367-.062-4.289a12.164,12.164,0,0,1-1.078.641h-.016q-.109,0-.109-.141a.053.053,0,0,1,.016-.039,15.892,15.892,0,0,0,2.18-2.8,7.8,7.8,0,0,0,.875-1.969q1.383.578,1.672.719.266.141.266.242,0,.219-.562.234a5.346,5.346,0,0,1,1.688.781,1.043,1.043,0,0,1,.414.828.8.8,0,0,1-.219.563.6.6,0,0,1-.437.2.428.428,0,0,1-.359-.141,4.727,4.727,0,0,1-.359-.711,4.334,4.334,0,0,0-.93-1.328,11.9,11.9,0,0,1-2.719,2.688q.461.2,1.164.594h.563v-.977a9.15,9.15,0,0,0-.062-.945q1.8.156,1.8.414,0,.156-.414.352v1.156H15q.531-.578.7-.578a2.1,2.1,0,0,1,.8.484q.32.25.32.414,0,.148-.383.414v.625l.031,3.453q0,.609-.781.609a.676.676,0,0,1-.5-.133.593.593,0,0,1-.109-.406v-.227H12.694Zm2.383-5.875V-8.4H12.694v1.711Zm-2.383.367v1.844h2.383V-6.32Z" transform="translate(1429 2137)" fill="#fff"/>
    <path id="パス_13506" data-name="パス 13506" d="M0,0H103.111V137.2H0Z" transform="translate(1143 2103)" fill="#fff"/>
    <path id="パス_13507" data-name="パス 13507" d="M0,0H103.111V56H0Z" transform="translate(440 2103)" fill="#914831"/>
    <path id="パス_13508" data-name="パス 13508" d="M-9.745-3.109A12.935,12.935,0,0,1-12.956-.594,17.755,17.755,0,0,1-16.417.766q-.039.008-.082-.051a.2.2,0,0,1-.043-.121.056.056,0,0,1,.031-.055,13.549,13.549,0,0,0,5.836-4.8h-2.062V-4.1q0,.578-.875.578-.609,0-.609-.461.094-1.539.094-3.727,0-1.383-.094-2.32.836.336,1.625.719h2.8v-1.7h-4.93a10.328,10.328,0,0,0-1.234.094l-.172-.586a8.481,8.481,0,0,0,1.406.125h4.93v-.094A12.544,12.544,0,0,0-9.9-13.437a15.714,15.714,0,0,1,1.742.258q.281.086.281.266t-.461.406v1.133h3.984Q-3.5-12.383-3.3-12.383a4.3,4.3,0,0,1,1.125.7q.492.367.492.516t-.2.156H-8.339v1.7H-5.23q.641-.625.8-.625a2.424,2.424,0,0,1,.852.563q.352.3.352.461,0,.2-.437.43v.727l.07,3.625q0,.578-.883.578a.707.707,0,0,1-.508-.133A.579.579,0,0,1-5.1-4.1v-.156H-8.128A7.476,7.476,0,0,0-5.034-1.922,10.489,10.489,0,0,0-1.308-.93q.062,0,.063.078t-.062.094A1.389,1.389,0,0,0-2.331.289q-.094.461-.32.461A2.256,2.256,0,0,1-3.292.539a12.287,12.287,0,0,1-2.82-1.758A11.031,11.031,0,0,1-8.4-4.133q.016.445.109,3.266.047,1.453.047,1.68,0,.594-.969.594-.656,0-.656-.516,0-.2.047-1.625Q-9.769-2.2-9.745-3.109Zm-.047-1.516V-6.672h-2.945v2.047Zm1.453,0H-5.1V-6.672H-8.339Zm0-4.32v1.906H-5.1V-8.945Zm-1.453,0h-2.945v1.906h2.945Zm19.319,3.8v1.6L9.573-.211a1.553,1.553,0,0,1-.172.8,1.333,1.333,0,0,1-.492.438,2.691,2.691,0,0,1-1.234.289q-.258,0-.3-.047a.812.812,0,0,1-.086-.32A1.01,1.01,0,0,0,6.816.2a4.636,4.636,0,0,0-1.25-.469q-.055-.016-.055-.109t.055-.1q1.125.109,2.2.109.211,0,.211-.234V-5.141H5.448v.109a.645.645,0,0,1-.234.578,1.139,1.139,0,0,1-.648.141q-.672,0-.672-.578l.07-3.125q0-.9-.07-1.609a13.971,13.971,0,0,1,1.7.8H11.9q.633-.7.8-.7a2.8,2.8,0,0,1,.9.578q.367.3.367.461,0,.211-.453.461V-7.5l.055,2.664q0,.625-.883.625a.7.7,0,0,1-.555-.164.849.849,0,0,1-.117-.523v-.242Zm2.492-.367V-8.461H5.448v2.953ZM7.941-10.961v-1.391a8.586,8.586,0,0,0-.094-1.055,9.86,9.86,0,0,1,1.883.281q.281.094.281.242,0,.2-.516.406v1.516h3.789q1.031-1.1,1.219-1.1a3.958,3.958,0,0,1,1.086.766q.469.4.469.547t-.211.156H2.886a8.356,8.356,0,0,0-1.117.094l-.18-.586a7.176,7.176,0,0,0,1.3.125ZM14.98-.641a1,1,0,0,1-.273.727.8.8,0,0,1-.578.234.716.716,0,0,1-.617-.289,9.811,9.811,0,0,1-.687-1.344,7.736,7.736,0,0,0-1.914-2.3.053.053,0,0,1-.023-.047q0-.117.094-.117H11Q14.98-2.312,14.98-.641Zm-8.2-2.141q0,.242-.742.289A10.508,10.508,0,0,1,4.027-.648,12.613,12.613,0,0,1,1.792.484a.032.032,0,0,1-.023.008q-.133,0-.133-.141A.053.053,0,0,1,1.652.313,11.228,11.228,0,0,0,4.4-2.719a6.71,6.71,0,0,0,.547-1.141,16.623,16.623,0,0,1,1.508.7Q6.777-2.961,6.777-2.781Z" transform="translate(492 2137)" fill="#fff"/>
    <path id="パス_13509" data-name="パス 13509" d="M0,0H103.111V137.2H0Z" transform="translate(674 2103)" fill="#fff"/>
    <path id="パス_13467" data-name="パス 13467" d="M-18.623-11.219h3.3q.758-.812.922-.812.18,0,.977.719.4.352.4.523a.272.272,0,0,1-.141.258,3.383,3.383,0,0,1-.562.211,16.823,16.823,0,0,1-5.5,5.664l.031.016h5.344q.672-.766.844-.766a2.67,2.67,0,0,1,.9.609q.367.32.367.477t-.445.461V-3.1l.063,3.758q0,.625-.961.625a.756.756,0,0,1-.531-.141.583.583,0,0,1-.125-.422V.3h-5.562V.688q0,.625-.914.625a.741.741,0,0,1-.539-.148A.573.573,0,0,1-20.9.734q.1-1.6.1-3.953a5.459,5.459,0,0,0-.023-.594,23.907,23.907,0,0,1-3.906,1.461q-.109.023-.109-.133a.063.063,0,0,1,.031-.062,20.611,20.611,0,0,0,5.859-3.742,1.008,1.008,0,0,1-.172.031q-.461,0-.672-.781A4.133,4.133,0,0,0-20.8-8.867,15,15,0,0,1-24.28-6.781a.06.06,0,0,1-.023.008.11.11,0,0,1-.125-.125.053.053,0,0,1,.016-.039,14.422,14.422,0,0,0,4.094-4.4,9.668,9.668,0,0,0,1.008-2.148,10.628,10.628,0,0,1,1.633.453q.32.148.32.344,0,.266-.609.43Q-18.17-11.9-18.623-11.219Zm-.273.367a12.564,12.564,0,0,1-1.711,1.828,4.018,4.018,0,0,1,1.719.836,1.359,1.359,0,0,1,.523,1.016.934.934,0,0,1-.1.438,16.839,16.839,0,0,0,3.219-4.117ZM-13.748-.062V-4.273h-5.562V-.062ZM.625-9.086v3.68H3.2q.687-.812.859-.812a3.116,3.116,0,0,1,.977.672q.414.352.414.508,0,.219-.523.516v1.336L4.977.7q0,.656-.992.656-.656,0-.656-.562V.109H-3.445V.734q0,.625-.992.625-.641,0-.641-.547l.047-5.242q0-1.039-.047-1.891.961.438,1.789.914H-.945v-3.68h-4.82a11.493,11.493,0,0,0-1.312.094l-.172-.586a8.481,8.481,0,0,0,1.406.125h4.9v-2.078a17.591,17.591,0,0,0-.078-1.859q2.227.2,2.227.516,0,.273-.578.461v2.961H4.4q.992-1.187,1.188-1.187a4.841,4.841,0,0,1,1.18.82q.531.422.531.578t-.211.156Zm2.7,8.828V-5.039H-3.445V-.258ZM16.412-5.3h.719q2.836-.031,3.984-.156a4.185,4.185,0,0,0-1.5-1.328.046.046,0,0,1-.023-.039.142.142,0,0,1,.047-.1.1.1,0,0,1,.086-.039q3.531.617,3.531,2.273a.978.978,0,0,1-.191.625.6.6,0,0,1-.5.242.651.651,0,0,1-.492-.2,4.609,4.609,0,0,1-.516-.75l-.172-.289A53.023,53.023,0,0,1,14.67-3.914q-.172.508-.4.508-.18,0-.3-.4-.109-.344-.359-1.555.742.063,1.391.063h.719a11.539,11.539,0,0,0,.563-2.141H13.2A20.71,20.71,0,0,1,12.67-3.5,10.7,10.7,0,0,1,10.256.945a.053.053,0,0,1-.039.016.11.11,0,0,1-.125-.125A.06.06,0,0,1,10.1.813a13.944,13.944,0,0,0,1.289-4.367,51.27,51.27,0,0,0,.336-6.766q0-1.523-.078-3.039,1.039.469,1.844.914h8.57q.672-.781.844-.781t.883.609q.352.3.352.461,0,.234-.445.508v.547l.031,1.578q0,.547-.9.547a.7.7,0,0,1-.516-.133.717.717,0,0,1-.125-.477H13.28L13.233-7.8h8.922q.687-.93.9-.93a3.694,3.694,0,0,1,1.039.656q.445.336.445.484t-.211.156H18.108A11.46,11.46,0,0,1,16.412-5.3Zm5.773-4.656v-2.125H13.3v2.125ZM18.9-1.906V.352h3.039q.906-1.117,1.1-1.117a4.8,4.8,0,0,1,1.172.781q.508.406.508.547,0,.156-.2.156H13.389A7.824,7.824,0,0,0,12.3.813l-.18-.586a8.4,8.4,0,0,0,1.391.125H17.42V-1.906H14.858a8.98,8.98,0,0,0-1.164.094l-.18-.586a10.14,10.14,0,0,0,1.539.125H17.42v-.781a6.939,6.939,0,0,0-.094-1.172q2.055.2,2.055.516,0,.2-.477.4v1.039h2.383q.8-.914.992-.914a3.771,3.771,0,0,1,1.047.641q.445.336.445.484t-.211.156Z" transform="translate(726 2177.484)" fill="#111"/>
    <path id="パス_13510" data-name="パス 13510" d="M0,0H103.111V56H0Z" transform="translate(908 2103)" fill="#fff"/>
    <path id="パス_13511" data-name="パス 13511" d="M-8.073-5.141v1.6l.047,3.328a1.553,1.553,0,0,1-.172.8,1.333,1.333,0,0,1-.492.438,2.691,2.691,0,0,1-1.234.289q-.258,0-.3-.047a.812.812,0,0,1-.086-.32A1.01,1.01,0,0,0-10.784.2a4.636,4.636,0,0,0-1.25-.469q-.055-.016-.055-.109t.055-.1q1.125.109,2.2.109.211,0,.211-.234V-5.141h-2.523v.109a.645.645,0,0,1-.234.578,1.139,1.139,0,0,1-.648.141q-.672,0-.672-.578l.07-3.125q0-.9-.07-1.609a13.971,13.971,0,0,1,1.7.8H-5.7q.633-.7.8-.7a2.8,2.8,0,0,1,.9.578q.367.3.367.461,0,.211-.453.461V-7.5l.055,2.664q0,.625-.883.625a.7.7,0,0,1-.555-.164A.849.849,0,0,1-5.581-4.9v-.242Zm2.492-.367V-8.461h-6.57v2.953Zm-4.078-5.453v-1.391a8.586,8.586,0,0,0-.094-1.055,9.86,9.86,0,0,1,1.883.281q.281.094.281.242,0,.2-.516.406v1.516h3.789q1.031-1.1,1.219-1.1a3.958,3.958,0,0,1,1.086.766q.469.4.469.547t-.211.156H-14.714a8.356,8.356,0,0,0-1.117.094l-.18-.586a7.176,7.176,0,0,0,1.3.125ZM-2.62-.641a1,1,0,0,1-.273.727A.8.8,0,0,1-3.472.32.716.716,0,0,1-4.089.031a9.811,9.811,0,0,1-.687-1.344,7.736,7.736,0,0,0-1.914-2.3.053.053,0,0,1-.023-.047q0-.117.094-.117H-6.6Q-2.62-2.312-2.62-.641Zm-8.2-2.141q0,.242-.742.289A10.508,10.508,0,0,1-13.573-.648,12.613,12.613,0,0,1-15.808.484a.032.032,0,0,1-.023.008q-.133,0-.133-.141a.053.053,0,0,1,.016-.039A11.228,11.228,0,0,0-13.2-2.719a6.71,6.71,0,0,0,.547-1.141,16.623,16.623,0,0,1,1.508.7Q-10.823-2.961-10.823-2.781ZM7.245-7.953H8q.7-.875.9-.875.156,0,.844.625.352.32.352.461,0,.156-.2.156H6.941A19.529,19.529,0,0,1,4.792-5.469H7.23q.57-.687.75-.687a2.488,2.488,0,0,1,.844.547q.336.289.336.445,0,.133-.383.4v.844L8.823.461q0,.609-.859.609-.609,0-.609-.547v-.4H4.425V.6q0,.641-.875.641-.609,0-.609-.562L3-2.3q0-1.219-.016-1.836a17.947,17.947,0,0,1-1.594.914.023.023,0,0,1-.016.008q-.1,0-.1-.141A.061.061,0,0,1,1.3-3.414Q2.253-4.133,2.987-4.8l-.031-1.43q.492.211,1.008.469a19.142,19.142,0,0,0,1.6-1.828H2.652a7.756,7.756,0,0,0-1.07.094L1.4-8.078a6.3,6.3,0,0,0,1.2.125H4.3V-10.43H3.128a5.556,5.556,0,0,0-.906.094l-.18-.594a5.143,5.143,0,0,0,1.1.133H4.3v-1.086a14.571,14.571,0,0,0-.078-1.461q1.984.2,1.984.5,0,.188-.516.43V-10.8H6q.477-.656.688-.656.156,0,.641.461a.821.821,0,0,1,.258.383l.234-.461a12.525,12.525,0,0,0,.672-1.617,13.312,13.312,0,0,1,1.422.719q.242.156.242.3,0,.32-.57.32A23.582,23.582,0,0,1,7.245-7.953Zm-1.4,0A21.323,21.323,0,0,0,7.5-10.445a.325.325,0,0,1-.125.016H5.691v2.477ZM7.355-.242V-2.609H4.425V-.242Zm0-2.734V-5.1H4.425v2.125Zm8.82-8.82a.22.22,0,0,1-.117.211,1.473,1.473,0,0,1-.43.148q-.766,1.367-1.219,2.063-.43.656-1.4,2.016a8.184,8.184,0,0,1,2.383,2.141,3.636,3.636,0,0,1,.57,2.031,2.153,2.153,0,0,1-.7,1.766,1.852,1.852,0,0,1-1.234.414q-.211,0-.273-.094a1.424,1.424,0,0,1-.125-.406.843.843,0,0,0-.484-.57,6.04,6.04,0,0,0-1.094-.383q-.063-.016-.062-.125T12.05-2.7q.859.063,1.836.063a.577.577,0,0,0,.438-.125q.172-.156.172-.977a4.53,4.53,0,0,0-1.859-3.539,33.943,33.943,0,0,0,1.445-4.656H11.808V-1.6l.031,2.32q0,.641-.914.641-.57,0-.57-.547L10.4-8.047q0-3.852-.078-5.023.891.383,1.609.766h2.1q.664-.719.828-.719t.93.7Q16.175-11.961,16.175-11.8Z" transform="translate(960 2137)" fill="#111"/>
    <path id="パス_13512" data-name="パス 13512" d="M-7.339-10.625A8.01,8.01,0,0,0-4.6-8.484a13.765,13.765,0,0,0,3.477,1.07.078.078,0,0,1,.055.086q0,.094-.07.109a1.359,1.359,0,0,0-.945.977,1.3,1.3,0,0,1-.117.332.178.178,0,0,1-.156.066,2.91,2.91,0,0,1-.781-.3,14.985,14.985,0,0,1-1.75-1.07A9.882,9.882,0,0,1-7.73-10.625H-9.363a11.242,11.242,0,0,1-3.008,3.2A15.437,15.437,0,0,1-16.159-5.5a.032.032,0,0,1-.023.008q-.109,0-.109-.148a.053.053,0,0,1,.023-.047,14.454,14.454,0,0,0,5.2-4.937h-3.359a11.652,11.652,0,0,0-1.312.094l-.172-.586a8.946,8.946,0,0,0,1.438.125h3.617a10.38,10.38,0,0,0,.977-2.445q2.055.453,2.055.75t-.664.445q-.227.516-.641,1.25h4.867q.891-1.055,1.086-1.055a4.327,4.327,0,0,1,1.133.734q.492.391.492.531,0,.156-.2.156Zm-.727,6.109v.9L-8-.211a1.279,1.279,0,0,1-.672,1.219,2.2,2.2,0,0,1-1.234.32.347.347,0,0,1-.3-.133,1.677,1.677,0,0,1-.141-.461Q-10.488.125-12-.3q-.063-.016-.062-.117T-12-.531q1.4.1,2.156.1.211,0,.211-.227V-4.516h-4.047a12.888,12.888,0,0,0-1.391.094l-.18-.586a10.555,10.555,0,0,0,1.555.125h8.859q.875-1.039,1.078-1.039A3.646,3.646,0,0,1-2.722-5.2q.445.383.445.531t-.211.156Zm2.523-2.508q0,.156-.2.156h-5.211a9.514,9.514,0,0,0-1.187.094l-.172-.586a6.987,6.987,0,0,0,1.258.125H-7.87q.8-.9.984-.9a3.068,3.068,0,0,1,.945.625Q-5.542-7.18-5.542-7.023ZM-2.628-.43A.982.982,0,0,1-2.894.3a.786.786,0,0,1-.578.234.671.671,0,0,1-.57-.258A9.811,9.811,0,0,1-4.7-.961,7.256,7.256,0,0,0-6.745-3.344a.084.084,0,0,1-.023-.062q0-.125.1-.1A8,8,0,0,1-3.573-2.094,2.207,2.207,0,0,1-2.628-.43Zm-8.227-2.3q0,.266-.742.352A10.612,10.612,0,0,1-15.9.727a.069.069,0,0,1-.031.008q-.148,0-.148-.133A.045.045,0,0,1-16.066.57a10.626,10.626,0,0,0,2.719-3.1A5.527,5.527,0,0,0-12.784-3.8a15.2,15.2,0,0,1,1.609.727Q-10.855-2.891-10.855-2.734ZM10.9-2.32a6.159,6.159,0,0,0,.563.352A13.763,13.763,0,0,0,16.152-.492q.062.008.063.1t-.062.109a1.459,1.459,0,0,0-.766.352,1.724,1.724,0,0,0-.352.672q-.125.367-.367.367A2.766,2.766,0,0,1,13.847.9,11.177,11.177,0,0,1,11.339-.4,7.719,7.719,0,0,1,9.183-2.508,13.737,13.737,0,0,1,7.808-5.391H5.55V-.93a28.931,28.931,0,0,0,3.586-.906h.016q.1,0,.1.156a.061.061,0,0,1-.023.055A27.5,27.5,0,0,1,3.331.992q-.07.609-.383.609-.164,0-.3-.3-.117-.266-.617-1.672.547-.047,1.18-.141.148-.031.453-.07.266-.039.4-.062V-5.883q0-3.516-.094-5.859a13.892,13.892,0,0,1,1.7.8H7.839v-1.391q0-.344-.062-.977,2.117.2,2.117.531,0,.219-.547.477v1.359h2.422q.641-.719.813-.719a2.6,2.6,0,0,1,.883.578q.367.32.367.477,0,.172-.484.461v.867l.086,3.7a.407.407,0,0,1-.117.313q1.633.9,1.633,1.172,0,.227-.5.227H14.23A15.737,15.737,0,0,1,10.9-2.32Zm-.367-.258a14.829,14.829,0,0,0,1.8-1.547,7.218,7.218,0,0,0,.852-1.023,1.421,1.421,0,0,1-.7.141q-.547,0-.594-.383H8.206A8.409,8.409,0,0,0,10.534-2.578Zm1.359-3.18V-8.047H5.55v2.289Zm0-2.656v-2.164H5.55v2.164Z" transform="translate(1195 2177.438)" fill="#111"/>
    <path id="パス_12685" data-name="パス 12685" d="M-3777.4,12067.5H-3876v-1h98.6Z" transform="translate(4433 -9934)" fill="#fff"/>
    <path id="パス_13513" data-name="パス 13513" d="M4,0,8,7H0Z" transform="translate(660.11 2129) rotate(90)" fill="#fff"/>
    <path id="パス_12685-2" data-name="パス 12685" d="M-3777.4,12067.5H-3876v-1h98.6Z" transform="translate(4667 -9934)" fill="#fff"/>
    <path id="パス_13515" data-name="パス 13515" d="M4,0,8,7H0Z" transform="translate(894.11 2129) rotate(90)" fill="#fff"/>
    <path id="パス_12685-3" data-name="パス 12685" d="M-3777.4,12067.5H-3876v-1h98.6Z" transform="translate(5136 -9936)" fill="#fff"/>
    <path id="パス_13517" data-name="パス 13517" d="M4,0,8,7H0Z" transform="translate(1363.11 2127) rotate(90)" fill="#fff"/>
    <path id="パス_13518" data-name="パス 13518" d="M-21.282-5.811a20.388,20.388,0,0,0,1.641-2.646A8.629,8.629,0,0,0-19-9.9q1.565.718,1.565.937,0,.2-.458.2h-.082Q-19.135-7.4-19.532-7q-.383.383-1.312,1.189.793,0,2.393-.055a3.6,3.6,0,0,0-.608-1.189.061.061,0,0,1-.007-.027q0-.075.1-.075a.076.076,0,0,1,.034.007q1.764.957,1.764,1.982a.954.954,0,0,1-.2.629.558.558,0,0,1-.431.2.431.431,0,0,1-.41-.205,2.129,2.129,0,0,1-.178-.827L-18.4-5.53q-.308.109-.923.28v1.935L-19.279.67q0,.533-.738.533-.561,0-.561-.431Q-20.5-.506-20.5-2.27v-2.7Q-21-4.86-21.979-4.7q-.137.39-.308.39-.137,0-.253-.342t-.267-1.183q.362.027.745.027Zm5.715-2.659A8.526,8.526,0,0,1-17.419-6.3a.074.074,0,0,1-.041.014q-.123,0-.123-.089a.052.052,0,0,1,.007-.021A13.384,13.384,0,0,0-16.2-9.871a9.772,9.772,0,0,0,.335-1.8q1.914.492,1.914.745t-.554.335a14.135,14.135,0,0,1-.868,1.8h3.315q.615-.725.772-.725t.793.588q.335.294.335.444,0,.109-.431.417-.082,2.755-.239,4.307a21.867,21.867,0,0,1-.485,3.015,2.143,2.143,0,0,1-.9,1.36,2.062,2.062,0,0,1-1.176.321.407.407,0,0,1-.294-.075.8.8,0,0,1-.109-.314,1.027,1.027,0,0,0-.458-.684,4.818,4.818,0,0,0-1.107-.424Q-15.4-.574-15.4-.677t.055-.109q1.224.109,1.62.109a2.349,2.349,0,0,0,.9-.109.523.523,0,0,0,.232-.342A32.954,32.954,0,0,0-11.91-8.47Zm-5.722-.772a14.18,14.18,0,0,0,.615-1.661,6.6,6.6,0,0,0,.205-.854q1.661.588,1.661.868,0,.232-.554.232a18.23,18.23,0,0,1-1.593,1.613,1.271,1.271,0,0,1,.663,1.06.891.891,0,0,1-.205.622.589.589,0,0,1-.451.191.533.533,0,0,1-.451-.164,2.829,2.829,0,0,1-.273-.718,3.37,3.37,0,0,0-.923-1.511.046.046,0,0,1-.021-.041q0-.1.1-.082A8.19,8.19,0,0,1-21.288-9.242Zm7.608,4.9a.991.991,0,0,1-.239.677.68.68,0,0,1-.526.246q-.438,0-.561-.615a9.868,9.868,0,0,0-.52-1.5,3.246,3.246,0,0,0-.6-.889.084.084,0,0,1-.014-.048.073.073,0,0,1,.082-.082h.014a3.98,3.98,0,0,1,1.764.991A1.749,1.749,0,0,1-13.68-4.341Zm-3.514,2.563a1,1,0,0,1-.212.663.6.6,0,0,1-.472.219.422.422,0,0,1-.41-.26,2.907,2.907,0,0,1-.191-.889A4.309,4.309,0,0,0-19.1-3.937a.039.039,0,0,1-.014-.027q0-.068.082-.068a.074.074,0,0,1,.041.014Q-17.194-2.905-17.194-1.777Zm-3.391-1.613q0,.185-.4.267A7.9,7.9,0,0,1-22.9.185.056.056,0,0,1-22.943.2a.079.079,0,0,1-.089-.089.052.052,0,0,1,.007-.021,11.142,11.142,0,0,0,.786-2.639,6.617,6.617,0,0,0,.116-1.244q0-.1.007-.226,1.073.314,1.333.431Q-20.584-3.5-20.584-3.391Zm18.107.342v.615q0,.8.014.95a1.488,1.488,0,0,0,.109.451.527.527,0,0,0,.4.287,5.418,5.418,0,0,0,.615.075q.1,0,.1.178t-.109.185Q-2.5-.362-3.168-.362q-.711,0-1.894.055-.123,0-.123-.185,0-.164.123-.178a5.464,5.464,0,0,0,.643-.089A.449.449,0,0,0-4.1-.978,3.721,3.721,0,0,0-3.92-2.406v-.629H-6.135l-1.326.014q-.185,0-.185-.362a1.186,1.186,0,0,1,.157-.574q2.181-3.828,3.746-6.289l1.251-.335q.109,0,.109.164-.007.376-.034,1.825-.014,1.032-.034,1.75l-.027,3.274q.595,0,1.408-.068.089,0,.089.062v.034l-.13.424a.118.118,0,0,1-.123.1Q-1.637-3.049-2.477-3.049ZM-3.92-3.555l.027-3.035q.021-1.524.082-2.6Q-5.724-6.159-7.01-3.78a.327.327,0,0,0-.048.144q0,.082.171.082Zm8.284-6.959A2.612,2.612,0,0,1,6.757-8.921,7.823,7.823,0,0,1,7.474-5.3,7.212,7.212,0,0,1,6.538-1.3,2.5,2.5,0,0,1,4.364-.055a2.607,2.607,0,0,1-2.42-1.552,7.758,7.758,0,0,1-.711-3.616,7.38,7.38,0,0,1,.93-4.054A2.524,2.524,0,0,1,4.364-10.514Zm0,.431q-.9,0-1.237,1.483a16.2,16.2,0,0,0-.253,3.336A13.642,13.642,0,0,0,3.216-1.62Q3.571-.485,4.364-.485q.875,0,1.217-1.47a16.023,16.023,0,0,0,.253-3.309A14.1,14.1,0,0,0,5.5-8.935Q5.15-10.083,4.364-10.083ZM16.011-5.571a7.367,7.367,0,0,1-1.846,4.553,8.439,8.439,0,0,1-3.979,2.126q-.1.021-.1-.123a.053.053,0,0,1,.021-.048,8.935,8.935,0,0,0,3.329-2.905,8.194,8.194,0,0,0,1.114-3.6H13.5a6.885,6.885,0,0,0-1.176.109l-.157-.561a6.786,6.786,0,0,0,1.292.13h5.3q.629-.615.766-.615.157,0,.8.561.335.314.335.444t-.4.41a18.141,18.141,0,0,1-.731,4.71,2.174,2.174,0,0,1-.643.957,1.843,1.843,0,0,1-1.2.39A.663.663,0,0,1,17.3.9.6.6,0,0,1,17.16.574a.979.979,0,0,0-.472-.608A5.269,5.269,0,0,0,15.56-.485q-.041-.007-.041-.1,0-.157.068-.144a15.618,15.618,0,0,0,2.078.232.523.523,0,0,0,.472-.267,3.685,3.685,0,0,0,.314-.9,23.348,23.348,0,0,0,.458-3.917ZM23.127-6.72q.041.007.041.089,0,.109-.062.123a.884.884,0,0,0-.54.314,1.946,1.946,0,0,0-.287.663q-.089.4-.232.4a1.556,1.556,0,0,1-.615-.308A9.7,9.7,0,0,1,19.921-6.72,7.932,7.932,0,0,1,18.67-8.456a19.811,19.811,0,0,1-.991-2.256.71.71,0,0,0-.185-.253.177.177,0,0,1-.109-.15q0-.089.226-.178a.873.873,0,0,1,.321-.075q.137,0,.137.109L18-11.006a.8.8,0,0,0,.082.308,7.3,7.3,0,0,0,2.058,2.6A7.4,7.4,0,0,0,23.127-6.72Zm-7.267-3.89q0,.267-.574.308a13.306,13.306,0,0,1-2.413,3.356,12.228,12.228,0,0,1-2.905,2.01.028.028,0,0,1-.021.007q-.109,0-.109-.123a.046.046,0,0,1,.014-.034,12.94,12.94,0,0,0,3.391-4.348,9.159,9.159,0,0,0,.725-2.044Q15.861-10.855,15.861-10.609Z" transform="translate(1077 2158)" fill="#fff"/>
    <path id="パス_12685-4" data-name="パス 12685" d="M-3777.4,12067.5H-3876v-1h98.6Z" transform="translate(4901 -9935)" fill="#fff"/>
    <path id="パス_13519" data-name="パス 13519" d="M4,0,8,7H0Z" transform="translate(1129 2128) rotate(90)" fill="#fff"/>
    <path id="パス_13521" data-name="パス 13521" d="M-24.628-5.811a20.388,20.388,0,0,0,1.641-2.646A8.629,8.629,0,0,0-22.345-9.9q1.565.718,1.565.937,0,.2-.458.2h-.082Q-22.481-7.4-22.878-7q-.383.383-1.312,1.189.793,0,2.393-.055a3.6,3.6,0,0,0-.608-1.189.061.061,0,0,1-.007-.027q0-.075.1-.075a.076.076,0,0,1,.034.007q1.764.957,1.764,1.982a.954.954,0,0,1-.2.629.558.558,0,0,1-.431.2.431.431,0,0,1-.41-.205,2.129,2.129,0,0,1-.178-.827l-.014-.157q-.308.109-.923.28v1.935L-22.625.67q0,.533-.738.533-.561,0-.561-.431.082-1.278.082-3.042v-2.7q-.506.109-1.483.267-.137.39-.308.39-.137,0-.253-.342t-.267-1.183q.362.027.745.027Zm5.715-2.659A8.526,8.526,0,0,1-20.766-6.3a.074.074,0,0,1-.041.014q-.123,0-.123-.089a.052.052,0,0,1,.007-.021,13.384,13.384,0,0,0,1.381-3.473,9.772,9.772,0,0,0,.335-1.8q1.914.492,1.914.745t-.554.335a14.135,14.135,0,0,1-.868,1.8H-15.4q.615-.725.772-.725t.793.588q.335.294.335.444,0,.109-.431.417-.082,2.755-.239,4.307a21.867,21.867,0,0,1-.485,3.015,2.143,2.143,0,0,1-.9,1.36,2.062,2.062,0,0,1-1.176.321.407.407,0,0,1-.294-.075.8.8,0,0,1-.109-.314,1.027,1.027,0,0,0-.458-.684,4.818,4.818,0,0,0-1.107-.424q-.055-.014-.055-.116t.055-.109q1.224.109,1.62.109a2.349,2.349,0,0,0,.9-.109.523.523,0,0,0,.232-.342,32.954,32.954,0,0,0,.684-7.342Zm-5.722-.772a14.18,14.18,0,0,0,.615-1.661,6.6,6.6,0,0,0,.205-.854q1.661.588,1.661.868,0,.232-.554.232A18.23,18.23,0,0,1-24.3-9.044a1.271,1.271,0,0,1,.663,1.06.891.891,0,0,1-.205.622.589.589,0,0,1-.451.191.533.533,0,0,1-.451-.164,2.829,2.829,0,0,1-.273-.718,3.37,3.37,0,0,0-.923-1.511.046.046,0,0,1-.021-.041q0-.1.1-.082A8.19,8.19,0,0,1-24.635-9.242Zm7.608,4.9a.991.991,0,0,1-.239.677.68.68,0,0,1-.526.246q-.437,0-.561-.615a9.868,9.868,0,0,0-.52-1.5,3.246,3.246,0,0,0-.6-.889.084.084,0,0,1-.014-.048.073.073,0,0,1,.082-.082h.014a3.98,3.98,0,0,1,1.764.991A1.749,1.749,0,0,1-17.026-4.341ZM-20.54-1.777a1,1,0,0,1-.212.663.6.6,0,0,1-.472.219.422.422,0,0,1-.41-.26,2.907,2.907,0,0,1-.191-.889,4.309,4.309,0,0,0-.622-1.894.039.039,0,0,1-.014-.027q0-.068.082-.068a.074.074,0,0,1,.041.014Q-20.54-2.905-20.54-1.777Zm-3.391-1.613q0,.185-.4.267A7.9,7.9,0,0,1-26.248.185.056.056,0,0,1-26.289.2a.079.079,0,0,1-.089-.089.052.052,0,0,1,.007-.021,11.142,11.142,0,0,0,.786-2.639,6.617,6.617,0,0,0,.116-1.244q0-.1.007-.226,1.073.314,1.333.431Q-23.931-3.5-23.931-3.391ZM-5.236-.308q-.95-.027-2.7-.027-1.846,0-2.769.027-.123,0-.15-.041a.381.381,0,0,1-.034-.2.862.862,0,0,1,.082-.39A28.483,28.483,0,0,1-8.353-4.525,21.186,21.186,0,0,0-6.917-6.5a3.245,3.245,0,0,0,.424-1.593,2.784,2.784,0,0,0-.342-1.5.982.982,0,0,0-.861-.5,1.156,1.156,0,0,0-1.162.813,3.065,3.065,0,0,0-.123,1.025.578.578,0,0,1-.376.5,1.439,1.439,0,0,1-.677.157q-.67,0-.67-.533a1.842,1.842,0,0,1,.362-1.012A3.041,3.041,0,0,1-9.31-10.1,3.225,3.225,0,0,1-7.7-10.514a3.006,3.006,0,0,1,2.256.82A2.3,2.3,0,0,1-4.8-8.039a3.088,3.088,0,0,1-.923,2.181q-.287.3-.957.875-.547.472-.82.725a21.313,21.313,0,0,0-1.654,1.62,5.788,5.788,0,0,0-.67.943h2.475A6.354,6.354,0,0,0-6.1-1.777a1.1,1.1,0,0,0,.485-.253,3.921,3.921,0,0,0,.766-1.08q.055-.1.123-.1a.4.4,0,0,1,.1.021q.144.048.144.144V-3Q-4.8-1.654-5.236-.308ZM6.89-9.044v2.126H8.818q.7-.882.882-.882a3.441,3.441,0,0,1,.923.615q.4.335.4.451,0,.137-.185.137H3.609a5.383,5.383,0,0,0-.827.082l-.15-.513a4.386,4.386,0,0,0,.937.109H5.557V-9.044H3.971a4.862,4.862,0,0,0-.793.082l-.157-.513a4.2,4.2,0,0,0,.923.109H5.557v-1.189a9.463,9.463,0,0,0-.075-1.107q1.859.171,1.859.451,0,.205-.451.376v1.47H8.2q.69-.868.868-.868a3.452,3.452,0,0,1,.923.6q.41.328.41.451t-.185.137ZM8.783-4.218V-2.68L8.825-.437a2.2,2.2,0,0,1-.075.677A.969.969,0,0,1,8.5.608a1.822,1.822,0,0,1-1.347.52A.211.211,0,0,1,6.931.943a1.076,1.076,0,0,0-.485-.8,4.249,4.249,0,0,0-1.128-.4q-.048-.014-.048-.1t.048-.075q.943.055,1.914.055.253,0,.253-.226V-4.218H3.643a5.256,5.256,0,0,0-.82.082l-.157-.513a4.452,4.452,0,0,0,.937.109H7.485v-.615a9.553,9.553,0,0,0-.075-1.121,11.671,11.671,0,0,1,1.477.2q.328.082.328.226,0,.171-.431.39v.923h.335q.608-.725.779-.725a2.482,2.482,0,0,1,.759.52q.308.26.308.39t-.178.137Zm-9.1,2.146v.882q0,.52-.745.52-.574,0-.574-.437l.062-6.029q0-2.324-.089-3.883A14.625,14.625,0,0,1-.219-10.3h1.2q.533-.643.684-.643a2.209,2.209,0,0,1,.772.479q.308.226.308.376t-.376.431V-8.34L2.44-1.682q0,.547-.772.547-.526,0-.526-.431v-.506Zm1.456-.321V-6.146H-.315v3.753Zm0-4.074V-9.98H-.315v3.514ZM6.083-2q0,.868-.772.868a.467.467,0,0,1-.424-.232,2.367,2.367,0,0,1-.246-.663,2.523,2.523,0,0,0-.82-1.395A.059.059,0,0,1,3.8-3.466q0-.075.089-.075H3.9Q6.083-3.1,6.083-2Zm15.058.841H18.2V-.67a.466.466,0,0,1-.2.431,1.046,1.046,0,0,1-.533.1q-.54,0-.54-.437l.041-2.81q0-1.538-.075-2.632a12.072,12.072,0,0,1,1.429.684h2.652q.54-.6.684-.6a1.8,1.8,0,0,1,.745.465q.335.26.335.4t-.39.39v.629l.014,3.179q0,.533-.718.533-.5,0-.5-.424Zm0-.321V-3.165H18.2v1.682Zm0-2V-5.011H18.2v1.524Zm3.24-3.6H21.613v.068q0,.52-.7.52-.554,0-.554-.417l.027-3.268q0-.868-.062-1.579a15.5,15.5,0,0,1,1.442.711h2.5q.567-.629.731-.629a2.272,2.272,0,0,1,.772.506q.321.28.321.417,0,.191-.376.4v1.682l.014,8.545a1.249,1.249,0,0,1-.28.841,1.594,1.594,0,0,1-1.224.4q-.232,0-.253-.2a.987.987,0,0,0-.362-.731,3.155,3.155,0,0,0-1.025-.4q-.048-.014-.048-.1t.048-.082q1.06.068,1.627.068.171,0,.171-.2Zm0-.321V-8.962H21.613V-7.4Zm0-1.88v-1.442H21.613v1.442Zm-6.59,2.2H15.078V.656q0,.547-.8.547Q13.7,1.2,13.7.7q.089-2.659.089-6.2,0-3.835-.1-6.255a12.151,12.151,0,0,1,1.483.711h2.488q.554-.629.7-.629a2.291,2.291,0,0,1,.759.492q.308.246.308.39,0,.164-.41.417v.561l.027,2.851q0,.472-.759.472-.5,0-.5-.41Zm0-.321V-8.962H15.078V-7.4Zm0-1.88v-1.442H15.078v1.442Z" transform="translate(927 2239)" fill="#fff"/>
    <path id="パス_12685-5" data-name="パス 12685" d="M-3543.315,12067.5H-3876v-1h332.683Z" transform="translate(4666.773 -9854)" fill="#fff"/>
    <path id="パス_13522" data-name="パス 13522" d="M4,0,8,7H0Z" transform="translate(1128.119 2209) rotate(90)" fill="#fff"/>
    <path id="パス_13523" data-name="パス 13523" d="M-38.466-6.986a12.239,12.239,0,0,1-.4,2.693A6.3,6.3,0,0,1-40.79-1.258a.046.046,0,0,1-.034.014q-.164,0-.164-.1a.028.028,0,0,1,.007-.021A8.656,8.656,0,0,0-39.963-4.32,19.482,19.482,0,0,0-39.737-7.7a21.337,21.337,0,0,0-.116-2.536q.725.28,1.511.67a11.358,11.358,0,0,0,3.247-1.47,6.192,6.192,0,0,0,.827-.656,13.113,13.113,0,0,1,1.2.848q.267.239.267.4,0,.2-.4.2a2.779,2.779,0,0,1-.362-.027A20.214,20.214,0,0,1-38.4-9.153v.294q-.021.834-.041,1.552h4q.793-.923.964-.923a3.736,3.736,0,0,1,.964.643q.424.342.424.465t-.178.137h-2.55v1.832l.041,3.685q0,.533-.8.533-.581,0-.581-.424l.041-3.6v-2.03Zm6.631,6.357a.964.964,0,0,0-.547.786.98.98,0,0,1-.1.417.358.358,0,0,1-.239.089,33.515,33.515,0,0,1-3.445.123A18.226,18.226,0,0,1-39.108.6a4.647,4.647,0,0,1-1.62-.561,3.581,3.581,0,0,1-1.395-2.058A11.278,11.278,0,0,1-43.736.1a1.607,1.607,0,0,1,.021.232q0,.41-.253.41-.294,0-1.039-1.7a9.369,9.369,0,0,0,.978-.355,5.988,5.988,0,0,0,1-.561V-5.53H-44a2.981,2.981,0,0,0-.766.109l-.157-.561a3.467,3.467,0,0,0,.923.13h.882q.567-.643.718-.643A2.333,2.333,0,0,1-41.638-6q.321.28.321.417,0,.109-.417.431v3.22A2.573,2.573,0,0,0-40.462-.779a10.358,10.358,0,0,0,3.274.349,48.59,48.59,0,0,0,5.339-.355q.055-.014.055.068A.09.09,0,0,1-31.835-.629Zm-9.953-8.825a.85.85,0,0,1-.232.629.717.717,0,0,1-.54.212.487.487,0,0,1-.41-.2,2.346,2.346,0,0,1-.273-.67,3.674,3.674,0,0,0-.9-1.634.074.074,0,0,1-.014-.041q0-.089.109-.089h.021Q-41.788-10.691-41.788-9.454Zm19.262,1.36h1.278q.014-.479.014-1.524,0-.964-.075-1.921a12.248,12.248,0,0,1,1.524.219q.246.075.246.232,0,.205-.437.362Q-20-9.242-20.017-8.094h.786q.656-.868.841-.868a3.191,3.191,0,0,1,.868.615q.362.3.362.431t-.185.144h-2.687a25.28,25.28,0,0,1-.212,2.68h1.429q.69-.9.882-.9.171,0,.882.629.376.321.376.458t-.178.137h-3.165a6.544,6.544,0,0,0,1.846,3.124A6.56,6.56,0,0,0-16.312-.52a.066.066,0,0,1,.048.062.1.1,0,0,1-.048.082A1.467,1.467,0,0,0-17.037.731q-.041.376-.185.376-.246,0-.93-.725a7.681,7.681,0,0,1-.93-1.176,10.938,10.938,0,0,1-1.244-3.794q-.178.738-.212.848A6.589,6.589,0,0,1-22.663-.349a8.613,8.613,0,0,1-2.912,1.47q-.116.027-.116-.116A.046.046,0,0,1-25.67.964,10.919,10.919,0,0,0-23.579-.567,6.814,6.814,0,0,0-22.423-2.14a8.767,8.767,0,0,0,.9-2.632h-1.736A4.187,4.187,0,0,0-24-4.689l-.137-.479h-1.976V-.991a20.208,20.208,0,0,0,2.078-.492q.075-.014.075.1a.1.1,0,0,1-.027.075,21.907,21.907,0,0,1-4.437,1.9q-.082.492-.308.492-.157,0-.273-.267-.109-.246-.485-1.374.574-.014,1.531-.137.444-.055.67-.1V-5.168h-1.107a4.2,4.2,0,0,0-.752.089L-29.3-5.6a3.8,3.8,0,0,0,.868.109h1.148V-7.308h-.349a3.8,3.8,0,0,0-.69.082l-.123-.444a7.092,7.092,0,0,1-1.121.718.052.052,0,0,1-.021.007.091.091,0,0,1-.1-.1.039.039,0,0,1,.014-.027,11.5,11.5,0,0,0,2.044-2.939,8.178,8.178,0,0,0,.588-1.647q1.606.431,1.606.711,0,.239-.533.28l-.041.082q2.058.622,2.058,1.627a.607.607,0,0,1-.171.438.494.494,0,0,1-.362.15.477.477,0,0,1-.369-.157,1.884,1.884,0,0,1-.273-.485,3.69,3.69,0,0,0-.978-1.4,10.865,10.865,0,0,1-2.283,2.7,3.227,3.227,0,0,0,.67.089h1.709q.479-.622.663-.622a2.236,2.236,0,0,1,.711.438q.294.253.294.362,0,.144-.185.144h-1.579v1.818h.479q.52-.67.7-.67a2.121,2.121,0,0,1,.7.472q.294.253.294.383a.11.11,0,0,1-.082.123,3.568,3.568,0,0,0,.731.089h1.818a20.963,20.963,0,0,0,.212-2.68h-1.415A7.79,7.79,0,0,1-24.064-6a.084.084,0,0,1-.048.014q-.109,0-.109-.068v-.014a10.72,10.72,0,0,0,.93-2.857,10.176,10.176,0,0,0,.178-1.552,10.641,10.641,0,0,1,1.319.39q.239.109.239.239t-.424.267A9.407,9.407,0,0,1-22.526-8.094Zm-5.175,5.9a.777.777,0,0,1-.185.54.5.5,0,0,1-.4.185q-.424,0-.465-.643A10.759,10.759,0,0,0-28.87-3.35a4.818,4.818,0,0,0-.239-.766.052.052,0,0,1-.007-.021q0-.075.089-.075a.074.074,0,0,1,.041.014,5.286,5.286,0,0,1,1.032,1.135A1.675,1.675,0,0,1-27.7-2.194Zm3.89-1.531q0,.2-.424.253a9.4,9.4,0,0,1-1.477,1.955.084.084,0,0,1-.062.021q-.1,0-.1-.075a.052.052,0,0,1,.007-.021,12.234,12.234,0,0,0,.492-1.736q.116-.636.157-1.121Q-23.811-3.958-23.811-3.726Zm22.455-8.34q.1,0,.1.082a.192.192,0,0,1-.068.13A8.684,8.684,0,0,0-4.3-5.318a8.586,8.586,0,0,0,2.912,6.48q.123.13.123.185,0,.082-.068.082a.361.361,0,0,1-.185-.082A9.719,9.719,0,0,1-4.33-1.668a7.132,7.132,0,0,1-1-3.65,7.132,7.132,0,0,1,1-3.65A9.8,9.8,0,0,1-1.5-12,.477.477,0,0,1-1.356-12.065ZM4.781-5.113q.506-.164,1.429-.513a.052.052,0,0,1,.021-.007q.075,0,.075.1a.062.062,0,0,1-.021.055,10.58,10.58,0,0,1-1.5,1.046q.014,2.522.014,5,0,.6-.807.6-.574,0-.574-.465,0-.212.014-1.7Q3.448-2.42,3.455-3.7q-.219.109-1.121.533-.041.5-.28.5-.164,0-.321-.342Q1.6-3.309,1.267-4.3a9,9,0,0,0,1.278-.2q.239-.048.923-.226V-5.77l.014-2.27h-.9a8.6,8.6,0,0,1-1.23,2.174.089.089,0,0,1-.075.027q-.082,0-.082-.055a.052.052,0,0,1,.007-.021A15.743,15.743,0,0,0,1.8-8.764a10.819,10.819,0,0,0,.144-1.7q1.415.328,1.538.574v-.308q0-.957-.055-1.559,1.347.157,1.6.226.232.068.232.226,0,.191-.479.39v2.55h.267q.547-.7.725-.7a2.213,2.213,0,0,1,.731.506q.294.246.294.376t-.185.144H4.781ZM2.7-8.36h.786v-1.4a.99.99,0,0,1-.417.226Q2.812-8.682,2.7-8.36ZM8.725-6.932V-9.1H7.16a4.983,4.983,0,0,0-.8.082L6.2-9.529a4.229,4.229,0,0,0,.93.109H8.725V-10.6a11.129,11.129,0,0,0-.055-1.121,8.316,8.316,0,0,1,1.613.246q.239.082.239.212,0,.212-.451.383V-9.42H11.46q.718-.868.9-.868a3.1,3.1,0,0,1,.9.615q.39.314.39.438t-.178.137H10.072v2.167h1.989q.718-.882.9-.882a3.441,3.441,0,0,1,.923.615q.4.328.4.451t-.178.137H6.572a5.334,5.334,0,0,0-.841.082l-.157-.513a4.507,4.507,0,0,0,.95.109ZM11.9-4.272v1.682L11.938-.41a2.24,2.24,0,0,1-.075.677,1.068,1.068,0,0,1-.246.376,1.744,1.744,0,0,1-1.36.52.23.23,0,0,1-.2-.068A1.116,1.116,0,0,1,9.963.8.967.967,0,0,0,9.491.137,4.529,4.529,0,0,0,8.438-.226q-.055-.014-.055-.1T8.438-.4q.923.062,1.921.062.239,0,.239-.226V-4.272H6.75a5.383,5.383,0,0,0-.827.082L5.765-4.7a4.479,4.479,0,0,0,.943.109H10.6v-.588A10.494,10.494,0,0,0,10.53-6.3a14.18,14.18,0,0,1,1.5.2q.314.075.314.226,0,.178-.451.39v.9h.444q.608-.827.786-.827t.786.588q.308.308.308.424,0,.137-.185.137Zm-2.734,2.3q0,.841-.725.841a.5.5,0,0,1-.458-.2,2.954,2.954,0,0,1-.239-.711,2.584,2.584,0,0,0-.807-1.395.059.059,0,0,1-.021-.041q0-.062.075-.062H7.01A3.5,3.5,0,0,1,8.684-2.9,1.16,1.16,0,0,1,9.163-1.976Zm10.15-5.893a11.09,11.09,0,0,1-1.941,1.155.028.028,0,0,1-.021.007q-.1,0-.1-.116a.046.046,0,0,1,.021-.041,10.739,10.739,0,0,0,2.7-3.261,9.448,9.448,0,0,0,.752-1.8,11.763,11.763,0,0,1,1.5.492q.273.13.273.273,0,.212-.574.335l-.28.465h2.105q.643-.643.779-.643a2.9,2.9,0,0,1,.9.629q.376.321.376.465a.266.266,0,0,1-.15.26,3.086,3.086,0,0,1-.567.144A15.021,15.021,0,0,1,23.332-7.95h2.789q.561-.629.711-.629a2.277,2.277,0,0,1,.786.492q.321.246.321.39,0,.1-.376.417v.588l.055,2.967q0,.561-.868.561-.52,0-.52-.417v-.253H19.86a5.3,5.3,0,0,0-.937.1l-.157-.513a6.691,6.691,0,0,0,1.066.1h6.4v-1.6H20.154a5.079,5.079,0,0,0-.923.1l-.15-.513a6.589,6.589,0,0,0,1.046.1h6.1V-7.629H20.475a4.76,4.76,0,0,0-1.06.123Zm.212-.15a5.54,5.54,0,0,0,.9.068h2.468q.4-.718.54-1.039.109-.26.4-1.053H21.432A9.422,9.422,0,0,1,19.525-8.019Zm9.666,7.4a.969.969,0,0,1-.226.67.629.629,0,0,1-.492.226A.522.522,0,0,1,28,.062a2.127,2.127,0,0,1-.239-.745,4.033,4.033,0,0,0-.93-1.791.084.084,0,0,1-.014-.048A.073.073,0,0,1,26.9-2.6h.014Q29.191-1.941,29.191-.615ZM24.57-1.935a.78.78,0,0,1-.219.588.689.689,0,0,1-.5.185.441.441,0,0,1-.362-.15,3.031,3.031,0,0,1-.294-.581,2.807,2.807,0,0,0-.314-.595,6.434,6.434,0,0,0-.5-.554.059.059,0,0,1-.027-.048q0-.062.082-.062Q24.57-2.987,24.57-1.935Zm-5.6-.868A3.835,3.835,0,0,1,19.135-1.7a2.557,2.557,0,0,1-.39,1.477,1.1,1.1,0,0,1-.937.526.717.717,0,0,1-.567-.232.729.729,0,0,1-.178-.506.622.622,0,0,1,.15-.437,1.44,1.44,0,0,1,.451-.308,1.88,1.88,0,0,0,.868-.656,2.023,2.023,0,0,0,.267-.95q0-.062.089-.062Q18.957-2.844,18.971-2.8ZM26.7-.109q0,.479-.684.7a12.479,12.479,0,0,1-3.138.253A4.278,4.278,0,0,1,20.53.431a1.393,1.393,0,0,1-.376-1.142l.027-1.442a6.919,6.919,0,0,0-.068-1.039,11.7,11.7,0,0,1,1.463.171q.342.089.342.232,0,.164-.4.369V-.745a.372.372,0,0,0,.349.39,9.973,9.973,0,0,0,1.456.062,11.956,11.956,0,0,0,1.224-.041,1.394,1.394,0,0,0,.629-.212,1.338,1.338,0,0,0,.451-.615q.116-.294.328-1.039a.063.063,0,0,1,.068-.041q.1,0,.1.068-.027.731-.027,1.135a.591.591,0,0,0,.055.328,1.228,1.228,0,0,0,.308.178A.405.405,0,0,1,26.7-.109Zm5.461-11.956A.477.477,0,0,1,32.3-12a9.8,9.8,0,0,1,2.83,3.028,7.132,7.132,0,0,1,1,3.65,7.132,7.132,0,0,1-1,3.65,9.719,9.719,0,0,1-2.816,3.015.361.361,0,0,1-.185.082q-.068,0-.068-.082,0-.055.123-.185A8.586,8.586,0,0,0,35.1-5.318a8.684,8.684,0,0,0-2.967-6.535.192.192,0,0,1-.068-.13Q32.061-12.065,32.156-12.065Z" transform="translate(927 2197)" fill="#fff"/>
  </g>
</svg>
