<svg xmlns="http://www.w3.org/2000/svg" width="280" height="558.293" viewBox="0 0 280 558.293">
  <g id="グループ_7212" data-name="グループ 7212" transform="translate(-48 -2104)">
    <path id="パス_13595" data-name="パス 13595" d="M0,0H280V24H0Z" transform="translate(48 2638.293)" fill="#c89932"/>
    <path id="パス_13596" data-name="パス 13596" d="M-13.018-5.918A9.73,9.73,0,0,1-13.639-3.4a7.152,7.152,0,0,1-1.072,1.758A7.914,7.914,0,0,1-18.661.85q-.029.006-.064-.032a.116.116,0,0,1-.035-.079A.039.039,0,0,1-18.743.7a8.281,8.281,0,0,0,3.861-4.078,9.853,9.853,0,0,0,.674-2.854H-17.4a10.317,10.317,0,0,0-1.09.07l-.135-.439a9.1,9.1,0,0,0,1.248.094h3.193q.094-1.061.094-2.221,0-.463-.047-1.113a11.329,11.329,0,0,1,1.436.246q.264.082.264.246T-12.854-9a24.306,24.306,0,0,1-.105,2.5H-9.9q.709-.926.861-.926a3.488,3.488,0,0,1,.867.65q.369.322.369.428,0,.123-.152.123h-4.887A7.561,7.561,0,0,0-10.6-2.268,7.9,7.9,0,0,0-7.593-.574a.058.058,0,0,1,.041.064A.081.081,0,0,1-7.6-.422a1.391,1.391,0,0,0-.838.961q-.07.24-.182.24A1.607,1.607,0,0,1-9.368.422a8.457,8.457,0,0,1-1.945-1.84A9.412,9.412,0,0,1-13.018-5.918ZM3.732-1A33.482,33.482,0,0,1-1.371.17a1.345,1.345,0,0,1-.123.393.165.165,0,0,1-.152.076q-.141,0-.234-.27-.082-.24-.387-1.424.463.047.744.047h.264A37.507,37.507,0,0,0,.469-7.594,20.176,20.176,0,0,0,.686-9.686q1.295.281,1.6.393.252.094.252.234,0,.217-.475.357A36.588,36.588,0,0,1,.744-4.26,25.909,25.909,0,0,1-.744-1.02a41.843,41.843,0,0,0,4.389-.3A14.026,14.026,0,0,0,2.4-4.459a.017.017,0,0,1-.006-.012q0-.088.111-.088a.048.048,0,0,1,.035.012,14.443,14.443,0,0,1,2.145,2.5A3.158,3.158,0,0,1,5.238-.422a1.116,1.116,0,0,1-.223.732.61.61,0,0,1-.486.229A.48.48,0,0,1,4.1.287a2.514,2.514,0,0,1-.258-.779Zm-7.547-4.33A9.716,9.716,0,0,1-5.543-3.861a.04.04,0,0,1-.029.012q-.1,0-.1-.082a.052.052,0,0,1,.006-.023A12.2,12.2,0,0,0-3.24-7.863a9.6,9.6,0,0,0,.586-2.121q1.6.451,1.6.674,0,.188-.457.287A14.116,14.116,0,0,1-3.023-6.275a2.4,2.4,0,0,1,.51.117.147.147,0,0,1,.088.135q0,.135-.311.275V.48q0,.5-.621.5-.527,0-.527-.434.07-1.312.07-3.182Zm17.571-3h1.307v-.791a5.7,5.7,0,0,0-.07-.879q1.512.129,1.512.334,0,.129-.334.328v1.008h1.26q.451-.551.586-.551a2.269,2.269,0,0,1,.721.492q.3.27.3.381,0,.211-.4.229a.765.765,0,0,0-.3.158q-.375.281-.85.586.053.029.3.205.264.193.264.322,0,.1-.287.3v.322l.023,1.646q0,.516-.627.516a.493.493,0,0,1-.387-.123.564.564,0,0,1-.088-.357v-.047H14.442v1.582h2.5q.5-.562.633-.562a1.9,1.9,0,0,1,.662.4q.275.229.275.352,0,.088-.311.346v.422l.035,2.2q0,.527-.662.527a.52.52,0,0,1-.4-.123.536.536,0,0,1-.1-.369V.17H14.442v.4q0,.539-.639.539-.5,0-.5-.434l.064-5.531q0-.973-.041-1.945a.708.708,0,0,1-.346.094.492.492,0,0,1-.562-.551.576.576,0,0,1,.387-.568,1.135,1.135,0,0,0,.668-1.066.059.059,0,0,1,.064-.047.068.068,0,0,1,.07.047A3.706,3.706,0,0,1,13.757-8.326Zm.035.275a1.558,1.558,0,0,1,.012.193,1.531,1.531,0,0,1-.129.645,7.031,7.031,0,0,1,.85.492H16.6q.422-.469.545-.469a.405.405,0,0,1,.182.047q.111-.375.229-.908Zm.65,5.66V-.105h2.625V-2.391Zm2.244-2.133V-6.445H14.442v1.922ZM9.52-.609a14.147,14.147,0,0,0,1.729-.434,4.286,4.286,0,0,0-.8-1.16.072.072,0,0,1-.012-.041.062.062,0,0,1,.07-.07h.012a3.631,3.631,0,0,1,1.588.844,1.413,1.413,0,0,1,.5,1.02.88.88,0,0,1-.193.6.545.545,0,0,1-.428.193.34.34,0,0,1-.275-.111,1.2,1.2,0,0,1-.146-.357,5.094,5.094,0,0,0-.193-.6A17.686,17.686,0,0,1,8.63.615q-.047.4-.234.4-.117,0-.24-.293Q8.038.457,7.768-.381q.023,0,.732-.076V-3.633q0-1.775-.047-3.217a9.123,9.123,0,0,1-.809.48H7.634q-.082,0-.082-.105A.04.04,0,0,1,7.563-6.5,11.919,11.919,0,0,0,9.2-8.6a5.852,5.852,0,0,0,.656-1.477q1.037.434,1.254.539.2.105.2.182,0,.164-.422.176a4.009,4.009,0,0,1,1.266.586.782.782,0,0,1,.311.621.6.6,0,0,1-.164.422.446.446,0,0,1-.328.152.321.321,0,0,1-.27-.105,3.545,3.545,0,0,1-.27-.533,3.25,3.25,0,0,0-.7-1A8.926,8.926,0,0,1,8.694-7.02q.346.152.873.445h.422v-.732a6.863,6.863,0,0,0-.047-.709Q11.3-7.9,11.3-7.705q0,.117-.311.264v.867h.264q.4-.434.527-.434a1.572,1.572,0,0,1,.6.363q.24.188.24.311t-.287.311v.469l.023,2.59q0,.457-.586.457a.507.507,0,0,1-.375-.1.445.445,0,0,1-.082-.3v-.17H9.52Zm1.787-4.406V-6.3H9.52v1.283ZM9.52-4.74v1.383h1.787V-4.74Z" transform="translate(188 2655.293)" fill="#fff"/>
    <path id="パス_12685" data-name="パス 12685" d="M-3876,12067h22.195" transform="translate(12255.5 6481.22) rotate(90)" fill="none" stroke="#fff" stroke-width="1"/>
    <path id="パス_13597" data-name="パス 13597" d="M4,0,8,4.073H0Z" transform="translate(192.5 2630.293) rotate(180)" fill="#fff"/>
    <path id="パス_13598" data-name="パス 13598" d="M0,0H280V24H0Z" transform="translate(48 2573.22)" fill="#fff"/>
    <path id="パス_13599" data-name="パス 13599" d="M-5.5-7.969A6.007,6.007,0,0,0-3.454-6.363a10.324,10.324,0,0,0,2.607.8A.058.058,0,0,1-.805-5.5q0,.07-.053.082a1.019,1.019,0,0,0-.709.732.975.975,0,0,1-.088.249.133.133,0,0,1-.117.05,2.183,2.183,0,0,1-.586-.229,11.238,11.238,0,0,1-1.312-.8A7.412,7.412,0,0,1-5.8-7.969H-7.022a8.431,8.431,0,0,1-2.256,2.4A11.578,11.578,0,0,1-12.12-4.125a.024.024,0,0,1-.018.006q-.082,0-.082-.111a.039.039,0,0,1,.018-.035,10.84,10.84,0,0,0,3.9-3.7h-2.52a8.739,8.739,0,0,0-.984.07l-.129-.439a6.709,6.709,0,0,0,1.078.094h2.713a7.785,7.785,0,0,0,.732-1.834q1.541.34,1.541.563t-.5.334q-.17.387-.48.938H-3.2q.668-.791.814-.791a3.246,3.246,0,0,1,.85.551q.369.293.369.4t-.152.117Zm-.545,4.582v.674L-6-.158a.959.959,0,0,1-.5.914A1.647,1.647,0,0,1-7.432,1,.26.26,0,0,1-7.661.9,1.258,1.258,0,0,1-7.766.551Q-7.866.094-9-.229q-.047-.012-.047-.088T-9-.4q1.049.076,1.617.076.158,0,.158-.17V-3.387h-3.035a9.666,9.666,0,0,0-1.043.07l-.135-.439a7.916,7.916,0,0,0,1.166.094h6.645q.656-.779.809-.779a2.735,2.735,0,0,1,.779.539q.334.287.334.4t-.158.117Zm1.893-1.881q0,.117-.152.117H-8.217a7.135,7.135,0,0,0-.891.07l-.129-.439a5.24,5.24,0,0,0,.943.094H-5.9q.6-.674.738-.674a2.3,2.3,0,0,1,.709.469Q-4.157-5.385-4.157-5.268ZM-1.971-.322a.736.736,0,0,1-.2.545A.589.589,0,0,1-2.6.4.5.5,0,0,1-3.032.205a7.358,7.358,0,0,1-.492-.926A5.442,5.442,0,0,0-5.059-2.508a.063.063,0,0,1-.018-.047q0-.094.076-.076A6,6,0,0,1-2.68-1.57,1.655,1.655,0,0,1-1.971-.322Zm-6.17-1.729q0,.2-.557.264A7.959,7.959,0,0,1-11.926.545a.052.052,0,0,1-.023.006q-.111,0-.111-.1a.034.034,0,0,1,.012-.023A7.969,7.969,0,0,0-10.01-1.9a4.145,4.145,0,0,0,.422-.955,11.4,11.4,0,0,1,1.207.545Q-8.141-2.168-8.141-2.051ZM8.176-1.74a4.619,4.619,0,0,0,.422.264A10.322,10.322,0,0,0,12.114-.369q.047.006.047.076t-.047.082a1.094,1.094,0,0,0-.574.264,1.293,1.293,0,0,0-.264.5Q11.182.832,11,.832a2.074,2.074,0,0,1-.615-.158A8.383,8.383,0,0,1,8.5-.3,5.79,5.79,0,0,1,6.887-1.881,10.3,10.3,0,0,1,5.856-4.043H4.163V-.7a21.7,21.7,0,0,0,2.689-.68h.012q.076,0,.076.117a.046.046,0,0,1-.018.041A20.623,20.623,0,0,1,2.5.744q-.053.457-.287.457-.123,0-.223-.223Q1.9.779,1.526-.275q.41-.035.885-.105.111-.023.34-.053.2-.029.3-.047V-4.412q0-2.637-.07-4.395a10.419,10.419,0,0,1,1.277.6H5.879V-9.252q0-.258-.047-.732,1.588.146,1.588.4,0,.164-.41.357v1.02H8.827q.48-.539.609-.539a1.947,1.947,0,0,1,.662.434q.275.24.275.357t-.363.346v.65l.064,2.777a.3.3,0,0,1-.088.234q1.225.674,1.225.879,0,.17-.375.17h-.164A11.8,11.8,0,0,1,8.176-1.74ZM7.9-1.934a11.122,11.122,0,0,0,1.354-1.16,5.414,5.414,0,0,0,.639-.768,1.066,1.066,0,0,1-.527.105q-.41,0-.445-.287H6.155A6.307,6.307,0,0,0,7.9-1.934ZM8.92-4.318V-6.035H4.163v1.717Zm0-1.992V-7.934H4.163v1.623Z" transform="translate(188 2590.22)" fill="#111"/>
    <path id="パス_13600" data-name="パス 13600" d="M-15.2-4.15a14.563,14.563,0,0,0,1.172-1.89,6.163,6.163,0,0,0,.459-1.03q1.118.513,1.118.669t-.327.142h-.059q-.83.972-1.113,1.26t-.937.85q.566,0,1.709-.039a2.571,2.571,0,0,0-.435-.85.043.043,0,0,1,0-.02q0-.054.073-.054a.054.054,0,0,1,.024,0q1.26.684,1.26,1.416a.681.681,0,0,1-.142.449.4.4,0,0,1-.308.142A.308.308,0,0,1-13-3.247a1.52,1.52,0,0,1-.127-.591l-.01-.112q-.22.078-.659.2v1.382l.029,2.847q0,.381-.527.381-.4,0-.4-.308.059-.913.059-2.173V-3.55q-.361.078-1.06.19-.1.278-.22.278-.1,0-.181-.244t-.19-.845q.259.02.532.02Zm4.082-1.9A6.09,6.09,0,0,1-12.442-4.5a.052.052,0,0,1-.029.01q-.088,0-.088-.063a.037.037,0,0,1,0-.015,9.56,9.56,0,0,0,.986-2.48,6.98,6.98,0,0,0,.239-1.289q1.367.352,1.367.532t-.4.239a10.1,10.1,0,0,1-.62,1.289h2.368q.439-.518.552-.518t.566.42q.239.21.239.317,0,.078-.308.3-.059,1.968-.171,3.076A15.619,15.619,0,0,1-8.077-.532a1.53,1.53,0,0,1-.64.972,1.473,1.473,0,0,1-.84.229.291.291,0,0,1-.21-.054A.569.569,0,0,1-9.845.391.733.733,0,0,0-10.172-.1a3.442,3.442,0,0,0-.791-.3Q-11-.41-11-.483t.039-.078q.874.078,1.157.078a1.678,1.678,0,0,0,.645-.078A.374.374,0,0,0-9-.806,23.539,23.539,0,0,0-8.507-6.05ZM-15.206-6.6a10.129,10.129,0,0,0,.439-1.187,4.715,4.715,0,0,0,.146-.61q1.187.42,1.187.62,0,.166-.4.166A13.022,13.022,0,0,1-14.967-6.46a.908.908,0,0,1,.474.757.636.636,0,0,1-.146.444.421.421,0,0,1-.322.137.38.38,0,0,1-.322-.117,2.021,2.021,0,0,1-.2-.513,2.408,2.408,0,0,0-.659-1.079.033.033,0,0,1-.015-.029q0-.073.073-.059A5.85,5.85,0,0,1-15.206-6.6Zm5.435,3.5a.708.708,0,0,1-.171.483.486.486,0,0,1-.376.176q-.312,0-.4-.439a7.049,7.049,0,0,0-.371-1.074,2.319,2.319,0,0,0-.43-.635.06.06,0,0,1-.01-.034.052.052,0,0,1,.059-.059h.01a2.843,2.843,0,0,1,1.26.708A1.25,1.25,0,0,1-9.771-3.1Zm-2.51,1.831a.713.713,0,0,1-.151.474.43.43,0,0,1-.337.156.3.3,0,0,1-.293-.186A2.076,2.076,0,0,1-13.2-1.46a3.078,3.078,0,0,0-.444-1.353.028.028,0,0,1-.01-.02q0-.049.059-.049a.053.053,0,0,1,.029.01Q-12.281-2.075-12.281-1.27ZM-14.7-2.422q0,.132-.283.19A5.644,5.644,0,0,1-16.358.132a.04.04,0,0,1-.029.01.056.056,0,0,1-.063-.063.037.037,0,0,1,0-.015,7.958,7.958,0,0,0,.562-1.885A4.726,4.726,0,0,0-15.8-2.71q0-.068,0-.161.767.225.952.308Q-14.7-2.5-14.7-2.422Zm12.934.244v.439q0,.571.01.679a1.063,1.063,0,0,0,.078.322A.376.376,0,0,0-1.4-.532a3.87,3.87,0,0,0,.439.054q.068,0,.068.127T-.969-.22q-.82-.039-1.294-.039-.508,0-1.353.039Q-3.7-.22-3.7-.352t.088-.127a3.9,3.9,0,0,0,.459-.063A.321.321,0,0,0-2.932-.7,2.658,2.658,0,0,0-2.8-1.719v-.449H-4.382l-.947.01q-.132,0-.132-.259a.847.847,0,0,1,.112-.41q1.558-2.734,2.676-4.492l.894-.239q.078,0,.078.117,0,.269-.024,1.3-.01.737-.024,1.25l-.02,2.339q.425,0,1.006-.049.063,0,.063.044v.024l-.093.3a.084.084,0,0,1-.088.068Q-1.169-2.178-1.77-2.178ZM-2.8-2.539l.02-2.168q.015-1.089.059-1.86Q-4.089-4.4-5.007-2.7a.234.234,0,0,0-.034.1q0,.059.122.059ZM3.117-7.51A1.865,1.865,0,0,1,4.826-6.372a5.588,5.588,0,0,1,.513,2.583A5.151,5.151,0,0,1,4.67-.928a1.785,1.785,0,0,1-1.553.889A1.862,1.862,0,0,1,1.389-1.147,5.541,5.541,0,0,1,.881-3.73a5.271,5.271,0,0,1,.664-2.9A1.8,1.8,0,0,1,3.117-7.51Zm0,.308q-.64,0-.884,1.06A11.575,11.575,0,0,0,2.053-3.76a9.744,9.744,0,0,0,.244,2.6q.254.811.82.811.625,0,.869-1.05A11.445,11.445,0,0,0,4.167-3.76a10.075,10.075,0,0,0-.239-2.622Q3.679-7.2,3.117-7.2Zm8.319,3.223A5.262,5.262,0,0,1,10.118-.728,6.028,6.028,0,0,1,7.276.791Q7.208.806,7.208.7A.038.038,0,0,1,7.223.669,6.382,6.382,0,0,0,9.6-1.406a5.853,5.853,0,0,0,.8-2.573H9.64A4.917,4.917,0,0,0,8.8-3.9l-.112-.4a4.847,4.847,0,0,0,.923.093H13.4q.449-.439.547-.439t.571.4q.239.225.239.317t-.288.293a12.958,12.958,0,0,1-.522,3.364,1.553,1.553,0,0,1-.459.684,1.317,1.317,0,0,1-.859.278A.474.474,0,0,1,12.359.64a.43.43,0,0,1-.1-.229.7.7,0,0,0-.337-.435,3.764,3.764,0,0,0-.806-.322q-.029,0-.029-.068,0-.112.049-.1a11.156,11.156,0,0,0,1.484.166.373.373,0,0,0,.337-.19,2.632,2.632,0,0,0,.225-.64,16.677,16.677,0,0,0,.327-2.8ZM16.52-4.8q.029,0,.029.063,0,.078-.044.088a.631.631,0,0,0-.386.225,1.39,1.39,0,0,0-.205.474q-.063.288-.166.288a1.112,1.112,0,0,1-.439-.22A6.925,6.925,0,0,1,14.229-4.8a5.666,5.666,0,0,1-.894-1.24,14.151,14.151,0,0,1-.708-1.611.507.507,0,0,0-.132-.181.126.126,0,0,1-.078-.107q0-.063.161-.127a.624.624,0,0,1,.229-.054q.1,0,.1.078l-.049.181a.568.568,0,0,0,.059.22,5.217,5.217,0,0,0,1.47,1.86A5.287,5.287,0,0,0,16.52-4.8Zm-5.19-2.778q0,.19-.41.22A9.5,9.5,0,0,1,9.2-4.961,8.735,8.735,0,0,1,7.12-3.525a.02.02,0,0,1-.015,0q-.078,0-.078-.088a.033.033,0,0,1,.01-.024A9.243,9.243,0,0,0,9.459-6.738,6.542,6.542,0,0,0,9.977-8.2Q11.329-7.754,11.329-7.578Z" transform="translate(217 2562.22)" fill="#fff"/>
    <path id="パス_13601" data-name="パス 13601" d="M-5.476-4.99a8.742,8.742,0,0,1-.283,1.924A4.5,4.5,0,0,1-7.136-.9a.033.033,0,0,1-.024.01q-.117,0-.117-.073a.02.02,0,0,1,0-.015,6.183,6.183,0,0,0,.728-2.109A13.916,13.916,0,0,0-6.384-5.5,15.241,15.241,0,0,0-6.467-7.31q.518.2,1.079.479a8.113,8.113,0,0,0,2.319-1.05,4.423,4.423,0,0,0,.591-.469,9.367,9.367,0,0,1,.859.605q.19.171.19.283,0,.142-.283.142a1.985,1.985,0,0,1-.259-.02,14.439,14.439,0,0,1-3.457.8v.21q-.015.6-.029,1.108H-2.6q.566-.659.688-.659a2.668,2.668,0,0,1,.688.459q.3.244.3.332t-.127.1H-2.868v1.309l.029,2.632q0,.381-.571.381-.415,0-.415-.3L-3.8-3.54V-4.99ZM-.739-.449A.689.689,0,0,0-1.13.112.7.7,0,0,1-1.2.41a.256.256,0,0,1-.171.063A23.939,23.939,0,0,1-3.83.562,13.019,13.019,0,0,1-5.935.43a3.319,3.319,0,0,1-1.157-.4,2.558,2.558,0,0,1-1-1.47A8.056,8.056,0,0,1-9.24.068a1.148,1.148,0,0,1,.015.166q0,.293-.181.293-.21,0-.742-1.216a6.692,6.692,0,0,0,.7-.254,4.277,4.277,0,0,0,.713-.4V-3.95h-.693a2.129,2.129,0,0,0-.547.078l-.112-.4a2.477,2.477,0,0,0,.659.093h.63q.405-.459.513-.459a1.667,1.667,0,0,1,.547.352q.229.2.229.3,0,.078-.3.308v2.3A1.838,1.838,0,0,0-6.9-.557a7.4,7.4,0,0,0,2.339.249A34.707,34.707,0,0,0-.749-.562q.039-.01.039.049A.064.064,0,0,1-.739-.449Zm-7.109-6.3a.607.607,0,0,1-.166.449.512.512,0,0,1-.386.151.348.348,0,0,1-.293-.142,1.676,1.676,0,0,1-.2-.479,2.624,2.624,0,0,0-.64-1.167.052.052,0,0,1-.01-.029q0-.063.078-.063h.015Q-7.849-7.637-7.849-6.753ZM5.91-5.781h.913q.01-.342.01-1.089,0-.688-.054-1.372a8.749,8.749,0,0,1,1.089.156q.176.054.176.166,0,.146-.312.259Q7.717-6.6,7.7-5.781h.562q.469-.62.6-.62a2.279,2.279,0,0,1,.62.439q.259.215.259.308t-.132.1H7.692a18.057,18.057,0,0,1-.151,1.914H8.562q.493-.645.63-.645t.63.449q.269.229.269.327t-.127.1H7.7A4.674,4.674,0,0,0,9.021-1.177a4.686,4.686,0,0,0,1.328.806.047.047,0,0,1,.034.044.071.071,0,0,1-.034.059,1.048,1.048,0,0,0-.518.791Q9.8.791,9.7.791q-.176,0-.664-.518a5.486,5.486,0,0,1-.664-.84,7.813,7.813,0,0,1-.889-2.71q-.127.527-.151.605A4.707,4.707,0,0,1,5.813-.249,6.152,6.152,0,0,1,3.732.8Q3.649.82,3.649.718A.033.033,0,0,1,3.664.688,7.8,7.8,0,0,0,5.158-.405a4.867,4.867,0,0,0,.825-1.123,6.262,6.262,0,0,0,.64-1.88H5.383a2.991,2.991,0,0,0-.522.059l-.1-.342H3.352V-.708A14.434,14.434,0,0,0,4.836-1.06q.054-.01.054.068a.073.073,0,0,1-.02.054A15.648,15.648,0,0,1,1.7.42q-.059.352-.22.352-.112,0-.2-.19T.939-.4q.41-.01,1.094-.1.317-.039.479-.068V-3.691H1.721a3,3,0,0,0-.537.063L1.071-4a2.716,2.716,0,0,0,.62.078h.82v-1.3H2.263a2.711,2.711,0,0,0-.493.059l-.088-.317a5.066,5.066,0,0,1-.8.513.037.037,0,0,1-.015,0,.065.065,0,0,1-.073-.073.028.028,0,0,1,.01-.02,8.211,8.211,0,0,0,1.46-2.1,5.841,5.841,0,0,0,.42-1.177q1.147.308,1.147.508,0,.171-.381.2l-.029.059Q4.89-7.119,4.89-6.4a.434.434,0,0,1-.122.313.353.353,0,0,1-.259.107.341.341,0,0,1-.264-.112,1.346,1.346,0,0,1-.2-.347,2.636,2.636,0,0,0-.7-1A7.76,7.76,0,0,1,1.721-5.513a2.3,2.3,0,0,0,.479.063H3.42q.342-.444.474-.444a1.6,1.6,0,0,1,.508.313q.21.181.21.259,0,.1-.132.1H3.352v1.3h.342q.371-.479.5-.479a1.515,1.515,0,0,1,.5.337q.21.181.21.273a.079.079,0,0,1-.059.088,2.548,2.548,0,0,0,.522.063h1.3a14.973,14.973,0,0,0,.151-1.914H5.8a5.564,5.564,0,0,1-.991,1.27.06.06,0,0,1-.034.01q-.078,0-.078-.049v-.01a7.657,7.657,0,0,0,.664-2.041A7.268,7.268,0,0,0,5.49-7.48a7.6,7.6,0,0,1,.942.278q.171.078.171.171t-.3.19A6.719,6.719,0,0,1,5.91-5.781Zm-3.7,4.214a.555.555,0,0,1-.132.386A.356.356,0,0,1,1.8-1.05q-.3,0-.332-.459a7.685,7.685,0,0,0-.088-.884,3.442,3.442,0,0,0-.171-.547.037.037,0,0,1,0-.015q0-.054.063-.054A.053.053,0,0,1,1.3-3a3.776,3.776,0,0,1,.737.811A1.2,1.2,0,0,1,2.214-1.567ZM4.992-2.661q0,.142-.3.181a6.712,6.712,0,0,1-1.055,1.4.06.06,0,0,1-.044.015q-.068,0-.068-.054a.037.037,0,0,1,0-.015,8.738,8.738,0,0,0,.352-1.24q.083-.454.112-.8Q4.992-2.827,4.992-2.661Z" transform="translate(210 2545.22)" fill="#fff"/>
    <path id="パス_12685-2" data-name="パス 12685" d="M-3876,12067h22.195" transform="translate(12255 6411.22) rotate(90)" fill="none" stroke="#fff" stroke-width="1"/>
    <path id="パス_13602" data-name="パス 13602" d="M4,0,8,4.073H0Z" transform="translate(192 2560.293) rotate(180)" fill="#fff"/>
    <path id="パス_13603" data-name="パス 13603" d="M0,0H280V24H0Z" transform="translate(48 2503.22)" fill="#fff"/>
    <path id="パス_13604" data-name="パス 13604" d="M-19.771-5.988a10.49,10.49,0,0,1-.34,2.309,5.4,5.4,0,0,1-1.652,2.6.04.04,0,0,1-.029.012q-.141,0-.141-.088a.024.024,0,0,1,.006-.018A7.419,7.419,0,0,0-21.054-3.7,16.7,16.7,0,0,0-20.861-6.6a18.289,18.289,0,0,0-.1-2.174q.621.24,1.295.574a9.736,9.736,0,0,0,2.783-1.26,5.307,5.307,0,0,0,.709-.562,11.24,11.24,0,0,1,1.031.727q.229.205.229.34,0,.17-.34.17a2.382,2.382,0,0,1-.311-.023,17.326,17.326,0,0,1-4.148.961v.252q-.018.715-.035,1.33h3.428q.68-.791.826-.791a3.2,3.2,0,0,1,.826.551q.363.293.363.4t-.152.117h-2.186v1.57l.035,3.158q0,.457-.686.457-.5,0-.5-.363l.035-3.082v-1.74Zm5.684,5.449a.827.827,0,0,0-.469.674.84.84,0,0,1-.082.357.307.307,0,0,1-.205.076A28.727,28.727,0,0,1-17.8.674,15.622,15.622,0,0,1-20.321.516,3.983,3.983,0,0,1-21.71.035a3.07,3.07,0,0,1-1.2-1.764A9.667,9.667,0,0,1-24.288.082a1.377,1.377,0,0,1,.018.2q0,.352-.217.352-.252,0-.891-1.459a8.031,8.031,0,0,0,.838-.3,5.132,5.132,0,0,0,.855-.48V-4.74h-.832a2.555,2.555,0,0,0-.656.094l-.135-.48a2.972,2.972,0,0,0,.791.111h.756q.486-.551.615-.551a2,2,0,0,1,.656.422q.275.24.275.357,0,.094-.357.369v2.76a2.206,2.206,0,0,0,1.09.99,8.878,8.878,0,0,0,2.807.3,41.649,41.649,0,0,0,4.576-.3q.047-.012.047.059A.077.077,0,0,1-14.087-.539ZM-22.618-8.1a.728.728,0,0,1-.2.539.615.615,0,0,1-.463.182.418.418,0,0,1-.352-.17,2.011,2.011,0,0,1-.234-.574,3.149,3.149,0,0,0-.768-1.4.063.063,0,0,1-.012-.035q0-.076.094-.076h.018Q-22.618-9.164-22.618-8.1ZM-6.108-6.937h1.1Q-5-7.348-5-8.244q0-.826-.064-1.646A10.5,10.5,0,0,1-3.758-9.7q.211.064.211.2,0,.176-.375.311-.018,1.271-.035,2.256h.674q.562-.744.721-.744a2.735,2.735,0,0,1,.744.527q.311.258.311.369t-.158.123h-2.3a21.669,21.669,0,0,1-.182,2.3h1.225q.592-.773.756-.773.146,0,.756.539.322.275.322.393t-.152.117H-3.957A5.609,5.609,0,0,0-2.375-1.412,5.623,5.623,0,0,0-.782-.445a.057.057,0,0,1,.041.053.085.085,0,0,1-.041.07A1.257,1.257,0,0,0-1.4.627q-.035.322-.158.322-.211,0-.8-.621a6.584,6.584,0,0,1-.8-1.008A9.376,9.376,0,0,1-4.221-3.932q-.152.633-.182.727A5.648,5.648,0,0,1-6.225-.3a7.383,7.383,0,0,1-2.5,1.26q-.1.023-.1-.1A.039.039,0,0,1-8.8.826,9.359,9.359,0,0,0-7.01-.486a5.841,5.841,0,0,0,.99-1.348A7.514,7.514,0,0,0-5.252-4.09H-6.741a3.589,3.589,0,0,0-.627.07l-.117-.41H-9.178V-.85A17.321,17.321,0,0,0-7.4-1.271q.064-.012.064.082a.087.087,0,0,1-.023.064A18.777,18.777,0,0,1-11.159.5q-.07.422-.264.422-.135,0-.234-.229Q-11.75.486-12.073-.48-11.58-.492-10.76-.6q.381-.047.574-.082V-4.43h-.949a3.6,3.6,0,0,0-.645.076l-.135-.445a3.259,3.259,0,0,0,.744.094h.984V-6.264h-.3a3.253,3.253,0,0,0-.592.07l-.105-.381a6.079,6.079,0,0,1-.961.615.045.045,0,0,1-.018.006.078.078,0,0,1-.088-.088.034.034,0,0,1,.012-.023,9.853,9.853,0,0,0,1.752-2.52A7.01,7.01,0,0,0-9.981-10q1.377.369,1.377.609,0,.205-.457.24l-.035.07q1.764.533,1.764,1.395a.52.52,0,0,1-.146.375.423.423,0,0,1-.311.129.409.409,0,0,1-.316-.135,1.615,1.615,0,0,1-.234-.416,3.163,3.163,0,0,0-.838-1.2,9.312,9.312,0,0,1-1.957,2.314,2.766,2.766,0,0,0,.574.076H-9.1q.41-.533.568-.533a1.916,1.916,0,0,1,.609.375q.252.217.252.311,0,.123-.158.123H-9.178v1.559h.41q.445-.574.6-.574a1.818,1.818,0,0,1,.6.4q.252.217.252.328a.094.094,0,0,1-.07.105,3.058,3.058,0,0,0,.627.076h1.559a17.968,17.968,0,0,0,.182-2.3H-6.237A6.677,6.677,0,0,1-7.426-5.139a.072.072,0,0,1-.041.012q-.094,0-.094-.059V-5.2a9.189,9.189,0,0,0,.8-2.449,8.722,8.722,0,0,0,.152-1.33,9.121,9.121,0,0,1,1.131.334q.205.094.205.205t-.363.229A8.063,8.063,0,0,1-6.108-6.937Zm-4.436,5.057a.666.666,0,0,1-.158.463.428.428,0,0,1-.34.158q-.363,0-.4-.551a9.222,9.222,0,0,0-.105-1.061,4.13,4.13,0,0,0-.205-.656.045.045,0,0,1-.006-.018q0-.064.076-.064a.063.063,0,0,1,.035.012,4.531,4.531,0,0,1,.885.973A1.435,1.435,0,0,1-10.543-1.881Zm3.334-1.312q0,.17-.363.217A8.055,8.055,0,0,1-8.838-1.3a.072.072,0,0,1-.053.018q-.082,0-.082-.064a.045.045,0,0,1,.006-.018,10.486,10.486,0,0,0,.422-1.488q.1-.545.135-.961Q-7.209-3.393-7.209-3.193ZM8.036-7.441H9.3a11.19,11.19,0,0,0,.41-1.354,8.463,8.463,0,0,0,.146-1.037,12.051,12.051,0,0,1,1.219.4q.205.105.205.24a.173.173,0,0,1-.105.164,1.632,1.632,0,0,1-.352.1A9.488,9.488,0,0,1,9.776-7.441h.756q.5-.674.639-.674a2.209,2.209,0,0,1,.709.469q.287.24.287.363t-.182.117H10.2v2.057h.264q.393-.65.563-.65.123,0,.639.457.264.246.264.346,0,.123-.158.123H10.2v2.109h.264q.41-.633.574-.633.123,0,.627.439.264.246.264.352t-.158.117H10.2V-.07h.527q.445-.7.609-.7.123,0,.662.492.275.258.275.357,0,.123-.152.123H8.182V.662q0,.457-.586.457-.469,0-.469-.357l.059-5.139V-6.34q-.346.363-.615.6a.048.048,0,0,1-.035.012q-.094,0-.094-.07a.052.052,0,0,1,.006-.023,9.516,9.516,0,0,0,1.037-2.4,7.959,7.959,0,0,0,.328-1.752,9.766,9.766,0,0,1,1.242.363q.275.123.275.258a.185.185,0,0,1-.105.17,1.345,1.345,0,0,1-.334.094A7.644,7.644,0,0,1,8.036-7.441Zm.146,2.332H9.213V-7.166H8.182Zm0,.275v2.109H9.213V-4.834Zm0,2.385V-.07H9.213V-2.449ZM4.432-4.658a11.928,11.928,0,0,1-.094,1.189h.621q.475-.586.627-.586a2.066,2.066,0,0,1,.65.4q.275.24.275.34,0,.117-.158.117H4.3A9.64,9.64,0,0,1,4.11-2.162H5.176q.521-.65.674-.65a2.2,2.2,0,0,1,.662.457q.275.24.275.346,0,.123-.158.123h-2.6L3.881-1.5q2.174.434,2.174,1.424a.625.625,0,0,1-.17.463.5.5,0,0,1-.369.152A.475.475,0,0,1,5.147.4a1.993,1.993,0,0,1-.281-.492,3.066,3.066,0,0,0-1.078-1.2A3.87,3.87,0,0,1,2.668.094,7.056,7.056,0,0,1,1.1.973.052.052,0,0,1,1.08.979Q.993.979.993.9A.04.04,0,0,1,1,.867,6.8,6.8,0,0,0,2.411-.486a4.446,4.446,0,0,0,.68-1.4H2.012a6.216,6.216,0,0,0-.826.07l-.135-.439a4.671,4.671,0,0,0,.891.094H3.161a8.565,8.565,0,0,0,.17-1.031H2.288a6.267,6.267,0,0,0-.838.07l-.135-.439a4.671,4.671,0,0,0,.891.094H3.354a10.073,10.073,0,0,0,.07-1.189h-.9v.123q0,.4-.609.4-.41,0-.41-.357l.035-1.418q0-.785-.047-1.412.527.234,1.078.516h2.76q.387-.445.516-.445a1.343,1.343,0,0,1,.539.334q.217.182.217.3t-.252.287v.275l.035,1.4q0,.4-.6.4-.41,0-.41-.334v-.076Zm.012-.275h.938V-6.527H4.473Q4.473-5.461,4.444-4.934Zm-1.02,0q.018-.416.018-.8t-.018-.8h-.9v1.594ZM5.469-8.162l.012.621q0,.4-.6.4-.445,0-.445-.334,0-.053.012-.258.006-.246.012-.428H3.489q.012.311.012.621,0,.4-.6.4-.434,0-.434-.334,0-.053.012-.258.006-.258.012-.428H2a6.216,6.216,0,0,0-.826.07l-.129-.439a4.645,4.645,0,0,0,.885.094h.563v-.369q0-.627-.023-.984a10.27,10.27,0,0,1,1.125.164q.193.053.193.17,0,.146-.3.264v.756h.973v-.357q0-.627-.023-1a9.306,9.306,0,0,1,1.137.158q.193.059.193.176,0,.152-.311.264v.756h.205q.451-.621.609-.621a1.94,1.94,0,0,1,.662.445q.275.217.275.334t-.152.117ZM21.88-5.086h1.078q.5-.5.627-.5a2.2,2.2,0,0,1,.709.492q.287.258.287.369,0,.182-.492.34a10.222,10.222,0,0,1-1.775,2.66A8.9,8.9,0,0,0,25.566-.457a.063.063,0,0,1,.047.07.059.059,0,0,1-.047.064,1.118,1.118,0,0,0-.9.861q-.076.229-.205.229a2.137,2.137,0,0,1-.744-.3,10.307,10.307,0,0,1-1.945-1.33,2.374,2.374,0,0,0-.193-.17A9.915,9.915,0,0,1,17.667.82Q17.632.826,17.6.773a.168.168,0,0,1-.029-.088A.047.047,0,0,1,17.6.639a11.049,11.049,0,0,0,3.41-2.291,8.4,8.4,0,0,1-1.418-3.158H19.1a13.134,13.134,0,0,1-.357,2.391,5.711,5.711,0,0,1-.867,1.84A8.453,8.453,0,0,1,16.589.785a.065.065,0,0,1-.029.006q-.1,0-.1-.082a.052.052,0,0,1,.006-.023A7.9,7.9,0,0,0,17.8-2.566a24.531,24.531,0,0,0,.264-4.119q0-1.072-.059-1.9a13.183,13.183,0,0,1,1.307.686H20.8V-8.941q0-.439-.059-1.02,1.559.146,1.559.369,0,.152-.422.328V-7.9h1.635q.521-.574.645-.574a2.552,2.552,0,0,1,.785.574q.322.311.322.422,0,.223-.48.275a.6.6,0,0,0-.311.141,8.536,8.536,0,0,1-1.236.926.072.072,0,0,1-.041.012q-.082,0-.082-.064a.024.024,0,0,1,.006-.018,10.175,10.175,0,0,0,.51-1.418H21.88Zm-1.078,0V-7.623H19.155V-7.2q0,1.283-.047,2.115Zm.768,2.795a9.838,9.838,0,0,0,1.453-2.52H19.829A6.393,6.393,0,0,0,21.57-2.291ZM16.261-5.76a.667.667,0,0,1-.193.492.514.514,0,0,1-.381.17.481.481,0,0,1-.457-.311,5.374,5.374,0,0,0-.457-.891,3.783,3.783,0,0,0-.527-.533.038.038,0,0,1-.023-.035q0-.059.07-.059a3.166,3.166,0,0,1,1.523.422A.867.867,0,0,1,16.261-5.76Zm1.008-2.76a.621.621,0,0,1-.193.475.573.573,0,0,1-.4.158.414.414,0,0,1-.34-.129,2.636,2.636,0,0,1-.287-.557,2.511,2.511,0,0,0-.352-.609,3.536,3.536,0,0,0-.5-.469.038.038,0,0,1-.023-.035q0-.059.07-.059a3.343,3.343,0,0,1,1.564.445A.916.916,0,0,1,17.269-8.52Zm.24,2.027L16.062-2.555a2.492,2.492,0,0,0-.146.791,2.3,2.3,0,0,0,.229.867A2.486,2.486,0,0,1,16.4.012a.9.9,0,0,1-.246.656.708.708,0,0,1-.521.211q-.586,0-.586-.627a5.33,5.33,0,0,1,.047-.6,5.036,5.036,0,0,0,.047-.586,1.27,1.27,0,0,0-.187-.82,1.958,1.958,0,0,0-.75-.393q-.035-.018-.035-.082,0-.111.059-.1a4.313,4.313,0,0,0,.492.059.63.63,0,0,0,.527-.275q.346-.451,2.121-4.014a.046.046,0,0,1,.041-.018q.105,0,.105.07Z" transform="translate(188 2520.22)" fill="#111"/>
    <path id="パス_13605" data-name="パス 13605" d="M-15.2-4.15a14.563,14.563,0,0,0,1.172-1.89,6.163,6.163,0,0,0,.459-1.03q1.118.513,1.118.669t-.327.142h-.059q-.83.972-1.113,1.26t-.937.85q.566,0,1.709-.039a2.571,2.571,0,0,0-.435-.85.043.043,0,0,1,0-.02q0-.054.073-.054a.054.054,0,0,1,.024,0q1.26.684,1.26,1.416a.681.681,0,0,1-.142.449.4.4,0,0,1-.308.142A.308.308,0,0,1-13-3.247a1.52,1.52,0,0,1-.127-.591l-.01-.112q-.22.078-.659.2v1.382l.029,2.847q0,.381-.527.381-.4,0-.4-.308.059-.913.059-2.173V-3.55q-.361.078-1.06.19-.1.278-.22.278-.1,0-.181-.244t-.19-.845q.259.02.532.02Zm4.082-1.9A6.09,6.09,0,0,1-12.442-4.5a.052.052,0,0,1-.029.01q-.088,0-.088-.063a.037.037,0,0,1,0-.015,9.56,9.56,0,0,0,.986-2.48,6.98,6.98,0,0,0,.239-1.289q1.367.352,1.367.532t-.4.239a10.1,10.1,0,0,1-.62,1.289h2.368q.439-.518.552-.518t.566.42q.239.21.239.317,0,.078-.308.3-.059,1.968-.171,3.076A15.619,15.619,0,0,1-8.077-.532a1.53,1.53,0,0,1-.64.972,1.473,1.473,0,0,1-.84.229.291.291,0,0,1-.21-.054A.569.569,0,0,1-9.845.391.733.733,0,0,0-10.172-.1a3.442,3.442,0,0,0-.791-.3Q-11-.41-11-.483t.039-.078q.874.078,1.157.078a1.678,1.678,0,0,0,.645-.078A.374.374,0,0,0-9-.806,23.539,23.539,0,0,0-8.507-6.05ZM-15.206-6.6a10.129,10.129,0,0,0,.439-1.187,4.715,4.715,0,0,0,.146-.61q1.187.42,1.187.62,0,.166-.4.166A13.022,13.022,0,0,1-14.967-6.46a.908.908,0,0,1,.474.757.636.636,0,0,1-.146.444.421.421,0,0,1-.322.137.38.38,0,0,1-.322-.117,2.021,2.021,0,0,1-.2-.513,2.408,2.408,0,0,0-.659-1.079.033.033,0,0,1-.015-.029q0-.073.073-.059A5.85,5.85,0,0,1-15.206-6.6Zm5.435,3.5a.708.708,0,0,1-.171.483.486.486,0,0,1-.376.176q-.312,0-.4-.439a7.049,7.049,0,0,0-.371-1.074,2.319,2.319,0,0,0-.43-.635.06.06,0,0,1-.01-.034.052.052,0,0,1,.059-.059h.01a2.843,2.843,0,0,1,1.26.708A1.25,1.25,0,0,1-9.771-3.1Zm-2.51,1.831a.713.713,0,0,1-.151.474.43.43,0,0,1-.337.156.3.3,0,0,1-.293-.186A2.076,2.076,0,0,1-13.2-1.46a3.078,3.078,0,0,0-.444-1.353.028.028,0,0,1-.01-.02q0-.049.059-.049a.053.053,0,0,1,.029.01Q-12.281-2.075-12.281-1.27ZM-14.7-2.422q0,.132-.283.19A5.644,5.644,0,0,1-16.358.132a.04.04,0,0,1-.029.01.056.056,0,0,1-.063-.063.037.037,0,0,1,0-.015,7.958,7.958,0,0,0,.562-1.885A4.726,4.726,0,0,0-15.8-2.71q0-.068,0-.161.767.225.952.308Q-14.7-2.5-14.7-2.422ZM-2.531-7.559q.161,0,.161.117,0,.269-.024,1.172-.015.6-.015,1.04V-2.1q0,.781.02.991A.969.969,0,0,0-2.3-.771a.431.431,0,0,0,.332.2q.1.02.518.063.088.01.088.146t-.088.142q-.7-.029-1.479-.029-.811,0-1.519.029-.1,0-.1-.142t.1-.146a4.215,4.215,0,0,0,.571-.068.364.364,0,0,0,.273-.2A4.6,4.6,0,0,0-3.5-2.1V-5.679a1.647,1.647,0,0,0-.1-.767q-.054-.093-.234-.093a1.313,1.313,0,0,0-.352.059l-.391.107a.344.344,0,0,1-.073.015q-.073,0-.1-.122a.47.47,0,0,1-.015-.088q0-.059.107-.093Q-3.654-7.026-2.531-7.559Zm5.648.049A1.865,1.865,0,0,1,4.826-6.372a5.588,5.588,0,0,1,.513,2.583A5.151,5.151,0,0,1,4.67-.928a1.785,1.785,0,0,1-1.553.889A1.862,1.862,0,0,1,1.389-1.147,5.541,5.541,0,0,1,.881-3.73a5.271,5.271,0,0,1,.664-2.9A1.8,1.8,0,0,1,3.117-7.51Zm0,.308q-.64,0-.884,1.06A11.575,11.575,0,0,0,2.053-3.76a9.744,9.744,0,0,0,.244,2.6q.254.811.82.811.625,0,.869-1.05A11.445,11.445,0,0,0,4.167-3.76a10.075,10.075,0,0,0-.239-2.622Q3.679-7.2,3.117-7.2Zm8.319,3.223A5.262,5.262,0,0,1,10.118-.728,6.028,6.028,0,0,1,7.276.791Q7.208.806,7.208.7A.038.038,0,0,1,7.223.669,6.382,6.382,0,0,0,9.6-1.406a5.853,5.853,0,0,0,.8-2.573H9.64A4.917,4.917,0,0,0,8.8-3.9l-.112-.4a4.847,4.847,0,0,0,.923.093H13.4q.449-.439.547-.439t.571.4q.239.225.239.317t-.288.293a12.958,12.958,0,0,1-.522,3.364,1.553,1.553,0,0,1-.459.684,1.317,1.317,0,0,1-.859.278A.474.474,0,0,1,12.359.64a.43.43,0,0,1-.1-.229.7.7,0,0,0-.337-.435,3.764,3.764,0,0,0-.806-.322q-.029,0-.029-.068,0-.112.049-.1a11.156,11.156,0,0,0,1.484.166.373.373,0,0,0,.337-.19,2.632,2.632,0,0,0,.225-.64,16.677,16.677,0,0,0,.327-2.8ZM16.52-4.8q.029,0,.029.063,0,.078-.044.088a.631.631,0,0,0-.386.225,1.39,1.39,0,0,0-.205.474q-.063.288-.166.288a1.112,1.112,0,0,1-.439-.22A6.925,6.925,0,0,1,14.229-4.8a5.666,5.666,0,0,1-.894-1.24,14.151,14.151,0,0,1-.708-1.611.507.507,0,0,0-.132-.181.126.126,0,0,1-.078-.107q0-.063.161-.127a.624.624,0,0,1,.229-.054q.1,0,.1.078l-.049.181a.568.568,0,0,0,.059.22,5.217,5.217,0,0,0,1.47,1.86A5.287,5.287,0,0,0,16.52-4.8Zm-5.19-2.778q0,.19-.41.22A9.5,9.5,0,0,1,9.2-4.961,8.735,8.735,0,0,1,7.12-3.525a.02.02,0,0,1-.015,0q-.078,0-.078-.088a.033.033,0,0,1,.01-.024A9.243,9.243,0,0,0,9.459-6.738,6.542,6.542,0,0,0,9.977-8.2Q11.329-7.754,11.329-7.578Z" transform="translate(217 2492.22)" fill="#fff"/>
    <path id="パス_13606" data-name="パス 13606" d="M-9.867-5.112V-6.719q0-.981-.059-1.592a8.907,8.907,0,0,1,1.055.166q.171.054.171.166t-.288.249v2.3L-7.968-5.8q.293-.518.4-.518a2.048,2.048,0,0,1,.591.308q.229.161.229.293t-.239.327A14.514,14.514,0,0,1-7.24-2.4a1.037,1.037,0,0,1-.41.61,1.152,1.152,0,0,1-.615.132q-.122,0-.156-.049a.344.344,0,0,1-.044-.181.888.888,0,0,0-.142-.41,1.026,1.026,0,0,0-.342-.239l.01,1.03q0,.43-.586.43-.391,0-.391-.342,0-.063.01-.537.034-1.416.039-2.9l-1,.356V-.688a.443.443,0,0,0,.078.308.7.7,0,0,0,.405.122q.244.02.986.02A13.452,13.452,0,0,0-7.992-.288a.933.933,0,0,0,.464-.151,3.029,3.029,0,0,0,.6-1.45q.01-.029.059-.029.083,0,.083.049L-6.8-.83a.529.529,0,0,0,.039.254A.419.419,0,0,0-6.6-.469a.358.358,0,0,1,.269.337q0,.391-.508.562a8.162,8.162,0,0,1-2.222.2A6.739,6.739,0,0,1-11.386.4a.638.638,0,0,1-.332-.415,2.021,2.021,0,0,1-.049-.5q0-2.671.01-3.652l-.488.181a3.812,3.812,0,0,0-.591.269l-.21-.308a5.038,5.038,0,0,0,.708-.181l.581-.21V-5.41a16.949,16.949,0,0,0-.068-1.821,7.2,7.2,0,0,1,1.021.156q.225.063.225.176,0,.142-.288.278v1.88Zm.908,2.383a4.392,4.392,0,0,0,.693.049.211.211,0,0,0,.2-.1,1.344,1.344,0,0,0,.078-.327,20.347,20.347,0,0,0,.107-2.48l-1.1.4v.269Q-8.979-4.189-8.959-2.729Zm-4.492-2.339v3.062q.586-.181,1.2-.415a.037.037,0,0,1,.015,0q.054,0,.054.083A.044.044,0,0,1-12.2-2.3,12.688,12.688,0,0,1-14.809-.728q-.029.43-.22.43-.107,0-.244-.293-.112-.229-.366-.918a6.909,6.909,0,0,0,.859-.151q.068-.015.449-.107v-3.3H-15a2.4,2.4,0,0,0-.469.059l-.112-.371a2,2,0,0,0,.542.083h.708v-1.47q0-.859-.049-1.421,1.289.122,1.289.332,0,.132-.361.3V-5.3h.2q.308-.532.449-.532.1,0,.513.371.21.21.21.288,0,.1-.132.1ZM.181-7.339v1.65q2.734.6,2.734,1.709a.679.679,0,0,1-.171.479.489.489,0,0,1-.371.161.47.47,0,0,1-.361-.142,5.576,5.576,0,0,1-.42-.64,3.632,3.632,0,0,0-.635-.791,4.667,4.667,0,0,0-.776-.566v2.441L.225.332q0,.43-.61.43Q-.859.762-.859.41l.044-3.379v-4.37H-3.437a8.978,8.978,0,0,0-.918.059l-.112-.366a7.644,7.644,0,0,0,1.05.078H2.671q.615-.771.742-.771a2.808,2.808,0,0,1,.742.532q.332.278.332.371t-.137.1ZM11.41-5.781h.913q.01-.342.01-1.089,0-.688-.054-1.372a8.749,8.749,0,0,1,1.089.156q.176.054.176.166,0,.146-.312.259-.015,1.06-.029,1.88h.562q.469-.62.6-.62a2.279,2.279,0,0,1,.62.439q.259.215.259.308t-.132.1H13.192a18.057,18.057,0,0,1-.151,1.914h1.021q.493-.645.63-.645t.63.449q.269.229.269.327t-.127.1H13.2a4.674,4.674,0,0,0,1.318,2.231,4.686,4.686,0,0,0,1.328.806.047.047,0,0,1,.034.044.071.071,0,0,1-.034.059,1.048,1.048,0,0,0-.518.791Q15.3.791,15.2.791q-.176,0-.664-.518a5.486,5.486,0,0,1-.664-.84,7.813,7.813,0,0,1-.889-2.71q-.127.527-.151.605A4.707,4.707,0,0,1,11.313-.249,6.152,6.152,0,0,1,9.232.8Q9.149.82,9.149.718A.033.033,0,0,1,9.164.688,7.8,7.8,0,0,0,10.658-.405a4.867,4.867,0,0,0,.825-1.123,6.262,6.262,0,0,0,.64-1.88h-1.24a2.991,2.991,0,0,0-.522.059l-.1-.342H8.852V-.708a14.434,14.434,0,0,0,1.484-.352q.054-.01.054.068a.073.073,0,0,1-.02.054A15.648,15.648,0,0,1,7.2.42q-.059.352-.22.352-.112,0-.2-.19T6.439-.4q.41-.01,1.094-.1.317-.039.479-.068V-3.691H7.221a3,3,0,0,0-.537.063L6.571-4a2.716,2.716,0,0,0,.62.078h.82v-1.3H7.763a2.711,2.711,0,0,0-.493.059l-.088-.317a5.066,5.066,0,0,1-.8.513.037.037,0,0,1-.015,0,.065.065,0,0,1-.073-.073.028.028,0,0,1,.01-.02,8.211,8.211,0,0,0,1.46-2.1,5.841,5.841,0,0,0,.42-1.177q1.147.308,1.147.508,0,.171-.381.2l-.029.059q1.47.444,1.47,1.162a.434.434,0,0,1-.122.313.353.353,0,0,1-.259.107.341.341,0,0,1-.264-.112,1.346,1.346,0,0,1-.2-.347,2.636,2.636,0,0,0-.7-1A7.76,7.76,0,0,1,7.221-5.513a2.3,2.3,0,0,0,.479.063H8.92q.342-.444.474-.444a1.6,1.6,0,0,1,.508.313q.21.181.21.259,0,.1-.132.1H8.852v1.3h.342q.371-.479.5-.479a1.515,1.515,0,0,1,.5.337q.21.181.21.273a.079.079,0,0,1-.059.088,2.548,2.548,0,0,0,.522.063h1.3a14.973,14.973,0,0,0,.151-1.914H11.3a5.564,5.564,0,0,1-.991,1.27.06.06,0,0,1-.034.01q-.078,0-.078-.049v-.01a7.657,7.657,0,0,0,.664-2.041A7.268,7.268,0,0,0,10.99-7.48a7.6,7.6,0,0,1,.942.278q.171.078.171.171t-.3.19A6.719,6.719,0,0,1,11.41-5.781Zm-3.7,4.214a.555.555,0,0,1-.132.386A.356.356,0,0,1,7.3-1.05q-.3,0-.332-.459a7.685,7.685,0,0,0-.088-.884,3.442,3.442,0,0,0-.171-.547.037.037,0,0,1,0-.015q0-.054.063-.054A.053.053,0,0,1,6.8-3a3.776,3.776,0,0,1,.737.811A1.2,1.2,0,0,1,7.714-1.567Zm2.778-1.094q0,.142-.3.181a6.712,6.712,0,0,1-1.055,1.4.06.06,0,0,1-.044.015q-.068,0-.068-.054a.037.037,0,0,1,0-.015,8.738,8.738,0,0,0,.352-1.24q.083-.454.112-.8Q10.492-2.827,10.492-2.661Z" transform="translate(216 2475.22)" fill="#fff"/>
    <path id="パス_12685-3" data-name="パス 12685" d="M-3876,12067h22.195" transform="translate(12255 6341.22) rotate(90)" fill="none" stroke="#fff" stroke-width="1"/>
    <path id="パス_13607" data-name="パス 13607" d="M4,0,8,4.073H0Z" transform="translate(192 2490.293) rotate(180)" fill="#fff"/>
    <path id="パス_13608" data-name="パス 13608" d="M0,0H280V24H0Z" transform="translate(48 2433.22)" fill="#914831"/>
    <path id="パス_13609" data-name="パス 13609" d="M-6.418-5.918A9.73,9.73,0,0,1-7.039-3.4,7.152,7.152,0,0,1-8.112-1.646,7.914,7.914,0,0,1-12.061.85q-.029.006-.064-.032a.116.116,0,0,1-.035-.079A.039.039,0,0,1-12.143.7,8.281,8.281,0,0,0-8.282-3.375a9.853,9.853,0,0,0,.674-2.854H-10.8a10.317,10.317,0,0,0-1.09.07l-.135-.439a9.1,9.1,0,0,0,1.248.094h3.193q.094-1.061.094-2.221,0-.463-.047-1.113A11.329,11.329,0,0,1-6.1-9.592q.264.082.264.246T-6.254-9A24.306,24.306,0,0,1-6.36-6.5H-3.3q.709-.926.861-.926a3.488,3.488,0,0,1,.867.65q.369.322.369.428,0,.123-.152.123H-6.243A7.561,7.561,0,0,0-4-2.268,7.9,7.9,0,0,0-.993-.574.058.058,0,0,1-.952-.51.081.081,0,0,1-1-.422a1.391,1.391,0,0,0-.838.961q-.07.24-.182.24A1.607,1.607,0,0,1-2.768.422a8.457,8.457,0,0,1-1.945-1.84A9.412,9.412,0,0,1-6.418-5.918Zm9.087,3.27v.955L2.692.422q0,.492-.662.492-.492,0-.492-.434.076-2.5.076-6.65,0-2.777-.07-3.68.516.205,1.248.551H4.01q.422-.5.557-.5t.656.5q.275.258.275.381,0,.2-.369.316A13.383,13.383,0,0,1,3.342-5.965,5.153,5.153,0,0,1,4.661-4.518a3.01,3.01,0,0,1,.287,1.389,1.639,1.639,0,0,1-.422,1.236,1.276,1.276,0,0,1-.943.334q-.164,0-.211-.064a.669.669,0,0,1-.07-.246A1.126,1.126,0,0,0,3.12-2.4.918.918,0,0,0,2.668-2.648Zm0-.17q.861.035.92.035a.343.343,0,0,0,.252-.082,1.17,1.17,0,0,0,.135-.7,3.534,3.534,0,0,0-.211-1.307A4.266,4.266,0,0,0,3.1-5.918a12.777,12.777,0,0,0,.973-3.105H2.668Zm6.311,1.4A8.536,8.536,0,0,1,5.059.826Q4.971.844,4.971.709A.046.046,0,0,1,4.989.668,9.592,9.592,0,0,0,8.428-2.221,11.391,11.391,0,0,1,7.192-5.883H6.84a14.359,14.359,0,0,1-.492,3.193A6.1,6.1,0,0,1,5.282-.615,6.29,6.29,0,0,1,3.729.82.065.065,0,0,1,3.7.826q-.1,0-.1-.094A.052.052,0,0,1,3.606.709,7.087,7.087,0,0,0,5.452-2.918a27.333,27.333,0,0,0,.3-4.729q0-.826-.082-2.051A9.907,9.907,0,0,1,7.022-9h3.146q.656-.768.791-.768a2.765,2.765,0,0,1,.814.527q.346.275.346.4t-.176.117H6.9v.311q0,1.359-.047,2.256H9.84q.545-.621.674-.621a2.385,2.385,0,0,1,.709.5q.275.229.275.381t-.375.346A9.1,9.1,0,0,1,9.6-2.162,6.248,6.248,0,0,0,12.448-.551q.035.006.035.053a.1.1,0,0,1-.059.1A1.032,1.032,0,0,0,12-.088a3.246,3.246,0,0,0-.27.639q-.07.217-.182.217A1.676,1.676,0,0,1,10.889.4,8.7,8.7,0,0,1,8.979-1.418ZM7.432-5.883A8.8,8.8,0,0,0,8.9-2.965,8.88,8.88,0,0,0,9.916-5.883Z" transform="translate(188 2450.22)" fill="#fff"/>
    <path id="パス_13610" data-name="パス 13610" d="M0,0H280V24H0Z" transform="translate(48 2369.22)" fill="#c89932"/>
    <path id="パス_13611" data-name="パス 13611" d="M-13.018-5.918A9.73,9.73,0,0,1-13.639-3.4a7.152,7.152,0,0,1-1.072,1.758A7.914,7.914,0,0,1-18.661.85q-.029.006-.064-.032a.116.116,0,0,1-.035-.079A.039.039,0,0,1-18.743.7a8.281,8.281,0,0,0,3.861-4.078,9.853,9.853,0,0,0,.674-2.854H-17.4a10.317,10.317,0,0,0-1.09.07l-.135-.439a9.1,9.1,0,0,0,1.248.094h3.193q.094-1.061.094-2.221,0-.463-.047-1.113a11.329,11.329,0,0,1,1.436.246q.264.082.264.246T-12.854-9a24.306,24.306,0,0,1-.105,2.5H-9.9q.709-.926.861-.926a3.488,3.488,0,0,1,.867.65q.369.322.369.428,0,.123-.152.123h-4.887A7.561,7.561,0,0,0-10.6-2.268,7.9,7.9,0,0,0-7.593-.574a.058.058,0,0,1,.041.064A.081.081,0,0,1-7.6-.422a1.391,1.391,0,0,0-.838.961q-.07.24-.182.24A1.607,1.607,0,0,1-9.368.422a8.457,8.457,0,0,1-1.945-1.84A9.412,9.412,0,0,1-13.018-5.918ZM3.732-1A33.482,33.482,0,0,1-1.371.17a1.345,1.345,0,0,1-.123.393.165.165,0,0,1-.152.076q-.141,0-.234-.27-.082-.24-.387-1.424.463.047.744.047h.264A37.507,37.507,0,0,0,.469-7.594,20.176,20.176,0,0,0,.686-9.686q1.295.281,1.6.393.252.094.252.234,0,.217-.475.357A36.588,36.588,0,0,1,.744-4.26,25.909,25.909,0,0,1-.744-1.02a41.843,41.843,0,0,0,4.389-.3A14.026,14.026,0,0,0,2.4-4.459a.017.017,0,0,1-.006-.012q0-.088.111-.088a.048.048,0,0,1,.035.012,14.443,14.443,0,0,1,2.145,2.5A3.158,3.158,0,0,1,5.238-.422a1.116,1.116,0,0,1-.223.732.61.61,0,0,1-.486.229A.48.48,0,0,1,4.1.287a2.514,2.514,0,0,1-.258-.779Zm-7.547-4.33A9.716,9.716,0,0,1-5.543-3.861a.04.04,0,0,1-.029.012q-.1,0-.1-.082a.052.052,0,0,1,.006-.023A12.2,12.2,0,0,0-3.24-7.863a9.6,9.6,0,0,0,.586-2.121q1.6.451,1.6.674,0,.188-.457.287A14.116,14.116,0,0,1-3.023-6.275a2.4,2.4,0,0,1,.51.117.147.147,0,0,1,.088.135q0,.135-.311.275V.48q0,.5-.621.5-.527,0-.527-.434.07-1.312.07-3.182Zm17.571-3h1.307v-.791a5.7,5.7,0,0,0-.07-.879q1.512.129,1.512.334,0,.129-.334.328v1.008h1.26q.451-.551.586-.551a2.269,2.269,0,0,1,.721.492q.3.27.3.381,0,.211-.4.229a.765.765,0,0,0-.3.158q-.375.281-.85.586.053.029.3.205.264.193.264.322,0,.1-.287.3v.322l.023,1.646q0,.516-.627.516a.493.493,0,0,1-.387-.123.564.564,0,0,1-.088-.357v-.047H14.442v1.582h2.5q.5-.562.633-.562a1.9,1.9,0,0,1,.662.4q.275.229.275.352,0,.088-.311.346v.422l.035,2.2q0,.527-.662.527a.52.52,0,0,1-.4-.123.536.536,0,0,1-.1-.369V.17H14.442v.4q0,.539-.639.539-.5,0-.5-.434l.064-5.531q0-.973-.041-1.945a.708.708,0,0,1-.346.094.492.492,0,0,1-.562-.551.576.576,0,0,1,.387-.568,1.135,1.135,0,0,0,.668-1.066.059.059,0,0,1,.064-.047.068.068,0,0,1,.07.047A3.706,3.706,0,0,1,13.757-8.326Zm.035.275a1.558,1.558,0,0,1,.012.193,1.531,1.531,0,0,1-.129.645,7.031,7.031,0,0,1,.85.492H16.6q.422-.469.545-.469a.405.405,0,0,1,.182.047q.111-.375.229-.908Zm.65,5.66V-.105h2.625V-2.391Zm2.244-2.133V-6.445H14.442v1.922ZM9.52-.609a14.147,14.147,0,0,0,1.729-.434,4.286,4.286,0,0,0-.8-1.16.072.072,0,0,1-.012-.041.062.062,0,0,1,.07-.07h.012a3.631,3.631,0,0,1,1.588.844,1.413,1.413,0,0,1,.5,1.02.88.88,0,0,1-.193.6.545.545,0,0,1-.428.193.34.34,0,0,1-.275-.111,1.2,1.2,0,0,1-.146-.357,5.094,5.094,0,0,0-.193-.6A17.686,17.686,0,0,1,8.63.615q-.047.4-.234.4-.117,0-.24-.293Q8.038.457,7.768-.381q.023,0,.732-.076V-3.633q0-1.775-.047-3.217a9.123,9.123,0,0,1-.809.48H7.634q-.082,0-.082-.105A.04.04,0,0,1,7.563-6.5,11.919,11.919,0,0,0,9.2-8.6a5.852,5.852,0,0,0,.656-1.477q1.037.434,1.254.539.2.105.2.182,0,.164-.422.176a4.009,4.009,0,0,1,1.266.586.782.782,0,0,1,.311.621.6.6,0,0,1-.164.422.446.446,0,0,1-.328.152.321.321,0,0,1-.27-.105,3.545,3.545,0,0,1-.27-.533,3.25,3.25,0,0,0-.7-1A8.926,8.926,0,0,1,8.694-7.02q.346.152.873.445h.422v-.732a6.863,6.863,0,0,0-.047-.709Q11.3-7.9,11.3-7.705q0,.117-.311.264v.867h.264q.4-.434.527-.434a1.572,1.572,0,0,1,.6.363q.24.188.24.311t-.287.311v.469l.023,2.59q0,.457-.586.457a.507.507,0,0,1-.375-.1.445.445,0,0,1-.082-.3v-.17H9.52Zm1.787-4.406V-6.3H9.52v1.283ZM9.52-4.74v1.383h1.787V-4.74Z" transform="translate(188 2386.22)" fill="#fff"/>
    <path id="パス_12685-4" data-name="パス 12685" d="M-3876,12067h22.195" transform="translate(12255.5 6212.146) rotate(90)" fill="none" stroke="#fff" stroke-width="1"/>
    <path id="パス_13612" data-name="パス 13612" d="M4,0,8,4.073H0Z" transform="translate(192.5 2361.22) rotate(180)" fill="#fff"/>
    <path id="パス_13613" data-name="パス 13613" d="M0,0H280V24H0Z" transform="translate(48 2304.146)" fill="#fff"/>
    <path id="パス_13614" data-name="パス 13614" d="M-5.5-7.969A6.007,6.007,0,0,0-3.454-6.363a10.324,10.324,0,0,0,2.607.8A.058.058,0,0,1-.805-5.5q0,.07-.053.082a1.019,1.019,0,0,0-.709.732.975.975,0,0,1-.088.249.133.133,0,0,1-.117.05,2.183,2.183,0,0,1-.586-.229,11.238,11.238,0,0,1-1.312-.8A7.412,7.412,0,0,1-5.8-7.969H-7.022a8.431,8.431,0,0,1-2.256,2.4A11.578,11.578,0,0,1-12.12-4.125a.024.024,0,0,1-.018.006q-.082,0-.082-.111a.039.039,0,0,1,.018-.035,10.84,10.84,0,0,0,3.9-3.7h-2.52a8.739,8.739,0,0,0-.984.07l-.129-.439a6.709,6.709,0,0,0,1.078.094h2.713a7.785,7.785,0,0,0,.732-1.834q1.541.34,1.541.563t-.5.334q-.17.387-.48.938H-3.2q.668-.791.814-.791a3.246,3.246,0,0,1,.85.551q.369.293.369.4t-.152.117Zm-.545,4.582v.674L-6-.158a.959.959,0,0,1-.5.914A1.647,1.647,0,0,1-7.432,1,.26.26,0,0,1-7.661.9,1.258,1.258,0,0,1-7.766.551Q-7.866.094-9-.229q-.047-.012-.047-.088T-9-.4q1.049.076,1.617.076.158,0,.158-.17V-3.387h-3.035a9.666,9.666,0,0,0-1.043.07l-.135-.439a7.916,7.916,0,0,0,1.166.094h6.645q.656-.779.809-.779a2.735,2.735,0,0,1,.779.539q.334.287.334.4t-.158.117Zm1.893-1.881q0,.117-.152.117H-8.217a7.135,7.135,0,0,0-.891.07l-.129-.439a5.24,5.24,0,0,0,.943.094H-5.9q.6-.674.738-.674a2.3,2.3,0,0,1,.709.469Q-4.157-5.385-4.157-5.268ZM-1.971-.322a.736.736,0,0,1-.2.545A.589.589,0,0,1-2.6.4.5.5,0,0,1-3.032.205a7.358,7.358,0,0,1-.492-.926A5.442,5.442,0,0,0-5.059-2.508a.063.063,0,0,1-.018-.047q0-.094.076-.076A6,6,0,0,1-2.68-1.57,1.655,1.655,0,0,1-1.971-.322Zm-6.17-1.729q0,.2-.557.264A7.959,7.959,0,0,1-11.926.545a.052.052,0,0,1-.023.006q-.111,0-.111-.1a.034.034,0,0,1,.012-.023A7.969,7.969,0,0,0-10.01-1.9a4.145,4.145,0,0,0,.422-.955,11.4,11.4,0,0,1,1.207.545Q-8.141-2.168-8.141-2.051ZM8.176-1.74a4.619,4.619,0,0,0,.422.264A10.322,10.322,0,0,0,12.114-.369q.047.006.047.076t-.047.082a1.094,1.094,0,0,0-.574.264,1.293,1.293,0,0,0-.264.5Q11.182.832,11,.832a2.074,2.074,0,0,1-.615-.158A8.383,8.383,0,0,1,8.5-.3,5.79,5.79,0,0,1,6.887-1.881,10.3,10.3,0,0,1,5.856-4.043H4.163V-.7a21.7,21.7,0,0,0,2.689-.68h.012q.076,0,.076.117a.046.046,0,0,1-.018.041A20.623,20.623,0,0,1,2.5.744q-.053.457-.287.457-.123,0-.223-.223Q1.9.779,1.526-.275q.41-.035.885-.105.111-.023.34-.053.2-.029.3-.047V-4.412q0-2.637-.07-4.395a10.419,10.419,0,0,1,1.277.6H5.879V-9.252q0-.258-.047-.732,1.588.146,1.588.4,0,.164-.41.357v1.02H8.827q.48-.539.609-.539a1.947,1.947,0,0,1,.662.434q.275.24.275.357t-.363.346v.65l.064,2.777a.3.3,0,0,1-.088.234q1.225.674,1.225.879,0,.17-.375.17h-.164A11.8,11.8,0,0,1,8.176-1.74ZM7.9-1.934a11.122,11.122,0,0,0,1.354-1.16,5.414,5.414,0,0,0,.639-.768,1.066,1.066,0,0,1-.527.105q-.41,0-.445-.287H6.155A6.307,6.307,0,0,0,7.9-1.934ZM8.92-4.318V-6.035H4.163v1.717Zm0-1.992V-7.934H4.163v1.623Z" transform="translate(188 2321.146)" fill="#111"/>
    <path id="パス_13615" data-name="パス 13615" d="M-15.2-4.15a14.563,14.563,0,0,0,1.172-1.89,6.163,6.163,0,0,0,.459-1.03q1.118.513,1.118.669t-.327.142h-.059q-.83.972-1.113,1.26t-.937.85q.566,0,1.709-.039a2.571,2.571,0,0,0-.435-.85.043.043,0,0,1,0-.02q0-.054.073-.054a.054.054,0,0,1,.024,0q1.26.684,1.26,1.416a.681.681,0,0,1-.142.449.4.4,0,0,1-.308.142A.308.308,0,0,1-13-3.247a1.52,1.52,0,0,1-.127-.591l-.01-.112q-.22.078-.659.2v1.382l.029,2.847q0,.381-.527.381-.4,0-.4-.308.059-.913.059-2.173V-3.55q-.361.078-1.06.19-.1.278-.22.278-.1,0-.181-.244t-.19-.845q.259.02.532.02Zm4.082-1.9A6.09,6.09,0,0,1-12.442-4.5a.052.052,0,0,1-.029.01q-.088,0-.088-.063a.037.037,0,0,1,0-.015,9.56,9.56,0,0,0,.986-2.48,6.98,6.98,0,0,0,.239-1.289q1.367.352,1.367.532t-.4.239a10.1,10.1,0,0,1-.62,1.289h2.368q.439-.518.552-.518t.566.42q.239.21.239.317,0,.078-.308.3-.059,1.968-.171,3.076A15.619,15.619,0,0,1-8.077-.532a1.53,1.53,0,0,1-.64.972,1.473,1.473,0,0,1-.84.229.291.291,0,0,1-.21-.054A.569.569,0,0,1-9.845.391.733.733,0,0,0-10.172-.1a3.442,3.442,0,0,0-.791-.3Q-11-.41-11-.483t.039-.078q.874.078,1.157.078a1.678,1.678,0,0,0,.645-.078A.374.374,0,0,0-9-.806,23.539,23.539,0,0,0-8.507-6.05ZM-15.206-6.6a10.129,10.129,0,0,0,.439-1.187,4.715,4.715,0,0,0,.146-.61q1.187.42,1.187.62,0,.166-.4.166A13.022,13.022,0,0,1-14.967-6.46a.908.908,0,0,1,.474.757.636.636,0,0,1-.146.444.421.421,0,0,1-.322.137.38.38,0,0,1-.322-.117,2.021,2.021,0,0,1-.2-.513,2.408,2.408,0,0,0-.659-1.079.033.033,0,0,1-.015-.029q0-.073.073-.059A5.85,5.85,0,0,1-15.206-6.6Zm5.435,3.5a.708.708,0,0,1-.171.483.486.486,0,0,1-.376.176q-.312,0-.4-.439a7.049,7.049,0,0,0-.371-1.074,2.319,2.319,0,0,0-.43-.635.06.06,0,0,1-.01-.034.052.052,0,0,1,.059-.059h.01a2.843,2.843,0,0,1,1.26.708A1.25,1.25,0,0,1-9.771-3.1Zm-2.51,1.831a.713.713,0,0,1-.151.474.43.43,0,0,1-.337.156.3.3,0,0,1-.293-.186A2.076,2.076,0,0,1-13.2-1.46a3.078,3.078,0,0,0-.444-1.353.028.028,0,0,1-.01-.02q0-.049.059-.049a.053.053,0,0,1,.029.01Q-12.281-2.075-12.281-1.27ZM-14.7-2.422q0,.132-.283.19A5.644,5.644,0,0,1-16.358.132a.04.04,0,0,1-.029.01.056.056,0,0,1-.063-.063.037.037,0,0,1,0-.015,7.958,7.958,0,0,0,.562-1.885A4.726,4.726,0,0,0-15.8-2.71q0-.068,0-.161.767.225.952.308Q-14.7-2.5-14.7-2.422Zm12.934.244v.439q0,.571.01.679a1.063,1.063,0,0,0,.078.322A.376.376,0,0,0-1.4-.532a3.87,3.87,0,0,0,.439.054q.068,0,.068.127T-.969-.22q-.82-.039-1.294-.039-.508,0-1.353.039Q-3.7-.22-3.7-.352t.088-.127a3.9,3.9,0,0,0,.459-.063A.321.321,0,0,0-2.932-.7,2.658,2.658,0,0,0-2.8-1.719v-.449H-4.382l-.947.01q-.132,0-.132-.259a.847.847,0,0,1,.112-.41q1.558-2.734,2.676-4.492l.894-.239q.078,0,.078.117,0,.269-.024,1.3-.01.737-.024,1.25l-.02,2.339q.425,0,1.006-.049.063,0,.063.044v.024l-.093.3a.084.084,0,0,1-.088.068Q-1.169-2.178-1.77-2.178ZM-2.8-2.539l.02-2.168q.015-1.089.059-1.86Q-4.089-4.4-5.007-2.7a.234.234,0,0,0-.034.1q0,.059.122.059ZM3.117-7.51A1.865,1.865,0,0,1,4.826-6.372a5.588,5.588,0,0,1,.513,2.583A5.151,5.151,0,0,1,4.67-.928a1.785,1.785,0,0,1-1.553.889A1.862,1.862,0,0,1,1.389-1.147,5.541,5.541,0,0,1,.881-3.73a5.271,5.271,0,0,1,.664-2.9A1.8,1.8,0,0,1,3.117-7.51Zm0,.308q-.64,0-.884,1.06A11.575,11.575,0,0,0,2.053-3.76a9.744,9.744,0,0,0,.244,2.6q.254.811.82.811.625,0,.869-1.05A11.445,11.445,0,0,0,4.167-3.76a10.075,10.075,0,0,0-.239-2.622Q3.679-7.2,3.117-7.2Zm8.319,3.223A5.262,5.262,0,0,1,10.118-.728,6.028,6.028,0,0,1,7.276.791Q7.208.806,7.208.7A.038.038,0,0,1,7.223.669,6.382,6.382,0,0,0,9.6-1.406a5.853,5.853,0,0,0,.8-2.573H9.64A4.917,4.917,0,0,0,8.8-3.9l-.112-.4a4.847,4.847,0,0,0,.923.093H13.4q.449-.439.547-.439t.571.4q.239.225.239.317t-.288.293a12.958,12.958,0,0,1-.522,3.364,1.553,1.553,0,0,1-.459.684,1.317,1.317,0,0,1-.859.278A.474.474,0,0,1,12.359.64a.43.43,0,0,1-.1-.229.7.7,0,0,0-.337-.435,3.764,3.764,0,0,0-.806-.322q-.029,0-.029-.068,0-.112.049-.1a11.156,11.156,0,0,0,1.484.166.373.373,0,0,0,.337-.19,2.632,2.632,0,0,0,.225-.64,16.677,16.677,0,0,0,.327-2.8ZM16.52-4.8q.029,0,.029.063,0,.078-.044.088a.631.631,0,0,0-.386.225,1.39,1.39,0,0,0-.205.474q-.063.288-.166.288a1.112,1.112,0,0,1-.439-.22A6.925,6.925,0,0,1,14.229-4.8a5.666,5.666,0,0,1-.894-1.24,14.151,14.151,0,0,1-.708-1.611.507.507,0,0,0-.132-.181.126.126,0,0,1-.078-.107q0-.063.161-.127a.624.624,0,0,1,.229-.054q.1,0,.1.078l-.049.181a.568.568,0,0,0,.059.22,5.217,5.217,0,0,0,1.47,1.86A5.287,5.287,0,0,0,16.52-4.8Zm-5.19-2.778q0,.19-.41.22A9.5,9.5,0,0,1,9.2-4.961,8.735,8.735,0,0,1,7.12-3.525a.02.02,0,0,1-.015,0q-.078,0-.078-.088a.033.033,0,0,1,.01-.024A9.243,9.243,0,0,0,9.459-6.738,6.542,6.542,0,0,0,9.977-8.2Q11.329-7.754,11.329-7.578Z" transform="translate(109 2293.146)" fill="#fff"/>
    <path id="パス_13616" data-name="パス 13616" d="M-30.1-7.251a3.188,3.188,0,0,0-.493.073.379.379,0,0,0-.225.186,3.584,3.584,0,0,0-.132,1.3v2.241l.01,2.256a3.576,3.576,0,0,1-.84,2.271q-.889,1.1-1.562,1.1-.459,0-.459-.3a.863.863,0,0,1,.259-.6A.608.608,0,0,1-33.1,1.05a.559.559,0,0,1,.293.1.645.645,0,0,0,.3.1q.19,0,.288-.352A12.517,12.517,0,0,0-32.1-1.309v-4.38q0-.8-.015-.972a.9.9,0,0,0-.1-.332.428.428,0,0,0-.288-.2,3.927,3.927,0,0,0-.464-.063q-.088-.01-.088-.127t.088-.132q1.323.029,1.431.029.142,0,1.436-.029.068,0,.068.132T-30.1-7.251Zm4,3.569V-2.07q0,.791.02,1.006a.834.834,0,0,0,.093.322.433.433,0,0,0,.3.205q.088.02.474.059.078.01.078.137t-.1.122q-.923-.039-1.431-.039T-28.05-.22q-.1,0-.1-.122t.1-.137a2.77,2.77,0,0,0,.469-.073.358.358,0,0,0,.22-.19,3.945,3.945,0,0,0,.122-1.328V-5.688q0-.786-.015-.962a.944.944,0,0,0-.088-.342.425.425,0,0,0-.312-.19q-.1-.02-.5-.059-.088-.01-.088-.137t.088-.132q.693.029,1.431.029l1.65-.039a3.278,3.278,0,0,1,2.192.61,1.6,1.6,0,0,1,.537,1.26A1.6,1.6,0,0,1-22.8-4.521a2.5,2.5,0,0,1-1.216.659q.752,1.362,1.44,2.48a2.563,2.563,0,0,0,.591.752,1.607,1.607,0,0,0,.61.151q.078.01.078.127t-.078.132q-.84-.039-1.06-.039-.571,0-.923.01a4.9,4.9,0,0,0-.361-.781q-1.3-2.4-1.436-2.642-.1.01-.332.01Q-25.853-3.662-26.1-3.682Zm0-.337a5.635,5.635,0,0,0,.649.034,1.89,1.89,0,0,0,1.484-.527,1.575,1.575,0,0,0,.356-1.079q0-1.587-1.66-1.587-.586,0-.718.19a2.175,2.175,0,0,0-.112.908v2.061Zm8.993-1.191q-.337.02-.747.02a1.365,1.365,0,0,1-1.323-.8.389.389,0,0,1-.049-.132.078.078,0,0,1,.088-.088q.034,0,.093.059a1.659,1.659,0,0,0,1.24.361,15.358,15.358,0,0,0,2.051-.229V-7q0-.41-.093-.5a.6.6,0,0,0-.278-.122,2.2,2.2,0,0,0-.234-.039q-.059,0-.059-.068t.122-.19a.538.538,0,0,1,.4-.171,1.537,1.537,0,0,1,.771.249q.43.254.43.513a.4.4,0,0,1-.142.278.628.628,0,0,0-.19.381q0,.083-.029.313-.015.142-.02.234Q-14.6-6.2-14.1-6.3a2.364,2.364,0,0,0,.566-.181.992.992,0,0,1,.493-.1.822.822,0,0,1,.522.181.434.434,0,0,1,.2.332.313.313,0,0,1-.151.308,1.719,1.719,0,0,1-.508.1q-1.328.117-2.129.229-.01.347-.01.732t.01.767a4.585,4.585,0,0,0,.864-.21q.1-.044.1-.117a.681.681,0,0,0-.063-.205,2.864,2.864,0,0,0-.22-.381.122.122,0,0,1-.015-.054.039.039,0,0,1,.044-.044.134.134,0,0,1,.078.034,6.405,6.405,0,0,0,.547.366.6.6,0,0,0,.3.093h.073q.469,0,.469.361a.3.3,0,0,1-.171.254,2.21,2.21,0,0,1-.366.166,7.88,7.88,0,0,1-1.621.405q0,.317.1,1.553a7.5,7.5,0,0,1,2.021.879q.6.356.6.791a.461.461,0,0,1-.117.317A.338.338,0,0,1-12.748.4a.569.569,0,0,1-.371-.161,6.5,6.5,0,0,0-1.8-1.211V-.84q0,1.357-1.562,1.357a2.112,2.112,0,0,1-1.27-.342,1.047,1.047,0,0,1-.479-.869.972.972,0,0,1,.5-.8,2.372,2.372,0,0,1,.952-.3,3.4,3.4,0,0,1,.5-.029q.244,0,.571.02,0-.732-.029-1.377-.259.02-.811.02-1.431,0-1.431-.83a1.265,1.265,0,0,1,.381-.83A3.765,3.765,0,0,1-17.108-5.21Zm.41.01a1.841,1.841,0,0,0-.571.42.925.925,0,0,0-.278.552q0,.439.8.439a9.11,9.11,0,0,0,1-.063q0-.947-.01-1.479-.2.024-.488.068Zm1,4a4.025,4.025,0,0,0-.923-.122q-.117,0-.225.01a1.969,1.969,0,0,0-.771.19.484.484,0,0,0-.249.41.488.488,0,0,0,.317.449,1.951,1.951,0,0,0,.859.132,1.068,1.068,0,0,0,.83-.278A1.307,1.307,0,0,0-15.7-1.2ZM-2.661-4.37q-.122-.01-.269-.01a2.842,2.842,0,0,0-.371.024,3.463,3.463,0,0,0-1.138.386.165.165,0,0,1-.093.029.078.078,0,0,1-.088-.088.263.263,0,0,1,.068-.132,3.5,3.5,0,0,1,.923-.61,3.122,3.122,0,0,1,1.27-.239,2.452,2.452,0,0,1,1.108.22A.519.519,0,0,1-.908-4.3a.274.274,0,0,1-.117.229A.379.379,0,0,1-1.26-4a1.667,1.667,0,0,1-.391-.054,2.114,2.114,0,0,0-.366-.029,3.572,3.572,0,0,0-1.411.571.269.269,0,0,1-.151.049q-.039,0-.039-.068S-3.3-3.813-2.661-4.37ZM-4.3-2.451l-.059.21a1.9,1.9,0,0,0-.088.61.793.793,0,0,0,.42.713,2.125,2.125,0,0,0,1.1.239A3.921,3.921,0,0,0-1.919-.762,1.69,1.69,0,0,1-1.4-.83,1.046,1.046,0,0,1-.9-.7a.455.455,0,0,1,.249.42q0,.337-.542.43A7.942,7.942,0,0,1-2.29.2,4.946,4.946,0,0,1-3.618.029a1.69,1.69,0,0,1-.933-.6,1.34,1.34,0,0,1-.269-.82,2,2,0,0,1,.278-.967q.093-.171.181-.171Q-4.3-2.529-4.3-2.451Zm-.269-3.8a.683.683,0,0,1,.4-.161,1.023,1.023,0,0,1,.449.088.339.339,0,0,1,.22.3q0,.244-.308.361-.469.186-1.66.508-.093.244-.356.962t-.347.957Q-6.46-2.441-7.29-.327-7.5.181-7.871.181A.414.414,0,0,1-8.159.029a.477.477,0,0,1-.112-.356A2.1,2.1,0,0,1-8-1.03,35.519,35.519,0,0,0-6.221-5.02a7,7,0,0,1-1.089.137,1.436,1.436,0,0,1-.562-.088,1.224,1.224,0,0,1-.4-.3.8.8,0,0,1-.269-.518q0-.088.049-.088a.425.425,0,0,1,.171.088,1.432,1.432,0,0,0,.82.259,6.472,6.472,0,0,0,1.528-.239A6.6,6.6,0,0,0-5.659-7.08a.349.349,0,0,0-.21-.352,2.492,2.492,0,0,0-.371-.117q-.107-.034-.107-.083,0-.093.142-.166a.95.95,0,0,1,.469-.122A1.529,1.529,0,0,1-5.2-7.8a1.849,1.849,0,0,1,.483.278.373.373,0,0,1,.151.278.425.425,0,0,1-.142.3,1.209,1.209,0,0,0-.234.356q-.063.137-.244.62A2.175,2.175,0,0,0-4.57-6.25ZM8.783-1.812a4.154,4.154,0,0,1,1.431.835.648.648,0,0,1,.19.449.427.427,0,0,1-.151.337.385.385,0,0,1-.269.1.521.521,0,0,1-.361-.181,5.228,5.228,0,0,0-.869-.742,1.007,1.007,0,0,1-.488.85,1.87,1.87,0,0,1-1.06.283A2.232,2.232,0,0,1,6.137-.107,1.073,1.073,0,0,1,5.727-.5a.923.923,0,0,1-.142-.483.93.93,0,0,1,.186-.552,1.118,1.118,0,0,1,.322-.3A2.162,2.162,0,0,1,7.187-2.07a4.143,4.143,0,0,1,.845.1L7.992-4.6a10.334,10.334,0,0,1-1.348.088,1.44,1.44,0,0,1-.679-.151,1.485,1.485,0,0,1-.513-.449.329.329,0,0,1-.068-.161q0-.078.059-.078a.723.723,0,0,1,.19.078,1.809,1.809,0,0,0,.859.181A9.528,9.528,0,0,0,8-5.259q-.015-1.362-.039-1.582a.332.332,0,0,0-.317-.332,1.854,1.854,0,0,0-.21-.01l-.122-.01a.069.069,0,0,1-.078-.078q0-.1.249-.249a.737.737,0,0,1,.41-.132,1.44,1.44,0,0,1,.7.181q.459.244.459.488a.31.31,0,0,1-.088.229.705.705,0,0,0-.161.381,7.306,7.306,0,0,0-.088.942q.117-.024.366-.1a.635.635,0,0,0,.21-.127.626.626,0,0,1,.391-.112.8.8,0,0,1,.508.137.31.31,0,0,1,.122.244.4.4,0,0,1-.3.381,8.659,8.659,0,0,1-1.328.332Q8.686-3.35,8.783-1.812Zm-.791.449a2.485,2.485,0,0,0-1.025-.249,1.665,1.665,0,0,0-.713.112.5.5,0,0,0-.317.449A.5.5,0,0,0,6.2-.61a1.537,1.537,0,0,0,.752.132,1.234,1.234,0,0,0,.747-.19.785.785,0,0,0,.269-.42A1.3,1.3,0,0,0,7.992-1.362Zm-3.3-2.061a1.429,1.429,0,0,1-.039.181A18.3,18.3,0,0,0,4.135-1.26a2.106,2.106,0,0,0-.02.288V-.83a1.228,1.228,0,0,0,.015.166q.01.107.015.146a2.078,2.078,0,0,1,.039.376A.315.315,0,0,1,4.074.1.387.387,0,0,1,3.8.2q-.337,0-.537-.449a5.535,5.535,0,0,1-.332-2.134A14.615,14.615,0,0,1,3.393-5.8a5.185,5.185,0,0,0,.161-.9,1.238,1.238,0,0,0-.234-.7.432.432,0,0,1-.078-.161q0-.059.161-.059a.8.8,0,0,1,.532.278A1.658,1.658,0,0,1,4.525-6.25a.421.421,0,0,1-.151.322,1.727,1.727,0,0,0-.337.688,7.685,7.685,0,0,0-.513,2.583,3.872,3.872,0,0,0,.068.811q.024.088.093.088a.088.088,0,0,0,.078-.059q.391-.791.718-1.572.059-.142.132-.132A.088.088,0,0,1,4.691-3.423ZM17.586-4.99A8.742,8.742,0,0,1,17.3-3.066,4.5,4.5,0,0,1,15.926-.9a.033.033,0,0,1-.024.01q-.117,0-.117-.073a.02.02,0,0,1,0-.015,6.183,6.183,0,0,0,.728-2.109A13.916,13.916,0,0,0,16.678-5.5a15.241,15.241,0,0,0-.083-1.812q.518.2,1.079.479a8.113,8.113,0,0,0,2.319-1.05,4.423,4.423,0,0,0,.591-.469,9.367,9.367,0,0,1,.859.605q.19.171.19.283,0,.142-.283.142a1.985,1.985,0,0,1-.259-.02,14.439,14.439,0,0,1-3.457.8v.21q-.015.6-.029,1.108h2.856q.566-.659.688-.659a2.668,2.668,0,0,1,.688.459q.3.244.3.332t-.127.1H20.193v1.309l.029,2.632q0,.381-.571.381-.415,0-.415-.3l.029-2.568V-4.99ZM22.322-.449a.689.689,0,0,0-.391.562.7.7,0,0,1-.068.3.256.256,0,0,1-.171.063,23.939,23.939,0,0,1-2.461.088,13.019,13.019,0,0,1-2.1-.132,3.319,3.319,0,0,1-1.157-.4,2.558,2.558,0,0,1-1-1.47A8.056,8.056,0,0,1,13.821.068a1.148,1.148,0,0,1,.015.166q0,.293-.181.293-.21,0-.742-1.216a6.692,6.692,0,0,0,.7-.254,4.277,4.277,0,0,0,.713-.4V-3.95h-.693a2.129,2.129,0,0,0-.547.078l-.112-.4a2.477,2.477,0,0,0,.659.093h.63q.405-.459.513-.459a1.667,1.667,0,0,1,.547.352q.229.2.229.3,0,.078-.3.308v2.3a1.838,1.838,0,0,0,.908.825A7.4,7.4,0,0,0,18.5-.308a34.707,34.707,0,0,0,3.813-.254q.039-.01.039.049A.064.064,0,0,1,22.322-.449Zm-7.109-6.3a.607.607,0,0,1-.166.449.512.512,0,0,1-.386.151.348.348,0,0,1-.293-.142,1.676,1.676,0,0,1-.2-.479,2.624,2.624,0,0,0-.64-1.167.052.052,0,0,1-.01-.029q0-.063.078-.063h.015Q15.213-7.637,15.213-6.753Zm13.759.972h.913q.01-.342.01-1.089,0-.688-.054-1.372a8.749,8.749,0,0,1,1.089.156q.176.054.176.166,0,.146-.312.259-.015,1.06-.029,1.88h.562q.469-.62.6-.62a2.279,2.279,0,0,1,.62.439q.259.215.259.308t-.132.1H30.754A18.057,18.057,0,0,1,30.6-3.638h1.021q.493-.645.63-.645t.63.449q.269.229.269.327t-.127.1H30.764a4.674,4.674,0,0,0,1.318,2.231,4.686,4.686,0,0,0,1.328.806.047.047,0,0,1,.034.044.071.071,0,0,1-.034.059,1.048,1.048,0,0,0-.518.791q-.029.269-.132.269-.176,0-.664-.518a5.486,5.486,0,0,1-.664-.84,7.813,7.813,0,0,1-.889-2.71q-.127.527-.151.605A4.707,4.707,0,0,1,28.874-.249,6.152,6.152,0,0,1,26.794.8q-.083.02-.083-.083a.033.033,0,0,1,.015-.029A7.8,7.8,0,0,0,28.22-.405a4.867,4.867,0,0,0,.825-1.123,6.262,6.262,0,0,0,.64-1.88h-1.24a2.991,2.991,0,0,0-.522.059l-.1-.342H26.413V-.708A14.434,14.434,0,0,0,27.9-1.06q.054-.01.054.068a.073.073,0,0,1-.02.054A15.648,15.648,0,0,1,24.763.42q-.059.352-.22.352-.112,0-.2-.19T24-.4q.41-.01,1.094-.1.317-.039.479-.068V-3.691h-.791a3,3,0,0,0-.537.063L24.133-4a2.716,2.716,0,0,0,.62.078h.82v-1.3h-.249a2.711,2.711,0,0,0-.493.059l-.088-.317a5.066,5.066,0,0,1-.8.513.037.037,0,0,1-.015,0,.065.065,0,0,1-.073-.073.028.028,0,0,1,.01-.02,8.211,8.211,0,0,0,1.46-2.1,5.841,5.841,0,0,0,.42-1.177q1.147.308,1.147.508,0,.171-.381.2l-.029.059q1.47.444,1.47,1.162a.434.434,0,0,1-.122.313.353.353,0,0,1-.259.107.341.341,0,0,1-.264-.112,1.346,1.346,0,0,1-.2-.347,2.636,2.636,0,0,0-.7-1,7.76,7.76,0,0,1-1.631,1.929,2.3,2.3,0,0,0,.479.063h1.221q.342-.444.474-.444a1.6,1.6,0,0,1,.508.313q.21.181.21.259,0,.1-.132.1H26.413v1.3h.342q.371-.479.5-.479a1.515,1.515,0,0,1,.5.337q.21.181.21.273A.079.079,0,0,1,27.9-3.7a2.548,2.548,0,0,0,.522.063h1.3a14.973,14.973,0,0,0,.151-1.914H28.864a5.564,5.564,0,0,1-.991,1.27.06.06,0,0,1-.034.01q-.078,0-.078-.049v-.01a7.657,7.657,0,0,0,.664-2.041,7.268,7.268,0,0,0,.127-1.108,7.6,7.6,0,0,1,.942.278q.171.078.171.171t-.3.19A6.719,6.719,0,0,1,28.972-5.781Zm-3.7,4.214a.555.555,0,0,1-.132.386.356.356,0,0,1-.283.132q-.3,0-.332-.459a7.685,7.685,0,0,0-.088-.884,3.442,3.442,0,0,0-.171-.547.037.037,0,0,1,0-.015q0-.054.063-.054a.053.053,0,0,1,.029.01,3.776,3.776,0,0,1,.737.811A1.2,1.2,0,0,1,25.275-1.567Zm2.778-1.094q0,.142-.3.181a6.712,6.712,0,0,1-1.055,1.4.06.06,0,0,1-.044.015q-.068,0-.068-.054a.037.037,0,0,1,0-.015,8.738,8.738,0,0,0,.352-1.24q.083-.454.112-.8Q28.054-2.827,28.054-2.661Z" transform="translate(126 2276.146)" fill="#fff"/>
    <path id="パス_12685-5" data-name="パス 12685" d="M-3876,12067h22.195" transform="translate(12147 6142.146) rotate(90)" fill="none" stroke="#fff" stroke-width="1"/>
    <path id="パス_13617" data-name="パス 13617" d="M4,0,8,4.073H0Z" transform="translate(84 2291.22) rotate(180)" fill="#fff"/>
    <path id="パス_13618" data-name="パス 13618" d="M-17.591-4.15a14.563,14.563,0,0,0,1.172-1.89,6.163,6.163,0,0,0,.459-1.03q1.118.513,1.118.669t-.327.142h-.059q-.83.972-1.113,1.26t-.937.85q.566,0,1.709-.039A2.571,2.571,0,0,0-16-5.039a.043.043,0,0,1,0-.02q0-.054.073-.054a.054.054,0,0,1,.024,0q1.26.684,1.26,1.416a.681.681,0,0,1-.142.449A.4.4,0,0,1-15.1-3.1a.308.308,0,0,1-.293-.146,1.52,1.52,0,0,1-.127-.591l-.01-.112q-.22.078-.659.2v1.382l.029,2.847q0,.381-.527.381-.4,0-.4-.308.059-.913.059-2.173V-3.55q-.361.078-1.06.19-.1.278-.22.278-.1,0-.181-.244t-.19-.845q.259.02.532.02Zm4.082-1.9A6.09,6.09,0,0,1-14.833-4.5a.052.052,0,0,1-.029.01q-.088,0-.088-.063a.037.037,0,0,1,0-.015,9.56,9.56,0,0,0,.986-2.48,6.98,6.98,0,0,0,.239-1.289q1.367.352,1.367.532t-.4.239a10.1,10.1,0,0,1-.62,1.289H-11q.439-.518.552-.518t.566.42q.239.21.239.317,0,.078-.308.3-.059,1.968-.171,3.076a15.619,15.619,0,0,1-.347,2.153,1.53,1.53,0,0,1-.64.972,1.473,1.473,0,0,1-.84.229.291.291,0,0,1-.21-.054.569.569,0,0,1-.078-.225A.733.733,0,0,0-12.562-.1a3.442,3.442,0,0,0-.791-.3q-.039-.01-.039-.083t.039-.078q.874.078,1.157.078a1.678,1.678,0,0,0,.645-.078.374.374,0,0,0,.166-.244A23.539,23.539,0,0,0-10.9-6.05ZM-17.6-6.6a10.128,10.128,0,0,0,.439-1.187,4.716,4.716,0,0,0,.146-.61q1.187.42,1.187.62,0,.166-.4.166A13.021,13.021,0,0,1-17.357-6.46a.908.908,0,0,1,.474.757.636.636,0,0,1-.146.444.421.421,0,0,1-.322.137.38.38,0,0,1-.322-.117,2.021,2.021,0,0,1-.2-.513,2.408,2.408,0,0,0-.659-1.079.033.033,0,0,1-.015-.029q0-.073.073-.059A5.85,5.85,0,0,1-17.6-6.6Zm5.435,3.5a.708.708,0,0,1-.171.483.486.486,0,0,1-.376.176q-.312,0-.4-.439a7.049,7.049,0,0,0-.371-1.074,2.319,2.319,0,0,0-.43-.635.06.06,0,0,1-.01-.034.052.052,0,0,1,.059-.059h.01a2.843,2.843,0,0,1,1.26.708A1.25,1.25,0,0,1-12.162-3.1Zm-2.51,1.831a.713.713,0,0,1-.151.474.43.43,0,0,1-.337.156.3.3,0,0,1-.293-.186,2.076,2.076,0,0,1-.137-.635,3.078,3.078,0,0,0-.444-1.353.028.028,0,0,1-.01-.02q0-.049.059-.049a.053.053,0,0,1,.029.01Q-14.671-2.075-14.671-1.27Zm-2.422-1.152q0,.132-.283.19A5.644,5.644,0,0,1-18.749.132a.04.04,0,0,1-.029.01.056.056,0,0,1-.063-.063.037.037,0,0,1,0-.015,7.958,7.958,0,0,0,.562-1.885,4.726,4.726,0,0,0,.083-.889q0-.068,0-.161.767.225.952.308Q-17.093-2.5-17.093-2.422ZM-3.74-.22q-.679-.02-1.929-.02-1.318,0-1.978.02-.088,0-.107-.029a.272.272,0,0,1-.024-.142.616.616,0,0,1,.059-.278A20.345,20.345,0,0,1-5.966-3.232,15.133,15.133,0,0,0-4.941-4.644a2.318,2.318,0,0,0,.3-1.138,1.988,1.988,0,0,0-.244-1.074A.7.7,0,0,0-5.5-7.212a.826.826,0,0,0-.83.581,2.189,2.189,0,0,0-.088.732.413.413,0,0,1-.269.356,1.028,1.028,0,0,1-.483.112q-.479,0-.479-.381a1.316,1.316,0,0,1,.259-.723,2.172,2.172,0,0,1,.737-.679A2.3,2.3,0,0,1-5.5-7.51a2.147,2.147,0,0,1,1.611.586,1.641,1.641,0,0,1,.459,1.182,2.206,2.206,0,0,1-.659,1.558q-.205.215-.684.625-.391.337-.586.518A15.223,15.223,0,0,0-6.538-1.885a4.134,4.134,0,0,0-.479.674h1.768a4.539,4.539,0,0,0,.894-.059.788.788,0,0,0,.347-.181,2.8,2.8,0,0,0,.547-.771q.039-.068.088-.068a.283.283,0,0,1,.073.015q.1.034.1.1v.029Q-3.427-1.182-3.74-.22ZM4.921-6.46v1.519H6.3q.5-.63.63-.63a2.458,2.458,0,0,1,.659.439q.283.239.283.322t-.132.1H2.578a3.845,3.845,0,0,0-.591.059L1.879-5.02a3.133,3.133,0,0,0,.669.078H3.969V-6.46H2.836A3.473,3.473,0,0,0,2.27-6.4l-.112-.366a3,3,0,0,0,.659.078H3.969v-.85a6.759,6.759,0,0,0-.054-.791q1.328.122,1.328.322,0,.146-.322.269v1.05h.938q.493-.62.62-.62a2.466,2.466,0,0,1,.659.43q.293.234.293.322t-.132.1ZM6.274-3.013v1.1L6.3-.312A1.571,1.571,0,0,1,6.25.171a.692.692,0,0,1-.176.264,1.3,1.3,0,0,1-.962.371A.151.151,0,0,1,4.951.674.769.769,0,0,0,4.6.1,3.035,3.035,0,0,0,3.8-.181q-.034-.01-.034-.068T3.8-.3q.674.039,1.367.039.181,0,.181-.161V-3.013H2.6a3.754,3.754,0,0,0-.586.059L1.9-3.32a3.18,3.18,0,0,0,.669.078H5.346v-.439a6.823,6.823,0,0,0-.054-.8,8.337,8.337,0,0,1,1.055.142q.234.059.234.161,0,.122-.308.278v.659h.239q.435-.518.557-.518a1.773,1.773,0,0,1,.542.371q.22.186.22.278t-.127.1Zm-6.5,1.533v.63q0,.371-.532.371-.41,0-.41-.312L-1.124-5.1q0-1.66-.063-2.773a10.446,10.446,0,0,1,1.03.513H.7q.381-.459.488-.459a1.578,1.578,0,0,1,.552.342q.22.161.22.269T1.694-6.9v.942L1.743-1.2q0,.391-.552.391-.376,0-.376-.308v-.361Zm1.04-.229V-4.39H-.225v2.681Zm0-2.91v-2.51H-.225v2.51Zm3.53,3.188q0,.62-.552.62a.334.334,0,0,1-.3-.166,1.69,1.69,0,0,1-.176-.474,1.8,1.8,0,0,0-.586-1,.042.042,0,0,1-.015-.029q0-.054.063-.054h.01Q4.345-2.212,4.345-1.431ZM15.1-.83H13v.352a.333.333,0,0,1-.142.308.747.747,0,0,1-.381.073q-.386,0-.386-.312l.029-2.007q0-1.1-.054-1.88a8.623,8.623,0,0,1,1.021.488h1.895q.386-.43.488-.43A1.285,1.285,0,0,1,16-3.906q.239.186.239.288t-.278.278v.449L15.97-.62q0,.381-.513.381-.356,0-.356-.3Zm0-.229v-1.2H13v1.2Zm0-1.431V-3.579H13V-2.49Zm2.314-2.568H15.438v.049q0,.371-.5.371-.4,0-.4-.3l.02-2.334q0-.62-.044-1.128a11.067,11.067,0,0,1,1.03.508h1.787q.405-.449.522-.449a1.623,1.623,0,0,1,.552.361q.229.2.229.3,0,.137-.269.288v1.2l.01,6.1a.892.892,0,0,1-.2.6A1.139,1.139,0,0,1,17.3.8q-.166,0-.181-.142a.7.7,0,0,0-.259-.522,2.253,2.253,0,0,0-.732-.283Q16.1-.156,16.1-.22t.034-.059q.757.049,1.162.049.122,0,.122-.142Zm0-.229V-6.4H15.438v1.113Zm0-1.343v-1.03H15.438v1.03ZM12.708-5.059H10.77V.469q0,.391-.571.391-.41,0-.41-.361.063-1.9.063-4.429,0-2.739-.073-4.468a8.679,8.679,0,0,1,1.06.508h1.777q.4-.449.5-.449a1.636,1.636,0,0,1,.542.352q.22.176.22.278t-.293.3v.4l.02,2.036q0,.337-.542.337-.356,0-.356-.293Zm0-.229V-6.4H10.77v1.113Zm0-1.343v-1.03H10.77v1.03Z" transform="translate(253 2293.146)" fill="#fff"/>
    <path id="パス_13619" data-name="パス 13619" d="M-27.476-4.99a8.742,8.742,0,0,1-.283,1.924A4.5,4.5,0,0,1-29.136-.9a.033.033,0,0,1-.024.01q-.117,0-.117-.073a.02.02,0,0,1,0-.015,6.183,6.183,0,0,0,.728-2.109A13.916,13.916,0,0,0-28.384-5.5a15.241,15.241,0,0,0-.083-1.812q.518.2,1.079.479a8.113,8.113,0,0,0,2.319-1.05,4.423,4.423,0,0,0,.591-.469,9.367,9.367,0,0,1,.859.605q.19.171.19.283,0,.142-.283.142a1.985,1.985,0,0,1-.259-.02,14.439,14.439,0,0,1-3.457.8v.21q-.015.6-.029,1.108H-24.6q.566-.659.688-.659a2.668,2.668,0,0,1,.688.459q.3.244.3.332t-.127.1h-1.821v1.309l.029,2.632q0,.381-.571.381-.415,0-.415-.3L-25.8-3.54V-4.99Zm4.736,4.541a.689.689,0,0,0-.391.562.7.7,0,0,1-.068.3.256.256,0,0,1-.171.063A23.939,23.939,0,0,1-25.83.562a13.019,13.019,0,0,1-2.1-.132,3.319,3.319,0,0,1-1.157-.4,2.558,2.558,0,0,1-1-1.47A8.056,8.056,0,0,1-31.24.068a1.148,1.148,0,0,1,.015.166q0,.293-.181.293-.21,0-.742-1.216a6.692,6.692,0,0,0,.7-.254,4.277,4.277,0,0,0,.713-.4V-3.95h-.693a2.129,2.129,0,0,0-.547.078l-.112-.4a2.477,2.477,0,0,0,.659.093h.63q.405-.459.513-.459a1.667,1.667,0,0,1,.547.352q.229.2.229.3,0,.078-.3.308v2.3a1.838,1.838,0,0,0,.908.825,7.4,7.4,0,0,0,2.339.249,34.707,34.707,0,0,0,3.813-.254q.039-.01.039.049A.064.064,0,0,1-22.739-.449Zm-7.109-6.3a.607.607,0,0,1-.166.449.512.512,0,0,1-.386.151.348.348,0,0,1-.293-.142,1.676,1.676,0,0,1-.2-.479,2.624,2.624,0,0,0-.64-1.167.053.053,0,0,1-.01-.029q0-.063.078-.063h.015Q-29.849-7.637-29.849-6.753Zm13.759.972h.913q.01-.342.01-1.089,0-.688-.054-1.372a8.749,8.749,0,0,1,1.089.156q.176.054.176.166,0,.146-.312.259-.015,1.06-.029,1.88h.562q.469-.62.6-.62a2.279,2.279,0,0,1,.62.439q.259.215.259.308t-.132.1h-1.919a18.057,18.057,0,0,1-.151,1.914h1.021q.493-.645.63-.645t.63.449q.269.229.269.327t-.127.1H-14.3a4.674,4.674,0,0,0,1.318,2.231,4.686,4.686,0,0,0,1.328.806.047.047,0,0,1,.034.044.071.071,0,0,1-.034.059,1.048,1.048,0,0,0-.518.791Q-12.2.791-12.3.791q-.176,0-.664-.518a5.486,5.486,0,0,1-.664-.84,7.813,7.813,0,0,1-.889-2.71q-.127.527-.151.605A4.707,4.707,0,0,1-16.187-.249,6.152,6.152,0,0,1-18.268.8q-.083.02-.083-.083a.033.033,0,0,1,.015-.029A7.8,7.8,0,0,0-16.842-.405a4.867,4.867,0,0,0,.825-1.123,6.262,6.262,0,0,0,.64-1.88h-1.24a2.991,2.991,0,0,0-.522.059l-.1-.342h-1.411V-.708a14.434,14.434,0,0,0,1.484-.352q.054-.01.054.068a.073.073,0,0,1-.02.054A15.648,15.648,0,0,1-20.3.42q-.059.352-.22.352-.112,0-.2-.19T-21.061-.4q.41-.01,1.094-.1.317-.039.479-.068V-3.691h-.791a3,3,0,0,0-.537.063L-20.929-4a2.716,2.716,0,0,0,.62.078h.82v-1.3h-.249a2.711,2.711,0,0,0-.493.059l-.088-.317a5.066,5.066,0,0,1-.8.513.037.037,0,0,1-.015,0,.065.065,0,0,1-.073-.073.028.028,0,0,1,.01-.02,8.211,8.211,0,0,0,1.46-2.1,5.841,5.841,0,0,0,.42-1.177q1.147.308,1.147.508,0,.171-.381.2l-.029.059q1.47.444,1.47,1.162a.434.434,0,0,1-.122.313.353.353,0,0,1-.259.107.341.341,0,0,1-.264-.112,1.346,1.346,0,0,1-.2-.347,2.636,2.636,0,0,0-.7-1,7.76,7.76,0,0,1-1.631,1.929,2.3,2.3,0,0,0,.479.063h1.221q.342-.444.474-.444a1.6,1.6,0,0,1,.508.313q.21.181.21.259,0,.1-.132.1h-1.128v1.3h.342q.371-.479.5-.479a1.515,1.515,0,0,1,.5.337q.21.181.21.273a.079.079,0,0,1-.059.088,2.548,2.548,0,0,0,.522.063h1.3a14.973,14.973,0,0,0,.151-1.914H-16.2a5.564,5.564,0,0,1-.991,1.27.06.06,0,0,1-.034.01q-.078,0-.078-.049v-.01a7.657,7.657,0,0,0,.664-2.041A7.268,7.268,0,0,0-16.51-7.48a7.6,7.6,0,0,1,.942.278q.171.078.171.171t-.3.19A6.719,6.719,0,0,1-16.09-5.781Zm-3.7,4.214a.555.555,0,0,1-.132.386.356.356,0,0,1-.283.132q-.3,0-.332-.459a7.685,7.685,0,0,0-.088-.884,3.442,3.442,0,0,0-.171-.547.037.037,0,0,1,0-.015q0-.054.063-.054A.053.053,0,0,1-20.7-3a3.776,3.776,0,0,1,.737.811A1.2,1.2,0,0,1-19.786-1.567Zm2.778-1.094q0,.142-.3.181a6.712,6.712,0,0,1-1.055,1.4.06.06,0,0,1-.044.015q-.068,0-.068-.054a.037.037,0,0,1,0-.015,8.738,8.738,0,0,0,.352-1.24q.083-.454.112-.8Q-17.008-2.827-17.008-2.661ZM-.969-8.618q.068,0,.068.059a.137.137,0,0,1-.049.093A6.2,6.2,0,0,0-3.068-3.8,6.133,6.133,0,0,0-.988.83Q-.9.923-.9.962q0,.059-.049.059A.258.258,0,0,1-1.081.962,6.942,6.942,0,0,1-3.093-1.191,5.094,5.094,0,0,1-3.811-3.8a5.094,5.094,0,0,1,.718-2.607A7,7,0,0,1-1.071-8.569.341.341,0,0,1-.969-8.618ZM3.415-3.652q.361-.117,1.021-.366a.037.037,0,0,1,.015,0q.054,0,.054.073a.044.044,0,0,1-.015.039,7.557,7.557,0,0,1-1.074.747q.01,1.8.01,3.574,0,.43-.576.43-.41,0-.41-.332,0-.151.01-1.216.015-1.021.02-1.934-.156.078-.8.381-.029.356-.2.356-.117,0-.229-.244-.1-.215-.332-.923a6.43,6.43,0,0,0,.913-.142q.171-.034.659-.161v-.747l.01-1.621h-.64A6.141,6.141,0,0,1,.969-4.189a.063.063,0,0,1-.054.02q-.059,0-.059-.039a.037.037,0,0,1,0-.015A11.245,11.245,0,0,0,1.286-6.26a7.728,7.728,0,0,0,.1-1.211q1.011.234,1.1.41v-.22q0-.684-.039-1.113.962.112,1.143.161t.166.161q0,.137-.342.278v1.821h.19q.391-.5.518-.5a1.581,1.581,0,0,1,.522.361q.21.176.21.269t-.132.1H3.415ZM1.926-5.972h.562v-1a.707.707,0,0,1-.3.161Q2.009-6.2,1.926-5.972ZM6.232-4.951V-6.5H5.114a3.559,3.559,0,0,0-.571.059l-.112-.366a3.021,3.021,0,0,0,.664.078H6.232v-.84a7.949,7.949,0,0,0-.039-.8,5.94,5.94,0,0,1,1.152.176q.171.059.171.151,0,.151-.322.273v1.04h.991q.513-.62.64-.62a2.216,2.216,0,0,1,.64.439q.278.225.278.313t-.127.1H7.194v1.548H8.615q.513-.63.64-.63a2.458,2.458,0,0,1,.659.439q.288.234.288.322t-.127.1H4.694a3.81,3.81,0,0,0-.6.059l-.112-.366a3.219,3.219,0,0,0,.679.078ZM8.5-3.052v1.2L8.527-.293A1.6,1.6,0,0,1,8.474.19.763.763,0,0,1,8.3.459,1.246,1.246,0,0,1,7.326.83.164.164,0,0,1,7.185.781a.8.8,0,0,1-.068-.21A.69.69,0,0,0,6.779.1a3.235,3.235,0,0,0-.752-.259q-.039-.01-.039-.068t.039-.054q.659.044,1.372.044.171,0,.171-.161V-3.052H4.821a3.845,3.845,0,0,0-.591.059l-.112-.366a3.2,3.2,0,0,0,.674.078H7.57V-3.7a7.5,7.5,0,0,0-.049-.8A10.128,10.128,0,0,1,8.6-4.36q.225.054.225.161,0,.127-.322.278v.64h.317q.435-.591.562-.591t.562.42q.22.22.22.3t-.132.1ZM6.545-1.411q0,.6-.518.6A.354.354,0,0,1,5.7-.952a2.11,2.11,0,0,1-.171-.508,1.846,1.846,0,0,0-.576-1,.042.042,0,0,1-.015-.029q0-.044.054-.044h.015a2.5,2.5,0,0,1,1.2.459A.829.829,0,0,1,6.545-1.411Zm7.25-4.209a7.922,7.922,0,0,1-1.387.825.02.02,0,0,1-.015,0q-.068,0-.068-.083A.033.033,0,0,1,12.34-4.9a7.67,7.67,0,0,0,1.929-2.329,6.748,6.748,0,0,0,.537-1.289,8.4,8.4,0,0,1,1.074.352q.2.093.2.2,0,.151-.41.239l-.2.332h1.5q.459-.459.557-.459a2.072,2.072,0,0,1,.645.449q.269.229.269.332a.19.19,0,0,1-.107.186,2.2,2.2,0,0,1-.405.1,10.729,10.729,0,0,1-1.26,1.113h1.992q.4-.449.508-.449a1.627,1.627,0,0,1,.562.352q.229.176.229.278,0,.073-.269.3v.42l.039,2.119q0,.4-.62.4-.371,0-.371-.3v-.181H14.186a3.786,3.786,0,0,0-.669.068L13.4-3.037a4.779,4.779,0,0,0,.762.068h4.57V-4.111H14.4a3.628,3.628,0,0,0-.659.068l-.107-.366a4.707,4.707,0,0,0,.747.068h4.36V-5.449H14.625a3.4,3.4,0,0,0-.757.088Zm.151-.107a3.957,3.957,0,0,0,.64.049h1.763q.283-.513.386-.742.078-.186.283-.752H15.309A6.73,6.73,0,0,1,13.946-5.728Zm6.9,5.288a.692.692,0,0,1-.161.479A.449.449,0,0,1,20.338.2.373.373,0,0,1,20,.044a1.519,1.519,0,0,1-.171-.532,2.88,2.88,0,0,0-.664-1.279.06.06,0,0,1-.01-.034.052.052,0,0,1,.059-.059h.01Q20.851-1.387,20.851-.439Zm-3.3-.942a.557.557,0,0,1-.156.42.492.492,0,0,1-.356.132.315.315,0,0,1-.259-.107,2.165,2.165,0,0,1-.21-.415,2.005,2.005,0,0,0-.225-.425,4.6,4.6,0,0,0-.356-.4.042.042,0,0,1-.02-.034q0-.044.059-.044Q17.55-2.134,17.55-1.382Zm-4-.62a2.739,2.739,0,0,1,.117.791A1.827,1.827,0,0,1,13.39-.156a.782.782,0,0,1-.669.376.512.512,0,0,1-.405-.166.521.521,0,0,1-.127-.361A.444.444,0,0,1,12.3-.62a1.029,1.029,0,0,1,.322-.22,1.343,1.343,0,0,0,.62-.469,1.445,1.445,0,0,0,.19-.679q0-.044.063-.044T13.551-2ZM19.068-.078q0,.342-.488.5A8.914,8.914,0,0,1,16.339.6,3.056,3.056,0,0,1,14.664.308,1,1,0,0,1,14.4-.508l.02-1.03a4.942,4.942,0,0,0-.049-.742,8.356,8.356,0,0,1,1.045.122q.244.063.244.166t-.288.264v1.2a.266.266,0,0,0,.249.278,7.124,7.124,0,0,0,1.04.044,8.54,8.54,0,0,0,.874-.029,1,1,0,0,0,.449-.151A.955.955,0,0,0,18.3-.83q.083-.21.234-.742a.045.045,0,0,1,.049-.029q.073,0,.073.049-.02.522-.02.811a.422.422,0,0,0,.039.234.877.877,0,0,0,.22.127A.289.289,0,0,1,19.068-.078Zm3.9-8.54a.341.341,0,0,1,.1.049,7,7,0,0,1,2.021,2.163A5.094,5.094,0,0,1,25.811-3.8a5.094,5.094,0,0,1-.718,2.607A6.942,6.942,0,0,1,23.081.962a.258.258,0,0,1-.132.059q-.049,0-.049-.059,0-.039.088-.132A6.133,6.133,0,0,0,25.068-3.8a6.2,6.2,0,0,0-2.119-4.668A.137.137,0,0,1,22.9-8.56Q22.9-8.618,22.969-8.618Z" transform="translate(266 2276.146)" fill="#fff"/>
    <path id="パス_12685-6" data-name="パス 12685" d="M-3876,12067h22.195" transform="translate(12289 6142.146) rotate(90)" fill="none" stroke="#fff" stroke-width="1"/>
    <path id="パス_13620" data-name="パス 13620" d="M4,0,8,4.073H0Z" transform="translate(226 2291.22) rotate(180)" fill="#fff"/>
    <path id="パス_13621" data-name="パス 13621" d="M0,0H280V24H0Z" transform="translate(48 2234.146)" fill="#fff"/>
    <path id="パス_13622" data-name="パス 13622" d="M-6.055-3.855v1.2l.035,2.5a1.165,1.165,0,0,1-.129.6,1,1,0,0,1-.369.328A2.019,2.019,0,0,1-7.444.99q-.193,0-.223-.035a.609.609,0,0,1-.064-.24A.758.758,0,0,0-8.088.146a3.477,3.477,0,0,0-.937-.352q-.041-.012-.041-.082t.041-.076q.844.082,1.646.082.158,0,.158-.176v-3.4H-9.114v.082a.484.484,0,0,1-.176.434.854.854,0,0,1-.486.105q-.5,0-.5-.434l.053-2.344q0-.674-.053-1.207a10.478,10.478,0,0,1,1.271.6h4.734q.475-.527.6-.527A2.1,2.1,0,0,1-3-6.715q.275.223.275.346,0,.158-.34.346v.4l.041,2q0,.469-.662.469A.528.528,0,0,1-4.1-3.281a.637.637,0,0,1-.088-.393v-.182Zm1.869-.275V-6.346H-9.114v2.215Zm-3.059-4.09V-9.264a6.44,6.44,0,0,0-.07-.791A7.4,7.4,0,0,1-5.9-9.844q.211.07.211.182,0,.146-.387.3v1.137h2.842q.773-.826.914-.826a2.968,2.968,0,0,1,.814.574q.352.3.352.41t-.158.117h-9.721a6.267,6.267,0,0,0-.838.07l-.135-.439a5.382,5.382,0,0,0,.973.094ZM-1.965-.48A.749.749,0,0,1-2.17.064.6.6,0,0,1-2.6.24.537.537,0,0,1-3.067.023,7.359,7.359,0,0,1-3.582-.984,5.8,5.8,0,0,0-5.018-2.707a.039.039,0,0,1-.018-.035q0-.088.07-.088h.018Q-1.965-1.734-1.965-.48ZM-8.118-2.086q0,.182-.557.217A7.881,7.881,0,0,1-10.18-.486a9.46,9.46,0,0,1-1.676.85.024.024,0,0,1-.018.006q-.1,0-.1-.105a.04.04,0,0,1,.012-.029A8.421,8.421,0,0,0-9.9-2.039a5.033,5.033,0,0,0,.41-.855,12.467,12.467,0,0,1,1.131.527Q-8.118-2.221-8.118-2.086ZM5.434-5.965H6q.521-.656.674-.656.117,0,.633.469.264.24.264.346t-.152.117H5.205A14.647,14.647,0,0,1,3.594-4.1H5.422q.428-.516.563-.516a1.866,1.866,0,0,1,.633.41q.252.217.252.334,0,.1-.287.3v.633L6.618.346Q6.618.8,5.973.8q-.457,0-.457-.41v-.3h-2.2V.451q0,.48-.656.48-.457,0-.457-.422l.047-2.238q0-.914-.012-1.377a13.461,13.461,0,0,1-1.2.686.017.017,0,0,1-.012.006q-.076,0-.076-.105a.046.046,0,0,1,.018-.041Q1.69-3.1,2.241-3.6L2.217-4.67q.369.158.756.352a14.356,14.356,0,0,0,1.2-1.371H1.989a5.817,5.817,0,0,0-.8.07l-.135-.439a4.724,4.724,0,0,0,.9.094H3.225V-7.822H2.346a4.167,4.167,0,0,0-.68.07L1.532-8.2a3.857,3.857,0,0,0,.826.1h.867v-.814a10.928,10.928,0,0,0-.059-1.1q1.488.146,1.488.375,0,.141-.387.322V-8.1H4.5q.357-.492.516-.492.117,0,.48.346a.616.616,0,0,1,.193.287L5.862-8.3a9.394,9.394,0,0,0,.5-1.213,9.984,9.984,0,0,1,1.066.539q.182.117.182.229,0,.24-.428.24A17.687,17.687,0,0,1,5.434-5.965Zm-1.049,0A15.992,15.992,0,0,0,5.621-7.834a.244.244,0,0,1-.094.012H4.268v1.857ZM5.516-.182V-1.957h-2.2V-.182Zm0-2.051V-3.826h-2.2v1.594Zm6.615-6.615a.165.165,0,0,1-.088.158,1.1,1.1,0,0,1-.322.111q-.574,1.025-.914,1.547-.322.492-1.049,1.512a6.138,6.138,0,0,1,1.787,1.605,2.727,2.727,0,0,1,.428,1.523,1.615,1.615,0,0,1-.527,1.324,1.389,1.389,0,0,1-.926.311q-.158,0-.205-.07a1.068,1.068,0,0,1-.094-.3.632.632,0,0,0-.363-.428,4.53,4.53,0,0,0-.82-.287q-.047-.012-.047-.094t.047-.088q.645.047,1.377.047a.433.433,0,0,0,.328-.094q.129-.117.129-.732A3.4,3.4,0,0,0,9.477-5.461a25.457,25.457,0,0,0,1.084-3.492H8.856V-1.2L8.879.539q0,.48-.686.48-.428,0-.428-.41L7.8-6.035q0-2.889-.059-3.768.668.287,1.207.574h1.576q.5-.539.621-.539t.7.527Q12.131-8.971,12.131-8.848Z" transform="translate(188 2251.146)" fill="#111"/>
    <path id="パス_13623" data-name="パス 13623" d="M-9.7-4.79a13.992,13.992,0,0,1-.21,2.119,5.64,5.64,0,0,1-.811,2.129A4.826,4.826,0,0,1-11.977.693.043.043,0,0,1-12,.7a.109.109,0,0,1-.073-.039A.093.093,0,0,1-12.1.6a.043.043,0,0,1,0-.02,5.641,5.641,0,0,0,1.011-1.733,9.425,9.425,0,0,0,.43-2.075Q-10.58-4-10.58-6.04q0-.576-.063-1.309.742.308,1.05.459a5.763,5.763,0,0,0,1.3-.859,3.953,3.953,0,0,0,.552-.542q1,.591,1,.781,0,.132-.254.132-.078,0-.186-.01a8.571,8.571,0,0,1-2.49.757v.239q0,.571-.02,1.372h2.007q.474-.6.6-.6a2.147,2.147,0,0,1,.6.42q.259.215.259.313t-.127.1H-7.714v1.86l.02,3.418q0,.361-.566.361-.4,0-.4-.3l.039-2.563V-4.79ZM-13.7-1.66a7.3,7.3,0,0,1-1,1.055,6.157,6.157,0,0,1-1,.645h-.01q-.068,0-.068-.088a.033.033,0,0,1,.01-.024,9.741,9.741,0,0,0,1.191-1.484A8.542,8.542,0,0,0-13.847-3h-.962a3.92,3.92,0,0,0-.61.059l-.107-.366a3.173,3.173,0,0,0,.679.078h1.128v-.3q0-.327-.039-.791a5.922,5.922,0,0,1,.933.122q.22.063.22.166,0,.122-.283.239v.562h.7q.415-.508.537-.508a1.565,1.565,0,0,1,.542.361q.229.181.229.278t-.132.1h-1.88v.488q1.465.278,1.465,1.035a.482.482,0,0,1-.137.356.384.384,0,0,1-.283.112.377.377,0,0,1-.293-.112,1.136,1.136,0,0,1-.181-.356,2.034,2.034,0,0,0-.571-.884v.41l.034,2.422q0,.391-.537.391A.418.418,0,0,1-13.7.771a.381.381,0,0,1-.073-.264q0-.068.034-.884Q-13.71-1.118-13.7-1.66Zm-.024-5.278V-7.6q0-.376-.029-.752,1.226.1,1.226.269,0,.132-.312.249v.894h.659q.366-.513.5-.513a1.715,1.715,0,0,1,.532.361q.22.19.22.278t-.132.1h-3.55a3.881,3.881,0,0,0-.6.059l-.107-.371a2.994,2.994,0,0,0,.679.083Zm.664,2.207a10.8,10.8,0,0,0,.4-1.211,6.84,6.84,0,0,0,.117-.679q1.094.322,1.094.518,0,.146-.361.171a9.932,9.932,0,0,1-.991,1.2h.64q.474-.581.6-.581a2.02,2.02,0,0,1,.581.4q.249.22.249.313t-.132.1h-3.989a3.845,3.845,0,0,0-.591.059l-.107-.366a3.356,3.356,0,0,0,.688.078Zm-.508-.718a.528.528,0,0,1-.142.391.409.409,0,0,1-.308.127.3.3,0,0,1-.3-.137,2.123,2.123,0,0,1-.117-.542,2.094,2.094,0,0,0-.259-.806.033.033,0,0,1-.01-.024.052.052,0,0,1,.059-.059.043.043,0,0,1,.02,0Q-13.563-6.1-13.563-5.449ZM2.031-7.441A6.118,6.118,0,0,1-.5-4.8a.02.02,0,0,1-.015,0Q-.6-4.8-.6-4.863a.028.028,0,0,1,.01-.02,7.749,7.749,0,0,0,1.5-2.3A5.364,5.364,0,0,0,1.318-8.4a10.211,10.211,0,0,1,1.04.342q.2.093.2.186,0,.161-.41.19l-.01.02A4.064,4.064,0,0,0,3.262-6.548,6.069,6.069,0,0,0,4.868-5.8a.042.042,0,0,1,.034.044.069.069,0,0,1-.044.068.8.8,0,0,0-.5.62q-.063.249-.132.249a.832.832,0,0,1-.308-.151,7.035,7.035,0,0,1-.933-.83A5.119,5.119,0,0,1,2.031-7.441ZM-2-5.562h.332q.361-.4.469-.4t.5.332q.2.171.2.269t-.239.239v.4L-.732-2.7q0,.352-.5.352-.371,0-.371-.278v-.112h-.381v1.3h.42q.4-.537.532-.537A1.946,1.946,0,0,1-.449-1.6Q-.2-1.4-.2-1.309t-.132.1h-1.65q0,.322.02,1.1.01.5.01.64,0,.352-.537.352-.4,0-.4-.3l.039-1.562v-.229H-3.9a3.881,3.881,0,0,0-.6.059l-.107-.366A3.439,3.439,0,0,0-3.9-1.44h1.05v-1.3H-3.33v.112q0,.317-.488.317a.477.477,0,0,1-.308-.073A.272.272,0,0,1-4.2-2.6l.039-1.943q0-.737-.029-1.47a7.021,7.021,0,0,1,.918.449h.4V-6.753h-.991a3.473,3.473,0,0,0-.566.059l-.112-.366a3.172,3.172,0,0,0,.679.078h.991V-7.52A8.627,8.627,0,0,0-2.91-8.4q1.206.117,1.206.308,0,.132-.3.249v.859h.449q.42-.557.552-.557a2.065,2.065,0,0,1,.6.4q.249.19.249.293t-.132.1H-2ZM-3.33-2.969H-1.6V-4.062H-3.33ZM-1.6-4.292v-1.04H-3.33v1.04Zm3.833,1.68q0,.635.024,1.929.015.923.015,1.152,0,.41-.566.41-.42,0-.42-.332L1.323-1.8v-.811H.225a3.92,3.92,0,0,0-.61.059L-.5-2.92a3.18,3.18,0,0,0,.669.078H1.323v-1.9H.732a3.2,3.2,0,0,0-.547.059L.073-5.049a2.716,2.716,0,0,0,.62.078h1.67q.4-.542.527-.542.1,0,.522.381.21.2.21.288t-.132.1H2.231v1.9h.8q.483-.61.61-.61a2.154,2.154,0,0,1,.63.43q.269.215.269.313t-.132.1ZM12.958-3.7l.02,1.973L13.007-.1a.9.9,0,0,1-.269.688,1.064,1.064,0,0,1-.723.229A.211.211,0,0,1,11.84.762a.567.567,0,0,1-.073-.21.566.566,0,0,0-.239-.4,2.851,2.851,0,0,0-.669-.234q-.034-.01-.034-.059T10.868-.2q.7.059,1.079.059.166,0,.181-.19V-2.549a.533.533,0,0,1-.259.132,4.867,4.867,0,0,1-1.055,1.67A5.7,5.7,0,0,1,9.267.293a.02.02,0,0,1-.015,0Q9.174.3,9.174.225a.028.028,0,0,1,.01-.02,5.49,5.49,0,0,0,1.772-2.9h-.562a2.234,2.234,0,0,0-.581.083L9.706-3a3,3,0,0,0,.659.078h.552q.356-.439.469-.439t.552.41a1,1,0,0,1,.19.21v-1.45H11.4v.1q0,.347-.508.347-.361,0-.361-.288l.039-2.231q0-.8-.039-1.44a9.279,9.279,0,0,1,.981.488h.459q.073-.371.093-.518.044-.332.059-.7,1.191.288,1.191.459t-.352.171a6.086,6.086,0,0,1-.63.586h1.348q.43-.449.532-.449t.532.361q.22.19.22.288a.173.173,0,0,1-.042.12,2.342,2.342,0,0,1-.251.2v.41l.039,2.148a.3.3,0,0,1-.181.3q.64.381.82.518t.171.21q0,.156-.41.181a9.967,9.967,0,0,1-1.289.732A4.341,4.341,0,0,0,15.775-.84q.034.015.034.039t-.034.049a1.384,1.384,0,0,0-.591.771q-.083.269-.2.269-.088,0-.259-.171A5.158,5.158,0,0,1,13.6-1.4,8.985,8.985,0,0,1,12.958-3.7ZM13.7-2.358a5.36,5.36,0,0,0,.464-.669,3.643,3.643,0,0,0,.347-.791.853.853,0,0,1-.3.049.463.463,0,0,1-.327-.088.337.337,0,0,1-.073-.244v-.088h-.82A5.186,5.186,0,0,0,13.7-2.358Zm.112-2.061V-5.64H11.4v1.221Zm0-1.45V-6.982H11.4v1.113Zm-5.85,2.3q-.151.029-.444.093-.352.078-.474.107-.088.278-.21.278T6.645-3.33q-.068-.225-.186-.85.249.02.518.02h.532a12.859,12.859,0,0,0,1-1.812,6.509,6.509,0,0,0,.41-1.079q1.089.5,1.089.688,0,.166-.391.151-.576.776-.913,1.157-.312.347-.889.894.542-.01,1.572-.049a2.618,2.618,0,0,0-.352-.8.047.047,0,0,1-.01-.024q0-.044.063-.044a.054.054,0,0,1,.024,0q1.133.635,1.133,1.313a.6.6,0,0,1-.146.415.379.379,0,0,1-.293.146.283.283,0,0,1-.264-.161,1.537,1.537,0,0,1-.107-.522l-.01-.1q-.542.181-.649.21v1.392L8.808.469q0,.391-.508.391-.4,0-.4-.322.059-1.24.059-2.178V-2.29a.582.582,0,0,1-.259.1A6.987,6.987,0,0,1,6.459.083.038.038,0,0,1,6.425.1Q6.347.1,6.347.039a.02.02,0,0,1,0-.015,10.633,10.633,0,0,0,.415-1.636,6.929,6.929,0,0,0,.142-1.25,4.279,4.279,0,0,1,1.05.391ZM7.45-6.528q.146-.386.327-1,.132-.527.19-.889,1.187.42,1.187.586t-.4.171A14.892,14.892,0,0,1,7.67-6.4a.866.866,0,0,1,.425.742.575.575,0,0,1-.146.41.4.4,0,0,1-.3.137.289.289,0,0,1-.264-.107A2.381,2.381,0,0,1,7.2-5.713,2.257,2.257,0,0,0,6.61-6.724.047.047,0,0,1,6.6-6.758q0-.078.073-.063A4.4,4.4,0,0,1,7.45-6.528Zm2.607,5a.658.658,0,0,1-.137.439A.4.4,0,0,1,9.6-.952a.271.271,0,0,1-.273-.181,1.827,1.827,0,0,1-.078-.479,2.841,2.841,0,0,0-.3-1.211.02.02,0,0,1,0-.015q0-.044.054-.044a.053.053,0,0,1,.029.01Q10.058-2.158,10.058-1.533Z" transform="translate(216 2218.072)" fill="#fff"/>
    <path id="パス_12685-7" data-name="パス 12685" d="M-3876,12067h22.195" transform="translate(12255 6077.073) rotate(90)" fill="none" stroke="#fff" stroke-width="1"/>
    <path id="パス_13624" data-name="パス 13624" d="M4,0,8,4.073H0Z" transform="translate(192 2226.146) rotate(180)" fill="#fff"/>
    <path id="パス_13625" data-name="パス 13625" d="M0,0H280V24H0Z" transform="translate(48 2169.073)" fill="#fff"/>
    <path id="パス_13626" data-name="パス 13626" d="M-13.968-8.414h2.473q.568-.609.691-.609t.732.539q.3.264.3.393a.2.2,0,0,1-.105.193,2.537,2.537,0,0,1-.422.158,12.617,12.617,0,0,1-4.125,4.248l.023.012h4.008q.5-.574.633-.574a2,2,0,0,1,.674.457q.275.24.275.357t-.334.346v.568L-9.1.492q0,.469-.721.469a.567.567,0,0,1-.4-.105.438.438,0,0,1-.094-.316V.229h-4.172V.516q0,.469-.686.469a.556.556,0,0,1-.4-.111.43.43,0,0,1-.1-.322q.076-1.2.076-2.965a4.094,4.094,0,0,0-.018-.445,17.93,17.93,0,0,1-2.93,1.1q-.082.018-.082-.1A.047.047,0,0,1-18.6-1.91a15.459,15.459,0,0,0,4.395-2.807.756.756,0,0,1-.129.023q-.346,0-.5-.586A3.1,3.1,0,0,0-15.6-6.65,11.249,11.249,0,0,1-18.21-5.086a.045.045,0,0,1-.018.006.083.083,0,0,1-.094-.094.04.04,0,0,1,.012-.029,10.816,10.816,0,0,0,3.07-3.3,7.251,7.251,0,0,0,.756-1.611,7.971,7.971,0,0,1,1.225.34q.24.111.24.258,0,.2-.457.322Q-13.628-8.924-13.968-8.414Zm-.205.275a9.423,9.423,0,0,1-1.283,1.371,3.013,3.013,0,0,1,1.289.627,1.019,1.019,0,0,1,.393.762.7.7,0,0,1-.076.328,12.629,12.629,0,0,0,2.414-3.088Zm3.861,8.092V-3.205h-4.172V-.047ZM.469-6.814v2.76H2.4q.516-.609.645-.609a2.337,2.337,0,0,1,.732.5q.311.264.311.381,0,.164-.393.387v1L3.732.527q0,.492-.744.492Q2.5,1.02,2.5.6V.082h-5.08V.551q0,.469-.744.469-.48,0-.48-.41l.035-3.932q0-.779-.035-1.418.721.328,1.342.686H-.709v-2.76H-4.324a8.62,8.62,0,0,0-.984.07l-.129-.439a6.361,6.361,0,0,0,1.055.094H-.709V-8.648a13.193,13.193,0,0,0-.059-1.395Q.9-9.9.9-9.656q0,.205-.434.346V-7.09H3.3q.744-.891.891-.891a3.631,3.631,0,0,1,.885.615q.4.316.4.434t-.158.117ZM2.5-.193V-3.779h-5.08V-.193Zm9.813-3.779h.539Q14.975-4,15.837-4.09a3.139,3.139,0,0,0-1.125-1,.034.034,0,0,1-.018-.029.106.106,0,0,1,.035-.076.075.075,0,0,1,.064-.029q2.648.463,2.648,1.705a.733.733,0,0,1-.144.469.453.453,0,0,1-.372.182.488.488,0,0,1-.369-.146,3.457,3.457,0,0,1-.387-.562l-.129-.217A39.767,39.767,0,0,1,11-2.936q-.129.381-.3.381-.135,0-.223-.3-.082-.258-.27-1.166.557.047,1.043.047h.539a8.655,8.655,0,0,0,.422-1.605H9.9a15.532,15.532,0,0,1-.4,2.953A8.027,8.027,0,0,1,7.692.709a.04.04,0,0,1-.029.012A.083.083,0,0,1,7.569.627.045.045,0,0,1,7.575.609a10.458,10.458,0,0,0,.967-3.275A38.453,38.453,0,0,0,8.794-7.74q0-1.143-.059-2.279.779.352,1.383.686h6.428q.5-.586.633-.586t.662.457q.264.229.264.346,0,.176-.334.381v.41l.023,1.184q0,.41-.674.41a.528.528,0,0,1-.387-.1.537.537,0,0,1-.094-.357H9.96L9.925-5.854h6.691q.516-.7.674-.7a2.77,2.77,0,0,1,.779.492q.334.252.334.363t-.158.117H13.581A8.6,8.6,0,0,1,12.309-3.973Zm4.33-3.492V-9.059H9.971v1.594ZM14.179-1.43V.264h2.279q.68-.838.826-.838a3.6,3.6,0,0,1,.879.586q.381.3.381.41t-.152.117h-8.35a5.868,5.868,0,0,0-.814.07L9.093.17a6.3,6.3,0,0,0,1.043.094h2.93V-1.43H11.143a6.735,6.735,0,0,0-.873.07L10.136-1.8a7.6,7.6,0,0,0,1.154.094h1.775v-.586a5.2,5.2,0,0,0-.07-.879q1.541.146,1.541.387,0,.152-.357.3v.779h1.787q.6-.686.744-.686a2.829,2.829,0,0,1,.785.48q.334.252.334.363t-.158.117Z" transform="translate(188 2186.073)" fill="#111"/>
    <path id="パス_13627" data-name="パス 13627" d="M-9.7-4.79a13.992,13.992,0,0,1-.21,2.119,5.64,5.64,0,0,1-.811,2.129A4.826,4.826,0,0,1-11.977.693.043.043,0,0,1-12,.7a.109.109,0,0,1-.073-.039A.093.093,0,0,1-12.1.6a.043.043,0,0,1,0-.02,5.641,5.641,0,0,0,1.011-1.733,9.425,9.425,0,0,0,.43-2.075Q-10.58-4-10.58-6.04q0-.576-.063-1.309.742.308,1.05.459a5.763,5.763,0,0,0,1.3-.859,3.953,3.953,0,0,0,.552-.542q1,.591,1,.781,0,.132-.254.132-.078,0-.186-.01a8.571,8.571,0,0,1-2.49.757v.239q0,.571-.02,1.372h2.007q.474-.6.6-.6a2.147,2.147,0,0,1,.6.42q.259.215.259.313t-.127.1H-7.714v1.86l.02,3.418q0,.361-.566.361-.4,0-.4-.3l.039-2.563V-4.79ZM-13.7-1.66a7.3,7.3,0,0,1-1,1.055,6.157,6.157,0,0,1-1,.645h-.01q-.068,0-.068-.088a.033.033,0,0,1,.01-.024,9.741,9.741,0,0,0,1.191-1.484A8.542,8.542,0,0,0-13.847-3h-.962a3.92,3.92,0,0,0-.61.059l-.107-.366a3.173,3.173,0,0,0,.679.078h1.128v-.3q0-.327-.039-.791a5.922,5.922,0,0,1,.933.122q.22.063.22.166,0,.122-.283.239v.562h.7q.415-.508.537-.508a1.565,1.565,0,0,1,.542.361q.229.181.229.278t-.132.1h-1.88v.488q1.465.278,1.465,1.035a.482.482,0,0,1-.137.356.384.384,0,0,1-.283.112.377.377,0,0,1-.293-.112,1.136,1.136,0,0,1-.181-.356,2.034,2.034,0,0,0-.571-.884v.41l.034,2.422q0,.391-.537.391A.418.418,0,0,1-13.7.771a.381.381,0,0,1-.073-.264q0-.068.034-.884Q-13.71-1.118-13.7-1.66Zm-.024-5.278V-7.6q0-.376-.029-.752,1.226.1,1.226.269,0,.132-.312.249v.894h.659q.366-.513.5-.513a1.715,1.715,0,0,1,.532.361q.22.19.22.278t-.132.1h-3.55a3.881,3.881,0,0,0-.6.059l-.107-.371a2.994,2.994,0,0,0,.679.083Zm.664,2.207a10.8,10.8,0,0,0,.4-1.211,6.84,6.84,0,0,0,.117-.679q1.094.322,1.094.518,0,.146-.361.171a9.932,9.932,0,0,1-.991,1.2h.64q.474-.581.6-.581a2.02,2.02,0,0,1,.581.4q.249.22.249.313t-.132.1h-3.989a3.845,3.845,0,0,0-.591.059l-.107-.366a3.356,3.356,0,0,0,.688.078Zm-.508-.718a.528.528,0,0,1-.142.391.409.409,0,0,1-.308.127.3.3,0,0,1-.3-.137,2.123,2.123,0,0,1-.117-.542,2.094,2.094,0,0,0-.259-.806.033.033,0,0,1-.01-.024.052.052,0,0,1,.059-.059.043.043,0,0,1,.02,0Q-13.563-6.1-13.563-5.449ZM2.031-7.441A6.118,6.118,0,0,1-.5-4.8a.02.02,0,0,1-.015,0Q-.6-4.8-.6-4.863a.028.028,0,0,1,.01-.02,7.749,7.749,0,0,0,1.5-2.3A5.364,5.364,0,0,0,1.318-8.4a10.211,10.211,0,0,1,1.04.342q.2.093.2.186,0,.161-.41.19l-.01.02A4.064,4.064,0,0,0,3.262-6.548,6.069,6.069,0,0,0,4.868-5.8a.042.042,0,0,1,.034.044.069.069,0,0,1-.044.068.8.8,0,0,0-.5.62q-.063.249-.132.249a.832.832,0,0,1-.308-.151,7.035,7.035,0,0,1-.933-.83A5.119,5.119,0,0,1,2.031-7.441ZM-2-5.562h.332q.361-.4.469-.4t.5.332q.2.171.2.269t-.239.239v.4L-.732-2.7q0,.352-.5.352-.371,0-.371-.278v-.112h-.381v1.3h.42q.4-.537.532-.537A1.946,1.946,0,0,1-.449-1.6Q-.2-1.4-.2-1.309t-.132.1h-1.65q0,.322.02,1.1.01.5.01.64,0,.352-.537.352-.4,0-.4-.3l.039-1.562v-.229H-3.9a3.881,3.881,0,0,0-.6.059l-.107-.366A3.439,3.439,0,0,0-3.9-1.44h1.05v-1.3H-3.33v.112q0,.317-.488.317a.477.477,0,0,1-.308-.073A.272.272,0,0,1-4.2-2.6l.039-1.943q0-.737-.029-1.47a7.021,7.021,0,0,1,.918.449h.4V-6.753h-.991a3.473,3.473,0,0,0-.566.059l-.112-.366a3.172,3.172,0,0,0,.679.078h.991V-7.52A8.627,8.627,0,0,0-2.91-8.4q1.206.117,1.206.308,0,.132-.3.249v.859h.449q.42-.557.552-.557a2.065,2.065,0,0,1,.6.4q.249.19.249.293t-.132.1H-2ZM-3.33-2.969H-1.6V-4.062H-3.33ZM-1.6-4.292v-1.04H-3.33v1.04Zm3.833,1.68q0,.635.024,1.929.015.923.015,1.152,0,.41-.566.41-.42,0-.42-.332L1.323-1.8v-.811H.225a3.92,3.92,0,0,0-.61.059L-.5-2.92a3.18,3.18,0,0,0,.669.078H1.323v-1.9H.732a3.2,3.2,0,0,0-.547.059L.073-5.049a2.716,2.716,0,0,0,.62.078h1.67q.4-.542.527-.542.1,0,.522.381.21.2.21.288t-.132.1H2.231v1.9h.8q.483-.61.61-.61a2.154,2.154,0,0,1,.63.43q.269.215.269.313t-.132.1ZM12.958-3.7l.02,1.973L13.007-.1a.9.9,0,0,1-.269.688,1.064,1.064,0,0,1-.723.229A.211.211,0,0,1,11.84.762a.567.567,0,0,1-.073-.21.566.566,0,0,0-.239-.4,2.851,2.851,0,0,0-.669-.234q-.034-.01-.034-.059T10.868-.2q.7.059,1.079.059.166,0,.181-.19V-2.549a.533.533,0,0,1-.259.132,4.867,4.867,0,0,1-1.055,1.67A5.7,5.7,0,0,1,9.267.293a.02.02,0,0,1-.015,0Q9.174.3,9.174.225a.028.028,0,0,1,.01-.02,5.49,5.49,0,0,0,1.772-2.9h-.562a2.234,2.234,0,0,0-.581.083L9.706-3a3,3,0,0,0,.659.078h.552q.356-.439.469-.439t.552.41a1,1,0,0,1,.19.21v-1.45H11.4v.1q0,.347-.508.347-.361,0-.361-.288l.039-2.231q0-.8-.039-1.44a9.279,9.279,0,0,1,.981.488h.459q.073-.371.093-.518.044-.332.059-.7,1.191.288,1.191.459t-.352.171a6.086,6.086,0,0,1-.63.586h1.348q.43-.449.532-.449t.532.361q.22.19.22.288a.173.173,0,0,1-.042.12,2.342,2.342,0,0,1-.251.2v.41l.039,2.148a.3.3,0,0,1-.181.3q.64.381.82.518t.171.21q0,.156-.41.181a9.967,9.967,0,0,1-1.289.732A4.341,4.341,0,0,0,15.775-.84q.034.015.034.039t-.034.049a1.384,1.384,0,0,0-.591.771q-.083.269-.2.269-.088,0-.259-.171A5.158,5.158,0,0,1,13.6-1.4,8.985,8.985,0,0,1,12.958-3.7ZM13.7-2.358a5.36,5.36,0,0,0,.464-.669,3.643,3.643,0,0,0,.347-.791.853.853,0,0,1-.3.049.463.463,0,0,1-.327-.088.337.337,0,0,1-.073-.244v-.088h-.82A5.186,5.186,0,0,0,13.7-2.358Zm.112-2.061V-5.64H11.4v1.221Zm0-1.45V-6.982H11.4v1.113Zm-5.85,2.3q-.151.029-.444.093-.352.078-.474.107-.088.278-.21.278T6.645-3.33q-.068-.225-.186-.85.249.02.518.02h.532a12.859,12.859,0,0,0,1-1.812,6.509,6.509,0,0,0,.41-1.079q1.089.5,1.089.688,0,.166-.391.151-.576.776-.913,1.157-.312.347-.889.894.542-.01,1.572-.049a2.618,2.618,0,0,0-.352-.8.047.047,0,0,1-.01-.024q0-.044.063-.044a.054.054,0,0,1,.024,0q1.133.635,1.133,1.313a.6.6,0,0,1-.146.415.379.379,0,0,1-.293.146.283.283,0,0,1-.264-.161,1.537,1.537,0,0,1-.107-.522l-.01-.1q-.542.181-.649.21v1.392L8.808.469q0,.391-.508.391-.4,0-.4-.322.059-1.24.059-2.178V-2.29a.582.582,0,0,1-.259.1A6.987,6.987,0,0,1,6.459.083.038.038,0,0,1,6.425.1Q6.347.1,6.347.039a.02.02,0,0,1,0-.015,10.633,10.633,0,0,0,.415-1.636,6.929,6.929,0,0,0,.142-1.25,4.279,4.279,0,0,1,1.05.391ZM7.45-6.528q.146-.386.327-1,.132-.527.19-.889,1.187.42,1.187.586t-.4.171A14.892,14.892,0,0,1,7.67-6.4a.866.866,0,0,1,.425.742.575.575,0,0,1-.146.41.4.4,0,0,1-.3.137.289.289,0,0,1-.264-.107A2.381,2.381,0,0,1,7.2-5.713,2.257,2.257,0,0,0,6.61-6.724.047.047,0,0,1,6.6-6.758q0-.078.073-.063A4.4,4.4,0,0,1,7.45-6.528Zm2.607,5a.658.658,0,0,1-.137.439A.4.4,0,0,1,9.6-.952a.271.271,0,0,1-.273-.181,1.827,1.827,0,0,1-.078-.479,2.841,2.841,0,0,0-.3-1.211.02.02,0,0,1,0-.015q0-.044.054-.044a.053.053,0,0,1,.029.01Q10.058-2.158,10.058-1.533Z" transform="translate(216 2153)" fill="#fff"/>
    <path id="パス_12685-8" data-name="パス 12685" d="M-3876,12067h22.195" transform="translate(12255 6012) rotate(90)" fill="none" stroke="#fff" stroke-width="1"/>
    <path id="パス_13628" data-name="パス 13628" d="M4,0,8,4.073H0Z" transform="translate(192 2161.073) rotate(180)" fill="#fff"/>
    <path id="パス_13629" data-name="パス 13629" d="M0,0H280V24H0Z" transform="translate(48 2104)" fill="#914831"/>
    <path id="パス_13630" data-name="パス 13630" d="M-7.309-2.332A9.7,9.7,0,0,1-9.717-.445a13.316,13.316,0,0,1-2.6,1.02q-.029.006-.062-.038a.152.152,0,0,1-.032-.091A.042.042,0,0,1-12.383.4a10.162,10.162,0,0,0,4.377-3.6H-9.553v.117q0,.434-.656.434-.457,0-.457-.346.07-1.154.07-2.795,0-1.037-.07-1.74.627.252,1.219.539h2.1V-8.256h-3.7a7.746,7.746,0,0,0-.926.07l-.129-.439a6.361,6.361,0,0,0,1.055.094h3.7V-8.6a9.408,9.408,0,0,0-.082-1.477,11.785,11.785,0,0,1,1.307.193q.211.064.211.2t-.346.3v.85h2.988q.645-.756.791-.756a3.225,3.225,0,0,1,.844.527q.369.275.369.387t-.152.117h-4.84v1.271h2.332q.48-.469.6-.469a1.818,1.818,0,0,1,.639.422q.264.229.264.346,0,.146-.328.322v.545L-2.7-3.1q0,.434-.662.434a.53.53,0,0,1-.381-.1.434.434,0,0,1-.088-.311v-.117H-6.1a5.607,5.607,0,0,0,2.32,1.752A7.866,7.866,0,0,0-.981-.7q.047,0,.047.059t-.047.07a1.042,1.042,0,0,0-.768.785q-.07.346-.24.346A1.692,1.692,0,0,1-2.469.4,9.215,9.215,0,0,1-4.584-.914,8.273,8.273,0,0,1-6.3-3.1q.012.334.082,2.449.035,1.09.035,1.26,0,.445-.727.445-.492,0-.492-.387,0-.146.035-1.219Q-7.327-1.652-7.309-2.332Zm-.035-1.137V-5H-9.553v1.535Zm1.09,0h2.426V-5H-6.254Zm0-3.24v1.43h2.426v-1.43Zm-1.09,0H-9.553v1.43h2.209ZM7.145-3.855v1.2l.035,2.5a1.165,1.165,0,0,1-.129.6,1,1,0,0,1-.369.328A2.019,2.019,0,0,1,5.756.99q-.193,0-.223-.035a.609.609,0,0,1-.064-.24A.758.758,0,0,0,5.112.146a3.477,3.477,0,0,0-.937-.352q-.041-.012-.041-.082t.041-.076q.844.082,1.646.082.158,0,.158-.176v-3.4H4.086v.082a.484.484,0,0,1-.176.434.854.854,0,0,1-.486.105q-.5,0-.5-.434l.053-2.344q0-.674-.053-1.207a10.478,10.478,0,0,1,1.271.6H8.926q.475-.527.6-.527a2.1,2.1,0,0,1,.674.434q.275.223.275.346,0,.158-.34.346v.4l.041,2q0,.469-.662.469A.528.528,0,0,1,9.1-3.281a.637.637,0,0,1-.088-.393v-.182Zm1.869-.275V-6.346H4.086v2.215ZM5.955-8.221V-9.264a6.44,6.44,0,0,0-.07-.791A7.4,7.4,0,0,1,7.3-9.844q.211.07.211.182,0,.146-.387.3v1.137H9.963q.773-.826.914-.826a2.968,2.968,0,0,1,.814.574q.352.3.352.41t-.158.117H2.164a6.267,6.267,0,0,0-.838.07l-.135-.439a5.382,5.382,0,0,0,.973.094ZM11.235-.48a.749.749,0,0,1-.205.545A.6.6,0,0,1,10.6.24a.537.537,0,0,1-.463-.217A7.359,7.359,0,0,1,9.618-.984,5.8,5.8,0,0,0,8.182-2.707a.039.039,0,0,1-.018-.035q0-.088.07-.088h.018Q11.235-1.734,11.235-.48ZM5.082-2.086q0,.182-.557.217A7.881,7.881,0,0,1,3.02-.486a9.46,9.46,0,0,1-1.676.85.024.024,0,0,1-.018.006q-.1,0-.1-.105A.04.04,0,0,1,1.239.234,8.421,8.421,0,0,0,3.3-2.039a5.032,5.032,0,0,0,.41-.855,12.467,12.467,0,0,1,1.131.527Q5.082-2.221,5.082-2.086Z" transform="translate(188 2121)" fill="#fff"/>
  </g>
</svg>
